{"header":{"PPQ":480,"timeSignature":[4,4],"bpm":120,"name":""},"startTime":0.8031250000000001,"duration":126.09166666666438,"tracks":[{"startTime":0.8031250000000001,"duration":126.09166666666438,"length":1025,"notes":[{"name":"A3","midi":57,"time":0.8031250000000001,"velocity":0.30708661417322836,"duration":0.15729166666666683},{"name":"E4","midi":64,"time":0.9177083333333336,"velocity":0.31496062992125984,"duration":0.13124999999999987},{"name":"C5","midi":72,"time":1.0604166666666668,"velocity":0.29133858267716534,"duration":0.027083333333333348},{"name":"F4","midi":65,"time":1.1260416666666668,"velocity":0.4015748031496063,"duration":0.05312500000000009},{"name":"A3","midi":57,"time":1.2385416666666669,"velocity":0.33858267716535434,"duration":0.1968749999999999},{"name":"E4","midi":64,"time":1.3406250000000002,"velocity":0.29133858267716534,"duration":0.07604166666666656},{"name":"C5","midi":72,"time":1.5093750000000001,"velocity":0.25984251968503935,"duration":0.013541666666666563},{"name":"F4","midi":65,"time":1.58125,"velocity":0.25196850393700787,"duration":0.04166666666666674},{"name":"A3","midi":57,"time":1.6708333333333334,"velocity":0.31496062992125984,"duration":0.22395833333333326},{"name":"E4","midi":64,"time":1.7739583333333333,"velocity":0.36220472440944884,"duration":0.09270833333333339},{"name":"C5","midi":72,"time":1.953125,"velocity":0.25984251968503935,"duration":0.015625},{"name":"F4","midi":65,"time":2.028125,"velocity":0.28346456692913385,"duration":0.04583333333333339},{"name":"A3","midi":57,"time":2.1083333333333334,"velocity":0.31496062992125984,"duration":0.18333333333333313},{"name":"E4","midi":64,"time":2.21875,"velocity":0.30708661417322836,"duration":0.08333333333333304},{"name":"C5","midi":72,"time":2.3635416666666664,"velocity":0.33858267716535434,"duration":0.06458333333333321},{"name":"F4","midi":65,"time":2.4468749999999995,"velocity":0.3543307086614173,"duration":0.06562499999999982},{"name":"A3","midi":57,"time":2.5520833333333326,"velocity":0.3858267716535433,"duration":0.22916666666666652},{"name":"E4","midi":64,"time":2.654166666666666,"velocity":0.36220472440944884,"duration":0.08854166666666652},{"name":"C5","midi":72,"time":2.8052083333333324,"velocity":0.28346456692913385,"duration":0.09166666666666634},{"name":"A4","midi":69,"time":2.9281249999999988,"velocity":0.3228346456692913,"duration":0.038541666666666696},{"name":"A3","midi":57,"time":2.992708333333332,"velocity":0.2677165354330709,"duration":0.18541666666666679},{"name":"E4","midi":64,"time":3.1010416666666654,"velocity":0.33858267716535434,"duration":0.08437500000000009},{"name":"C5","midi":72,"time":3.2187499999999987,"velocity":0.3937007874015748,"duration":0.11354166666666687},{"name":"A4","midi":69,"time":3.3499999999999988,"velocity":0.3543307086614173,"duration":0.054166666666666696},{"name":"A3","midi":57,"time":3.4385416666666653,"velocity":0.4251968503937008,"duration":0.22291666666666643},{"name":"E4","midi":64,"time":3.5468749999999982,"velocity":0.2992125984251969,"duration":0.09166666666666679},{"name":"C5","midi":72,"time":3.6531249999999984,"velocity":0.3700787401574803,"duration":0.1020833333333333},{"name":"A4","midi":69,"time":3.7874999999999983,"velocity":0.3464566929133858,"duration":0.04999999999999982},{"name":"A3","midi":57,"time":3.871874999999998,"velocity":0.3543307086614173,"duration":0.1812499999999999},{"name":"E4","midi":64,"time":3.974999999999998,"velocity":0.31496062992125984,"duration":0.08437499999999964},{"name":"C5","midi":72,"time":4.097916666666664,"velocity":0.4094488188976378,"duration":0.09270833333333339},{"name":"A4","midi":69,"time":4.232291666666664,"velocity":0.3543307086614173,"duration":0.04583333333333339},{"name":"G3","midi":55,"time":4.312499999999997,"velocity":0.4409448818897638,"duration":0.24270833333333197},{"name":"E4","midi":64,"time":4.431249999999995,"velocity":0.3228346456692913,"duration":0.16979166666666767},{"name":"C5","midi":72,"time":4.529166666666662,"velocity":0.3700787401574803,"duration":0.10625000000000018},{"name":"A4","midi":69,"time":4.6822916666666625,"velocity":0.30708661417322836,"duration":0.03645833333333304},{"name":"G3","midi":55,"time":4.7604166666666625,"velocity":0.29133858267716534,"duration":0.20520833333333321},{"name":"E4","midi":64,"time":4.886458333333329,"velocity":0.2755905511811024,"duration":0.07500000000000018},{"name":"C5","midi":72,"time":4.999999999999996,"velocity":0.33858267716535434,"duration":0.07187500000000036},{"name":"A4","midi":69,"time":5.133333333333329,"velocity":0.30708661417322836,"duration":0.022916666666666252},{"name":"G3","midi":55,"time":5.2135416666666625,"velocity":0.4015748031496063,"duration":0.20729166666666643},{"name":"E4","midi":64,"time":5.330208333333329,"velocity":0.2677165354330709,"duration":0.10416666666666696},{"name":"C5","midi":72,"time":5.452083333333329,"velocity":0.3464566929133858,"duration":0.0625},{"name":"A4","midi":69,"time":5.548958333333329,"velocity":0.3543307086614173,"duration":0.060416666666666785},{"name":"G3","midi":55,"time":5.648958333333329,"velocity":0.3858267716535433,"duration":0.2041666666666675},{"name":"E4","midi":64,"time":5.78333333333333,"velocity":0.2677165354330709,"duration":0.05937500000000018},{"name":"C5","midi":72,"time":5.86770833333333,"velocity":0.3937007874015748,"duration":0.10312500000000036},{"name":"A4","midi":69,"time":5.988541666666664,"velocity":0.33858267716535434,"duration":0.06979166666666625},{"name":"G3","midi":55,"time":6.068749999999997,"velocity":0.3937007874015748,"duration":0.25729166666666803},{"name":"E4","midi":64,"time":6.201041666666664,"velocity":0.2992125984251969,"duration":0.10520833333333446},{"name":"B4","midi":71,"time":6.340624999999998,"velocity":0.2755905511811024,"duration":0.05833333333333357},{"name":"A4","midi":69,"time":6.460416666666665,"velocity":0.30708661417322836,"duration":0.028125000000000178},{"name":"G3","midi":55,"time":6.537499999999999,"velocity":0.3464566929133858,"duration":0.1864583333333334},{"name":"E4","midi":64,"time":6.667708333333332,"velocity":0.25984251968503935,"duration":0.06875000000000053},{"name":"B4","midi":71,"time":6.767708333333332,"velocity":0.3858267716535433,"duration":0.10624999999999929},{"name":"A4","midi":69,"time":6.935416666666665,"velocity":0.30708661417322836,"duration":0.03125},{"name":"G3","midi":55,"time":6.981249999999998,"velocity":0.4094488188976378,"duration":0.19374999999999964},{"name":"E4","midi":64,"time":7.099999999999999,"velocity":0.31496062992125984,"duration":0.08229166666666554},{"name":"B4","midi":71,"time":7.211458333333331,"velocity":0.3858267716535433,"duration":0.08437499999999964},{"name":"A4","midi":69,"time":7.33333333333333,"velocity":0.36220472440944884,"duration":0.05833333333333268},{"name":"G3","midi":55,"time":7.428124999999996,"velocity":0.3937007874015748,"duration":0.1697916666666659},{"name":"E4","midi":64,"time":7.537499999999995,"velocity":0.3937007874015748,"duration":0.10416666666666696},{"name":"B4","midi":71,"time":7.6510416666666625,"velocity":0.41732283464566927,"duration":0.10625000000000018},{"name":"A4","midi":69,"time":7.784374999999996,"velocity":0.4645669291338583,"duration":0.056250000000000355},{"name":"F3","midi":53,"time":7.88020833333333,"velocity":0.5039370078740157,"duration":0.28125000000000355},{"name":"E4","midi":64,"time":7.979166666666662,"velocity":0.4094488188976378,"duration":0.19270833333334014},{"name":"B4","midi":71,"time":8.109375,"velocity":0.4015748031496063,"duration":0.09479166666666927},{"name":"F4","midi":65,"time":8.208333333333336,"velocity":0.4330708661417323,"duration":0.06458333333333321},{"name":"F3","midi":53,"time":8.331250000000002,"velocity":0.4330708661417323,"duration":0.18645833333333783},{"name":"E4","midi":64,"time":8.441666666666672,"velocity":0.3464566929133858,"duration":0.09583333333333499},{"name":"B4","midi":71,"time":8.590625000000006,"velocity":0.36220472440944884,"duration":0.060416666666666785},{"name":"F4","midi":65,"time":8.660416666666674,"velocity":0.3543307086614173,"duration":0.06666666666666643},{"name":"F3","midi":53,"time":8.760416666666673,"velocity":0.3700787401574803,"duration":0.2020833333333396},{"name":"E4","midi":64,"time":8.897916666666678,"velocity":0.29133858267716534,"duration":0.07604166666666856},{"name":"B4","midi":71,"time":9.022916666666681,"velocity":0.3700787401574803,"duration":0.08333333333333393},{"name":"F4","midi":65,"time":9.135416666666684,"velocity":0.30708661417322836,"duration":0.043750000000001066},{"name":"F3","midi":53,"time":9.213541666666686,"velocity":0.3779527559055118,"duration":0.21145833333333997},{"name":"E4","midi":64,"time":9.353125000000025,"velocity":0.2992125984251969,"duration":0.07187500000000036},{"name":"B4","midi":71,"time":9.471875000000027,"velocity":0.33858267716535434,"duration":0.0822916666666682},{"name":"F4","midi":65,"time":9.551041666666695,"velocity":0.3464566929133858,"duration":0.06250000000000178},{"name":"F3","midi":53,"time":9.654166666666697,"velocity":0.4015748031496063,"duration":0.27500000000000746},{"name":"E4","midi":64,"time":9.813541666666705,"velocity":0.2204724409448819,"duration":0.14270833333333321},{"name":"A4","midi":69,"time":9.882291666666704,"velocity":0.36220472440944884,"duration":0.1593750000000007},{"name":"F4","midi":65,"time":10.021875000000039,"velocity":0.23622047244094488,"duration":0.048958333333333215},{"name":"F3","midi":53,"time":10.098958333333373,"velocity":0.3858267716535433,"duration":0.2177083333333396},{"name":"E4","midi":64,"time":10.257291666666712,"velocity":0.2755905511811024,"duration":0.07187500000000036},{"name":"A4","midi":69,"time":10.341666666666711,"velocity":0.3464566929133858,"duration":0.09687500000000071},{"name":"F4","midi":65,"time":10.427083333333378,"velocity":0.2755905511811024,"duration":0.06562500000000071},{"name":"F3","midi":53,"time":10.540625000000047,"velocity":0.3937007874015748,"duration":0.26041666666667496},{"name":"E4","midi":64,"time":10.702083333333388,"velocity":0.25196850393700787,"duration":0.08229166666666643},{"name":"A4","midi":69,"time":10.791666666666721,"velocity":0.3700787401574803,"duration":0.08750000000000036},{"name":"F4","midi":65,"time":10.882291666666722,"velocity":0.31496062992125984,"duration":0.06666666666666643},{"name":"F3","midi":53,"time":10.985416666666724,"velocity":0.3937007874015748,"duration":0.32916666666667105},{"name":"E4","midi":64,"time":11.103125000000063,"velocity":0.33858267716535434,"duration":0.13020833333333393},{"name":"A4","midi":69,"time":11.239583333333396,"velocity":0.36220472440944884,"duration":0.078125},{"name":"F4","midi":65,"time":11.325000000000063,"velocity":0.3779527559055118,"duration":0.06666666666666643},{"name":"G3","midi":55,"time":11.433333333333396,"velocity":0.47244094488188976,"duration":0.2822916666666817},{"name":"D4","midi":62,"time":11.55312500000007,"velocity":0.3937007874015748,"duration":0.30208333333334103},{"name":"A4","midi":69,"time":11.665625000000077,"velocity":0.36220472440944884,"duration":0.08958333333333535},{"name":"F4","midi":65,"time":11.753125000000079,"velocity":0.3543307086614173,"duration":0.06458333333333321},{"name":"G3","midi":55,"time":11.883333333333411,"velocity":0.3858267716535433,"duration":0.17812499999999964},{"name":"D4","midi":62,"time":12.032291666666744,"velocity":0.29133858267716534,"duration":0.05416666666666714},{"name":"A4","midi":69,"time":12.079166666666744,"velocity":0.36220472440944884,"duration":0.10416666666666785},{"name":"F4","midi":65,"time":12.218750000000078,"velocity":0.25196850393700787,"duration":0.032291666666667496},{"name":"G3","midi":55,"time":12.28437500000008,"velocity":0.4015748031496063,"duration":0.24791666666666856},{"name":"D4","midi":62,"time":12.412500000000083,"velocity":0.4015748031496063,"duration":0.12604166666666572},{"name":"A4","midi":69,"time":12.530208333333416,"velocity":0.4015748031496063,"duration":0.08854166666666607},{"name":"F4","midi":65,"time":12.632291666666749,"velocity":0.3464566929133858,"duration":0.07187500000000036},{"name":"G3","midi":55,"time":12.729166666666751,"velocity":0.4094488188976378,"duration":0.20104166666667034},{"name":"D4","midi":62,"time":12.848958333333421,"velocity":0.33858267716535434,"duration":0.10833333333333428},{"name":"A4","midi":69,"time":12.964583333333422,"velocity":0.3779527559055118,"duration":0.11354166666666643},{"name":"F4","midi":65,"time":13.064583333333422,"velocity":0.3937007874015748,"duration":0.07083333333333286},{"name":"G3","midi":55,"time":13.17187500000009,"velocity":0.4330708661417323,"duration":0.250000000000016},{"name":"D4","midi":62,"time":13.262500000000102,"velocity":0.3937007874015748,"duration":0.1947916666666707},{"name":"C5","midi":72,"time":13.401041666666773,"velocity":0.4330708661417323,"duration":0.09687500000000071},{"name":"F4","midi":65,"time":13.51458333333344,"velocity":0.3464566929133858,"duration":0.06770833333333393},{"name":"G3","midi":55,"time":13.612500000000107,"velocity":0.4094488188976378,"duration":0.1593750000000007},{"name":"D4","midi":62,"time":13.744791666666774,"velocity":0.36220472440944884,"duration":0.06770833333333393},{"name":"C5","midi":72,"time":13.876041666666776,"velocity":0.4881889763779528,"duration":0.08437499999999964},{"name":"F4","midi":65,"time":13.977083333333443,"velocity":0.3779527559055118,"duration":0.06562500000000071},{"name":"G3","midi":55,"time":14.075000000000111,"velocity":0.4330708661417323,"duration":0.2447916666666714},{"name":"D4","midi":62,"time":14.198958333333447,"velocity":0.4015748031496063,"duration":0.1343750000000039},{"name":"B4","midi":71,"time":14.307291666666783,"velocity":0.4645669291338583,"duration":0.10937500000000178},{"name":"F4","midi":65,"time":14.422916666666785,"velocity":0.4251968503937008,"duration":0.05520833333333286},{"name":"G3","midi":55,"time":14.501041666666785,"velocity":0.4094488188976378,"duration":0.2791666666666721},{"name":"D4","midi":62,"time":14.648958333333455,"velocity":0.4015748031496063,"duration":0.11458333333333393},{"name":"B4","midi":71,"time":14.727083333333455,"velocity":0.48031496062992124,"duration":0.1281250000000007},{"name":"F4","midi":65,"time":14.842708333333457,"velocity":0.44881889763779526,"duration":0.06354166666666572},{"name":"A3","midi":57,"time":14.957291666666789,"velocity":0.5039370078740157,"duration":0.26041666666667673},{"name":"E4","midi":64,"time":15.084375000000128,"velocity":0.3779527559055118,"duration":0.19270833333333925},{"name":"C5","midi":72,"time":15.210416666666799,"velocity":0.44881889763779526,"duration":0.05729166666666785},{"name":"F4","midi":65,"time":15.359375000000133,"velocity":0.2125984251968504,"duration":0.02395833333333286},{"name":"A3","midi":57,"time":15.395833333333465,"velocity":0.3700787401574803,"duration":0.22291666666667176},{"name":"E4","midi":64,"time":15.546875000000133,"velocity":0.31496062992125984,"duration":0.12708333333333854},{"name":"C5","midi":72,"time":15.686458333333471,"velocity":0.2440944881889764,"duration":0.009375000000000355},{"name":"F4","midi":65,"time":15.733333333333471,"velocity":0.2677165354330709,"duration":0.0822916666666682},{"name":"A3","midi":57,"time":15.852083333333473,"velocity":0.4094488188976378,"duration":0.20624999999999893},{"name":"E4","midi":64,"time":15.961458333333473,"velocity":0.3543307086614173,"duration":0.08437499999999964},{"name":"C5","midi":72,"time":16.10937500000014,"velocity":0.2677165354330709,"duration":0.01145833333333357},{"name":"F4","midi":65,"time":16.153125000000138,"velocity":0.3858267716535433,"duration":0.08020833333333499},{"name":"A3","midi":57,"time":16.28750000000014,"velocity":0.4251968503937008,"duration":0.2041666666666586},{"name":"E4","midi":64,"time":16.437500000000135,"velocity":0.2755905511811024,"duration":0.06041666666666501},{"name":"C5","midi":72,"time":16.542708333333465,"velocity":0.3464566929133858,"duration":0.05624999999999858},{"name":"F4","midi":65,"time":16.623958333333462,"velocity":0.3779527559055118,"duration":0.06875000000000142},{"name":"A3","midi":57,"time":16.7260416666668,"velocity":0.44881889763779526,"duration":0.15729166666666217},{"name":"E4","midi":64,"time":16.812500000000128,"velocity":0.3464566929133858,"duration":0.11250000000000071},{"name":"C5","midi":72,"time":16.926041666666794,"velocity":0.3464566929133858,"duration":0.08333333333333215},{"name":"A4","midi":69,"time":17.032291666666794,"velocity":0.4409448818897638,"duration":0.07187499999999858},{"name":"A3","midi":57,"time":17.133333333333457,"velocity":0.33858267716535434,"duration":0.2593749999999879},{"name":"E4","midi":64,"time":17.232291666666786,"velocity":0.3700787401574803,"duration":0.17604166666665932},{"name":"C5","midi":72,"time":17.359375000000114,"velocity":0.41732283464566927,"duration":0.08333333333333215},{"name":"A4","midi":69,"time":17.46979166666678,"velocity":0.3937007874015748,"duration":0.06874999999999787},{"name":"A3","midi":57,"time":17.56875000000011,"velocity":0.4645669291338583,"duration":0.20729166666666288},{"name":"E4","midi":64,"time":17.70520833333344,"velocity":0.4330708661417323,"duration":0.10729166666666856},{"name":"C5","midi":72,"time":17.80937500000011,"velocity":0.48031496062992124,"duration":0.09270833333333428},{"name":"A4","midi":69,"time":17.936458333333444,"velocity":0.4094488188976378,"duration":0.06041666666666856},{"name":"A3","midi":57,"time":18.025000000000112,"velocity":0.47244094488188976,"duration":0.14479166666666643},{"name":"E4","midi":64,"time":18.152083333333444,"velocity":0.4015748031496063,"duration":0.10937500000000355},{"name":"C5","midi":72,"time":18.223958333333446,"velocity":0.5196850393700787,"duration":0.11041666666666927},{"name":"A4","midi":69,"time":18.346875000000114,"velocity":0.48031496062992124,"duration":0.06458333333333144},{"name":"G3","midi":55,"time":18.464583333333447,"velocity":0.5118110236220472,"duration":0.22395833333333215},{"name":"E4","midi":64,"time":18.552083333333446,"velocity":0.4251968503937008,"duration":0.17083333333333428},{"name":"C5","midi":72,"time":18.68541666666678,"velocity":0.4330708661417323,"duration":0.08958333333333357},{"name":"A4","midi":69,"time":18.820833333333447,"velocity":0.3464566929133858,"duration":0.03333333333333499},{"name":"G3","midi":55,"time":18.896875000000115,"velocity":0.4251968503937008,"duration":0.24583333333333002},{"name":"E4","midi":64,"time":19.01875000000011,"velocity":0.4015748031496063,"duration":0.1041666666666643},{"name":"C5","midi":72,"time":19.14062500000011,"velocity":0.41732283464566927,"duration":0.10000000000000142},{"name":"A4","midi":69,"time":19.27916666666678,"velocity":0.36220472440944884,"duration":0.03125},{"name":"G3","midi":55,"time":19.33437500000011,"velocity":0.3779527559055118,"duration":0.232291666666665},{"name":"E4","midi":64,"time":19.513541666666775,"velocity":0.2283464566929134,"duration":0.09687500000000071},{"name":"C5","midi":72,"time":19.592708333333444,"velocity":0.4015748031496063,"duration":0.07916666666666572},{"name":"A4","midi":69,"time":19.70312500000011,"velocity":0.3700787401574803,"duration":0.04791666666666572},{"name":"G3","midi":55,"time":19.815625000000104,"velocity":0.48031496062992124,"duration":0.14270833333332433},{"name":"E4","midi":64,"time":19.94270833333343,"velocity":0.2677165354330709,"duration":0.05416666666666359},{"name":"C5","midi":72,"time":20.009375000000095,"velocity":0.36220472440944884,"duration":0.08645833333333286},{"name":"A4","midi":69,"time":20.115625000000094,"velocity":0.3464566929133858,"duration":0.06874999999999787},{"name":"G3","midi":55,"time":20.22291666666676,"velocity":0.48031496062992124,"duration":0.2218749999999936},{"name":"E4","midi":64,"time":20.34375000000009,"velocity":0.33858267716535434,"duration":0.1197916666666643},{"name":"B4","midi":71,"time":20.48020833333342,"velocity":0.3464566929133858,"duration":0.08333333333333215},{"name":"A4","midi":69,"time":20.592708333333416,"velocity":0.3779527559055118,"duration":0.05416666666667069},{"name":"G3","midi":55,"time":20.679166666666752,"velocity":0.4409448818897638,"duration":0.20416666666666572},{"name":"E4","midi":64,"time":20.809375000000085,"velocity":0.36220472440944884,"duration":0.10624999999999929},{"name":"B4","midi":71,"time":20.958333333333417,"velocity":0.3543307086614173,"duration":0.07291666666666785},{"name":"A4","midi":69,"time":21.05833333333342,"velocity":0.4094488188976378,"duration":0.05104166666666643},{"name":"G3","midi":55,"time":21.13958333333342,"velocity":0.41732283464566927,"duration":0.18749999999999645},{"name":"E4","midi":64,"time":21.25729166666675,"velocity":0.4094488188976378,"duration":0.11770833333333286},{"name":"B4","midi":71,"time":21.379166666666748,"velocity":0.4330708661417323,"duration":0.09375},{"name":"A4","midi":69,"time":21.482291666666747,"velocity":0.4645669291338583,"duration":0.06041666666666501},{"name":"G3","midi":55,"time":21.58333333333341,"velocity":0.44881889763779526,"duration":0.15520833333333073},{"name":"E4","midi":64,"time":21.671875000000075,"velocity":0.4645669291338583,"duration":0.13125000000000142},{"name":"B4","midi":71,"time":21.784375000000075,"velocity":0.4094488188976378,"duration":0.11145833333333499},{"name":"A4","midi":69,"time":21.904166666666743,"velocity":0.5275590551181102,"duration":0.08645833333333286},{"name":"F3","midi":53,"time":22.01666666666674,"velocity":0.5669291338582677,"duration":0.23854166666666288},{"name":"E4","midi":64,"time":22.13125000000007,"velocity":0.4094488188976378,"duration":0.18229166666666785},{"name":"B4","midi":71,"time":22.21875000000007,"velocity":0.4409448818897638,"duration":0.10104166666666714},{"name":"F4","midi":65,"time":22.33125000000007,"velocity":0.47244094488188976,"duration":0.08229166666666643},{"name":"F3","midi":53,"time":22.46354166666674,"velocity":0.44881889763779526,"duration":0.17083333333333428},{"name":"E4","midi":64,"time":22.55937500000007,"velocity":0.29133858267716534,"duration":0.18333333333333712},{"name":"B4","midi":71,"time":22.709375000000072,"velocity":0.3779527559055118,"duration":0.0520833333333357},{"name":"F4","midi":65,"time":22.773958333333407,"velocity":0.44881889763779526,"duration":0.07395833333333002},{"name":"F3","midi":53,"time":22.87500000000007,"velocity":0.47244094488188976,"duration":0.25833333333332575},{"name":"E4","midi":64,"time":23.004166666666734,"velocity":0.30708661417322836,"duration":0.1458333333333286},{"name":"B4","midi":71,"time":23.163541666666728,"velocity":0.33070866141732286,"duration":0.04062499999999858},{"name":"F4","midi":65,"time":23.236458333333392,"velocity":0.3937007874015748,"duration":0.05312500000000142},{"name":"F3","midi":53,"time":23.317708333333393,"velocity":0.44881889763779526,"duration":0.21249999999999503},{"name":"E4","midi":64,"time":23.456250000000054,"velocity":0.3464566929133858,"duration":0.17083333333333428},{"name":"B4","midi":71,"time":23.594791666666723,"velocity":0.4330708661417323,"duration":0.10416666666666785},{"name":"F4","midi":65,"time":23.729166666666725,"velocity":0.3228346456692913,"duration":0.02083333333333215},{"name":"F3","midi":53,"time":23.784375000000058,"velocity":0.4409448818897638,"duration":0.2729166666666636},{"name":"E4","midi":64,"time":23.922916666666723,"velocity":0.3464566929133858,"duration":0.14895833333333286},{"name":"A4","midi":69,"time":24.060416666666722,"velocity":0.3779527559055118,"duration":0.06562499999999716},{"name":"F4","midi":65,"time":24.17916666666672,"velocity":0.28346456692913385,"duration":0.02708333333333357},{"name":"F3","midi":53,"time":24.245833333333383,"velocity":0.4015748031496063,"duration":0.22083333333332789},{"name":"E4","midi":64,"time":24.388541666666715,"velocity":0.2283464566929134,"duration":0.09583333333333144},{"name":"A4","midi":69,"time":24.497916666666715,"velocity":0.3543307086614173,"duration":0.06145833333333428},{"name":"F4","midi":65,"time":24.57500000000005,"velocity":0.3779527559055118,"duration":0.06875000000000142},{"name":"F3","midi":53,"time":24.692708333333385,"velocity":0.4015748031496063,"duration":0.2552083333333286},{"name":"E4","midi":64,"time":24.83958333333338,"velocity":0.28346456692913385,"duration":0.13541666666666785},{"name":"A4","midi":69,"time":24.956250000000047,"velocity":0.4094488188976378,"duration":0.07708333333333428},{"name":"F4","midi":65,"time":25.088541666666714,"velocity":0.28346456692913385,"duration":0.01458333333333428},{"name":"F3","midi":53,"time":25.148958333333383,"velocity":0.4251968503937008,"duration":0.31458333333333144},{"name":"E4","midi":64,"time":25.285416666666713,"velocity":0.3464566929133858,"duration":0.07187500000000213},{"name":"A4","midi":69,"time":25.351041666666713,"velocity":0.4566929133858268,"duration":0.12187499999999929},{"name":"F4","midi":65,"time":25.475000000000048,"velocity":0.3779527559055118,"duration":0.05833333333333357},{"name":"G3","midi":55,"time":25.582291666666716,"velocity":0.5511811023622047,"duration":0.2395833333333286},{"name":"D4","midi":62,"time":25.713541666666714,"velocity":0.3700787401574803,"duration":0.20937499999999787},{"name":"A4","midi":69,"time":25.845833333333378,"velocity":0.3700787401574803,"duration":0.05104166666666643},{"name":"F4","midi":65,"time":25.934375000000045,"velocity":0.3543307086614173,"duration":0.04479166666666501},{"name":"G3","midi":55,"time":26.030208333333377,"velocity":0.4251968503937008,"duration":0.20208333333333073},{"name":"D4","midi":62,"time":26.14166666666671,"velocity":0.33070866141732286,"duration":0.1979166666666643},{"name":"A4","midi":69,"time":26.28125000000004,"velocity":0.36220472440944884,"duration":0.08229166666666643},{"name":"F4","midi":65,"time":26.38125000000004,"velocity":0.30708661417322836,"duration":0.05833333333333357},{"name":"G3","midi":55,"time":26.47500000000004,"velocity":0.4251968503937008,"duration":0.23124999999999574},{"name":"D4","midi":62,"time":26.616666666666706,"velocity":0.3700787401574803,"duration":0.17291666666666217},{"name":"A4","midi":69,"time":26.72395833333337,"velocity":0.3700787401574803,"duration":0.11354166666666288},{"name":"F4","midi":65,"time":26.8416666666667,"velocity":0.2992125984251969,"duration":0.06770833333333215},{"name":"G3","midi":55,"time":26.923958333333367,"velocity":0.4015748031496063,"duration":0.17708333333333215},{"name":"D4","midi":62,"time":27.021875000000033,"velocity":0.30708661417322836,"duration":0.09687500000000071},{"name":"A4","midi":69,"time":27.13333333333337,"velocity":0.4881889763779528,"duration":0.1333333333333364},{"name":"F4","midi":65,"time":27.26458333333337,"velocity":0.36220472440944884,"duration":0.08020833333333499},{"name":"G3","midi":55,"time":27.339583333333373,"velocity":0.4881889763779528,"duration":0.27083333333332504},{"name":"D4","midi":62,"time":27.459375000000037,"velocity":0.4566929133858268,"duration":0.1874999999999929},{"name":"C5","midi":72,"time":27.595833333333363,"velocity":0.48031496062992124,"duration":0.10416666666666785},{"name":"F4","midi":65,"time":27.72187500000003,"velocity":0.4330708661417323,"duration":0.05624999999999858},{"name":"G3","midi":55,"time":27.80312500000003,"velocity":0.4094488188976378,"duration":0.18229166666666075},{"name":"D4","midi":62,"time":27.932291666666693,"velocity":0.4094488188976378,"duration":0.07812499999999645},{"name":"C5","midi":72,"time":28.039583333333354,"velocity":0.5196850393700787,"duration":0.11354166666666643},{"name":"F4","midi":65,"time":28.17187500000002,"velocity":0.4409448818897638,"duration":0.05000000000000071},{"name":"G3","midi":55,"time":28.259375000000023,"velocity":0.5196850393700787,"duration":0.19062499999999005},{"name":"D4","midi":62,"time":28.37395833333335,"velocity":0.4409448818897638,"duration":0.10520833333333002},{"name":"B4","midi":71,"time":28.522916666666678,"velocity":0.3543307086614173,"duration":0.08020833333333499},{"name":"F4","midi":65,"time":28.614583333333346,"velocity":0.49606299212598426,"duration":0.07395833333333357},{"name":"G3","midi":55,"time":28.71979166666668,"velocity":0.4645669291338583,"duration":0.169791666666665},{"name":"D4","midi":62,"time":28.814583333333346,"velocity":0.4566929133858268,"duration":0.08749999999999858},{"name":"B4","midi":71,"time":28.992708333333344,"velocity":0.4330708661417323,"duration":0.4343749999999993},{"name":"F4","midi":65,"time":29.110416666666676,"velocity":0.47244094488188976,"duration":0.16250000000000142},{"name":"A3","midi":57,"time":29.339583333333344,"velocity":0.4330708661417323,"duration":0.31041666666666146},{"name":"C4","midi":60,"time":29.522916666666678,"velocity":0.4251968503937008,"duration":0.16041666666666288},{"name":"A4","midi":69,"time":29.654166666666672,"velocity":0.3858267716535433,"duration":0.10000000000000142},{"name":"E4","midi":64,"time":29.768750000000008,"velocity":0.33070866141732286,"duration":0.05729166666666785},{"name":"A3","midi":57,"time":29.85625000000001,"velocity":0.4330708661417323,"duration":0.2062500000000007},{"name":"C4","midi":60,"time":30.00312500000001,"velocity":0.3464566929133858,"duration":0.0885416666666643},{"name":"A4","midi":69,"time":30.070833333333344,"velocity":0.4251968503937008,"duration":0.10729166666666501},{"name":"E4","midi":64,"time":30.21770833333334,"velocity":0.3464566929133858,"duration":0.08229166666666643},{"name":"A3","midi":57,"time":30.29583333333334,"velocity":0.4094488188976378,"duration":0.22291666666666288},{"name":"C4","midi":60,"time":30.428125000000005,"velocity":0.36220472440944884,"duration":0.08125000000000071},{"name":"A4","midi":69,"time":30.54166666666667,"velocity":0.3700787401574803,"duration":0.109375},{"name":"E4","midi":64,"time":30.654166666666672,"velocity":0.33858267716535434,"duration":0.05520833333333286},{"name":"A3","midi":57,"time":30.76041666666667,"velocity":0.4409448818897638,"duration":0.22083333333333144},{"name":"C4","midi":60,"time":30.862500000000004,"velocity":0.4094488188976378,"duration":0.09583333333333144},{"name":"A4","midi":69,"time":30.970833333333335,"velocity":0.4409448818897638,"duration":0.14895833333333286},{"name":"E4","midi":64,"time":31.088541666666668,"velocity":0.3937007874015748,"duration":0.07187499999999858},{"name":"A3","midi":57,"time":31.19375,"velocity":0.5039370078740157,"duration":0.27187499999999076},{"name":"C4","midi":60,"time":31.309374999999996,"velocity":0.4566929133858268,"duration":0.14270833333333144},{"name":"C5","midi":72,"time":31.423958333333328,"velocity":0.4645669291338583,"duration":0.109375},{"name":"E4","midi":64,"time":31.55208333333333,"velocity":0.4094488188976378,"duration":0.06041666666666501},{"name":"A3","midi":57,"time":31.65416666666666,"velocity":0.44881889763779526,"duration":0.24895833333332362},{"name":"C4","midi":60,"time":31.76562499999999,"velocity":0.3937007874015748,"duration":0.11041666666666217},{"name":"C5","midi":72,"time":31.88541666666665,"velocity":0.4251968503937008,"duration":0.1197916666666643},{"name":"E4","midi":64,"time":32.00208333333332,"velocity":0.4330708661417323,"duration":0.0677083333333286},{"name":"A3","midi":57,"time":32.085416666666646,"velocity":0.4251968503937008,"duration":0.2510416666666657},{"name":"C4","midi":60,"time":32.2052083333333,"velocity":0.4094488188976378,"duration":0.1093750000000071},{"name":"C5","midi":72,"time":32.33854166666664,"velocity":0.47244094488188976,"duration":0.09375},{"name":"E4","midi":64,"time":32.45520833333331,"velocity":0.41732283464566927,"duration":0.05416666666666714},{"name":"A3","midi":57,"time":32.543749999999974,"velocity":0.4566929133858268,"duration":0.171875},{"name":"C4","midi":60,"time":32.67395833333331,"velocity":0.4094488188976378,"duration":0.08437499999999432},{"name":"C5","midi":72,"time":32.785416666666634,"velocity":0.5275590551181102,"duration":0.12083333333333002},{"name":"E4","midi":64,"time":32.89791666666663,"velocity":0.4409448818897638,"duration":0.06875000000000142},{"name":"B3","midi":59,"time":32.99374999999996,"velocity":0.5590551181102362,"duration":0.2395833333333215},{"name":"D4","midi":62,"time":33.12604166666662,"velocity":0.4330708661417323,"duration":0.13958333333332007},{"name":"C5","midi":72,"time":33.260416666666615,"velocity":0.4409448818897638,"duration":0.07395833333333002},{"name":"E4","midi":64,"time":33.36458333333328,"velocity":0.4015748031496063,"duration":0.0677083333333357},{"name":"B3","midi":59,"time":33.452083333333285,"velocity":0.3858267716535433,"duration":0.1875},{"name":"D4","midi":62,"time":33.572916666666615,"velocity":0.3779527559055118,"duration":0.1041666666666714},{"name":"C5","midi":72,"time":33.68749999999995,"velocity":0.47244094488188976,"duration":0.10312499999999858},{"name":"E4","midi":64,"time":33.81666666666661,"velocity":0.36220472440944884,"duration":0.06458333333333144},{"name":"B3","midi":59,"time":33.910416666666606,"velocity":0.36220472440944884,"duration":0.24270833333333286},{"name":"D4","midi":62,"time":34.035416666666606,"velocity":0.44881889763779526,"duration":0.10520833333333002},{"name":"C5","midi":72,"time":34.16145833333327,"velocity":0.3858267716535433,"duration":0.05624999999999858},{"name":"E4","midi":64,"time":34.25312499999993,"velocity":0.44881889763779526,"duration":0.06354166666666572},{"name":"B3","midi":59,"time":34.37708333333327,"velocity":0.4409448818897638,"duration":0.1822916666666572},{"name":"D4","midi":62,"time":34.4822916666666,"velocity":0.4409448818897638,"duration":0.10729166666666146},{"name":"C5","midi":72,"time":34.60104166666659,"velocity":0.41732283464566927,"duration":0.08124999999999005},{"name":"E4","midi":64,"time":34.72187499999991,"velocity":0.3700787401574803,"duration":0.05833333333333002},{"name":"B3","midi":59,"time":34.821874999999906,"velocity":0.4409448818897638,"duration":0.17604166666666998},{"name":"D4","midi":62,"time":34.935416666666576,"velocity":0.44881889763779526,"duration":0.10520833333333002},{"name":"C5","midi":72,"time":35.069791666666575,"velocity":0.4645669291338583,"duration":0.08645833333333286},{"name":"E4","midi":64,"time":35.181249999999906,"velocity":0.4330708661417323,"duration":0.0677083333333357},{"name":"B3","midi":59,"time":35.2718749999999,"velocity":0.4409448818897638,"duration":0.18020833333331865},{"name":"D4","midi":62,"time":35.388541666666555,"velocity":0.4251968503937008,"duration":0.04062499999999858},{"name":"C5","midi":72,"time":35.48124999999989,"velocity":0.5196850393700787,"duration":0.1354166666666643},{"name":"E4","midi":64,"time":35.618749999999885,"velocity":0.4330708661417323,"duration":0.06145833333333428},{"name":"B3","midi":59,"time":35.71145833333322,"velocity":0.5433070866141733,"duration":0.203125},{"name":"D4","midi":62,"time":35.847916666666556,"velocity":0.49606299212598426,"duration":0.10312499999999147},{"name":"B4","midi":71,"time":35.97916666666655,"velocity":0.5354330708661418,"duration":0.078125},{"name":"E4","midi":64,"time":36.08854166666655,"velocity":0.4330708661417323,"duration":0.04583333333332007},{"name":"B3","midi":59,"time":36.16249999999987,"velocity":0.47244094488188976,"duration":0.15729166666667282},{"name":"D4","midi":62,"time":36.29583333333321,"velocity":0.3779527559055118,"duration":0.08124999999999716},{"name":"B4","midi":71,"time":36.38541666666654,"velocity":0.5118110236220472,"duration":0.11874999999999858},{"name":"E4","midi":64,"time":36.51145833333321,"velocity":0.47244094488188976,"duration":0.04270833333333002},{"name":"C4","midi":60,"time":36.6270833333332,"velocity":0.5433070866141733,"duration":0.21562499999998863},{"name":"E4","midi":64,"time":36.75729166666653,"velocity":0.4094488188976378,"duration":0.11041666666665861},{"name":"C5","midi":72,"time":36.86979166666652,"velocity":0.44881889763779526,"duration":0.09270833333332718},{"name":"E4","midi":64,"time":36.99374999999985,"velocity":0.3858267716535433,"duration":0.044791666666661456},{"name":"C4","midi":60,"time":37.07708333333318,"velocity":0.4251968503937008,"duration":0.15312500000000284},{"name":"E4","midi":64,"time":37.19583333333318,"velocity":0.4015748031496063,"duration":0.06875000000000853},{"name":"C5","midi":72,"time":37.30624999999985,"velocity":0.4330708661417323,"duration":0.08020833333333144},{"name":"E4","midi":64,"time":37.42187499999985,"velocity":0.33858267716535434,"duration":0.02395833333333286},{"name":"C4","midi":60,"time":37.52812499999985,"velocity":0.49606299212598426,"duration":0.13124999999999432},{"name":"E4","midi":64,"time":37.63020833333317,"velocity":0.4094488188976378,"duration":0.07187499999999858},{"name":"C5","midi":72,"time":37.76458333333317,"velocity":0.5354330708661418,"duration":0.07708333333333428},{"name":"E4","midi":64,"time":37.861458333333175,"velocity":0.4881889763779528,"duration":0.03854166666666714},{"name":"C4","midi":60,"time":37.96874999999984,"velocity":0.4409448818897638,"duration":0.11979166666665719},{"name":"E4","midi":64,"time":38.07499999999983,"velocity":0.4330708661417323,"duration":0.046874999999992895},{"name":"C5","midi":72,"time":38.18645833333316,"velocity":0.5196850393700787,"duration":0.09270833333332718},{"name":"E4","midi":64,"time":38.28854166666648,"velocity":0.3779527559055118,"duration":0.03958333333333286},{"name":"C4","midi":60,"time":38.399999999999814,"velocity":0.5669291338582677,"duration":0.1354166666666501},{"name":"E4","midi":64,"time":38.5031249999998,"velocity":0.4330708661417323,"duration":0.09895833333332149},{"name":"D5","midi":74,"time":38.65208333333312,"velocity":0.5511811023622047,"duration":0.07187499999999858},{"name":"E4","midi":64,"time":38.766666666666445,"velocity":0.48031496062992124,"duration":0.04375000000000284},{"name":"C4","midi":60,"time":38.88229166666645,"velocity":0.5118110236220472,"duration":0.13541666666664298},{"name":"E4","midi":64,"time":38.98124999999976,"velocity":0.36220472440944884,"duration":0.06458333333333144},{"name":"D5","midi":74,"time":39.09791666666643,"velocity":0.5748031496062992,"duration":0.0677083333333357},{"name":"E4","midi":64,"time":39.2177083333331,"velocity":0.4409448818897638,"duration":0.04270833333333712},{"name":"C4","midi":60,"time":39.330208333333104,"velocity":0.5354330708661418,"duration":0.12291666666666856},{"name":"E4","midi":64,"time":39.42187499999977,"velocity":0.3858267716535433,"duration":0.07916666666665861},{"name":"C5","midi":72,"time":39.55729166666643,"velocity":0.5433070866141733,"duration":0.07187499999999858},{"name":"E4","midi":64,"time":39.665624999999764,"velocity":0.4330708661417323,"duration":0.03958333333333286},{"name":"C4","midi":60,"time":39.788541666666426,"velocity":0.5433070866141733,"duration":0.1260416666666586},{"name":"E4","midi":64,"time":39.887499999999754,"velocity":0.30708661417322836,"duration":0.06354166666666572},{"name":"C5","midi":72,"time":40.01354166666642,"velocity":0.5118110236220472,"duration":0.08229166666666998},{"name":"E4","midi":64,"time":40.110416666666424,"velocity":0.36220472440944884,"duration":0.06666666666666288},{"name":"B3","midi":59,"time":40.22812499999976,"velocity":0.4881889763779528,"duration":0.19583333333332575},{"name":"D4","midi":62,"time":40.37708333333308,"velocity":0.36220472440944884,"duration":0.06979166666666714},{"name":"C5","midi":72,"time":40.48437499999975,"velocity":0.3228346456692913,"duration":0.03750000000000142},{"name":"E4","midi":64,"time":40.597916666666414,"velocity":0.30708661417322836,"duration":0.03541666666666998},{"name":"B3","midi":59,"time":40.69374999999975,"velocity":0.47244094488188976,"duration":0.17916666666665293},{"name":"D4","midi":62,"time":40.82187499999974,"velocity":0.33858267716535434,"duration":0.055208333333325754},{"name":"C5","midi":72,"time":40.911458333333066,"velocity":0.44881889763779526,"duration":0.08229166666666998},{"name":"E4","midi":64,"time":41.0604166666664,"velocity":0.3228346456692913,"duration":0.03541666666666998},{"name":"B3","midi":59,"time":41.143749999999734,"velocity":0.4566929133858268,"duration":0.17604166666664867},{"name":"D4","midi":62,"time":41.252083333333054,"velocity":0.49606299212598426,"duration":0.0729166666666643},{"name":"C5","midi":72,"time":41.37083333333305,"velocity":0.4645669291338583,"duration":0.07604166666666856},{"name":"E4","midi":64,"time":41.474999999999724,"velocity":0.4094488188976378,"duration":0.06354166666666572},{"name":"B3","midi":59,"time":41.57708333333305,"velocity":0.5196850393700787,"duration":0.13333333333332575},{"name":"D4","midi":62,"time":41.721874999999706,"velocity":0.31496062992125984,"duration":0.015625},{"name":"C5","midi":72,"time":41.78541666666637,"velocity":0.5354330708661418,"duration":0.10624999999999574},{"name":"E4","midi":64,"time":41.90208333333303,"velocity":0.4645669291338583,"duration":0.05104166666666998},{"name":"B3","midi":59,"time":42.02083333333303,"velocity":0.5354330708661418,"duration":0.16770833333333002},{"name":"D4","midi":62,"time":42.14479166666636,"velocity":0.4251968503937008,"duration":0.08125000000000426},{"name":"D5","midi":74,"time":42.24270833333303,"velocity":0.5433070866141733,"duration":0.08125000000000426},{"name":"E4","midi":64,"time":42.37395833333303,"velocity":0.4330708661417323,"duration":0.05312500000000142},{"name":"B3","midi":59,"time":42.4937499999997,"velocity":0.5196850393700787,"duration":0.15833333333333144},{"name":"D4","midi":62,"time":42.61666666666636,"velocity":0.33070866141732286,"duration":0.06979166666666714},{"name":"D5","midi":74,"time":42.71041666666636,"velocity":0.5905511811023622,"duration":0.07083333333333286},{"name":"E4","midi":64,"time":42.847916666666364,"velocity":0.4409448818897638,"duration":0.04479166666666856},{"name":"B3","midi":59,"time":42.94270833333303,"velocity":0.5196850393700787,"duration":0.15312499999998153},{"name":"D4","midi":62,"time":43.04999999999968,"velocity":0.41732283464566927,"duration":0.07708333333333428},{"name":"C5","midi":72,"time":43.172916666666346,"velocity":0.5590551181102362,"duration":0.10833333333333428},{"name":"E4","midi":64,"time":43.27499999999968,"velocity":0.4251968503937008,"duration":0.04895833333333144},{"name":"B3","midi":59,"time":43.37395833333301,"velocity":0.5039370078740157,"duration":0.15833333333333144},{"name":"D4","midi":62,"time":43.49166666666634,"velocity":0.4645669291338583,"duration":0.07187499999999858},{"name":"B4","midi":71,"time":43.63437499999967,"velocity":0.5590551181102362,"duration":0.15416666666666146},{"name":"E4","midi":64,"time":43.76666666666634,"velocity":0.4566929133858268,"duration":0.09687499999999716},{"name":"A3","midi":57,"time":43.89166666666633,"velocity":0.5354330708661418,"duration":0.22187499999999716},{"name":"C4","midi":60,"time":44.046874999999666,"velocity":0.3858267716535433,"duration":0.10312499999999858},{"name":"C5","midi":72,"time":44.15937499999966,"velocity":0.5039370078740157,"duration":0.07916666666666572},{"name":"E4","midi":64,"time":44.28749999999966,"velocity":0.3464566929133858,"duration":0.04791666666666572},{"name":"A3","midi":57,"time":44.36354166666633,"velocity":0.5433070866141733,"duration":0.2041666666666515},{"name":"C4","midi":60,"time":44.50312499999965,"velocity":0.41732283464566927,"duration":0.06458333333333144},{"name":"C5","midi":72,"time":44.62187499999965,"velocity":0.5039370078740157,"duration":0.07187499999999858},{"name":"E4","midi":64,"time":44.72395833333298,"velocity":0.4330708661417323,"duration":0.05937500000000284},{"name":"A3","midi":57,"time":44.827083333332986,"velocity":0.5354330708661418,"duration":0.16458333333333286},{"name":"C4","midi":60,"time":44.94479166666632,"velocity":0.41732283464566927,"duration":0.07500000000000284},{"name":"C5","midi":72,"time":45.065624999999656,"velocity":0.5826771653543307,"duration":0.08645833333333286},{"name":"E4","midi":64,"time":45.18541666666632,"velocity":0.4409448818897638,"duration":0.04791666666666572},{"name":"A3","midi":57,"time":45.26666666666632,"velocity":0.5196850393700787,"duration":0.15833333333331723},{"name":"C4","midi":60,"time":45.38333333333297,"velocity":0.4409448818897638,"duration":0.08020833333333144},{"name":"C5","midi":72,"time":45.5104166666663,"velocity":0.5669291338582677,"duration":0.08749999999999858},{"name":"E4","midi":64,"time":45.614583333332966,"velocity":0.4251968503937008,"duration":0.04999999999999716},{"name":"A3","midi":57,"time":45.729166666666295,"velocity":0.5511811023622047,"duration":0.18020833333333286},{"name":"C4","midi":60,"time":45.854166666666295,"velocity":0.4409448818897638,"duration":0.07083333333333286},{"name":"D5","midi":74,"time":45.96874999999963,"velocity":0.5669291338582677,"duration":0.06875000000000142},{"name":"E4","midi":64,"time":46.0854166666663,"velocity":0.48031496062992124,"duration":0.05416666666666714},{"name":"A3","midi":57,"time":46.18749999999963,"velocity":0.5511811023622047,"duration":0.1364583333333229},{"name":"C4","midi":60,"time":46.314583333332955,"velocity":0.4094488188976378,"duration":0.06458333333333144},{"name":"D5","midi":74,"time":46.39374999999962,"velocity":0.5118110236220472,"duration":0.12916666666666998},{"name":"E4","midi":64,"time":46.54687499999962,"velocity":0.5590551181102362,"duration":0.07395833333333002},{"name":"A3","midi":57,"time":46.65937499999962,"velocity":0.4645669291338583,"duration":0.11666666666666714},{"name":"C4","midi":60,"time":46.732291666666285,"velocity":0.4409448818897638,"duration":0.05833333333333712},{"name":"C5","midi":72,"time":46.88541666666628,"velocity":0.5669291338582677,"duration":0.12812499999999716},{"name":"E4","midi":64,"time":47.005208333332945,"velocity":0.4251968503937008,"duration":0.08749999999999147},{"name":"A3","midi":57,"time":47.08749999999961,"velocity":0.49606299212598426,"duration":0.16874999999999574},{"name":"C4","midi":60,"time":47.19166666666627,"velocity":0.4330708661417323,"duration":0.09375},{"name":"B4","midi":71,"time":47.33749999999961,"velocity":0.5275590551181102,"duration":0.09999999999999432},{"name":"E4","midi":64,"time":47.45104166666627,"velocity":0.4251968503937008,"duration":0.05833333333333002},{"name":"G3","midi":55,"time":47.53854166666626,"velocity":0.5196850393700787,"duration":0.1822916666666643},{"name":"B3","midi":59,"time":47.669791666666256,"velocity":0.4409448818897638,"duration":0.08750000000000568},{"name":"C5","midi":72,"time":47.79583333333293,"velocity":0.48031496062992124,"duration":0.07916666666666572},{"name":"E4","midi":64,"time":47.90520833333293,"velocity":0.36220472440944884,"duration":0.04791666666666572},{"name":"G3","midi":55,"time":47.99270833333293,"velocity":0.47244094488188976,"duration":0.1885416666666586},{"name":"B3","midi":59,"time":48.141666666666254,"velocity":0.31496062992125984,"duration":0.07916666666666572},{"name":"C5","midi":72,"time":48.26145833333292,"velocity":0.5196850393700787,"duration":0.09062499999999574},{"name":"E4","midi":64,"time":48.38229166666625,"velocity":0.3858267716535433,"duration":0.05312500000000142},{"name":"G3","midi":55,"time":48.46874999999958,"velocity":0.4094488188976378,"duration":0.15312500000000284},{"name":"B3","midi":59,"time":48.58541666666625,"velocity":0.3937007874015748,"duration":0.06562500000000426},{"name":"C5","midi":72,"time":48.735416666666254,"velocity":0.5511811023622047,"duration":0.09583333333332433},{"name":"E4","midi":64,"time":48.88020833333291,"velocity":0.2992125984251969,"duration":0.03229166666666572},{"name":"G3","midi":55,"time":48.94999999999958,"velocity":0.4566929133858268,"duration":0.15208333333333002},{"name":"B3","midi":59,"time":49.048958333332905,"velocity":0.4015748031496063,"duration":0.09791666666666998},{"name":"C5","midi":72,"time":49.187499999999574,"velocity":0.5354330708661418,"duration":0.09791666666665577},{"name":"E4","midi":64,"time":49.290624999999565,"velocity":0.4251968503937008,"duration":0.08541666666666003},{"name":"G3","midi":55,"time":49.403124999999555,"velocity":0.5511811023622047,"duration":0.1770833333333286},{"name":"B3","midi":59,"time":49.537499999999554,"velocity":0.44881889763779526,"duration":0.07604166666666146},{"name":"C5","midi":72,"time":49.65208333333288,"velocity":0.5196850393700787,"duration":0.0729166666666643},{"name":"E4","midi":64,"time":49.73645833333288,"velocity":0.44881889763779526,"duration":0.0625},{"name":"G3","midi":55,"time":49.83437499999955,"velocity":0.5511811023622047,"duration":0.20520833333332433},{"name":"B3","midi":59,"time":49.96562499999954,"velocity":0.47244094488188976,"duration":0.07708333333332718},{"name":"C5","midi":72,"time":50.0885416666662,"velocity":0.5433070866141733,"duration":0.12604166666667282},{"name":"E4","midi":64,"time":50.194791666666205,"velocity":0.44881889763779526,"duration":0.05104166666666288},{"name":"G3","midi":55,"time":50.2979166666662,"velocity":0.5433070866141733,"duration":0.20416666666666572},{"name":"B3","midi":59,"time":50.45208333333286,"velocity":0.4015748031496063,"duration":0.09687500000000426},{"name":"B4","midi":71,"time":50.55208333333286,"velocity":0.47244094488188976,"duration":0.10312499999999858},{"name":"E4","midi":64,"time":50.660416666666194,"velocity":0.4330708661417323,"duration":0.07916666666666572},{"name":"G3","midi":55,"time":50.791666666666195,"velocity":0.48031496062992124,"duration":0.18333333333333712},{"name":"B3","midi":59,"time":50.91562499999953,"velocity":0.33070866141732286,"duration":0.06354166666667282},{"name":"B4","midi":71,"time":51.08437499999953,"velocity":0.49606299212598426,"duration":0.51145833333333},{"name":"E4","midi":64,"time":51.2322916666662,"velocity":0.3779527559055118,"duration":0.24166666666666714},{"name":"A3","midi":57,"time":51.42812499999953,"velocity":0.5196850393700787,"duration":0.31041666666665435},{"name":"C4","midi":60,"time":51.602083333332864,"velocity":0.31496062992125984,"duration":0.16562499999998437},{"name":"A4","midi":69,"time":51.76458333333285,"velocity":0.4094488188976378,"duration":0.08541666666666714},{"name":"E4","midi":64,"time":51.89895833333285,"velocity":0.2755905511811024,"duration":0.04062499999999858},{"name":"A3","midi":57,"time":51.96458333333285,"velocity":0.4015748031496063,"duration":0.23020833333333002},{"name":"C4","midi":60,"time":52.14687499999951,"velocity":0.28346456692913385,"duration":0.04479166666666856},{"name":"A4","midi":69,"time":52.19687499999951,"velocity":0.3543307086614173,"duration":0.10104166666666003},{"name":"E4","midi":64,"time":52.3156249999995,"velocity":0.30708661417322836,"duration":0.04479166666666856},{"name":"A3","midi":57,"time":52.3999999999995,"velocity":0.44881889763779526,"duration":0.203125},{"name":"C4","midi":60,"time":52.54166666666617,"velocity":0.33858267716535434,"duration":0.10729166666666146},{"name":"A4","midi":69,"time":52.6468749999995,"velocity":0.3464566929133858,"duration":0.08333333333332149},{"name":"E4","midi":64,"time":52.76562499999949,"velocity":0.25196850393700787,"duration":0.022916666666660035},{"name":"A3","midi":57,"time":52.83124999999948,"velocity":0.4645669291338583,"duration":0.1666666666666643},{"name":"C4","midi":60,"time":52.94999999999948,"velocity":0.4094488188976378,"duration":0.0885416666666643},{"name":"A4","midi":69,"time":53.08645833333281,"velocity":0.33858267716535434,"duration":0.10833333333333428},{"name":"E4","midi":64,"time":53.203124999999474,"velocity":0.29133858267716534,"duration":0.01666666666666572},{"name":"A3","midi":57,"time":53.265624999999474,"velocity":0.4645669291338583,"duration":0.21145833333333286},{"name":"C4","midi":60,"time":53.3802083333328,"velocity":0.3937007874015748,"duration":0.07500000000000284},{"name":"C5","midi":72,"time":53.50729166666614,"velocity":0.4015748031496063,"duration":0.07708333333333428},{"name":"E4","midi":64,"time":53.61458333333281,"velocity":0.3858267716535433,"duration":0.0520833333333357},{"name":"A3","midi":57,"time":53.70729166666614,"velocity":0.44881889763779526,"duration":0.1677083333333229},{"name":"C4","midi":60,"time":53.807291666666124,"velocity":0.3543307086614173,"duration":0.09062500000000284},{"name":"C5","midi":72,"time":53.942708333332796,"velocity":0.4330708661417323,"duration":0.08229166666666998},{"name":"E4","midi":64,"time":54.0395833333328,"velocity":0.4251968503937008,"duration":0.05624999999999858},{"name":"A3","midi":57,"time":54.15312499999946,"velocity":0.5118110236220472,"duration":0.1614583333333357},{"name":"C4","midi":60,"time":54.255208333332796,"velocity":0.4094488188976378,"duration":0.0989583333333357},{"name":"C5","midi":72,"time":54.3864583333328,"velocity":0.4330708661417323,"duration":0.06666666666666998},{"name":"E4","midi":64,"time":54.4583333333328,"velocity":0.4409448818897638,"duration":0.07708333333332718},{"name":"A3","midi":57,"time":54.58333333333279,"velocity":0.5196850393700787,"duration":0.14374999999999716},{"name":"C4","midi":60,"time":54.695833333332786,"velocity":0.44881889763779526,"duration":0.07395833333333002},{"name":"C5","midi":72,"time":54.79583333333278,"velocity":0.49606299212598426,"duration":0.11354166666666998},{"name":"E4","midi":64,"time":54.92187499999945,"velocity":0.4409448818897638,"duration":0.04791666666666572},{"name":"B3","midi":59,"time":55.01666666666612,"velocity":0.5984251968503937,"duration":0.2145833333333158},{"name":"D4","midi":62,"time":55.13854166666611,"velocity":0.44881889763779526,"duration":0.13333333333333286},{"name":"C5","midi":72,"time":55.25208333333277,"velocity":0.5118110236220472,"duration":0.08541666666666714},{"name":"E4","midi":64,"time":55.356249999999434,"velocity":0.3700787401574803,"duration":0.05624999999999858},{"name":"B3","midi":59,"time":55.45312499999943,"velocity":0.48031496062992124,"duration":0.17395833333331723},{"name":"D4","midi":62,"time":55.57708333333276,"velocity":0.4330708661417323,"duration":0.09687499999999005},{"name":"C5","midi":72,"time":55.71562499999941,"velocity":0.4409448818897638,"duration":0.07083333333333286},{"name":"E4","midi":64,"time":55.797916666666076,"velocity":0.3779527559055118,"duration":0.0520833333333357},{"name":"B3","midi":59,"time":55.91458333333274,"velocity":0.47244094488188976,"duration":0.16458333333332575},{"name":"D4","midi":62,"time":56.02291666666607,"velocity":0.4094488188976378,"duration":0.10208333333333286},{"name":"C5","midi":72,"time":56.14583333333273,"velocity":0.4881889763779528,"duration":0.07916666666666572},{"name":"E4","midi":64,"time":56.24583333333273,"velocity":0.3779527559055118,"duration":0.05937500000000284},{"name":"B3","midi":59,"time":56.35833333333274,"velocity":0.4881889763779528,"duration":0.16354166666667425},{"name":"D4","midi":62,"time":56.46249999999941,"velocity":0.4094488188976378,"duration":0.10208333333333286},{"name":"C5","midi":72,"time":56.59687499999941,"velocity":0.48031496062992124,"duration":0.07395833333333002},{"name":"E4","midi":64,"time":56.68333333333274,"velocity":0.4330708661417323,"duration":0.05833333333333712},{"name":"B3","midi":59,"time":56.811458333332745,"velocity":0.5275590551181102,"duration":0.1510416666666643},{"name":"D4","midi":62,"time":56.91458333333274,"velocity":0.4566929133858268,"duration":0.08229166666666288},{"name":"C5","midi":72,"time":57.041666666666075,"velocity":0.5511811023622047,"duration":0.10833333333333428},{"name":"E4","midi":64,"time":57.153124999999406,"velocity":0.4330708661417323,"duration":0.06562499999999716},{"name":"B3","midi":59,"time":57.256249999999405,"velocity":0.5669291338582677,"duration":0.1562499999999929},{"name":"D4","midi":62,"time":57.353124999999395,"velocity":0.4409448818897638,"duration":0.10208333333333997},{"name":"C5","midi":72,"time":57.482291666666065,"velocity":0.5354330708661418,"duration":0.10000000000000142},{"name":"E4","midi":64,"time":57.5968749999994,"velocity":0.4409448818897638,"duration":0.04999999999999716},{"name":"B3","midi":59,"time":57.70208333333274,"velocity":0.5354330708661418,"duration":0.1406249999999929},{"name":"D4","midi":62,"time":57.81354166666607,"velocity":0.3937007874015748,"duration":0.08124999999999716},{"name":"B4","midi":71,"time":57.933333333332726,"velocity":0.5433070866141733,"duration":0.08749999999999858},{"name":"E4","midi":64,"time":58.04374999999939,"velocity":0.4566929133858268,"duration":0.05104166666666288},{"name":"B3","midi":59,"time":58.15208333333271,"velocity":0.5511811023622047,"duration":0.1354166666666572},{"name":"D4","midi":62,"time":58.26666666666603,"velocity":0.4251968503937008,"duration":0.06354166666666572},{"name":"B4","midi":71,"time":58.3739583333327,"velocity":0.5826771653543307,"duration":0.12083333333333002},{"name":"E4","midi":64,"time":58.49687499999936,"velocity":0.3937007874015748,"duration":0.03437499999999716},{"name":"C4","midi":60,"time":58.610416666666026,"velocity":0.5669291338582677,"duration":0.2302083333333016},{"name":"E4","midi":64,"time":58.776041666666,"velocity":0.4409448818897638,"duration":0.08124999999999005},{"name":"C5","midi":72,"time":58.884374999999324,"velocity":0.4881889763779528,"duration":0.08958333333333002},{"name":"E4","midi":64,"time":58.99062499999932,"velocity":0.4409448818897638,"duration":0.03750000000000142},{"name":"C4","midi":60,"time":59.09583333333265,"velocity":0.5275590551181102,"duration":0.09166666666666856},{"name":"E4","midi":64,"time":59.17395833333265,"velocity":0.3858267716535433,"duration":0.03020833333333428},{"name":"C5","midi":72,"time":59.299999999999315,"velocity":0.5275590551181102,"duration":0.07499999999999574},{"name":"E4","midi":64,"time":59.371874999999314,"velocity":0.3779527559055118,"duration":0.05520833333333286},{"name":"C4","midi":60,"time":59.50624999999931,"velocity":0.4881889763779528,"duration":0.11666666666666714},{"name":"E4","midi":64,"time":59.643749999999315,"velocity":0.25984251968503935,"duration":0.019791666666669983},{"name":"C5","midi":72,"time":59.73854166666598,"velocity":0.5748031496062992,"duration":0.06875000000000142},{"name":"E4","midi":64,"time":59.83437499999931,"velocity":0.4409448818897638,"duration":0.0572916666666643},{"name":"C4","midi":60,"time":59.96249999999931,"velocity":0.48031496062992124,"duration":0.11562500000000142},{"name":"E4","midi":64,"time":60.03020833333264,"velocity":0.4881889763779528,"duration":0.06354166666667282},{"name":"C5","midi":72,"time":60.18958333333264,"velocity":0.5511811023622047,"duration":0.06458333333333144},{"name":"E4","midi":64,"time":60.281249999999304,"velocity":0.41732283464566927,"duration":0.03333333333333144},{"name":"C4","midi":60,"time":60.39791666666597,"velocity":0.49606299212598426,"duration":0.12812499999999716},{"name":"E4","midi":64,"time":60.47395833333263,"velocity":0.2992125984251969,"duration":0.07395833333333002},{"name":"D5","midi":74,"time":60.628124999999294,"velocity":0.5826771653543307,"duration":0.07083333333333286},{"name":"E4","midi":64,"time":60.74270833333263,"velocity":0.4330708661417323,"duration":0.03958333333333286},{"name":"C4","midi":60,"time":60.85520833333263,"velocity":0.5669291338582677,"duration":0.1354166666666572},{"name":"E4","midi":64,"time":60.97291666666595,"velocity":0.44881889763779526,"duration":0.07499999999999574},{"name":"D5","midi":74,"time":61.097916666665945,"velocity":0.6220472440944882,"duration":0.07083333333333286},{"name":"E4","midi":64,"time":61.247916666665944,"velocity":0.3543307086614173,"duration":0.006250000000001421},{"name":"C4","midi":60,"time":61.316666666665945,"velocity":0.5511811023622047,"duration":0.12916666666665577},{"name":"E4","midi":64,"time":61.427083333332604,"velocity":0.25196850393700787,"duration":0.0572916666666643},{"name":"C5","midi":72,"time":61.547916666665934,"velocity":0.6141732283464567,"duration":0.0833333333333357},{"name":"E4","midi":64,"time":61.62916666666594,"velocity":0.4409448818897638,"duration":0.05520833333333286},{"name":"C4","midi":60,"time":61.7645833333326,"velocity":0.5669291338582677,"duration":0.11666666666666714},{"name":"E4","midi":64,"time":61.85624999999927,"velocity":0.4094488188976378,"duration":0.07187499999999858},{"name":"B4","midi":71,"time":62.01041666666594,"velocity":0.5590551181102362,"duration":0.0885416666666643},{"name":"E4","midi":64,"time":62.11354166666594,"velocity":0.4566929133858268,"duration":0.07187499999999858},{"name":"B3","midi":59,"time":62.23437499999927,"velocity":0.5433070866141733,"duration":0.22187499999999005},{"name":"D4","midi":62,"time":62.38749999999926,"velocity":0.44881889763779526,"duration":0.08958333333333712},{"name":"C5","midi":72,"time":62.483333333332595,"velocity":0.5039370078740157,"duration":0.05937499999999574},{"name":"E4","midi":64,"time":62.61874999999926,"velocity":0.33858267716535434,"duration":0.012499999999995737},{"name":"B3","midi":59,"time":62.669791666665915,"velocity":0.4645669291338583,"duration":0.16354166666666003},{"name":"D4","midi":62,"time":62.79895833333258,"velocity":0.4566929133858268,"duration":0.06979166666666714},{"name":"C5","midi":72,"time":62.911458333332575,"velocity":0.5354330708661418,"duration":0.07187499999999858},{"name":"E4","midi":64,"time":63.01249999999924,"velocity":0.4094488188976378,"duration":0.04375000000000284},{"name":"B3","midi":59,"time":63.11979166666591,"velocity":0.5590551181102362,"duration":0.18020833333333286},{"name":"D4","midi":62,"time":63.24791666666591,"velocity":0.44881889763779526,"duration":0.10625000000000284},{"name":"C5","midi":72,"time":63.35729166666591,"velocity":0.5354330708661418,"duration":0.0833333333333357},{"name":"E4","midi":64,"time":63.458333333332575,"velocity":0.4409448818897638,"duration":0.04999999999999716},{"name":"B3","midi":59,"time":63.56562499999924,"velocity":0.5354330708661418,"duration":0.14791666666666003},{"name":"D4","midi":62,"time":63.67708333333257,"velocity":0.4251968503937008,"duration":0.0989583333333286},{"name":"C5","midi":72,"time":63.7885416666659,"velocity":0.5826771653543307,"duration":0.09062499999999574},{"name":"E4","midi":64,"time":63.89583333333256,"velocity":0.4251968503937008,"duration":0.05520833333333286},{"name":"B3","midi":59,"time":64.0010416666659,"velocity":0.5590551181102362,"duration":0.19479166666667425},{"name":"D4","midi":62,"time":64.1260416666659,"velocity":0.49606299212598426,"duration":0.1406250000000142},{"name":"D5","midi":74,"time":64.23854166666591,"velocity":0.5748031496062992,"duration":0.09687499999999716},{"name":"E4","midi":64,"time":64.34999999999924,"velocity":0.5118110236220472,"duration":0.05833333333333712},{"name":"B3","midi":59,"time":64.46145833333257,"velocity":0.5669291338582677,"duration":0.1364583333333087},{"name":"D4","midi":62,"time":64.58645833333256,"velocity":0.4409448818897638,"duration":0.0677083333333286},{"name":"D5","midi":74,"time":64.68437499999922,"velocity":0.6456692913385826,"duration":0.08750000000000568},{"name":"E4","midi":64,"time":64.80937499999922,"velocity":0.4566929133858268,"duration":0.040625000000005684},{"name":"B3","midi":59,"time":64.89270833333256,"velocity":0.5511811023622047,"duration":0.16979166666665435},{"name":"D4","midi":62,"time":65.00833333333256,"velocity":0.4094488188976378,"duration":0.11041666666666572},{"name":"C5","midi":72,"time":65.1291666666659,"velocity":0.6141732283464567,"duration":0.09375},{"name":"E4","midi":64,"time":65.25208333333256,"velocity":0.36220472440944884,"duration":0.041666666666671404},{"name":"B3","midi":59,"time":65.34062499999922,"velocity":0.5511811023622047,"duration":0.12395833333333428},{"name":"D4","midi":62,"time":65.48020833333256,"velocity":0.3543307086614173,"duration":0.06145833333333428},{"name":"B4","midi":71,"time":65.60937499999922,"velocity":0.5433070866141733,"duration":0.1302083333333286},{"name":"E4","midi":64,"time":65.73229166666589,"velocity":0.48031496062992124,"duration":0.08229166666666288},{"name":"A3","midi":57,"time":65.91354166666588,"velocity":0.5905511811023622,"duration":0.26666666666659467},{"name":"C4","midi":60,"time":66.08854166666583,"velocity":0.4094488188976378,"duration":0.14270833333331723},{"name":"C5","midi":72,"time":66.21249999999914,"velocity":0.48031496062992124,"duration":0.08333333333334281},{"name":"E4","midi":64,"time":66.31770833333248,"velocity":0.3858267716535433,"duration":0.040625000000005684},{"name":"A3","midi":57,"time":66.39583333333248,"velocity":0.5039370078740157,"duration":0.16562500000000568},{"name":"C4","midi":60,"time":66.53020833333248,"velocity":0.4330708661417323,"duration":0.06874999999999432},{"name":"C5","midi":72,"time":66.64895833333247,"velocity":0.5354330708661418,"duration":0.08541666666667425},{"name":"E4","midi":64,"time":66.75624999999914,"velocity":0.4251968503937008,"duration":0.040625000000005684},{"name":"A3","midi":57,"time":66.84999999999914,"velocity":0.4881889763779528,"duration":0.13229166666666003},{"name":"C4","midi":60,"time":66.98020833333247,"velocity":0.4015748031496063,"duration":0.037499999999994316},{"name":"C5","midi":72,"time":67.10520833333247,"velocity":0.6062992125984252,"duration":0.06666666666666288},{"name":"E4","midi":64,"time":67.2072916666658,"velocity":0.3937007874015748,"duration":0.04479166666666856},{"name":"A3","midi":57,"time":67.28333333333245,"velocity":0.5669291338582677,"duration":0.15312500000000284},{"name":"C4","midi":60,"time":67.42187499999912,"velocity":0.4251968503937008,"duration":0.06041666666666856},{"name":"C5","midi":72,"time":67.53020833333245,"velocity":0.6299212598425197,"duration":0.11562499999999432},{"name":"E4","midi":64,"time":67.65208333333244,"velocity":0.4330708661417323,"duration":0.04791666666666572},{"name":"A3","midi":57,"time":67.72812499999911,"velocity":0.5511811023622047,"duration":0.1677083333333229},{"name":"C4","midi":60,"time":67.86458333333243,"velocity":0.4881889763779528,"duration":0.08124999999999716},{"name":"D5","midi":74,"time":67.9812499999991,"velocity":0.6614173228346457,"duration":0.10416666666664298},{"name":"E4","midi":64,"time":68.10104166666574,"velocity":0.4566929133858268,"duration":0.06354166666667993},{"name":"A3","midi":57,"time":68.16979166666574,"velocity":0.5590551181102362,"duration":0.14374999999999716},{"name":"C4","midi":60,"time":68.30729166666575,"velocity":0.44881889763779526,"duration":0.05729166666665719},{"name":"D5","midi":74,"time":68.41979166666574,"velocity":0.6535433070866141,"duration":0.10312499999999147},{"name":"E4","midi":64,"time":68.53229166666574,"velocity":0.4645669291338583,"duration":0.0625},{"name":"A3","midi":57,"time":68.62708333333241,"velocity":0.5748031496062992,"duration":0.14999999999999147},{"name":"C4","midi":60,"time":68.74479166666573,"velocity":0.49606299212598426,"duration":0.07916666666666572},{"name":"C5","midi":72,"time":68.8583333333324,"velocity":0.6220472440944882,"duration":0.10312499999997726},{"name":"E4","midi":64,"time":68.94999999999905,"velocity":0.4330708661417323,"duration":0.0687499999999801},{"name":"A3","midi":57,"time":69.06249999999903,"velocity":0.5984251968503937,"duration":0.16770833333333712},{"name":"C4","midi":60,"time":69.17499999999903,"velocity":0.5118110236220472,"duration":0.09479166666667993},{"name":"B4","midi":71,"time":69.29999999999905,"velocity":0.6377952755905512,"duration":0.10833333333333428},{"name":"E4","midi":64,"time":69.42812499999904,"velocity":0.4645669291338583,"duration":0.055208333333339965},{"name":"G3","midi":55,"time":69.51458333333238,"velocity":0.5590551181102362,"duration":0.1947916666666032},{"name":"B3","midi":59,"time":69.62187499999901,"velocity":0.49606299212598426,"duration":0.17499999999998295},{"name":"C5","midi":72,"time":69.74479166666566,"velocity":0.5590551181102362,"duration":0.09166666666666856},{"name":"E4","midi":64,"time":69.849999999999,"velocity":0.4094488188976378,"duration":0.056250000000005684},{"name":"G3","midi":55,"time":69.96249999999898,"velocity":0.44881889763779526,"duration":0.1614583333333428},{"name":"B3","midi":59,"time":70.07916666666566,"velocity":0.4330708661417323,"duration":0.09583333333333144},{"name":"C5","midi":72,"time":70.209374999999,"velocity":0.6141732283464567,"duration":0.12604166666666572},{"name":"E4","midi":64,"time":70.337499999999,"velocity":0.3858267716535433,"duration":0.056249999999991473},{"name":"G3","midi":55,"time":70.42187499999896,"velocity":0.5196850393700787,"duration":0.18229166666664298},{"name":"B3","midi":59,"time":70.52499999999894,"velocity":0.4409448818897638,"duration":0.15520833333333428},{"name":"B4","midi":71,"time":70.6854166666656,"velocity":0.5748031496062992,"duration":0.08750000000000568},{"name":"E4","midi":64,"time":70.79374999999894,"velocity":0.4409448818897638,"duration":0.05937500000000284},{"name":"G3","midi":55,"time":70.88124999999894,"velocity":0.5275590551181102,"duration":0.15833333333333144},{"name":"B3","midi":59,"time":70.98645833333227,"velocity":0.5118110236220472,"duration":0.08333333333334281},{"name":"B4","midi":71,"time":71.11666666666561,"velocity":0.6220472440944882,"duration":0.09687499999999716},{"name":"E4","midi":64,"time":71.22291666666561,"velocity":0.4645669291338583,"duration":0.056250000000005684},{"name":"G3","midi":55,"time":71.31458333333228,"velocity":0.5826771653543307,"duration":0.17812499999995168},{"name":"B3","midi":59,"time":71.40208333333224,"velocity":0.5039370078740157,"duration":0.1354166666666572},{"name":"D5","midi":74,"time":71.54270833333223,"velocity":0.6377952755905512,"duration":0.12291666666666856},{"name":"E4","midi":64,"time":71.66458333333223,"velocity":0.4645669291338583,"duration":0.08229166666666288},{"name":"G3","midi":55,"time":71.74895833333223,"velocity":0.6141732283464567,"duration":0.17604166666666288},{"name":"B3","midi":59,"time":71.88124999999889,"velocity":0.4409448818897638,"duration":0.08958333333333712},{"name":"D5","midi":74,"time":71.99166666666555,"velocity":0.6692913385826772,"duration":0.11875000000000568},{"name":"E4","midi":64,"time":72.1187499999989,"velocity":0.5354330708661418,"duration":0.0677083333333286},{"name":"G3","midi":55,"time":72.23333333333223,"velocity":0.6850393700787402,"duration":0.19479166666664582},{"name":"B3","midi":59,"time":72.36458333333222,"velocity":0.47244094488188976,"duration":0.10833333333330586},{"name":"E5","midi":76,"time":72.5020833333322,"velocity":0.7165354330708661,"duration":0.08645833333333997},{"name":"E4","midi":64,"time":72.6270833333322,"velocity":0.44881889763779526,"duration":0.046875},{"name":"G3","midi":55,"time":72.7208333333322,"velocity":0.5433070866141733,"duration":0.16250000000000853},{"name":"B3","midi":59,"time":72.8583333333322,"velocity":0.4881889763779528,"duration":0.09479166666666572},{"name":"E5","midi":76,"time":73.02812499999887,"velocity":0.6771653543307087,"duration":0.08750000000000568},{"name":"E4","midi":64,"time":73.17291666666554,"velocity":0.47244094488188976,"duration":0.04583333333333428},{"name":"A3","midi":57,"time":73.34687499999887,"velocity":0.6692913385826772,"duration":0.2562499999999801},{"name":"C4","midi":60,"time":73.51562499999885,"velocity":0.47244094488188976,"duration":0.1510416666666714},{"name":"C5","midi":72,"time":73.66666666666552,"velocity":0.49606299212598426,"duration":0.07604166666666856},{"name":"E4","midi":64,"time":73.75104166666553,"velocity":0.5039370078740157,"duration":0.041666666666671404},{"name":"A3","midi":57,"time":73.88124999999887,"velocity":0.5196850393700787,"duration":0.14999999999997726},{"name":"C4","midi":60,"time":73.97395833333218,"velocity":0.4251968503937008,"duration":0.11041666666666572},{"name":"C5","midi":72,"time":74.11562499999884,"velocity":0.5984251968503937,"duration":0.07604166666666856},{"name":"E4","midi":64,"time":74.21249999999884,"velocity":0.44881889763779526,"duration":0.03541666666666288},{"name":"A3","midi":57,"time":74.30937499999882,"velocity":0.48031496062992124,"duration":0.1614583333333286},{"name":"C4","midi":60,"time":74.41458333333216,"velocity":0.36220472440944884,"duration":0.09374999999998579},{"name":"C5","midi":72,"time":74.53958333333215,"velocity":0.6220472440944882,"duration":0.07500000000000284},{"name":"E4","midi":64,"time":74.66770833333214,"velocity":0.3937007874015748,"duration":0.019791666666662877},{"name":"A3","midi":57,"time":74.74687499999881,"velocity":0.5196850393700787,"duration":0.15208333333333712},{"name":"C4","midi":60,"time":74.84583333333215,"velocity":0.4015748031496063,"duration":0.08958333333332291},{"name":"C5","midi":72,"time":74.97291666666548,"velocity":0.5826771653543307,"duration":0.09791666666666288},{"name":"E4","midi":64,"time":75.08645833333215,"velocity":0.4566929133858268,"duration":0.04791666666666572},{"name":"A3","midi":57,"time":75.18541666666546,"velocity":0.5196850393700787,"duration":0.17395833333334565},{"name":"C4","midi":60,"time":75.29791666666547,"velocity":0.4251968503937008,"duration":0.10104166666667425},{"name":"D5","midi":74,"time":75.41249999999881,"velocity":0.6141732283464567,"duration":0.09166666666666856},{"name":"E4","midi":64,"time":75.52083333333215,"velocity":0.44881889763779526,"duration":0.04583333333333428},{"name":"A3","midi":57,"time":75.63437499999881,"velocity":0.5196850393700787,"duration":0.12604166666666572},{"name":"C4","midi":60,"time":75.73229166666547,"velocity":0.4094488188976378,"duration":0.09375},{"name":"D5","midi":74,"time":75.84895833333213,"velocity":0.6062992125984252,"duration":0.0677083333333286},{"name":"E4","midi":64,"time":75.9937499999988,"velocity":0.31496062992125984,"duration":0.01666666666666572},{"name":"A3","midi":57,"time":76.0593749999988,"velocity":0.5196850393700787,"duration":0.17916666666664582},{"name":"C4","midi":60,"time":76.17083333333211,"velocity":0.4015748031496063,"duration":0.10729166666666856},{"name":"C5","midi":72,"time":76.29479166666545,"velocity":0.5984251968503937,"duration":0.09166666666666856},{"name":"E4","midi":64,"time":76.39166666666544,"velocity":0.44881889763779526,"duration":0.053124999999994316},{"name":"A3","midi":57,"time":76.50729166666542,"velocity":0.5354330708661418,"duration":0.15208333333333712},{"name":"C4","midi":60,"time":76.6208333333321,"velocity":0.4645669291338583,"duration":0.08541666666666003},{"name":"B4","midi":71,"time":76.73854166666543,"velocity":0.5511811023622047,"duration":0.0833333333333286},{"name":"E4","midi":64,"time":76.84791666666543,"velocity":0.4645669291338583,"duration":0.04583333333333428},{"name":"B3","midi":59,"time":76.96770833333208,"velocity":0.5590551181102362,"duration":0.18020833333331154},{"name":"D4","midi":62,"time":77.06562499999873,"velocity":0.4645669291338583,"duration":0.13854166666665435},{"name":"C5","midi":72,"time":77.19687499999873,"velocity":0.5433070866141733,"duration":0.07395833333332291},{"name":"E4","midi":64,"time":77.30937499999871,"velocity":0.4015748031496063,"duration":0.04583333333333428},{"name":"B3","midi":59,"time":77.40729166666537,"velocity":0.4330708661417323,"duration":0.19479166666667425},{"name":"D4","midi":62,"time":77.52604166666538,"velocity":0.4094488188976378,"duration":0.08750000000000568},{"name":"C5","midi":72,"time":77.64062499999872,"velocity":0.5118110236220472,"duration":0.07395833333333712},{"name":"E4","midi":64,"time":77.73437499999872,"velocity":0.4330708661417323,"duration":0.056250000000005684},{"name":"B3","midi":59,"time":77.84999999999873,"velocity":0.5118110236220472,"duration":0.14791666666667425},{"name":"D4","midi":62,"time":77.96770833333207,"velocity":0.4251968503937008,"duration":0.08750000000000568},{"name":"C5","midi":72,"time":78.08749999999874,"velocity":0.5275590551181102,"duration":0.08229166666666288},{"name":"E4","midi":64,"time":78.18958333333207,"velocity":0.4330708661417323,"duration":0.053124999999994316},{"name":"B3","midi":59,"time":78.29374999999871,"velocity":0.49606299212598426,"duration":0.1312499999999801},{"name":"D4","midi":62,"time":78.40937499999869,"velocity":0.4251968503937008,"duration":0.08645833333333997},{"name":"C5","midi":72,"time":78.52916666666536,"velocity":0.5984251968503937,"duration":0.09270833333333428},{"name":"E4","midi":64,"time":78.6499999999987,"velocity":0.4015748031496063,"duration":0.04375000000000284},{"name":"B3","midi":59,"time":78.74791666666536,"velocity":0.5590551181102362,"duration":0.1520833333332945},{"name":"D4","midi":62,"time":78.86979166666534,"velocity":0.41732283464566927,"duration":0.07083333333332575},{"name":"D5","midi":74,"time":78.97604166666532,"velocity":0.6377952755905512,"duration":0.08124999999999716},{"name":"E4","midi":64,"time":79.11145833333198,"velocity":0.4330708661417323,"duration":0.0427083333333087},{"name":"B3","midi":59,"time":79.18541666666528,"velocity":0.5275590551181102,"duration":0.12187500000001705},{"name":"D4","midi":62,"time":79.29687499999862,"velocity":0.48031496062992124,"duration":0.04479166666666856},{"name":"D5","midi":74,"time":79.38958333333196,"velocity":0.5590551181102362,"duration":0.08750000000000568},{"name":"E4","midi":64,"time":79.48958333333196,"velocity":0.4566929133858268,"duration":0.053124999999994316},{"name":"B3","midi":59,"time":79.62395833333196,"velocity":0.5905511811023622,"duration":0.15312499999998863},{"name":"D4","midi":62,"time":79.71145833333195,"velocity":0.3779527559055118,"duration":0.12708333333333144},{"name":"C5","midi":72,"time":79.82499999999861,"velocity":0.5984251968503937,"duration":0.12604166666666572},{"name":"E4","midi":64,"time":79.9562499999986,"velocity":0.4094488188976378,"duration":0.053124999999994316},{"name":"B3","midi":59,"time":80.04583333333193,"velocity":0.5669291338582677,"duration":0.13333333333333997},{"name":"D4","midi":62,"time":80.16770833333193,"velocity":0.4645669291338583,"duration":0.07187500000000568},{"name":"B4","midi":71,"time":80.28124999999861,"velocity":0.5354330708661418,"duration":0.12291666666666856},{"name":"E4","midi":64,"time":80.39895833333195,"velocity":0.5275590551181102,"duration":0.04999999999999716},{"name":"C4","midi":60,"time":80.54895833333194,"velocity":0.6141732283464567,"duration":0.1947916666666316},{"name":"E4","midi":64,"time":80.71979166666523,"velocity":0.49606299212598426,"duration":0.0885416666666714},{"name":"C5","midi":72,"time":80.83854166666524,"velocity":0.6220472440944882,"duration":0.08854166666665719},{"name":"E4","midi":64,"time":80.96562499999855,"velocity":0.3700787401574803,"duration":0.015625},{"name":"C4","midi":60,"time":81.05624999999856,"velocity":0.5590551181102362,"duration":0.13437500000000568},{"name":"E4","midi":64,"time":81.17604166666523,"velocity":0.36220472440944884,"duration":0.08020833333333144},{"name":"C5","midi":72,"time":81.2958333333319,"velocity":0.5984251968503937,"duration":0.07708333333333428},{"name":"E4","midi":64,"time":81.3864583333319,"velocity":0.3937007874015748,"duration":0.041666666666671404},{"name":"C4","midi":60,"time":81.49166666666522,"velocity":0.5433070866141733,"duration":0.14895833333333997},{"name":"E4","midi":64,"time":81.6333333333319,"velocity":0.4094488188976378,"duration":0.07291666666665719},{"name":"C5","midi":72,"time":81.7552083333319,"velocity":0.6062992125984252,"duration":0.08124999999999716},{"name":"E4","midi":64,"time":81.86041666666523,"velocity":0.4409448818897638,"duration":0.04374999999998863},{"name":"C4","midi":60,"time":81.94270833333186,"velocity":0.48031496062992124,"duration":0.16041666666664867},{"name":"E4","midi":64,"time":82.07916666666517,"velocity":0.3937007874015748,"duration":0.057291666666671404},{"name":"C5","midi":72,"time":82.18333333333184,"velocity":0.5748031496062992,"duration":0.08437500000000853},{"name":"E4","midi":64,"time":82.25208333333185,"velocity":0.49606299212598426,"duration":0.08020833333333144},{"name":"C4","midi":60,"time":82.40416666666519,"velocity":0.5748031496062992,"duration":0.14687499999999432},{"name":"E4","midi":64,"time":82.53229166666519,"velocity":0.44881889763779526,"duration":0.04999999999999716},{"name":"D5","midi":74,"time":82.62708333333185,"velocity":0.6220472440944882,"duration":0.07187499999999147},{"name":"E4","midi":64,"time":82.7531249999985,"velocity":0.4094488188976378,"duration":0.039583333333339965},{"name":"C4","midi":60,"time":82.84895833333184,"velocity":0.5511811023622047,"duration":0.1260416666666373},{"name":"E4","midi":64,"time":82.96666666666515,"velocity":0.4094488188976378,"duration":0.05937499999998863},{"name":"D5","midi":74,"time":83.06874999999847,"velocity":0.6535433070866141,"duration":0.07083333333332575},{"name":"E4","midi":64,"time":83.18541666666513,"velocity":0.44881889763779526,"duration":0.041666666666671404},{"name":"C4","midi":60,"time":83.2989583333318,"velocity":0.5590551181102362,"duration":0.15416666666666856},{"name":"E4","midi":64,"time":83.41979166666512,"velocity":0.4330708661417323,"duration":0.06041666666668277},{"name":"C5","midi":72,"time":83.53541666666514,"velocity":0.6299212598425197,"duration":0.09479166666666572},{"name":"E4","midi":64,"time":83.62916666666514,"velocity":0.48031496062992124,"duration":0.05833333333333712},{"name":"C4","midi":60,"time":83.73645833333181,"velocity":0.5826771653543307,"duration":0.15833333333334565},{"name":"E4","midi":64,"time":83.85416666666515,"velocity":0.5118110236220472,"duration":0.08541666666667425},{"name":"B4","midi":71,"time":83.98229166666516,"velocity":0.6614173228346457,"duration":0.11875000000000568},{"name":"E4","midi":64,"time":84.11145833333184,"velocity":0.5039370078740157,"duration":0.06041666666666856},{"name":"D4","midi":62,"time":84.25729166666517,"velocity":0.6614173228346457,"duration":0.20729166666664867},{"name":"F4","midi":65,"time":84.42291666666515,"velocity":0.4645669291338583,"duration":0.10729166666666856},{"name":"C5","midi":72,"time":84.53749999999847,"velocity":0.6299212598425197,"duration":0.08229166666666288},{"name":"E4","midi":64,"time":84.65729166666513,"velocity":0.4330708661417323,"duration":0.04375000000000284},{"name":"D4","midi":62,"time":84.73437499999847,"velocity":0.5354330708661418,"duration":0.15312500000000284},{"name":"F4","midi":65,"time":84.86874999999847,"velocity":0.49606299212598426,"duration":0.08124999999999716},{"name":"C5","midi":72,"time":84.9520833333318,"velocity":0.6220472440944882,"duration":0.06979166666666003},{"name":"E4","midi":64,"time":85.04166666666512,"velocity":0.48031496062992124,"duration":0.06354166666666572},{"name":"D4","midi":62,"time":85.14791666666513,"velocity":0.5905511811023622,"duration":0.15208333333333712},{"name":"F4","midi":65,"time":85.26041666666512,"velocity":0.5590551181102362,"duration":0.09270833333333428},{"name":"C5","midi":72,"time":85.37291666666512,"velocity":0.7244094488188977,"duration":0.0729166666666714},{"name":"E4","midi":64,"time":85.48124999999845,"velocity":0.4566929133858268,"duration":0.046875},{"name":"D4","midi":62,"time":85.57499999999844,"velocity":0.5984251968503937,"duration":0.13437500000000568},{"name":"F4","midi":65,"time":85.69062499999845,"velocity":0.5433070866141733,"duration":0.09375},{"name":"C5","midi":72,"time":85.79791666666512,"velocity":0.6141732283464567,"duration":0.09687499999999716},{"name":"E4","midi":64,"time":85.91458333333178,"velocity":0.4015748031496063,"duration":0.04895833333333144},{"name":"D4","midi":62,"time":86.00624999999845,"velocity":0.6141732283464567,"duration":0.1562499999999858},{"name":"F4","midi":65,"time":86.12291666666509,"velocity":0.5196850393700787,"duration":0.12395833333334849},{"name":"B4","midi":71,"time":86.2229166666651,"velocity":0.6771653543307087,"duration":0.1250000000000142},{"name":"E4","midi":64,"time":86.35833333333179,"velocity":0.4881889763779528,"duration":0.06874999999999432},{"name":"D4","midi":62,"time":86.43749999999845,"velocity":0.5590551181102362,"duration":0.17083333333332007},{"name":"F4","midi":65,"time":86.58541666666511,"velocity":0.5511811023622047,"duration":0.09270833333332007},{"name":"B4","midi":71,"time":86.6729166666651,"velocity":0.6692913385826772,"duration":0.10416666666665719},{"name":"E4","midi":64,"time":86.77916666666509,"velocity":0.47244094488188976,"duration":0.06666666666666288},{"name":"D4","midi":62,"time":86.88958333333176,"velocity":0.6377952755905512,"duration":0.16041666666666288},{"name":"F4","midi":65,"time":87.01770833333175,"velocity":0.5354330708661418,"duration":0.10208333333332575},{"name":"D5","midi":74,"time":87.10104166666508,"velocity":0.6771653543307087,"duration":0.10312499999999147},{"name":"E4","midi":64,"time":87.24895833333174,"velocity":0.3858267716535433,"duration":0.040625000000005684},{"name":"D4","midi":62,"time":87.33749999999841,"velocity":0.6220472440944882,"duration":0.14374999999999716},{"name":"F4","midi":65,"time":87.45416666666507,"velocity":0.5826771653543307,"duration":0.08020833333333144},{"name":"D5","midi":74,"time":87.61979166666507,"velocity":0.6614173228346457,"duration":0.15208333333333712},{"name":"E4","midi":64,"time":87.7843749999984,"velocity":0.5748031496062992,"duration":0.09166666666666856},{"name":"A3","midi":57,"time":87.96874999999841,"velocity":0.7007874015748031,"duration":0.5666666666666202},{"name":"E4","midi":64,"time":88.20104166666502,"velocity":0.5118110236220472,"duration":0.35104166666667425},{"name":"C5","midi":72,"time":88.41249999999836,"velocity":0.6614173228346457,"duration":0.15833333333333144},{"name":"F4","midi":65,"time":88.55833333333169,"velocity":0.5433070866141733,"duration":0.09062500000000284},{"name":"A3","midi":57,"time":88.71874999999835,"velocity":0.6220472440944882,"duration":0.20208333333330586},{"name":"E4","midi":64,"time":88.85520833333166,"velocity":0.47244094488188976,"duration":0.08541666666666003},{"name":"C5","midi":72,"time":88.98333333333166,"velocity":0.6535433070866141,"duration":0.06562499999999716},{"name":"F4","midi":65,"time":89.11666666666498,"velocity":0.33070866141732286,"duration":0.004166666666662877},{"name":"A3","midi":57,"time":89.18333333333165,"velocity":0.6535433070866141,"duration":0.11562499999999432},{"name":"E4","midi":64,"time":89.30520833333163,"velocity":0.4409448818897638,"duration":0.08020833333333144},{"name":"C5","midi":72,"time":89.44270833333164,"velocity":0.5118110236220472,"duration":0.078125},{"name":"F4","midi":65,"time":89.54687499999831,"velocity":0.4409448818897638,"duration":0.03645833333334281},{"name":"A3","midi":57,"time":89.63958333333164,"velocity":0.6141732283464567,"duration":0.10104166666667425},{"name":"E4","midi":64,"time":89.74583333333165,"velocity":0.4330708661417323,"duration":0.08645833333333997},{"name":"C5","midi":72,"time":89.85937499999832,"velocity":0.5196850393700787,"duration":0.09791666666666288},{"name":"F4","midi":65,"time":89.96874999999832,"velocity":0.4251968503937008,"duration":0.039583333333339965},{"name":"A3","midi":57,"time":90.05104166666499,"velocity":0.6377952755905512,"duration":0.11562500000000853},{"name":"E4","midi":64,"time":90.16874999999833,"velocity":0.4566929133858268,"duration":0.078125},{"name":"C5","midi":72,"time":90.27083333333167,"velocity":0.4566929133858268,"duration":0.078125},{"name":"A4","midi":69,"time":90.36562499999833,"velocity":0.4881889763779528,"duration":0.07708333333333428},{"name":"A3","midi":57,"time":90.47916666666498,"velocity":0.6141732283464567,"duration":0.10625000000001705},{"name":"E4","midi":64,"time":90.58333333333167,"velocity":0.47244094488188976,"duration":0.0677083333333286},{"name":"C5","midi":72,"time":90.682291666665,"velocity":0.5196850393700787,"duration":0.12083333333332291},{"name":"A4","midi":69,"time":90.79583333333166,"velocity":0.5196850393700787,"duration":0.07500000000000284},{"name":"A3","midi":57,"time":90.916666666665,"velocity":0.6220472440944882,"duration":0.11354166666666288},{"name":"E4","midi":64,"time":91.00937499999833,"velocity":0.4251968503937008,"duration":0.06979166666666003},{"name":"C5","midi":72,"time":91.13229166666498,"velocity":0.5590551181102362,"duration":0.0989583333333286},{"name":"A4","midi":69,"time":91.23958333333165,"velocity":0.5354330708661418,"duration":0.06354166666665151},{"name":"A3","midi":57,"time":91.33541666666497,"velocity":0.5905511811023622,"duration":0.09583333333333144},{"name":"E4","midi":64,"time":91.43854166666496,"velocity":0.49606299212598426,"duration":0.07187500000000568},{"name":"C5","midi":72,"time":91.5468749999983,"velocity":0.6220472440944882,"duration":0.11249999999999716},{"name":"A4","midi":69,"time":91.66249999999829,"velocity":0.5590551181102362,"duration":0.07395833333333712},{"name":"G3","midi":55,"time":91.77291666666495,"velocity":0.6692913385826772,"duration":0.1885416666666231},{"name":"E4","midi":64,"time":91.89583333333158,"velocity":0.5039370078740157,"duration":0.11770833333332575},{"name":"C5","midi":72,"time":92.01145833333157,"velocity":0.5590551181102362,"duration":0.11562499999999432},{"name":"A4","midi":69,"time":92.13333333333156,"velocity":0.5039370078740157,"duration":0.04791666666666572},{"name":"G3","midi":55,"time":92.21874999999822,"velocity":0.5196850393700787,"duration":0.12604166666666572},{"name":"E4","midi":64,"time":92.34270833333156,"velocity":0.4094488188976378,"duration":0.04999999999999716},{"name":"C5","midi":72,"time":92.43854166666488,"velocity":0.5039370078740157,"duration":0.08229166666666288},{"name":"A4","midi":69,"time":92.53854166666487,"velocity":0.49606299212598426,"duration":0.05937500000000284},{"name":"G3","midi":55,"time":92.64999999999822,"velocity":0.5826771653543307,"duration":0.11979166666665719},{"name":"E4","midi":64,"time":92.76666666666488,"velocity":0.4330708661417323,"duration":0.046875},{"name":"C5","midi":72,"time":92.87083333333155,"velocity":0.5039370078740157,"duration":0.078125},{"name":"A4","midi":69,"time":92.96874999999821,"velocity":0.47244094488188976,"duration":0.07083333333333997},{"name":"G3","midi":55,"time":93.07916666666489,"velocity":0.5354330708661418,"duration":0.10729166666666856},{"name":"E4","midi":64,"time":93.1822916666649,"velocity":0.4330708661417323,"duration":0.06145833333333428},{"name":"C5","midi":72,"time":93.28020833333156,"velocity":0.5039370078740157,"duration":0.11249999999999716},{"name":"A4","midi":69,"time":93.4010416666649,"velocity":0.4566929133858268,"duration":0.056250000000005684},{"name":"G3","midi":55,"time":93.50937499999824,"velocity":0.6220472440944882,"duration":0.14374999999999716},{"name":"E4","midi":64,"time":93.64374999999825,"velocity":0.4330708661417323,"duration":0.10208333333332575},{"name":"B4","midi":71,"time":93.72499999999825,"velocity":0.4645669291338583,"duration":0.11041666666665151},{"name":"A4","midi":69,"time":93.8479166666649,"velocity":0.4881889763779528,"duration":0.07083333333333997},{"name":"G3","midi":55,"time":93.94895833333156,"velocity":0.5669291338582677,"duration":0.14479166666666288},{"name":"E4","midi":64,"time":94.04583333333156,"velocity":0.4566929133858268,"duration":0.07916666666666572},{"name":"B4","midi":71,"time":94.15937499999822,"velocity":0.48031496062992124,"duration":0.09375},{"name":"A4","midi":69,"time":94.26145833333156,"velocity":0.5196850393700787,"duration":0.06666666666666288},{"name":"G3","midi":55,"time":94.38958333333156,"velocity":0.5748031496062992,"duration":0.12187499999998863},{"name":"E4","midi":64,"time":94.49791666666488,"velocity":0.44881889763779526,"duration":0.08541666666667425},{"name":"B4","midi":71,"time":94.62291666666489,"velocity":0.5039370078740157,"duration":0.08645833333333997},{"name":"A4","midi":69,"time":94.7260416666649,"velocity":0.5590551181102362,"duration":0.08020833333334565},{"name":"G3","midi":55,"time":94.8291666666649,"velocity":0.5748031496062992,"duration":0.10937499999998579},{"name":"E4","midi":64,"time":94.92604166666489,"velocity":0.4645669291338583,"duration":0.10104166666667425},{"name":"B4","midi":71,"time":95.05729166666488,"velocity":0.6062992125984252,"duration":0.11041666666666572},{"name":"A4","midi":69,"time":95.17916666666488,"velocity":0.5590551181102362,"duration":0.1770833333333286},{"name":"F3","midi":53,"time":95.29687499999821,"velocity":0.6299212598425197,"duration":0.21249999999997726},{"name":"E4","midi":64,"time":95.43749999999818,"velocity":0.49606299212598426,"duration":0.14166666666667993},{"name":"B4","midi":71,"time":95.56562499999819,"velocity":0.4015748031496063,"duration":0.07395833333333712},{"name":"F4","midi":65,"time":95.66249999999819,"velocity":0.5039370078740157,"duration":0.052083333333328596},{"name":"F3","midi":53,"time":95.76354166666486,"velocity":0.5984251968503937,"duration":0.15312500000000284},{"name":"E4","midi":64,"time":95.87604166666486,"velocity":0.44881889763779526,"duration":0.09479166666666572},{"name":"B4","midi":71,"time":95.98124999999818,"velocity":0.48031496062992124,"duration":0.07916666666666572},{"name":"F4","midi":65,"time":96.07812499999818,"velocity":0.47244094488188976,"duration":0.04479166666666856},{"name":"F3","midi":53,"time":96.18124999999816,"velocity":0.5354330708661418,"duration":0.17083333333333428},{"name":"E4","midi":64,"time":96.28958333333149,"velocity":0.4251968503937008,"duration":0.09479166666666572},{"name":"B4","midi":71,"time":96.43437499999816,"velocity":0.49606299212598426,"duration":0.10312499999999147},{"name":"F4","midi":65,"time":96.5447916666648,"velocity":0.5039370078740157,"duration":0.04375000000000284},{"name":"F3","midi":53,"time":96.63333333333148,"velocity":0.5905511811023622,"duration":0.17499999999999716},{"name":"E4","midi":64,"time":96.74479166666481,"velocity":0.4881889763779528,"duration":0.09062500000000284},{"name":"B4","midi":71,"time":96.84687499999815,"velocity":0.5590551181102362,"duration":0.0989583333333286},{"name":"F4","midi":65,"time":96.95416666666482,"velocity":0.4566929133858268,"duration":0.056250000000005684},{"name":"F3","midi":53,"time":97.05729166666482,"velocity":0.6062992125984252,"duration":0.20208333333332007},{"name":"E4","midi":64,"time":97.17708333333148,"velocity":0.4409448818897638,"duration":0.10833333333333428},{"name":"A4","midi":69,"time":97.28854166666481,"velocity":0.5196850393700787,"duration":0.109375},{"name":"F4","midi":65,"time":97.39791666666481,"velocity":0.4566929133858268,"duration":0.04479166666666856},{"name":"F3","midi":53,"time":97.49999999999815,"velocity":0.6141732283464567,"duration":0.15520833333333428},{"name":"E4","midi":64,"time":97.62083333333149,"velocity":0.4409448818897638,"duration":0.08749999999999147},{"name":"A4","midi":69,"time":97.71041666666481,"velocity":0.5433070866141733,"duration":0.09375},{"name":"F4","midi":65,"time":97.81562499999815,"velocity":0.4645669291338583,"duration":0.04999999999999716},{"name":"F3","midi":53,"time":97.91145833333148,"velocity":0.6299212598425197,"duration":0.18124999999997726},{"name":"E4","midi":64,"time":98.04479166666479,"velocity":0.41732283464566927,"duration":0.11041666666666572},{"name":"A4","midi":69,"time":98.13437499999813,"velocity":0.5511811023622047,"duration":0.11249999999999716},{"name":"F4","midi":65,"time":98.26770833333146,"velocity":0.48031496062992124,"duration":0.04375000000000284},{"name":"F3","midi":53,"time":98.34479166666479,"velocity":0.5354330708661418,"duration":0.17812500000000853},{"name":"E4","midi":64,"time":98.45520833333147,"velocity":0.4409448818897638,"duration":0.06354166666666572},{"name":"A4","midi":69,"time":98.5854166666648,"velocity":0.5275590551181102,"duration":0.11249999999999716},{"name":"F4","midi":65,"time":98.69687499999813,"velocity":0.5433070866141733,"duration":0.0677083333333286},{"name":"G3","midi":55,"time":98.80208333333145,"velocity":0.6614173228346457,"duration":0.262499999999946},{"name":"D4","midi":62,"time":98.93124999999807,"velocity":0.5196850393700787,"duration":0.19687499999999147},{"name":"A4","midi":69,"time":99.03437499999806,"velocity":0.5196850393700787,"duration":0.10104166666666003},{"name":"F4","midi":65,"time":99.13958333333139,"velocity":0.5039370078740157,"duration":0.04999999999999716},{"name":"G3","midi":55,"time":99.23854166666472,"velocity":0.49606299212598426,"duration":0.1406249999999858},{"name":"D4","midi":62,"time":99.35104166666471,"velocity":0.31496062992125984,"duration":0.11979166666664298},{"name":"A4","midi":69,"time":99.44895833333136,"velocity":0.5039370078740157,"duration":0.08854166666665719},{"name":"F4","midi":65,"time":99.54479166666468,"velocity":0.4409448818897638,"duration":0.06041666666666856},{"name":"G3","midi":55,"time":99.64791666666468,"velocity":0.4881889763779528,"duration":0.14166666666666572},{"name":"D4","midi":62,"time":99.77187499999802,"velocity":0.36220472440944884,"duration":0.0833333333333286},{"name":"A4","midi":69,"time":99.87916666666469,"velocity":0.4645669291338583,"duration":0.08645833333332575},{"name":"F4","midi":65,"time":99.98229166666468,"velocity":0.4881889763779528,"duration":0.04999999999999716},{"name":"G3","midi":55,"time":100.09479166666468,"velocity":0.6299212598425197,"duration":0.14999999999999147},{"name":"D4","midi":62,"time":100.218749999998,"velocity":0.5039370078740157,"duration":0.07500000000000284},{"name":"A4","midi":69,"time":100.30833333333133,"velocity":0.4881889763779528,"duration":0.11666666666667425},{"name":"F4","midi":65,"time":100.428124999998,"velocity":0.49606299212598426,"duration":0.052083333333328596},{"name":"G3","midi":55,"time":100.53541666666467,"velocity":0.5984251968503937,"duration":0.14270833333331723},{"name":"D4","midi":62,"time":100.643749999998,"velocity":0.5039370078740157,"duration":0.1604166666666771},{"name":"C5","midi":72,"time":100.76041666666467,"velocity":0.5984251968503937,"duration":0.07916666666666572},{"name":"F4","midi":65,"time":100.88854166666466,"velocity":0.5275590551181102,"duration":0.04270833333333712},{"name":"G3","midi":55,"time":100.98958333333132,"velocity":0.5039370078740157,"duration":0.11354166666667709},{"name":"D4","midi":62,"time":101.10833333333133,"velocity":0.49606299212598426,"duration":0.08750000000000568},{"name":"C5","midi":72,"time":101.20624999999801,"velocity":0.6377952755905512,"duration":0.10624999999998863},{"name":"F4","midi":65,"time":101.32083333333134,"velocity":0.5354330708661418,"duration":0.056250000000005684},{"name":"G3","midi":55,"time":101.43958333333133,"velocity":0.5669291338582677,"duration":0.1614583333333428},{"name":"D4","midi":62,"time":101.559374999998,"velocity":0.5118110236220472,"duration":0.1041666666666714},{"name":"B4","midi":71,"time":101.678124999998,"velocity":0.6141732283464567,"duration":0.10625000000000284},{"name":"F4","midi":65,"time":101.80833333333135,"velocity":0.5196850393700787,"duration":0.04895833333333144},{"name":"G3","midi":55,"time":101.90208333333135,"velocity":0.5905511811023622,"duration":0.5875000000000057},{"name":"D4","midi":62,"time":102.02604166666468,"velocity":0.5275590551181102,"duration":0.31979166666667425},{"name":"B4","midi":71,"time":102.16145833333135,"velocity":0.5905511811023622,"duration":0.3229166666666714},{"name":"F4","midi":65,"time":102.31458333333136,"velocity":0.5511811023622047,"duration":0.16875000000000284},{"name":"A3","midi":57,"time":102.49479166666468,"velocity":0.6929133858267716,"duration":0.30624999999996305},{"name":"C4","midi":60,"time":102.67499999999798,"velocity":0.4566929133858268,"duration":0.21770833333333428},{"name":"C5","midi":72,"time":102.82812499999798,"velocity":0.6062992125984252,"duration":0.24791666666666856},{"name":"G4","midi":67,"time":102.98541666666465,"velocity":0.5748031496062992,"duration":0.13854166666666856},{"name":"A3","midi":57,"time":103.12708333333131,"velocity":0.6141732283464567,"duration":0.20833333333331439},{"name":"C4","midi":60,"time":103.25312499999797,"velocity":0.3858267716535433,"duration":0.13958333333333428},{"name":"C5","midi":72,"time":103.36562499999796,"velocity":0.6771653543307087,"duration":0.1302083333333428},{"name":"G4","midi":67,"time":103.48124999999797,"velocity":0.5039370078740157,"duration":0.055208333333339965},{"name":"A3","midi":57,"time":103.56874999999798,"velocity":0.5118110236220472,"duration":0.16770833333333712},{"name":"C4","midi":60,"time":103.69687499999797,"velocity":0.44881889763779526,"duration":0.109375},{"name":"C5","midi":72,"time":103.81041666666464,"velocity":0.6299212598425197,"duration":0.12187500000000284},{"name":"G4","midi":67,"time":103.9020833333313,"velocity":0.5354330708661418,"duration":0.08229166666666288},{"name":"A3","midi":57,"time":104.01562499999797,"velocity":0.5748031496062992,"duration":0.17083333333333428},{"name":"C4","midi":60,"time":104.15624999999797,"velocity":0.4409448818897638,"duration":0.09479166666666572},{"name":"C5","midi":72,"time":104.23229166666464,"velocity":0.6141732283464567,"duration":0.13229166666666003},{"name":"G4","midi":67,"time":104.3677083333313,"velocity":0.5118110236220472,"duration":0.10104166666667425},{"name":"A3","midi":57,"time":104.45624999999797,"velocity":0.5590551181102362,"duration":0.20208333333333428},{"name":"C4","midi":60,"time":104.59479166666463,"velocity":0.4566929133858268,"duration":0.13229166666666003},{"name":"C5","midi":72,"time":104.69791666666463,"velocity":0.5511811023622047,"duration":0.10833333333333428},{"name":"F4","midi":65,"time":104.81041666666462,"velocity":0.49606299212598426,"duration":0.06354166666665151},{"name":"A3","midi":57,"time":104.91145833333127,"velocity":0.5669291338582677,"duration":0.15208333333333712},{"name":"C4","midi":60,"time":105.03749999999793,"velocity":0.4330708661417323,"duration":0.09687499999999716},{"name":"C5","midi":72,"time":105.13124999999793,"velocity":0.5196850393700787,"duration":0.11979166666665719},{"name":"F4","midi":65,"time":105.25416666666459,"velocity":0.5433070866141733,"duration":0.06770833333334281},{"name":"A3","midi":57,"time":105.3572916666646,"velocity":0.4645669291338583,"duration":0.19791666666664298},{"name":"C4","midi":60,"time":105.46354166666457,"velocity":0.3779527559055118,"duration":0.10312500000000568},{"name":"C5","midi":72,"time":105.58541666666457,"velocity":0.4881889763779528,"duration":0.109375},{"name":"E4","midi":64,"time":105.68958333333124,"velocity":0.41732283464566927,"duration":0.07083333333333997},{"name":"A3","midi":57,"time":105.78645833333125,"velocity":0.44881889763779526,"duration":0.1770833333333286},{"name":"C4","midi":60,"time":105.90104166666458,"velocity":0.4015748031496063,"duration":0.10208333333333997},{"name":"C5","midi":72,"time":106.04270833333126,"velocity":0.4645669291338583,"duration":0.12604166666666572},{"name":"E4","midi":64,"time":106.1666666666646,"velocity":0.36220472440944884,"duration":0.054166666666660035},{"name":"A3","midi":57,"time":106.28124999999793,"velocity":0.44881889763779526,"duration":0.3031249999999659},{"name":"C4","midi":60,"time":106.41249999999789,"velocity":0.4094488188976378,"duration":0.16562500000000568},{"name":"C5","midi":72,"time":106.53229166666456,"velocity":0.4409448818897638,"duration":0.09687499999999716},{"name":"G4","midi":67,"time":106.6406249999979,"velocity":0.4566929133858268,"duration":0.0729166666666714},{"name":"A3","midi":57,"time":106.7562499999979,"velocity":0.4251968503937008,"duration":0.2135416666666572},{"name":"C4","midi":60,"time":106.8718749999979,"velocity":0.4094488188976378,"duration":0.08437499999999432},{"name":"C5","midi":72,"time":106.96458333333123,"velocity":0.48031496062992124,"duration":0.11041666666666572},{"name":"G4","midi":67,"time":107.08854166666457,"velocity":0.3937007874015748,"duration":0.05833333333332291},{"name":"A3","midi":57,"time":107.19270833333123,"velocity":0.4645669291338583,"duration":0.2395833333333286},{"name":"C4","midi":60,"time":107.31770833333123,"velocity":0.3700787401574803,"duration":0.10833333333333428},{"name":"C5","midi":72,"time":107.41041666666456,"velocity":0.47244094488188976,"duration":0.11562499999999432},{"name":"G4","midi":67,"time":107.5343749999979,"velocity":0.4094488188976378,"duration":0.06458333333333144},{"name":"A3","midi":57,"time":107.62604166666456,"velocity":0.3779527559055118,"duration":0.20520833333333144},{"name":"C4","midi":60,"time":107.76354166666457,"velocity":0.3700787401574803,"duration":0.06874999999999432},{"name":"C5","midi":72,"time":107.82708333333123,"velocity":0.41732283464566927,"duration":0.14166666666666572},{"name":"G4","midi":67,"time":107.96979166666456,"velocity":0.3779527559055118,"duration":0.07604166666666856},{"name":"A3","midi":57,"time":108.08229166666456,"velocity":0.4645669291338583,"duration":0.2041666666666515},{"name":"C4","midi":60,"time":108.20104166666455,"velocity":0.36220472440944884,"duration":0.1364583333333229},{"name":"C5","midi":72,"time":108.30937499999787,"velocity":0.4566929133858268,"duration":0.11249999999999716},{"name":"F4","midi":65,"time":108.42604166666453,"velocity":0.3779527559055118,"duration":0.0625},{"name":"A3","midi":57,"time":108.5395833333312,"velocity":0.4566929133858268,"duration":0.18437500000001705},{"name":"C4","midi":60,"time":108.68124999999787,"velocity":0.25984251968503935,"duration":0.07708333333333428},{"name":"C5","midi":72,"time":108.76041666666454,"velocity":0.3937007874015748,"duration":0.12083333333332291},{"name":"F4","midi":65,"time":108.8833333333312,"velocity":0.3543307086614173,"duration":0.07187500000000568},{"name":"A3","midi":57,"time":108.99062499999788,"velocity":0.4094488188976378,"duration":0.20729166666666288},{"name":"C4","midi":60,"time":109.1083333333312,"velocity":0.3464566929133858,"duration":0.13229166666667425},{"name":"C5","midi":72,"time":109.23854166666455,"velocity":0.41732283464566927,"duration":0.12291666666666856},{"name":"E4","midi":64,"time":109.36562499999788,"velocity":0.3779527559055118,"duration":0.06562500000001137},{"name":"A3","midi":57,"time":109.45312499999788,"velocity":0.3779527559055118,"duration":0.21562500000001705},{"name":"C4","midi":60,"time":109.58333333333123,"velocity":0.33858267716535434,"duration":0.07708333333333428},{"name":"C5","midi":72,"time":109.69166666666456,"velocity":0.3937007874015748,"duration":0.12291666666666856},{"name":"E4","midi":64,"time":109.83333333333123,"velocity":0.33070866141732286,"duration":0.07083333333333997},{"name":"A3","midi":57,"time":109.95520833333123,"velocity":0.4330708661417323,"duration":0.3062500000000057},{"name":"C4","midi":60,"time":110.08124999999788,"velocity":0.3228346456692913,"duration":0.14375000000001137},{"name":"C5","midi":72,"time":110.19999999999789,"velocity":0.3937007874015748,"duration":0.11770833333335418},{"name":"F4","midi":65,"time":110.3406249999979,"velocity":0.3464566929133858,"duration":0.06562499999999716},{"name":"A3","midi":57,"time":110.44270833333123,"velocity":0.3464566929133858,"duration":0.20208333333333428},{"name":"C4","midi":60,"time":110.56041666666457,"velocity":0.2677165354330709,"duration":0.08124999999999716},{"name":"C5","midi":72,"time":110.67083333333123,"velocity":0.3543307086614173,"duration":0.08124999999999716},{"name":"F4","midi":65,"time":110.7999999999979,"velocity":0.2755905511811024,"duration":0.03333333333333144},{"name":"A3","midi":57,"time":110.86666666666457,"velocity":0.3779527559055118,"duration":0.2552083333333144},{"name":"C4","midi":60,"time":111.04166666666455,"velocity":0.2677165354330709,"duration":0.04583333333333428},{"name":"C5","midi":72,"time":111.10624999999789,"velocity":0.3700787401574803,"duration":0.09375},{"name":"F4","midi":65,"time":111.21145833333122,"velocity":0.36220472440944884,"duration":0.06562499999999716},{"name":"A3","midi":57,"time":111.32291666666455,"velocity":0.3779527559055118,"duration":0.23541666666666572},{"name":"C4","midi":60,"time":111.47291666666456,"velocity":0.2992125984251969,"duration":0.052083333333328596},{"name":"C5","midi":72,"time":111.54687499999788,"velocity":0.2992125984251969,"duration":0.08645833333332575},{"name":"F4","midi":65,"time":111.64895833333121,"velocity":0.31496062992125984,"duration":0.06874999999999432},{"name":"A3","midi":57,"time":111.77499999999787,"velocity":0.3858267716535433,"duration":0.24270833333331154},{"name":"C4","midi":60,"time":111.91354166666453,"velocity":0.25984251968503935,"duration":0.10937499999998579},{"name":"C5","midi":72,"time":112.01979166666452,"velocity":0.3228346456692913,"duration":0.08541666666666003},{"name":"E4","midi":64,"time":112.11562499999785,"velocity":0.2992125984251969,"duration":0.07083333333333997},{"name":"A3","midi":57,"time":112.23541666666452,"velocity":0.4094488188976378,"duration":0.2604166666666572},{"name":"C4","midi":60,"time":112.40520833333117,"velocity":0.25984251968503935,"duration":0.05833333333333712},{"name":"C5","midi":72,"time":112.48437499999784,"velocity":0.3464566929133858,"duration":0.08020833333333144},{"name":"E4","midi":64,"time":112.5854166666645,"velocity":0.3937007874015748,"duration":0.07916666666666572},{"name":"A3","midi":57,"time":112.6916666666645,"velocity":0.3779527559055118,"duration":0.27291666666666003},{"name":"C4","midi":60,"time":112.88020833333117,"velocity":0.28346456692913385,"duration":0.06041666666666856},{"name":"C5","midi":72,"time":112.92499999999784,"velocity":0.3937007874015748,"duration":0.11562499999999432},{"name":"E4","midi":64,"time":113.07708333333116,"velocity":0.2677165354330709,"duration":0.04583333333333428},{"name":"A3","midi":57,"time":113.16458333333117,"velocity":0.3779527559055118,"duration":0.2343749999999858},{"name":"C4","midi":60,"time":113.31874999999782,"velocity":0.28346456692913385,"duration":0.05833333333333712},{"name":"C5","midi":72,"time":113.38437499999782,"velocity":0.3464566929133858,"duration":0.16354166666666003},{"name":"E4","midi":64,"time":113.5531249999978,"velocity":0.2992125984251969,"duration":0.03541666666666288},{"name":"A3","midi":57,"time":113.6406249999978,"velocity":0.3858267716535433,"duration":0.2395833333333286},{"name":"C4","midi":60,"time":113.81354166666446,"velocity":0.2755905511811024,"duration":0.11770833333332575},{"name":"C5","midi":72,"time":113.9093749999978,"velocity":0.3464566929133858,"duration":0.10104166666666003},{"name":"F4","midi":65,"time":114.03541666666446,"velocity":0.2677165354330709,"duration":0.057291666666671404},{"name":"A3","midi":57,"time":114.14583333333113,"velocity":0.4251968503937008,"duration":0.2395833333333286},{"name":"C4","midi":60,"time":114.29583333333112,"velocity":0.2677165354330709,"duration":0.11354166666666288},{"name":"C5","midi":72,"time":114.41249999999778,"velocity":0.2992125984251969,"duration":0.07187499999999147},{"name":"F4","midi":65,"time":114.51249999999777,"velocity":0.36220472440944884,"duration":0.078125},{"name":"A3","midi":57,"time":114.6552083333311,"velocity":0.33858267716535434,"duration":0.20624999999999716},{"name":"C4","midi":60,"time":114.81874999999776,"velocity":0.2047244094488189,"duration":0.10208333333333997},{"name":"C5","midi":72,"time":114.91041666666443,"velocity":0.3464566929133858,"duration":0.08750000000000568},{"name":"F4","midi":65,"time":115.04166666666444,"velocity":0.29133858267716534,"duration":0.06354166666666572},{"name":"A3","midi":57,"time":115.1708333333311,"velocity":0.3779527559055118,"duration":0.2041666666666515},{"name":"C4","midi":60,"time":115.3052083333311,"velocity":0.2677165354330709,"duration":0.13229166666666003},{"name":"C5","midi":72,"time":115.43229166666443,"velocity":0.31496062992125984,"duration":0.10729166666666856},{"name":"F4","midi":65,"time":115.59270833333109,"velocity":0.2283464566929134,"duration":0.04999999999999716},{"name":"A3","midi":57,"time":115.69479166666441,"velocity":0.3700787401574803,"duration":0.34166666666666856},{"name":"C4","midi":60,"time":115.89791666666441,"velocity":0.2047244094488189,"duration":0.1520833333333229},{"name":"C5","midi":72,"time":115.97291666666442,"velocity":0.30708661417322836,"duration":0.1520833333333229},{"name":"E4","midi":64,"time":116.16458333333108,"velocity":0.2204724409448819,"duration":0.0677083333333286},{"name":"A3","midi":57,"time":116.27187499999775,"velocity":0.36220472440944884,"duration":0.2927083333333371},{"name":"C4","midi":60,"time":116.45312499999775,"velocity":0.23622047244094488,"duration":0.11770833333332575},{"name":"C5","midi":72,"time":116.59374999999774,"velocity":0.2992125984251969,"duration":0.13229166666666003},{"name":"E4","midi":64,"time":116.74374999999773,"velocity":0.2440944881889764,"duration":0.11770833333332575},{"name":"A3","midi":57,"time":116.87499999999773,"velocity":0.3543307086614173,"duration":0.3395833333333229},{"name":"C4","midi":60,"time":117.08541666666439,"velocity":0.25984251968503935,"duration":0.09479166666666572},{"name":"C5","midi":72,"time":117.23541666666438,"velocity":0.3464566929133858,"duration":0.2239583333333428},{"name":"E4","midi":64,"time":117.41770833333105,"velocity":0.2992125984251969,"duration":0.15208333333333712},{"name":"A3","midi":57,"time":117.60312499999772,"velocity":0.33070866141732286,"duration":0.5541666666666742},{"name":"C4","midi":60,"time":117.85208333333105,"velocity":0.33858267716535434,"duration":0.2750000000000057},{"name":"C5","midi":72,"time":118.14791666666439,"velocity":0.29133858267716534,"duration":0.5677083333333428},{"name":"E4","midi":64,"time":118.55312499999772,"velocity":0.2440944881889764,"duration":0.13125000000000853},{"name":"A2","midi":45,"time":119.4635416666644,"velocity":0.33070866141732286,"duration":6.628124999999983}],"controlChanges":{"64":[{"number":64,"time":0.7875,"value":0.12598425196850394},{"number":64,"time":0.7885416666666667,"value":0.12598425196850394},{"number":64,"time":0.7947916666666667,"value":0.25196850393700787},{"number":64,"time":0.7958333333333334,"value":0.25196850393700787},{"number":64,"time":0.8072916666666667,"value":0.3779527559055118},{"number":64,"time":0.8083333333333335,"value":0.3779527559055118},{"number":64,"time":0.8270833333333335,"value":0.48031496062992124},{"number":64,"time":0.8270833333333335,"value":0.48031496062992124},{"number":64,"time":0.8604166666666668,"value":0.5118110236220472},{"number":64,"time":0.8604166666666668,"value":0.5118110236220472},{"number":64,"time":0.8750000000000001,"value":0.5433070866141733},{"number":64,"time":0.8760416666666668,"value":0.5433070866141733},{"number":64,"time":0.8989583333333335,"value":0.5748031496062992},{"number":64,"time":0.9000000000000002,"value":0.5748031496062992},{"number":64,"time":0.9197916666666669,"value":0.6062992125984252},{"number":64,"time":0.9208333333333336,"value":0.6062992125984252},{"number":64,"time":0.9354166666666669,"value":0.6377952755905512},{"number":64,"time":0.9364583333333336,"value":0.6377952755905512},{"number":64,"time":0.994791666666667,"value":0.7322834645669292},{"number":64,"time":0.994791666666667,"value":0.7322834645669292},{"number":64,"time":1.0468750000000002,"value":0.8267716535433071},{"number":64,"time":1.0479166666666668,"value":0.8267716535433071},{"number":64,"time":2.709374999999999,"value":0.7322834645669292},{"number":64,"time":2.710416666666666,"value":0.7322834645669292},{"number":64,"time":2.724999999999999,"value":0.6535433070866141},{"number":64,"time":2.726041666666666,"value":0.6535433070866141},{"number":64,"time":2.8947916666666655,"value":0.7559055118110236},{"number":64,"time":2.895833333333332,"value":0.7559055118110236},{"number":64,"time":3.1249999999999987,"value":0.8503937007874016},{"number":64,"time":3.1260416666666653,"value":0.8503937007874016},{"number":64,"time":3.461458333333332,"value":0.7559055118110236},{"number":64,"time":3.4624999999999986,"value":0.7559055118110236},{"number":64,"time":3.477083333333332,"value":0.6535433070866141},{"number":64,"time":3.4781249999999986,"value":0.6535433070866141},{"number":64,"time":3.4968749999999984,"value":0.6220472440944882},{"number":64,"time":3.497916666666665,"value":0.6220472440944882},{"number":64,"time":3.540624999999998,"value":0.6535433070866141},{"number":64,"time":3.5416666666666647,"value":0.6535433070866141},{"number":64,"time":3.585416666666665,"value":0.7559055118110236},{"number":64,"time":3.5864583333333315,"value":0.7559055118110236},{"number":64,"time":3.6687499999999984,"value":0.8503937007874016},{"number":64,"time":3.669791666666665,"value":0.8503937007874016},{"number":64,"time":4.343749999999997,"value":0.7559055118110236},{"number":64,"time":4.344791666666664,"value":0.7559055118110236},{"number":64,"time":4.353124999999998,"value":0.6614173228346457},{"number":64,"time":4.354166666666664,"value":0.6614173228346457},{"number":64,"time":4.3614583333333306,"value":0.6220472440944882},{"number":64,"time":4.3614583333333306,"value":0.6220472440944882},{"number":64,"time":4.36770833333333,"value":0.5905511811023622},{"number":64,"time":4.368749999999997,"value":0.5905511811023622},{"number":64,"time":4.376041666666663,"value":0.5590551181102362},{"number":64,"time":4.37708333333333,"value":0.5590551181102362},{"number":64,"time":4.384374999999996,"value":0.5275590551181102},{"number":64,"time":4.3854166666666625,"value":0.5275590551181102},{"number":64,"time":4.392708333333329,"value":0.49606299212598426},{"number":64,"time":4.392708333333329,"value":0.49606299212598426},{"number":64,"time":4.456249999999995,"value":0.5354330708661418},{"number":64,"time":4.457291666666662,"value":0.5354330708661418},{"number":64,"time":4.471874999999995,"value":0.5669291338582677},{"number":64,"time":4.471874999999995,"value":0.5669291338582677},{"number":64,"time":4.488541666666662,"value":0.5984251968503937},{"number":64,"time":4.488541666666662,"value":0.5984251968503937},{"number":64,"time":4.499999999999996,"value":0.6299212598425197},{"number":64,"time":4.499999999999996,"value":0.6299212598425197},{"number":64,"time":4.524999999999996,"value":0.7559055118110236},{"number":64,"time":4.5260416666666625,"value":0.7559055118110236},{"number":64,"time":4.592708333333329,"value":0.8503937007874016},{"number":64,"time":4.592708333333329,"value":0.8503937007874016},{"number":64,"time":6.099999999999997,"value":0.7322834645669292},{"number":64,"time":6.099999999999997,"value":0.7322834645669292},{"number":64,"time":6.108333333333331,"value":0.6535433070866141},{"number":64,"time":6.109374999999997,"value":0.6535433070866141},{"number":64,"time":6.115624999999997,"value":0.6141732283464567},{"number":64,"time":6.116666666666664,"value":0.6141732283464567},{"number":64,"time":6.128124999999997,"value":0.5748031496062992},{"number":64,"time":6.129166666666664,"value":0.5748031496062992},{"number":64,"time":6.139583333333331,"value":0.5433070866141733},{"number":64,"time":6.140624999999997,"value":0.5433070866141733},{"number":64,"time":6.152083333333331,"value":0.5118110236220472},{"number":64,"time":6.1531249999999975,"value":0.5118110236220472},{"number":64,"time":6.195833333333331,"value":0.5433070866141733},{"number":64,"time":6.195833333333331,"value":0.5433070866141733},{"number":64,"time":6.212499999999998,"value":0.5748031496062992},{"number":64,"time":6.212499999999998,"value":0.5748031496062992},{"number":64,"time":6.223958333333331,"value":0.6062992125984252},{"number":64,"time":6.223958333333331,"value":0.6062992125984252},{"number":64,"time":6.236458333333331,"value":0.6456692913385826},{"number":64,"time":6.236458333333331,"value":0.6456692913385826},{"number":64,"time":6.247916666666665,"value":0.7559055118110236},{"number":64,"time":6.247916666666665,"value":0.7559055118110236},{"number":64,"time":6.272916666666665,"value":0.8503937007874016},{"number":64,"time":6.272916666666665,"value":0.8503937007874016},{"number":64,"time":6.562499999999999,"value":0.7559055118110236},{"number":64,"time":6.563541666666666,"value":0.7559055118110236},{"number":64,"time":6.579166666666666,"value":0.6614173228346457},{"number":64,"time":6.580208333333332,"value":0.6614173228346457},{"number":64,"time":6.598958333333332,"value":0.6299212598425197},{"number":64,"time":6.599999999999999,"value":0.6299212598425197},{"number":64,"time":6.662499999999999,"value":0.7322834645669292},{"number":64,"time":6.663541666666665,"value":0.7322834645669292},{"number":64,"time":6.711458333333332,"value":0.8267716535433071},{"number":64,"time":6.712499999999999,"value":0.8267716535433071},{"number":64,"time":6.818749999999999,"value":0.937007874015748},{"number":64,"time":6.819791666666665,"value":0.937007874015748},{"number":64,"time":6.879166666666665,"value":1},{"number":64,"time":6.880208333333331,"value":1},{"number":64,"time":6.964583333333332,"value":0.8661417322834646},{"number":64,"time":6.964583333333332,"value":0.8661417322834646},{"number":64,"time":6.998958333333332,"value":0.7322834645669292},{"number":64,"time":6.999999999999998,"value":0.7322834645669292},{"number":64,"time":7.011458333333332,"value":0.6535433070866141},{"number":64,"time":7.011458333333332,"value":0.6535433070866141},{"number":64,"time":7.027083333333332,"value":0.6220472440944882},{"number":64,"time":7.028124999999998,"value":0.6220472440944882},{"number":64,"time":7.084374999999999,"value":0.6535433070866141},{"number":64,"time":7.084374999999999,"value":0.6535433070866141},{"number":64,"time":7.138541666666665,"value":0.7559055118110236},{"number":64,"time":7.139583333333332,"value":0.7559055118110236},{"number":64,"time":7.190624999999998,"value":0.8503937007874016},{"number":64,"time":7.191666666666665,"value":0.8503937007874016},{"number":64,"time":7.366666666666664,"value":0.7559055118110236},{"number":64,"time":7.36770833333333,"value":0.7559055118110236},{"number":64,"time":7.38333333333333,"value":0.6614173228346457},{"number":64,"time":7.384374999999997,"value":0.6614173228346457},{"number":64,"time":7.398958333333329,"value":0.6220472440944882},{"number":64,"time":7.399999999999996,"value":0.6220472440944882},{"number":64,"time":7.451041666666662,"value":0.6535433070866141},{"number":64,"time":7.452083333333329,"value":0.6535433070866141},{"number":64,"time":7.474999999999995,"value":0.7559055118110236},{"number":64,"time":7.476041666666662,"value":0.7559055118110236},{"number":64,"time":7.534374999999995,"value":0.8503937007874016},{"number":64,"time":7.535416666666662,"value":0.8503937007874016},{"number":64,"time":7.907291666666664,"value":0.7086614173228346},{"number":64,"time":7.9083333333333306,"value":0.7086614173228346},{"number":64,"time":7.910416666666664,"value":0.6535433070866141},{"number":64,"time":7.912499999999997,"value":0.6535433070866141},{"number":64,"time":7.918749999999997,"value":0.6062992125984252},{"number":64,"time":7.919791666666663,"value":0.6062992125984252},{"number":64,"time":7.9270833333333295,"value":0.5669291338582677},{"number":64,"time":7.928124999999996,"value":0.5669291338582677},{"number":64,"time":7.935416666666662,"value":0.5118110236220472},{"number":64,"time":7.936458333333329,"value":0.5118110236220472},{"number":64,"time":7.938541666666662,"value":0.48031496062992124},{"number":64,"time":7.939583333333329,"value":0.48031496062992124},{"number":64,"time":7.946874999999995,"value":0.3779527559055118},{"number":64,"time":7.946874999999995,"value":0.3779527559055118},{"number":64,"time":7.959374999999995,"value":0.2755905511811024},{"number":64,"time":7.959374999999995,"value":0.2755905511811024},{"number":64,"time":8.018749999999995,"value":0.4015748031496063},{"number":64,"time":8.019791666666663,"value":0.4015748031496063},{"number":64,"time":8.02708333333333,"value":0.47244094488188976},{"number":64,"time":8.028124999999998,"value":0.47244094488188976},{"number":64,"time":8.035416666666665,"value":0.5118110236220472},{"number":64,"time":8.035416666666665,"value":0.5118110236220472},{"number":64,"time":8.042708333333332,"value":0.5433070866141733},{"number":64,"time":8.04375,"value":0.5433070866141733},{"number":64,"time":8.059375,"value":0.5748031496062992},{"number":64,"time":8.059375,"value":0.5748031496062992},{"number":64,"time":8.075,"value":0.6062992125984252},{"number":64,"time":8.076041666666667,"value":0.6062992125984252},{"number":64,"time":8.086458333333333,"value":0.6377952755905512},{"number":64,"time":8.0875,"value":0.6377952755905512},{"number":64,"time":8.122916666666667,"value":0.7559055118110236},{"number":64,"time":8.123958333333334,"value":0.7559055118110236},{"number":64,"time":8.166666666666668,"value":0.8503937007874016},{"number":64,"time":8.167708333333335,"value":0.8503937007874016},{"number":64,"time":8.390625000000002,"value":0.7559055118110236},{"number":64,"time":8.39166666666667,"value":0.7559055118110236},{"number":64,"time":8.403125000000003,"value":0.6535433070866141},{"number":64,"time":8.40416666666667,"value":0.6535433070866141},{"number":64,"time":8.414583333333336,"value":0.6141732283464567},{"number":64,"time":8.415625000000004,"value":0.6141732283464567},{"number":64,"time":8.438541666666671,"value":0.5826771653543307},{"number":64,"time":8.439583333333339,"value":0.5826771653543307},{"number":64,"time":8.479166666666671,"value":0.6141732283464567},{"number":64,"time":8.480208333333339,"value":0.6141732283464567},{"number":64,"time":8.494791666666671,"value":0.6456692913385826},{"number":64,"time":8.495833333333339,"value":0.6456692913385826},{"number":64,"time":8.51458333333334,"value":0.7559055118110236},{"number":64,"time":8.515625000000007,"value":0.7559055118110236},{"number":64,"time":8.58333333333334,"value":0.8503937007874016},{"number":64,"time":8.584375000000007,"value":0.8503937007874016},{"number":64,"time":8.707291666666674,"value":1},{"number":64,"time":8.707291666666674,"value":1},{"number":64,"time":8.78333333333334,"value":0.8661417322834646},{"number":64,"time":8.78333333333334,"value":0.8661417322834646},{"number":64,"time":8.810416666666674,"value":0.7559055118110236},{"number":64,"time":8.811458333333341,"value":0.7559055118110236},{"number":64,"time":8.818750000000009,"value":0.6614173228346457},{"number":64,"time":8.819791666666676,"value":0.6614173228346457},{"number":64,"time":8.828125000000009,"value":0.6299212598425197},{"number":64,"time":8.829166666666676,"value":0.6299212598425197},{"number":64,"time":8.838541666666677,"value":0.5905511811023622},{"number":64,"time":8.839583333333344,"value":0.5905511811023622},{"number":64,"time":8.85937500000001,"value":0.5590551181102362},{"number":64,"time":8.85937500000001,"value":0.5590551181102362},{"number":64,"time":8.900000000000011,"value":0.5905511811023622},{"number":64,"time":8.901041666666679,"value":0.5905511811023622},{"number":64,"time":8.914583333333345,"value":0.6220472440944882},{"number":64,"time":8.915625000000013,"value":0.6220472440944882},{"number":64,"time":8.946875000000013,"value":0.7322834645669292},{"number":64,"time":8.94791666666668,"value":0.7322834645669292},{"number":64,"time":8.998958333333347,"value":0.8267716535433071},{"number":64,"time":9.000000000000014,"value":0.8267716535433071},{"number":64,"time":9.107291666666683,"value":0.937007874015748},{"number":64,"time":9.10833333333335,"value":0.937007874015748},{"number":64,"time":9.154166666666685,"value":1},{"number":64,"time":9.155208333333352,"value":1},{"number":64,"time":9.221875000000018,"value":0.8661417322834646},{"number":64,"time":9.222916666666686,"value":0.8661417322834646},{"number":64,"time":9.245833333333353,"value":0.7322834645669292},{"number":64,"time":9.245833333333353,"value":0.7322834645669292},{"number":64,"time":9.25937500000002,"value":0.6377952755905512},{"number":64,"time":9.260416666666687,"value":0.6377952755905512},{"number":64,"time":9.266666666666687,"value":0.6062992125984252},{"number":64,"time":9.267708333333355,"value":0.6062992125984252},{"number":64,"time":9.279166666666688,"value":0.5748031496062992},{"number":64,"time":9.280208333333356,"value":0.5748031496062992},{"number":64,"time":9.294791666666688,"value":0.5433070866141733},{"number":64,"time":9.295833333333356,"value":0.5433070866141733},{"number":64,"time":9.333333333333355,"value":0.5748031496062992},{"number":64,"time":9.334375000000023,"value":0.5748031496062992},{"number":64,"time":9.35104166666669,"value":0.6062992125984252},{"number":64,"time":9.352083333333358,"value":0.6062992125984252},{"number":64,"time":9.361458333333358,"value":0.6456692913385826},{"number":64,"time":9.362500000000026,"value":0.6456692913385826},{"number":64,"time":9.378125000000026,"value":0.7559055118110236},{"number":64,"time":9.379166666666693,"value":0.7559055118110236},{"number":64,"time":9.44583333333336,"value":0.8503937007874016},{"number":64,"time":9.446875000000027,"value":0.8503937007874016},{"number":64,"time":9.60625000000003,"value":1},{"number":64,"time":9.607291666666697,"value":1},{"number":64,"time":9.670833333333364,"value":0.8661417322834646},{"number":64,"time":9.671875000000032,"value":0.8661417322834646},{"number":64,"time":9.693750000000032,"value":0.7322834645669292},{"number":64,"time":9.6947916666667,"value":0.7322834645669292},{"number":64,"time":9.702083333333366,"value":0.6456692913385826},{"number":64,"time":9.703125000000034,"value":0.6456692913385826},{"number":64,"time":9.709375000000033,"value":0.6062992125984252},{"number":64,"time":9.710416666666701,"value":0.6062992125984252},{"number":64,"time":9.717708333333368,"value":0.5748031496062992},{"number":64,"time":9.717708333333368,"value":0.5748031496062992},{"number":64,"time":9.727083333333368,"value":0.5433070866141733},{"number":64,"time":9.728125000000036,"value":0.5433070866141733},{"number":64,"time":9.73333333333337,"value":0.5118110236220472},{"number":64,"time":9.734375000000037,"value":0.5118110236220472},{"number":64,"time":9.78958333333337,"value":0.5433070866141733},{"number":64,"time":9.790625000000038,"value":0.5433070866141733},{"number":64,"time":9.806250000000038,"value":0.5748031496062992},{"number":64,"time":9.806250000000038,"value":0.5748031496062992},{"number":64,"time":9.817708333333371,"value":0.6062992125984252},{"number":64,"time":9.817708333333371,"value":0.6062992125984252},{"number":64,"time":9.83020833333337,"value":0.6377952755905512},{"number":64,"time":9.83020833333337,"value":0.6377952755905512},{"number":64,"time":9.857291666666704,"value":0.7322834645669292},{"number":64,"time":9.858333333333372,"value":0.7322834645669292},{"number":64,"time":9.913541666666704,"value":0.8267716535433071},{"number":64,"time":9.914583333333372,"value":0.8267716535433071},{"number":64,"time":9.997916666666704,"value":0.937007874015748},{"number":64,"time":9.998958333333372,"value":0.937007874015748},{"number":64,"time":10.093750000000039,"value":0.8267716535433071},{"number":64,"time":10.094791666666707,"value":0.8267716535433071},{"number":64,"time":10.109375000000039,"value":0.7322834645669292},{"number":64,"time":10.110416666666707,"value":0.7322834645669292},{"number":64,"time":10.117708333333374,"value":0.6535433070866141},{"number":64,"time":10.117708333333374,"value":0.6535433070866141},{"number":64,"time":10.126041666666707,"value":0.6141732283464567},{"number":64,"time":10.127083333333374,"value":0.6141732283464567},{"number":64,"time":10.13750000000004,"value":0.5748031496062992},{"number":64,"time":10.138541666666708,"value":0.5748031496062992},{"number":64,"time":10.154166666666708,"value":0.5433070866141733},{"number":64,"time":10.155208333333375,"value":0.5433070866141733},{"number":64,"time":10.209375000000042,"value":0.5748031496062992},{"number":64,"time":10.21041666666671,"value":0.5748031496062992},{"number":64,"time":10.221875000000043,"value":0.6062992125984252},{"number":64,"time":10.22291666666671,"value":0.6062992125984252},{"number":64,"time":10.233333333333377,"value":0.6456692913385826},{"number":64,"time":10.234375000000044,"value":0.6456692913385826},{"number":64,"time":10.250000000000044,"value":0.7559055118110236},{"number":64,"time":10.251041666666712,"value":0.7559055118110236},{"number":64,"time":10.313541666666712,"value":0.8503937007874016},{"number":64,"time":10.31458333333338,"value":0.8503937007874016},{"number":64,"time":10.458333333333378,"value":1},{"number":64,"time":10.458333333333378,"value":1},{"number":64,"time":10.537500000000046,"value":0.8661417322834646},{"number":64,"time":10.538541666666713,"value":0.8661417322834646},{"number":64,"time":10.56145833333338,"value":0.7322834645669292},{"number":64,"time":10.562500000000048,"value":0.7322834645669292},{"number":64,"time":10.569791666666715,"value":0.6535433070866141},{"number":64,"time":10.570833333333383,"value":0.6535433070866141},{"number":64,"time":10.57812500000005,"value":0.6141732283464567},{"number":64,"time":10.579166666666717,"value":0.6141732283464567},{"number":64,"time":10.585416666666717,"value":0.5826771653543307},{"number":64,"time":10.586458333333384,"value":0.5826771653543307},{"number":64,"time":10.597916666666718,"value":0.5511811023622047},{"number":64,"time":10.598958333333385,"value":0.5511811023622047},{"number":64,"time":10.657291666666719,"value":0.5826771653543307},{"number":64,"time":10.658333333333387,"value":0.5826771653543307},{"number":64,"time":10.673958333333387,"value":0.6220472440944882},{"number":64,"time":10.675000000000054,"value":0.6220472440944882},{"number":64,"time":10.693750000000055,"value":0.7322834645669292},{"number":64,"time":10.693750000000055,"value":0.7322834645669292},{"number":64,"time":10.745833333333387,"value":0.8267716535433071},{"number":64,"time":10.746875000000054,"value":0.8267716535433071},{"number":64,"time":10.81354166666672,"value":0.937007874015748},{"number":64,"time":10.814583333333388,"value":0.937007874015748},{"number":64,"time":10.926041666666721,"value":0.8267716535433071},{"number":64,"time":10.927083333333389,"value":0.8267716535433071},{"number":64,"time":10.941666666666721,"value":0.7322834645669292},{"number":64,"time":10.941666666666721,"value":0.7322834645669292},{"number":64,"time":10.954166666666723,"value":0.6456692913385826},{"number":64,"time":10.95520833333339,"value":0.6456692913385826},{"number":64,"time":10.96145833333339,"value":0.6141732283464567},{"number":64,"time":10.962500000000057,"value":0.6141732283464567},{"number":64,"time":10.97395833333339,"value":0.5826771653543307},{"number":64,"time":10.975000000000058,"value":0.5826771653543307},{"number":64,"time":11.037500000000058,"value":0.6141732283464567},{"number":64,"time":11.038541666666726,"value":0.6141732283464567},{"number":64,"time":11.05000000000006,"value":0.6535433070866141},{"number":64,"time":11.051041666666727,"value":0.6535433070866141},{"number":64,"time":11.061458333333393,"value":0.7559055118110236},{"number":64,"time":11.06250000000006,"value":0.7559055118110236},{"number":64,"time":11.085416666666728,"value":0.8503937007874016},{"number":64,"time":11.086458333333395,"value":0.8503937007874016},{"number":64,"time":11.46979166666673,"value":0.7322834645669292},{"number":64,"time":11.470833333333397,"value":0.7322834645669292},{"number":64,"time":11.47916666666673,"value":0.6299212598425197},{"number":64,"time":11.47916666666673,"value":0.6299212598425197},{"number":64,"time":11.48541666666673,"value":0.5826771653543307},{"number":64,"time":11.486458333333397,"value":0.5826771653543307},{"number":64,"time":11.493750000000064,"value":0.5275590551181102},{"number":64,"time":11.494791666666732,"value":0.5275590551181102},{"number":64,"time":11.497916666666733,"value":0.4881889763779528},{"number":64,"time":11.4989583333334,"value":0.4881889763779528},{"number":64,"time":11.5052083333334,"value":0.3543307086614173},{"number":64,"time":11.506250000000067,"value":0.3543307086614173},{"number":64,"time":11.513541666666734,"value":0.2047244094488189},{"number":64,"time":11.514583333333402,"value":0.2047244094488189},{"number":64,"time":11.521875000000069,"value":0.10236220472440945},{"number":64,"time":11.522916666666736,"value":0.10236220472440945},{"number":64,"time":11.545833333333404,"value":0},{"number":64,"time":11.546875000000071,"value":0},{"number":64,"time":11.585416666666738,"value":0.12598425196850394},{"number":64,"time":11.586458333333406,"value":0.12598425196850394},{"number":64,"time":11.593750000000073,"value":0.25196850393700787},{"number":64,"time":11.593750000000073,"value":0.25196850393700787},{"number":64,"time":11.60104166666674,"value":0.3779527559055118},{"number":64,"time":11.602083333333407,"value":0.3779527559055118},{"number":64,"time":11.606250000000074,"value":0.47244094488188976},{"number":64,"time":11.606250000000074,"value":0.47244094488188976},{"number":64,"time":11.612500000000074,"value":0.5275590551181102},{"number":64,"time":11.613541666666741,"value":0.5275590551181102},{"number":64,"time":11.620833333333408,"value":0.5590551181102362},{"number":64,"time":11.621875000000076,"value":0.5590551181102362},{"number":64,"time":11.637500000000076,"value":0.5984251968503937},{"number":64,"time":11.638541666666743,"value":0.5984251968503937},{"number":64,"time":11.653125000000076,"value":0.6299212598425197},{"number":64,"time":11.654166666666743,"value":0.6299212598425197},{"number":64,"time":11.701041666666743,"value":0.7322834645669292},{"number":64,"time":11.70208333333341,"value":0.7322834645669292},{"number":64,"time":11.750000000000078,"value":0.8267716535433071},{"number":64,"time":11.751041666666746,"value":0.8267716535433071},{"number":64,"time":12.129166666666745,"value":0.937007874015748},{"number":64,"time":12.130208333333412,"value":0.937007874015748},{"number":64,"time":12.264583333333412,"value":0.8267716535433071},{"number":64,"time":12.26562500000008,"value":0.8267716535433071},{"number":64,"time":12.282291666666747,"value":0.7322834645669292},{"number":64,"time":12.282291666666747,"value":0.7322834645669292},{"number":64,"time":12.292708333333414,"value":0.6456692913385826},{"number":64,"time":12.293750000000081,"value":0.6456692913385826},{"number":64,"time":12.301041666666748,"value":0.6141732283464567},{"number":64,"time":12.302083333333416,"value":0.6141732283464567},{"number":64,"time":12.312500000000082,"value":0.5826771653543307},{"number":64,"time":12.31354166666675,"value":0.5826771653543307},{"number":64,"time":12.382291666666749,"value":0.6220472440944882},{"number":64,"time":12.382291666666749,"value":0.6220472440944882},{"number":64,"time":12.392708333333415,"value":0.6535433070866141},{"number":64,"time":12.392708333333415,"value":0.6535433070866141},{"number":64,"time":12.410416666666748,"value":0.7559055118110236},{"number":64,"time":12.411458333333416,"value":0.7559055118110236},{"number":64,"time":12.48541666666675,"value":0.8503937007874016},{"number":64,"time":12.486458333333417,"value":0.8503937007874016},{"number":64,"time":12.653125000000083,"value":1},{"number":64,"time":12.653125000000083,"value":1},{"number":64,"time":12.725000000000083,"value":0.8661417322834646},{"number":64,"time":12.72604166666675,"value":0.8661417322834646},{"number":64,"time":12.748958333333418,"value":0.7322834645669292},{"number":64,"time":12.750000000000085,"value":0.7322834645669292},{"number":64,"time":12.761458333333419,"value":0.6377952755905512},{"number":64,"time":12.762500000000086,"value":0.6377952755905512},{"number":64,"time":12.768750000000086,"value":0.6062992125984252},{"number":64,"time":12.769791666666753,"value":0.6062992125984252},{"number":64,"time":12.77708333333342,"value":0.5748031496062992},{"number":64,"time":12.77708333333342,"value":0.5748031496062992},{"number":64,"time":12.79270833333342,"value":0.5354330708661418},{"number":64,"time":12.79270833333342,"value":0.5354330708661418},{"number":64,"time":12.837500000000087,"value":0.5669291338582677},{"number":64,"time":12.838541666666755,"value":0.5669291338582677},{"number":64,"time":12.853125000000087,"value":0.5984251968503937},{"number":64,"time":12.853125000000087,"value":0.5984251968503937},{"number":64,"time":12.864583333333421,"value":0.6299212598425197},{"number":64,"time":12.864583333333421,"value":0.6299212598425197},{"number":64,"time":12.885416666666755,"value":0.7559055118110236},{"number":64,"time":12.886458333333422,"value":0.7559055118110236},{"number":64,"time":12.977083333333422,"value":0.8503937007874016},{"number":64,"time":12.977083333333422,"value":0.8503937007874016},{"number":64,"time":13.167708333333422,"value":0.7322834645669292},{"number":64,"time":13.16875000000009,"value":0.7322834645669292},{"number":64,"time":13.173958333333424,"value":0.6535433070866141},{"number":64,"time":13.175000000000091,"value":0.6535433070866141},{"number":64,"time":13.177083333333425,"value":0.6220472440944882},{"number":64,"time":13.178125000000092,"value":0.6220472440944882},{"number":64,"time":13.183333333333426,"value":0.5748031496062992},{"number":64,"time":13.184375000000093,"value":0.5748031496062992},{"number":64,"time":13.18854166666676,"value":0.5433070866141733},{"number":64,"time":13.189583333333427,"value":0.5433070866141733},{"number":64,"time":13.192708333333428,"value":0.5039370078740157},{"number":64,"time":13.193750000000096,"value":0.5039370078740157},{"number":64,"time":13.200000000000095,"value":0.3779527559055118},{"number":64,"time":13.201041666666763,"value":0.3779527559055118},{"number":64,"time":13.204166666666763,"value":0.2755905511811024},{"number":64,"time":13.205208333333431,"value":0.2755905511811024},{"number":64,"time":13.212500000000098,"value":0.12598425196850394},{"number":64,"time":13.213541666666766,"value":0.12598425196850394},{"number":64,"time":13.220833333333433,"value":0.031496062992125984},{"number":64,"time":13.2218750000001,"value":0.031496062992125984},{"number":64,"time":13.225000000000101,"value":0},{"number":64,"time":13.226041666666768,"value":0},{"number":64,"time":13.295833333333436,"value":0.18110236220472442},{"number":64,"time":13.296875000000103,"value":0.18110236220472442},{"number":64,"time":13.30416666666677,"value":0.33070866141732286},{"number":64,"time":13.305208333333438,"value":0.33070866141732286},{"number":64,"time":13.311458333333437,"value":0.48031496062992124},{"number":64,"time":13.312500000000105,"value":0.48031496062992124},{"number":64,"time":13.320833333333438,"value":0.5275590551181102},{"number":64,"time":13.321875000000105,"value":0.5275590551181102},{"number":64,"time":13.328125000000105,"value":0.5590551181102362},{"number":64,"time":13.329166666666772,"value":0.5590551181102362},{"number":64,"time":13.343750000000105,"value":0.5905511811023622},{"number":64,"time":13.344791666666772,"value":0.5905511811023622},{"number":64,"time":13.364583333333439,"value":0.6220472440944882},{"number":64,"time":13.364583333333439,"value":0.6220472440944882},{"number":64,"time":13.385416666666773,"value":0.6535433070866141},{"number":64,"time":13.38645833333344,"value":0.6535433070866141},{"number":64,"time":13.412500000000106,"value":0.7559055118110236},{"number":64,"time":13.413541666666774,"value":0.7559055118110236},{"number":64,"time":13.46458333333344,"value":0.8503937007874016},{"number":64,"time":13.46458333333344,"value":0.8503937007874016},{"number":64,"time":13.99687500000011,"value":1},{"number":64,"time":13.997916666666777,"value":1},{"number":64,"time":14.052083333333444,"value":0.8661417322834646},{"number":64,"time":14.052083333333444,"value":0.8661417322834646},{"number":64,"time":14.07187500000011,"value":0.7322834645669292},{"number":64,"time":14.072916666666778,"value":0.7322834645669292},{"number":64,"time":14.080208333333445,"value":0.6299212598425197},{"number":64,"time":14.081250000000113,"value":0.6299212598425197},{"number":64,"time":14.087500000000112,"value":0.5826771653543307},{"number":64,"time":14.087500000000112,"value":0.5826771653543307},{"number":64,"time":14.095833333333445,"value":0.5275590551181102},{"number":64,"time":14.096875000000113,"value":0.5275590551181102},{"number":64,"time":14.101041666666779,"value":0.49606299212598426},{"number":64,"time":14.102083333333447,"value":0.49606299212598426},{"number":64,"time":14.108333333333446,"value":0.3543307086614173},{"number":64,"time":14.109375000000114,"value":0.3543307086614173},{"number":64,"time":14.115625000000113,"value":0.2283464566929134},{"number":64,"time":14.11666666666678,"value":0.2283464566929134},{"number":64,"time":14.17604166666678,"value":0.3543307086614173},{"number":64,"time":14.17604166666678,"value":0.3543307086614173},{"number":64,"time":14.187500000000114,"value":0.4881889763779528},{"number":64,"time":14.187500000000114,"value":0.4881889763779528},{"number":64,"time":14.195833333333447,"value":0.5275590551181102},{"number":64,"time":14.196875000000114,"value":0.5275590551181102},{"number":64,"time":14.203125000000114,"value":0.5669291338582677},{"number":64,"time":14.204166666666781,"value":0.5669291338582677},{"number":64,"time":14.215625000000115,"value":0.5984251968503937},{"number":64,"time":14.216666666666782,"value":0.5984251968503937},{"number":64,"time":14.228125000000116,"value":0.6299212598425197},{"number":64,"time":14.228125000000116,"value":0.6299212598425197},{"number":64,"time":14.247916666666782,"value":0.7559055118110236},{"number":64,"time":14.24895833333345,"value":0.7559055118110236},{"number":64,"time":14.331250000000116,"value":0.8503937007874016},{"number":64,"time":14.332291666666784,"value":0.8503937007874016},{"number":64,"time":14.538541666666784,"value":0.7322834645669292},{"number":64,"time":14.538541666666784,"value":0.7322834645669292},{"number":64,"time":14.551041666666784,"value":0.6456692913385826},{"number":64,"time":14.552083333333451,"value":0.6456692913385826},{"number":64,"time":14.562500000000117,"value":0.6141732283464567},{"number":64,"time":14.563541666666785,"value":0.6141732283464567},{"number":64,"time":14.579166666666785,"value":0.5826771653543307},{"number":64,"time":14.580208333333452,"value":0.5826771653543307},{"number":64,"time":14.614583333333453,"value":0.6141732283464567},{"number":64,"time":14.61562500000012,"value":0.6141732283464567},{"number":64,"time":14.63125000000012,"value":0.6456692913385826},{"number":64,"time":14.632291666666788,"value":0.6456692913385826},{"number":64,"time":14.647916666666788,"value":0.7559055118110236},{"number":64,"time":14.648958333333455,"value":0.7559055118110236},{"number":64,"time":14.706250000000122,"value":0.8503937007874016},{"number":64,"time":14.707291666666789,"value":0.8503937007874016},{"number":64,"time":15.000000000000123,"value":0.7086614173228346},{"number":64,"time":15.000000000000123,"value":0.7086614173228346},{"number":64,"time":15.00729166666679,"value":0.6299212598425197},{"number":64,"time":15.008333333333457,"value":0.6299212598425197},{"number":64,"time":15.014583333333457,"value":0.5826771653543307},{"number":64,"time":15.015625000000124,"value":0.5826771653543307},{"number":64,"time":15.023958333333457,"value":0.5275590551181102},{"number":64,"time":15.025000000000125,"value":0.5275590551181102},{"number":64,"time":15.027083333333458,"value":0.4881889763779528},{"number":64,"time":15.027083333333458,"value":0.4881889763779528},{"number":64,"time":15.034375000000125,"value":0.3543307086614173},{"number":64,"time":15.035416666666793,"value":0.3543307086614173},{"number":64,"time":15.04270833333346,"value":0.2047244094488189},{"number":64,"time":15.043750000000127,"value":0.2047244094488189},{"number":64,"time":15.054166666666793,"value":0.10236220472440945},{"number":64,"time":15.05520833333346,"value":0.10236220472440945},{"number":64,"time":15.11458333333346,"value":0.25196850393700787},{"number":64,"time":15.11458333333346,"value":0.25196850393700787},{"number":64,"time":15.122916666666793,"value":0.3779527559055118},{"number":64,"time":15.12395833333346,"value":0.3779527559055118},{"number":64,"time":15.13020833333346,"value":0.4881889763779528},{"number":64,"time":15.131250000000128,"value":0.4881889763779528},{"number":64,"time":15.138541666666795,"value":0.5354330708661418},{"number":64,"time":15.138541666666795,"value":0.5354330708661418},{"number":64,"time":15.146875000000128,"value":0.5669291338582677},{"number":64,"time":15.147916666666795,"value":0.5669291338582677},{"number":64,"time":15.158333333333461,"value":0.5984251968503937},{"number":64,"time":15.159375000000129,"value":0.5984251968503937},{"number":64,"time":15.170833333333462,"value":0.6299212598425197},{"number":64,"time":15.17187500000013,"value":0.6299212598425197},{"number":64,"time":15.20625000000013,"value":0.7322834645669292},{"number":64,"time":15.207291666666798,"value":0.7322834645669292},{"number":64,"time":15.3541666666668,"value":0.8267716535433071},{"number":64,"time":15.355208333333467,"value":0.8267716535433071},{"number":64,"time":15.482291666666798,"value":0.937007874015748},{"number":64,"time":15.483333333333466,"value":0.937007874015748},{"number":64,"time":15.570833333333466,"value":0.8267716535433071},{"number":64,"time":15.571875000000134,"value":0.8267716535433071},{"number":64,"time":15.590625000000134,"value":0.7322834645669292},{"number":64,"time":15.591666666666802,"value":0.7322834645669292},{"number":64,"time":15.602083333333468,"value":0.6535433070866141},{"number":64,"time":15.603125000000135,"value":0.6535433070866141},{"number":64,"time":15.614583333333469,"value":0.6220472440944882},{"number":64,"time":15.615625000000136,"value":0.6220472440944882},{"number":64,"time":15.670833333333471,"value":0.6535433070866141},{"number":64,"time":15.671875000000139,"value":0.6535433070866141},{"number":64,"time":15.690625000000137,"value":0.7559055118110236},{"number":64,"time":15.691666666666805,"value":0.7559055118110236},{"number":64,"time":15.758333333333471,"value":0.8503937007874016},{"number":64,"time":15.759375000000139,"value":0.8503937007874016},{"number":64,"time":15.93437500000014,"value":0.7559055118110236},{"number":64,"time":15.935416666666807,"value":0.7559055118110236},{"number":64,"time":15.951041666666807,"value":0.6535433070866141},{"number":64,"time":15.951041666666807,"value":0.6535433070866141},{"number":64,"time":15.966666666666807,"value":0.6220472440944882},{"number":64,"time":15.967708333333475,"value":0.6220472440944882},{"number":64,"time":16.010416666666806,"value":0.6535433070866141},{"number":64,"time":16.011458333333472,"value":0.6535433070866141},{"number":64,"time":16.047916666666808,"value":0.7559055118110236},{"number":64,"time":16.048958333333474,"value":0.7559055118110236},{"number":64,"time":16.106250000000138,"value":0.8503937007874016},{"number":64,"time":16.107291666666804,"value":0.8503937007874016},{"number":64,"time":16.238541666666805,"value":1},{"number":64,"time":16.238541666666805,"value":1},{"number":64,"time":16.294791666666807,"value":0.8661417322834646},{"number":64,"time":16.295833333333473,"value":0.8661417322834646},{"number":64,"time":16.330208333333474,"value":0.7322834645669292},{"number":64,"time":16.33125000000014,"value":0.7322834645669292},{"number":64,"time":16.342708333333473,"value":0.6535433070866141},{"number":64,"time":16.34375000000014,"value":0.6535433070866141},{"number":64,"time":16.358333333333473,"value":0.6220472440944882},{"number":64,"time":16.35937500000014,"value":0.6220472440944882},{"number":64,"time":16.410416666666805,"value":0.6535433070866141},{"number":64,"time":16.410416666666805,"value":0.6535433070866141},{"number":64,"time":16.435416666666804,"value":0.7559055118110236},{"number":64,"time":16.43645833333347,"value":0.7559055118110236},{"number":64,"time":16.4666666666668,"value":0.8503937007874016},{"number":64,"time":16.467708333333466,"value":0.8503937007874016},{"number":64,"time":16.610416666666797,"value":1},{"number":64,"time":16.610416666666797,"value":1},{"number":64,"time":16.714583333333465,"value":0.8661417322834646},{"number":64,"time":16.71562500000013,"value":0.8661417322834646},{"number":64,"time":16.738541666666798,"value":0.7559055118110236},{"number":64,"time":16.739583333333464,"value":0.7559055118110236},{"number":64,"time":16.74687500000013,"value":0.6614173228346457},{"number":64,"time":16.747916666666796,"value":0.6614173228346457},{"number":64,"time":16.755208333333464,"value":0.6220472440944882},{"number":64,"time":16.75625000000013,"value":0.6220472440944882},{"number":64,"time":16.765625000000128,"value":0.5826771653543307},{"number":64,"time":16.766666666666794,"value":0.5826771653543307},{"number":64,"time":16.778125000000127,"value":0.5511811023622047},{"number":64,"time":16.779166666666793,"value":0.5511811023622047},{"number":64,"time":16.838541666666796,"value":0.5826771653543307},{"number":64,"time":16.83958333333346,"value":0.5826771653543307},{"number":64,"time":16.854166666666796,"value":0.6220472440944882},{"number":64,"time":16.854166666666796,"value":0.6220472440944882},{"number":64,"time":16.87083333333346,"value":0.6535433070866141},{"number":64,"time":16.87083333333346,"value":0.6535433070866141},{"number":64,"time":16.906250000000128,"value":0.7559055118110236},{"number":64,"time":16.907291666666794,"value":0.7559055118110236},{"number":64,"time":16.94583333333346,"value":0.8503937007874016},{"number":64,"time":16.94583333333346,"value":0.8503937007874016},{"number":64,"time":17.05833333333346,"value":1},{"number":64,"time":17.059375000000127,"value":1},{"number":64,"time":17.15416666666679,"value":0.8661417322834646},{"number":64,"time":17.155208333333455,"value":0.8661417322834646},{"number":64,"time":17.16979166666679,"value":0.7559055118110236},{"number":64,"time":17.170833333333455,"value":0.7559055118110236},{"number":64,"time":17.178125000000122,"value":0.6614173228346457},{"number":64,"time":17.179166666666788,"value":0.6614173228346457},{"number":64,"time":17.18541666666679,"value":0.6141732283464567},{"number":64,"time":17.18541666666679,"value":0.6141732283464567},{"number":64,"time":17.194791666666788,"value":0.5748031496062992},{"number":64,"time":17.195833333333454,"value":0.5748031496062992},{"number":64,"time":17.202083333333455,"value":0.5354330708661418},{"number":64,"time":17.20312500000012,"value":0.5354330708661418},{"number":64,"time":17.210416666666788,"value":0.4881889763779528},{"number":64,"time":17.211458333333454,"value":0.4881889763779528},{"number":64,"time":17.22187500000012,"value":0.4015748031496063},{"number":64,"time":17.222916666666787,"value":0.4015748031496063},{"number":64,"time":17.253125000000118,"value":0.47244094488188976},{"number":64,"time":17.254166666666784,"value":0.47244094488188976},{"number":64,"time":17.265625000000117,"value":0.5039370078740157},{"number":64,"time":17.266666666666783,"value":0.5039370078740157},{"number":64,"time":17.27708333333345,"value":0.5433070866141733},{"number":64,"time":17.278125000000117,"value":0.5433070866141733},{"number":64,"time":17.28958333333345,"value":0.5748031496062992},{"number":64,"time":17.290625000000116,"value":0.5748031496062992},{"number":64,"time":17.30520833333345,"value":0.6062992125984252},{"number":64,"time":17.306250000000116,"value":0.6062992125984252},{"number":64,"time":17.31770833333345,"value":0.6456692913385826},{"number":64,"time":17.318750000000115,"value":0.6456692913385826},{"number":64,"time":17.34583333333345,"value":0.7559055118110236},{"number":64,"time":17.346875000000114,"value":0.7559055118110236},{"number":64,"time":17.390625000000114,"value":0.8503937007874016},{"number":64,"time":17.39166666666678,"value":0.8503937007874016},{"number":64,"time":17.505208333333446,"value":1},{"number":64,"time":17.50625000000011,"value":1},{"number":64,"time":17.561458333333444,"value":0.8661417322834646},{"number":64,"time":17.56250000000011,"value":0.8661417322834646},{"number":64,"time":17.58125000000011,"value":0.7559055118110236},{"number":64,"time":17.582291666666777,"value":0.7559055118110236},{"number":64,"time":17.59062500000011,"value":0.6614173228346457},{"number":64,"time":17.591666666666775,"value":0.6614173228346457},{"number":64,"time":17.597916666666777,"value":0.6220472440944882},{"number":64,"time":17.598958333333442,"value":0.6220472440944882},{"number":64,"time":17.605208333333444,"value":0.5905511811023622},{"number":64,"time":17.60625000000011,"value":0.5905511811023622},{"number":64,"time":17.617708333333443,"value":0.5511811023622047},{"number":64,"time":17.61875000000011,"value":0.5511811023622047},{"number":64,"time":17.677083333333442,"value":0.5826771653543307},{"number":64,"time":17.678125000000108,"value":0.5826771653543307},{"number":64,"time":17.68958333333344,"value":0.6141732283464567},{"number":64,"time":17.690625000000107,"value":0.6141732283464567},{"number":64,"time":17.701041666666775,"value":0.6535433070866141},{"number":64,"time":17.70208333333344,"value":0.6535433070866141},{"number":64,"time":17.713541666666774,"value":0.7559055118110236},{"number":64,"time":17.71458333333344,"value":0.7559055118110236},{"number":64,"time":17.741666666666774,"value":0.8503937007874016},{"number":64,"time":17.74270833333344,"value":0.8503937007874016},{"number":64,"time":17.873958333333444,"value":1},{"number":64,"time":17.873958333333444,"value":1},{"number":64,"time":17.96979166666678,"value":0.8661417322834646},{"number":64,"time":17.970833333333445,"value":0.8661417322834646},{"number":64,"time":17.993750000000112,"value":0.7322834645669292},{"number":64,"time":17.994791666666778,"value":0.7322834645669292},{"number":64,"time":18.005208333333446,"value":0.6456692913385826},{"number":64,"time":18.00625000000011,"value":0.6456692913385826},{"number":64,"time":18.01354166666678,"value":0.6141732283464567},{"number":64,"time":18.014583333333444,"value":0.6141732283464567},{"number":64,"time":18.026041666666778,"value":0.5748031496062992},{"number":64,"time":18.027083333333444,"value":0.5748031496062992},{"number":64,"time":18.045833333333444,"value":0.5433070866141733},{"number":64,"time":18.04687500000011,"value":0.5433070866141733},{"number":64,"time":18.073958333333444,"value":0.5748031496062992},{"number":64,"time":18.073958333333444,"value":0.5748031496062992},{"number":64,"time":18.089583333333444,"value":0.6062992125984252},{"number":64,"time":18.09062500000011,"value":0.6062992125984252},{"number":64,"time":18.097916666666777,"value":0.6456692913385826},{"number":64,"time":18.098958333333442,"value":0.6456692913385826},{"number":64,"time":18.10937500000011,"value":0.7559055118110236},{"number":64,"time":18.10937500000011,"value":0.7559055118110236},{"number":64,"time":18.12187500000011,"value":0.8503937007874016},{"number":64,"time":18.12187500000011,"value":0.8503937007874016},{"number":64,"time":18.40104166666678,"value":1},{"number":64,"time":18.402083333333447,"value":1},{"number":64,"time":18.461458333333447,"value":0.8661417322834646},{"number":64,"time":18.462500000000112,"value":0.8661417322834646},{"number":64,"time":18.477083333333447,"value":0.7559055118110236},{"number":64,"time":18.478125000000112,"value":0.7559055118110236},{"number":64,"time":18.48541666666678,"value":0.6456692913385826},{"number":64,"time":18.48541666666678,"value":0.6456692913385826},{"number":64,"time":18.493750000000112,"value":0.5984251968503937},{"number":64,"time":18.494791666666778,"value":0.5984251968503937},{"number":64,"time":18.50104166666678,"value":0.5511811023622047},{"number":64,"time":18.502083333333445,"value":0.5511811023622047},{"number":64,"time":18.505208333333446,"value":0.5196850393700787},{"number":64,"time":18.50625000000011,"value":0.5196850393700787},{"number":64,"time":18.517708333333445,"value":0.3779527559055118},{"number":64,"time":18.51875000000011,"value":0.3779527559055118},{"number":64,"time":18.52916666666678,"value":0.2755905511811024},{"number":64,"time":18.530208333333444,"value":0.2755905511811024},{"number":64,"time":18.58541666666678,"value":0.3779527559055118},{"number":64,"time":18.58541666666678,"value":0.3779527559055118},{"number":64,"time":18.593750000000114,"value":0.47244094488188976},{"number":64,"time":18.59479166666678,"value":0.47244094488188976},{"number":64,"time":18.60104166666678,"value":0.5196850393700787},{"number":64,"time":18.602083333333447,"value":0.5196850393700787},{"number":64,"time":18.609375000000114,"value":0.5511811023622047},{"number":64,"time":18.609375000000114,"value":0.5511811023622047},{"number":64,"time":18.621875000000113,"value":0.5826771653543307},{"number":64,"time":18.621875000000113,"value":0.5826771653543307},{"number":64,"time":18.633333333333447,"value":0.6141732283464567},{"number":64,"time":18.633333333333447,"value":0.6141732283464567},{"number":64,"time":18.64166666666678,"value":0.6456692913385826},{"number":64,"time":18.642708333333445,"value":0.6456692913385826},{"number":64,"time":18.66979166666678,"value":0.7559055118110236},{"number":64,"time":18.670833333333444,"value":0.7559055118110236},{"number":64,"time":18.721875000000114,"value":0.8503937007874016},{"number":64,"time":18.721875000000114,"value":0.8503937007874016},{"number":64,"time":18.865625000000115,"value":1},{"number":64,"time":18.86666666666678,"value":1},{"number":64,"time":18.933333333333447,"value":0.8661417322834646},{"number":64,"time":18.933333333333447,"value":0.8661417322834646},{"number":64,"time":18.961458333333447,"value":0.7559055118110236},{"number":64,"time":18.962500000000112,"value":0.7559055118110236},{"number":64,"time":18.973958333333446,"value":0.6535433070866141},{"number":64,"time":18.97500000000011,"value":0.6535433070866141},{"number":64,"time":18.981250000000113,"value":0.6220472440944882},{"number":64,"time":18.98229166666678,"value":0.6220472440944882},{"number":64,"time":18.993750000000112,"value":0.5905511811023622},{"number":64,"time":18.994791666666778,"value":0.5905511811023622},{"number":64,"time":19.048958333333445,"value":0.6220472440944882},{"number":64,"time":19.05000000000011,"value":0.6220472440944882},{"number":64,"time":19.08125000000011,"value":0.7322834645669292},{"number":64,"time":19.082291666666777,"value":0.7322834645669292},{"number":64,"time":19.133333333333443,"value":0.8267716535433071},{"number":64,"time":19.13437500000011,"value":0.8267716535433071},{"number":64,"time":19.177083333333446,"value":0.937007874015748},{"number":64,"time":19.17812500000011,"value":0.937007874015748},{"number":64,"time":19.245833333333444,"value":1},{"number":64,"time":19.245833333333444,"value":1},{"number":64,"time":19.317708333333446,"value":0.8661417322834646},{"number":64,"time":19.31875000000011,"value":0.8661417322834646},{"number":64,"time":19.34166666666678,"value":0.7322834645669292},{"number":64,"time":19.342708333333444,"value":0.7322834645669292},{"number":64,"time":19.348958333333446,"value":0.6535433070866141},{"number":64,"time":19.35000000000011,"value":0.6535433070866141},{"number":64,"time":19.35729166666678,"value":0.6220472440944882},{"number":64,"time":19.35729166666678,"value":0.6220472440944882},{"number":64,"time":19.369791666666778,"value":0.5905511811023622},{"number":64,"time":19.369791666666778,"value":0.5905511811023622},{"number":64,"time":19.389583333333444,"value":0.5590551181102362},{"number":64,"time":19.39062500000011,"value":0.5590551181102362},{"number":64,"time":19.42500000000011,"value":0.5905511811023622},{"number":64,"time":19.426041666666777,"value":0.5905511811023622},{"number":64,"time":19.445833333333443,"value":0.6220472440944882},{"number":64,"time":19.445833333333443,"value":0.6220472440944882},{"number":64,"time":19.472916666666777,"value":0.7322834645669292},{"number":64,"time":19.473958333333442,"value":0.7322834645669292},{"number":64,"time":19.505208333333442,"value":0.8267716535433071},{"number":64,"time":19.506250000000108,"value":0.8267716535433071},{"number":64,"time":19.59687500000011,"value":0.937007874015748},{"number":64,"time":19.597916666666777,"value":0.937007874015748},{"number":64,"time":19.65625000000011,"value":1},{"number":64,"time":19.657291666666776,"value":1},{"number":64,"time":19.732291666666775,"value":0.8661417322834646},{"number":64,"time":19.73333333333344,"value":0.8661417322834646},{"number":64,"time":19.756250000000108,"value":0.7322834645669292},{"number":64,"time":19.756250000000108,"value":0.7322834645669292},{"number":64,"time":19.769791666666773,"value":0.6377952755905512},{"number":64,"time":19.77083333333344,"value":0.6377952755905512},{"number":64,"time":19.77604166666677,"value":0.6062992125984252},{"number":64,"time":19.777083333333437,"value":0.6062992125984252},{"number":64,"time":19.78854166666677,"value":0.5748031496062992},{"number":64,"time":19.789583333333436,"value":0.5748031496062992},{"number":64,"time":19.856250000000102,"value":0.6141732283464567},{"number":64,"time":19.857291666666768,"value":0.6141732283464567},{"number":64,"time":19.864583333333435,"value":0.6456692913385826},{"number":64,"time":19.8656250000001,"value":0.6456692913385826},{"number":64,"time":19.8812500000001,"value":0.7795275590551181},{"number":64,"time":19.882291666666767,"value":0.7795275590551181},{"number":64,"time":19.947916666666764,"value":0.889763779527559},{"number":64,"time":19.94895833333343,"value":0.889763779527559},{"number":64,"time":20.152083333333426,"value":1},{"number":64,"time":20.15312500000009,"value":1},{"number":64,"time":20.221875000000093,"value":0.8661417322834646},{"number":64,"time":20.221875000000093,"value":0.8661417322834646},{"number":64,"time":20.24479166666676,"value":0.7322834645669292},{"number":64,"time":20.245833333333426,"value":0.7322834645669292},{"number":64,"time":20.253125000000093,"value":0.6456692913385826},{"number":64,"time":20.25416666666676,"value":0.6456692913385826},{"number":64,"time":20.26041666666676,"value":0.6062992125984252},{"number":64,"time":20.261458333333426,"value":0.6062992125984252},{"number":64,"time":20.268750000000093,"value":0.5748031496062992},{"number":64,"time":20.26979166666676,"value":0.5748031496062992},{"number":64,"time":20.27604166666676,"value":0.5433070866141733},{"number":64,"time":20.277083333333426,"value":0.5433070866141733},{"number":64,"time":20.284375000000093,"value":0.5039370078740157},{"number":64,"time":20.28541666666676,"value":0.5039370078740157},{"number":64,"time":20.296875000000092,"value":0.47244094488188976},{"number":64,"time":20.296875000000092,"value":0.47244094488188976},{"number":64,"time":20.328125000000092,"value":0.5039370078740157},{"number":64,"time":20.329166666666758,"value":0.5039370078740157},{"number":64,"time":20.341666666666757,"value":0.5354330708661418},{"number":64,"time":20.342708333333423,"value":0.5354330708661418},{"number":64,"time":20.35208333333342,"value":0.5669291338582677},{"number":64,"time":20.353125000000087,"value":0.5669291338582677},{"number":64,"time":20.371875000000088,"value":0.5984251968503937},{"number":64,"time":20.372916666666754,"value":0.5984251968503937},{"number":64,"time":20.384375000000087,"value":0.6299212598425197},{"number":64,"time":20.384375000000087,"value":0.6299212598425197},{"number":64,"time":20.412500000000087,"value":0.7322834645669292},{"number":64,"time":20.413541666666752,"value":0.7322834645669292},{"number":64,"time":20.476041666666752,"value":0.8267716535433071},{"number":64,"time":20.477083333333418,"value":0.8267716535433071},{"number":64,"time":20.59479166666675,"value":0.937007874015748},{"number":64,"time":20.59479166666675,"value":0.937007874015748},{"number":64,"time":20.632291666666752,"value":1},{"number":64,"time":20.632291666666752,"value":1},{"number":64,"time":20.681250000000087,"value":0.8661417322834646},{"number":64,"time":20.682291666666753,"value":0.8661417322834646},{"number":64,"time":20.704166666666755,"value":0.7322834645669292},{"number":64,"time":20.70520833333342,"value":0.7322834645669292},{"number":64,"time":20.712500000000087,"value":0.6456692913385826},{"number":64,"time":20.713541666666753,"value":0.6456692913385826},{"number":64,"time":20.72083333333342,"value":0.6062992125984252},{"number":64,"time":20.72083333333342,"value":0.6062992125984252},{"number":64,"time":20.732291666666754,"value":0.5669291338582677},{"number":64,"time":20.732291666666754,"value":0.5669291338582677},{"number":64,"time":20.744791666666753,"value":0.5275590551181102},{"number":64,"time":20.744791666666753,"value":0.5275590551181102},{"number":64,"time":20.756250000000087,"value":0.49606299212598426},{"number":64,"time":20.756250000000087,"value":0.49606299212598426},{"number":64,"time":20.79270833333342,"value":0.5275590551181102},{"number":64,"time":20.793750000000085,"value":0.5275590551181102},{"number":64,"time":20.806250000000084,"value":0.5590551181102362},{"number":64,"time":20.806250000000084,"value":0.5590551181102362},{"number":64,"time":20.820833333333418,"value":0.5905511811023622},{"number":64,"time":20.821875000000084,"value":0.5905511811023622},{"number":64,"time":20.833333333333417,"value":0.6220472440944882},{"number":64,"time":20.833333333333417,"value":0.6220472440944882},{"number":64,"time":20.840625000000085,"value":0.6535433070866141},{"number":64,"time":20.84166666666675,"value":0.6535433070866141},{"number":64,"time":20.856250000000085,"value":0.7559055118110236},{"number":64,"time":20.856250000000085,"value":0.7559055118110236},{"number":64,"time":20.912500000000083,"value":0.8503937007874016},{"number":64,"time":20.91354166666675,"value":0.8503937007874016},{"number":64,"time":21.000000000000085,"value":1},{"number":64,"time":21.00104166666675,"value":1},{"number":64,"time":21.088541666666753,"value":0.8661417322834646},{"number":64,"time":21.08958333333342,"value":0.8661417322834646},{"number":64,"time":21.116666666666752,"value":0.7322834645669292},{"number":64,"time":21.117708333333418,"value":0.7322834645669292},{"number":64,"time":21.128125000000086,"value":0.6456692913385826},{"number":64,"time":21.12916666666675,"value":0.6456692913385826},{"number":64,"time":21.13645833333342,"value":0.6141732283464567},{"number":64,"time":21.137500000000085,"value":0.6141732283464567},{"number":64,"time":21.200000000000085,"value":0.6456692913385826},{"number":64,"time":21.20104166666675,"value":0.6456692913385826},{"number":64,"time":21.21666666666675,"value":0.7559055118110236},{"number":64,"time":21.217708333333416,"value":0.7559055118110236},{"number":64,"time":21.233333333333416,"value":0.8503937007874016},{"number":64,"time":21.233333333333416,"value":0.8503937007874016},{"number":64,"time":21.381250000000083,"value":1},{"number":64,"time":21.381250000000083,"value":1},{"number":64,"time":21.477083333333415,"value":0.8661417322834646},{"number":64,"time":21.47812500000008,"value":0.8661417322834646},{"number":64,"time":21.505208333333414,"value":0.7322834645669292},{"number":64,"time":21.50625000000008,"value":0.7322834645669292},{"number":64,"time":21.516666666666747,"value":0.6456692913385826},{"number":64,"time":21.517708333333413,"value":0.6456692913385826},{"number":64,"time":21.523958333333415,"value":0.6141732283464567},{"number":64,"time":21.52500000000008,"value":0.6141732283464567},{"number":64,"time":21.54062500000008,"value":0.5826771653543307},{"number":64,"time":21.541666666666746,"value":0.5826771653543307},{"number":64,"time":21.604166666666742,"value":0.6220472440944882},{"number":64,"time":21.605208333333408,"value":0.6220472440944882},{"number":64,"time":21.62395833333341,"value":0.7559055118110236},{"number":64,"time":21.625000000000075,"value":0.7559055118110236},{"number":64,"time":21.64479166666674,"value":0.8503937007874016},{"number":64,"time":21.645833333333407,"value":0.8503937007874016},{"number":64,"time":21.92395833333341,"value":1},{"number":64,"time":21.925000000000075,"value":1},{"number":64,"time":21.995833333333408,"value":0.8661417322834646},{"number":64,"time":21.996875000000074,"value":0.8661417322834646},{"number":64,"time":22.012500000000074,"value":0.7559055118110236},{"number":64,"time":22.01354166666674,"value":0.7559055118110236},{"number":64,"time":22.017708333333406,"value":0.6614173228346457},{"number":64,"time":22.01875000000007,"value":0.6614173228346457},{"number":64,"time":22.023958333333404,"value":0.6062992125984252},{"number":64,"time":22.02500000000007,"value":0.6062992125984252},{"number":64,"time":22.032291666666737,"value":0.5590551181102362},{"number":64,"time":22.032291666666737,"value":0.5590551181102362},{"number":64,"time":22.036458333333403,"value":0.5275590551181102},{"number":64,"time":22.03750000000007,"value":0.5275590551181102},{"number":64,"time":22.04062500000007,"value":0.49606299212598426},{"number":64,"time":22.041666666666735,"value":0.49606299212598426},{"number":64,"time":22.047916666666737,"value":0.3543307086614173},{"number":64,"time":22.048958333333402,"value":0.3543307086614173},{"number":64,"time":22.05625000000007,"value":0.2283464566929134},{"number":64,"time":22.05625000000007,"value":0.2283464566929134},{"number":64,"time":22.064583333333402,"value":0.12598425196850394},{"number":64,"time":22.065625000000068,"value":0.12598425196850394},{"number":64,"time":22.080208333333402,"value":0.031496062992125984},{"number":64,"time":22.081250000000068,"value":0.031496062992125984},{"number":64,"time":22.088541666666735,"value":0},{"number":64,"time":22.0895833333334,"value":0},{"number":64,"time":22.133333333333404,"value":0.14960629921259844},{"number":64,"time":22.13437500000007,"value":0.14960629921259844},{"number":64,"time":22.14062500000007,"value":0.2755905511811024},{"number":64,"time":22.141666666666737,"value":0.2755905511811024},{"number":64,"time":22.147916666666738,"value":0.4015748031496063},{"number":64,"time":22.148958333333404,"value":0.4015748031496063},{"number":64,"time":22.152083333333405,"value":0.47244094488188976},{"number":64,"time":22.15312500000007,"value":0.47244094488188976},{"number":64,"time":22.155208333333405,"value":0.5039370078740157},{"number":64,"time":22.155208333333405,"value":0.5039370078740157},{"number":64,"time":22.164583333333404,"value":0.5433070866141733},{"number":64,"time":22.16562500000007,"value":0.5433070866141733},{"number":64,"time":22.17187500000007,"value":0.5748031496062992},{"number":64,"time":22.172916666666737,"value":0.5748031496062992},{"number":64,"time":22.18750000000007,"value":0.6062992125984252},{"number":64,"time":22.188541666666737,"value":0.6062992125984252},{"number":64,"time":22.20000000000007,"value":0.6377952755905512},{"number":64,"time":22.20000000000007,"value":0.6377952755905512},{"number":64,"time":22.239583333333403,"value":0.7322834645669292},{"number":64,"time":22.24062500000007,"value":0.7322834645669292},{"number":64,"time":22.27500000000007,"value":0.8267716535433071},{"number":64,"time":22.276041666666735,"value":0.8267716535433071},{"number":64,"time":22.38750000000007,"value":0.937007874015748},{"number":64,"time":22.38750000000007,"value":0.937007874015748},{"number":64,"time":22.49479166666674,"value":0.8267716535433071},{"number":64,"time":22.495833333333405,"value":0.8267716535433071},{"number":64,"time":22.511458333333405,"value":0.7086614173228346},{"number":64,"time":22.51250000000007,"value":0.7086614173228346},{"number":64,"time":22.519791666666737,"value":0.6377952755905512},{"number":64,"time":22.520833333333403,"value":0.6377952755905512},{"number":64,"time":22.527083333333405,"value":0.5984251968503937},{"number":64,"time":22.52812500000007,"value":0.5984251968503937},{"number":64,"time":22.539583333333404,"value":0.5590551181102362},{"number":64,"time":22.54062500000007,"value":0.5590551181102362},{"number":64,"time":22.54687500000007,"value":0.5275590551181102},{"number":64,"time":22.547916666666737,"value":0.5275590551181102},{"number":64,"time":22.561458333333405,"value":0.49606299212598426},{"number":64,"time":22.56250000000007,"value":0.49606299212598426},{"number":64,"time":22.595833333333406,"value":0.5275590551181102},{"number":64,"time":22.59687500000007,"value":0.5275590551181102},{"number":64,"time":22.60729166666674,"value":0.5590551181102362},{"number":64,"time":22.608333333333405,"value":0.5590551181102362},{"number":64,"time":22.62291666666674,"value":0.5905511811023622},{"number":64,"time":22.623958333333405,"value":0.5905511811023622},{"number":64,"time":22.636458333333408,"value":0.6220472440944882},{"number":64,"time":22.637500000000074,"value":0.6220472440944882},{"number":64,"time":22.66354166666674,"value":0.7322834645669292},{"number":64,"time":22.664583333333407,"value":0.7322834645669292},{"number":64,"time":22.71979166666674,"value":0.8267716535433071},{"number":64,"time":22.720833333333406,"value":0.8267716535433071},{"number":64,"time":22.77916666666674,"value":0.937007874015748},{"number":64,"time":22.780208333333405,"value":0.937007874015748},{"number":64,"time":22.835416666666738,"value":1},{"number":64,"time":22.836458333333404,"value":1},{"number":64,"time":22.911458333333403,"value":0.8661417322834646},{"number":64,"time":22.91250000000007,"value":0.8661417322834646},{"number":64,"time":22.935416666666736,"value":0.7322834645669292},{"number":64,"time":22.936458333333402,"value":0.7322834645669292},{"number":64,"time":22.94687500000007,"value":0.6456692913385826},{"number":64,"time":22.947916666666735,"value":0.6456692913385826},{"number":64,"time":22.955208333333402,"value":0.6141732283464567},{"number":64,"time":22.955208333333402,"value":0.6141732283464567},{"number":64,"time":22.967708333333402,"value":0.5748031496062992},{"number":64,"time":22.967708333333402,"value":0.5748031496062992},{"number":64,"time":23.0395833333334,"value":0.6062992125984252},{"number":64,"time":23.040625000000066,"value":0.6062992125984252},{"number":64,"time":23.051041666666734,"value":0.6456692913385826},{"number":64,"time":23.0520833333334,"value":0.6456692913385826},{"number":64,"time":23.0677083333334,"value":0.7559055118110236},{"number":64,"time":23.068750000000065,"value":0.7559055118110236},{"number":64,"time":23.103125000000066,"value":0.8503937007874016},{"number":64,"time":23.104166666666732,"value":0.8503937007874016},{"number":64,"time":23.24375000000006,"value":1},{"number":64,"time":23.24375000000006,"value":1},{"number":64,"time":23.322916666666725,"value":0.8661417322834646},{"number":64,"time":23.32395833333339,"value":0.8661417322834646},{"number":64,"time":23.343750000000057,"value":0.7559055118110236},{"number":64,"time":23.344791666666723,"value":0.7559055118110236},{"number":64,"time":23.351041666666724,"value":0.6614173228346457},{"number":64,"time":23.35208333333339,"value":0.6614173228346457},{"number":64,"time":23.359375000000057,"value":0.6220472440944882},{"number":64,"time":23.360416666666723,"value":0.6220472440944882},{"number":64,"time":23.36770833333339,"value":0.5905511811023622},{"number":64,"time":23.368750000000055,"value":0.5905511811023622},{"number":64,"time":23.379166666666723,"value":0.5511811023622047},{"number":64,"time":23.379166666666723,"value":0.5511811023622047},{"number":64,"time":23.391666666666723,"value":0.5118110236220472},{"number":64,"time":23.391666666666723,"value":0.5118110236220472},{"number":64,"time":23.431250000000055,"value":0.5433070866141733},{"number":64,"time":23.43229166666672,"value":0.5433070866141733},{"number":64,"time":23.446875000000055,"value":0.5748031496062992},{"number":64,"time":23.44791666666672,"value":0.5748031496062992},{"number":64,"time":23.459375000000055,"value":0.6062992125984252},{"number":64,"time":23.46041666666672,"value":0.6062992125984252},{"number":64,"time":23.467708333333388,"value":0.6377952755905512},{"number":64,"time":23.467708333333388,"value":0.6377952755905512},{"number":64,"time":23.47916666666672,"value":0.7322834645669292},{"number":64,"time":23.47916666666672,"value":0.7322834645669292},{"number":64,"time":23.495833333333387,"value":0.8267716535433071},{"number":64,"time":23.496875000000053,"value":0.8267716535433071},{"number":64,"time":23.623958333333388,"value":0.937007874015748},{"number":64,"time":23.625000000000053,"value":0.937007874015748},{"number":64,"time":23.69583333333339,"value":1},{"number":64,"time":23.696875000000055,"value":1},{"number":64,"time":23.77187500000006,"value":0.8661417322834646},{"number":64,"time":23.772916666666724,"value":0.8661417322834646},{"number":64,"time":23.79062500000006,"value":0.7322834645669292},{"number":64,"time":23.79062500000006,"value":0.7322834645669292},{"number":64,"time":23.798958333333392,"value":0.6456692913385826},{"number":64,"time":23.798958333333392,"value":0.6456692913385826},{"number":64,"time":23.80625000000006,"value":0.6062992125984252},{"number":64,"time":23.807291666666725,"value":0.6062992125984252},{"number":64,"time":23.815625000000058,"value":0.5669291338582677},{"number":64,"time":23.816666666666723,"value":0.5669291338582677},{"number":64,"time":23.822916666666725,"value":0.5354330708661418},{"number":64,"time":23.82395833333339,"value":0.5354330708661418},{"number":64,"time":23.831250000000058,"value":0.49606299212598426},{"number":64,"time":23.832291666666723,"value":0.49606299212598426},{"number":64,"time":23.891666666666723,"value":0.5275590551181102},{"number":64,"time":23.89270833333339,"value":0.5275590551181102},{"number":64,"time":23.903125000000056,"value":0.5669291338582677},{"number":64,"time":23.903125000000056,"value":0.5669291338582677},{"number":64,"time":23.919791666666722,"value":0.6062992125984252},{"number":64,"time":23.920833333333388,"value":0.6062992125984252},{"number":64,"time":23.928125000000055,"value":0.6377952755905512},{"number":64,"time":23.92916666666672,"value":0.6377952755905512},{"number":64,"time":23.93958333333339,"value":0.7322834645669292},{"number":64,"time":23.940625000000054,"value":0.7322834645669292},{"number":64,"time":23.959375000000055,"value":0.8267716535433071},{"number":64,"time":23.96041666666672,"value":0.8267716535433071},{"number":64,"time":24.115625000000055,"value":0.937007874015748},{"number":64,"time":24.11666666666672,"value":0.937007874015748},{"number":64,"time":24.167708333333387,"value":1},{"number":64,"time":24.167708333333387,"value":1},{"number":64,"time":24.231250000000053,"value":0.8661417322834646},{"number":64,"time":24.23229166666672,"value":0.8661417322834646},{"number":64,"time":24.255208333333382,"value":0.7322834645669292},{"number":64,"time":24.256250000000048,"value":0.7322834645669292},{"number":64,"time":24.263541666666715,"value":0.6535433070866141},{"number":64,"time":24.26458333333338,"value":0.6535433070866141},{"number":64,"time":24.270833333333382,"value":0.6141732283464567},{"number":64,"time":24.271875000000048,"value":0.6141732283464567},{"number":64,"time":24.279166666666715,"value":0.5826771653543307},{"number":64,"time":24.279166666666715,"value":0.5826771653543307},{"number":64,"time":24.286458333333382,"value":0.5511811023622047},{"number":64,"time":24.287500000000048,"value":0.5511811023622047},{"number":64,"time":24.29375000000005,"value":0.5196850393700787},{"number":64,"time":24.294791666666715,"value":0.5196850393700787},{"number":64,"time":24.30625000000005,"value":0.48031496062992124},{"number":64,"time":24.307291666666714,"value":0.48031496062992124},{"number":64,"time":24.346875000000047,"value":0.5196850393700787},{"number":64,"time":24.346875000000047,"value":0.5196850393700787},{"number":64,"time":24.362500000000047,"value":0.5590551181102362},{"number":64,"time":24.363541666666713,"value":0.5590551181102362},{"number":64,"time":24.378125000000047,"value":0.5905511811023622},{"number":64,"time":24.378125000000047,"value":0.5905511811023622},{"number":64,"time":24.393750000000047,"value":0.6220472440944882},{"number":64,"time":24.394791666666713,"value":0.6220472440944882},{"number":64,"time":24.407291666666712,"value":0.6535433070866141},{"number":64,"time":24.408333333333378,"value":0.6535433070866141},{"number":64,"time":24.439583333333378,"value":0.7559055118110236},{"number":64,"time":24.440625000000043,"value":0.7559055118110236},{"number":64,"time":24.494791666666714,"value":0.8503937007874016},{"number":64,"time":24.49583333333338,"value":0.8503937007874016},{"number":64,"time":24.697916666666718,"value":0.7322834645669292},{"number":64,"time":24.697916666666718,"value":0.7322834645669292},{"number":64,"time":24.711458333333383,"value":0.6456692913385826},{"number":64,"time":24.71250000000005,"value":0.6456692913385826},{"number":64,"time":24.71770833333338,"value":0.6141732283464567},{"number":64,"time":24.718750000000046,"value":0.6141732283464567},{"number":64,"time":24.73020833333338,"value":0.5826771653543307},{"number":64,"time":24.731250000000045,"value":0.5826771653543307},{"number":64,"time":24.796875000000046,"value":0.6220472440944882},{"number":64,"time":24.797916666666712,"value":0.6220472440944882},{"number":64,"time":24.829166666666712,"value":0.7559055118110236},{"number":64,"time":24.829166666666712,"value":0.7559055118110236},{"number":64,"time":24.88958333333338,"value":0.8503937007874016},{"number":64,"time":24.890625000000046,"value":0.8503937007874016},{"number":64,"time":25.029166666666715,"value":1},{"number":64,"time":25.03020833333338,"value":1},{"number":64,"time":25.086458333333383,"value":0.8661417322834646},{"number":64,"time":25.08750000000005,"value":0.8661417322834646},{"number":64,"time":25.113541666666716,"value":0.7559055118110236},{"number":64,"time":25.114583333333382,"value":0.7559055118110236},{"number":64,"time":25.12500000000005,"value":0.6614173228346457},{"number":64,"time":25.126041666666715,"value":0.6614173228346457},{"number":64,"time":25.13750000000005,"value":0.6299212598425197},{"number":64,"time":25.138541666666715,"value":0.6299212598425197},{"number":64,"time":25.22083333333338,"value":0.7322834645669292},{"number":64,"time":25.221875000000047,"value":0.7322834645669292},{"number":64,"time":25.272916666666713,"value":0.8267716535433071},{"number":64,"time":25.27395833333338,"value":0.8267716535433071},{"number":64,"time":25.505208333333382,"value":0.937007874015748},{"number":64,"time":25.506250000000048,"value":0.937007874015748},{"number":64,"time":25.60937500000005,"value":0.8267716535433071},{"number":64,"time":25.610416666666715,"value":0.8267716535433071},{"number":64,"time":25.620833333333383,"value":0.7086614173228346},{"number":64,"time":25.62187500000005,"value":0.7086614173228346},{"number":64,"time":25.630208333333382,"value":0.6377952755905512},{"number":64,"time":25.631250000000048,"value":0.6377952755905512},{"number":64,"time":25.63750000000005,"value":0.5984251968503937},{"number":64,"time":25.638541666666715,"value":0.5984251968503937},{"number":64,"time":25.644791666666716,"value":0.5669291338582677},{"number":64,"time":25.645833333333382,"value":0.5669291338582677},{"number":64,"time":25.65312500000005,"value":0.5354330708661418},{"number":64,"time":25.65312500000005,"value":0.5354330708661418},{"number":64,"time":25.661458333333382,"value":0.49606299212598426},{"number":64,"time":25.662500000000048,"value":0.49606299212598426},{"number":64,"time":25.72083333333338,"value":0.5275590551181102},{"number":64,"time":25.721875000000047,"value":0.5275590551181102},{"number":64,"time":25.73333333333338,"value":0.5590551181102362},{"number":64,"time":25.734375000000046,"value":0.5590551181102362},{"number":64,"time":25.744791666666714,"value":0.5905511811023622},{"number":64,"time":25.74583333333338,"value":0.5905511811023622},{"number":64,"time":25.757291666666713,"value":0.6220472440944882},{"number":64,"time":25.75833333333338,"value":0.6220472440944882},{"number":64,"time":25.765625000000046,"value":0.6535433070866141},{"number":64,"time":25.766666666666712,"value":0.6535433070866141},{"number":64,"time":25.77708333333338,"value":0.7559055118110236},{"number":64,"time":25.778125000000045,"value":0.7559055118110236},{"number":64,"time":25.861458333333378,"value":0.8503937007874016},{"number":64,"time":25.862500000000043,"value":0.8503937007874016},{"number":64,"time":26.065625000000043,"value":0.7322834645669292},{"number":64,"time":26.065625000000043,"value":0.7322834645669292},{"number":64,"time":26.077083333333377,"value":0.6456692913385826},{"number":64,"time":26.078125000000043,"value":0.6456692913385826},{"number":64,"time":26.08541666666671,"value":0.6062992125984252},{"number":64,"time":26.086458333333375,"value":0.6062992125984252},{"number":64,"time":26.096875000000043,"value":0.5748031496062992},{"number":64,"time":26.09791666666671,"value":0.5748031496062992},{"number":64,"time":26.11354166666671,"value":0.5433070866141733},{"number":64,"time":26.114583333333375,"value":0.5433070866141733},{"number":64,"time":26.161458333333375,"value":0.5748031496062992},{"number":64,"time":26.16250000000004,"value":0.5748031496062992},{"number":64,"time":26.177083333333375,"value":0.6062992125984252},{"number":64,"time":26.17812500000004,"value":0.6062992125984252},{"number":64,"time":26.189583333333374,"value":0.6377952755905512},{"number":64,"time":26.189583333333374,"value":0.6377952755905512},{"number":64,"time":26.213541666666707,"value":0.7322834645669292},{"number":64,"time":26.213541666666707,"value":0.7322834645669292},{"number":64,"time":26.26875000000004,"value":0.8267716535433071},{"number":64,"time":26.269791666666706,"value":0.8267716535433071},{"number":64,"time":26.366666666666706,"value":0.937007874015748},{"number":64,"time":26.366666666666706,"value":0.937007874015748},{"number":64,"time":26.481250000000042,"value":0.8267716535433071},{"number":64,"time":26.482291666666708,"value":0.8267716535433071},{"number":64,"time":26.496875000000042,"value":0.7322834645669292},{"number":64,"time":26.497916666666708,"value":0.7322834645669292},{"number":64,"time":26.50937500000004,"value":0.6456692913385826},{"number":64,"time":26.510416666666707,"value":0.6456692913385826},{"number":64,"time":26.520833333333375,"value":0.6141732283464567},{"number":64,"time":26.52187500000004,"value":0.6141732283464567},{"number":64,"time":26.53750000000004,"value":0.5826771653543307},{"number":64,"time":26.53750000000004,"value":0.5826771653543307},{"number":64,"time":26.585416666666706,"value":0.6141732283464567},{"number":64,"time":26.586458333333372,"value":0.6141732283464567},{"number":64,"time":26.59687500000004,"value":0.6456692913385826},{"number":64,"time":26.597916666666706,"value":0.6456692913385826},{"number":64,"time":26.620833333333373,"value":0.7559055118110236},{"number":64,"time":26.62187500000004,"value":0.7559055118110236},{"number":64,"time":26.685416666666704,"value":0.8503937007874016},{"number":64,"time":26.68645833333337,"value":0.8503937007874016},{"number":64,"time":26.74895833333337,"value":1},{"number":64,"time":26.750000000000036,"value":1},{"number":64,"time":26.853125000000034,"value":0.8661417322834646},{"number":64,"time":26.8541666666667,"value":0.8661417322834646},{"number":64,"time":26.881250000000033,"value":0.7322834645669292},{"number":64,"time":26.8822916666667,"value":0.7322834645669292},{"number":64,"time":26.892708333333367,"value":0.6456692913385826},{"number":64,"time":26.893750000000033,"value":0.6456692913385826},{"number":64,"time":26.905208333333366,"value":0.6141732283464567},{"number":64,"time":26.906250000000032,"value":0.6141732283464567},{"number":64,"time":26.926041666666702,"value":0.5826771653543307},{"number":64,"time":26.926041666666702,"value":0.5826771653543307},{"number":64,"time":26.981250000000035,"value":0.6141732283464567},{"number":64,"time":26.9822916666667,"value":0.6141732283464567},{"number":64,"time":27.0010416666667,"value":0.6535433070866141},{"number":64,"time":27.0010416666667,"value":0.6535433070866141},{"number":64,"time":27.033333333333367,"value":0.7559055118110236},{"number":64,"time":27.034375000000033,"value":0.7559055118110236},{"number":64,"time":27.096875000000033,"value":0.8503937007874016},{"number":64,"time":27.0979166666667,"value":0.8503937007874016},{"number":64,"time":27.285416666666706,"value":1},{"number":64,"time":27.28645833333337,"value":1},{"number":64,"time":27.353125000000038,"value":0.8661417322834646},{"number":64,"time":27.354166666666703,"value":0.8661417322834646},{"number":64,"time":27.372916666666704,"value":0.7559055118110236},{"number":64,"time":27.37395833333337,"value":0.7559055118110236},{"number":64,"time":27.381250000000037,"value":0.6614173228346457},{"number":64,"time":27.382291666666703,"value":0.6614173228346457},{"number":64,"time":27.38958333333337,"value":0.6220472440944882},{"number":64,"time":27.38958333333337,"value":0.6220472440944882},{"number":64,"time":27.396875000000037,"value":0.5905511811023622},{"number":64,"time":27.397916666666703,"value":0.5905511811023622},{"number":64,"time":27.40520833333337,"value":0.5590551181102362},{"number":64,"time":27.406250000000036,"value":0.5590551181102362},{"number":64,"time":27.412500000000037,"value":0.5275590551181102},{"number":64,"time":27.413541666666703,"value":0.5275590551181102},{"number":64,"time":27.468750000000036,"value":0.5590551181102362},{"number":64,"time":27.4697916666667,"value":0.5590551181102362},{"number":64,"time":27.4854166666667,"value":0.5905511811023622},{"number":64,"time":27.486458333333367,"value":0.5905511811023622},{"number":64,"time":27.495833333333366,"value":0.6220472440944882},{"number":64,"time":27.49687500000003,"value":0.6220472440944882},{"number":64,"time":27.515625000000032,"value":0.7559055118110236},{"number":64,"time":27.516666666666698,"value":0.7559055118110236},{"number":64,"time":27.588541666666696,"value":0.8503937007874016},{"number":64,"time":27.588541666666696,"value":0.8503937007874016},{"number":64,"time":27.708333333333364,"value":1},{"number":64,"time":27.70937500000003,"value":1},{"number":64,"time":27.767708333333363,"value":0.8661417322834646},{"number":64,"time":27.76875000000003,"value":0.8661417322834646},{"number":64,"time":27.80000000000003,"value":0.7322834645669292},{"number":64,"time":27.801041666666695,"value":0.7322834645669292},{"number":64,"time":27.813541666666698,"value":0.6456692913385826},{"number":64,"time":27.814583333333363,"value":0.6456692913385826},{"number":64,"time":27.823958333333362,"value":0.6141732283464567},{"number":64,"time":27.825000000000028,"value":0.6141732283464567},{"number":64,"time":27.89270833333336,"value":0.6456692913385826},{"number":64,"time":27.89270833333336,"value":0.6456692913385826},{"number":64,"time":27.912500000000026,"value":0.7559055118110236},{"number":64,"time":27.913541666666692,"value":0.7559055118110236},{"number":64,"time":27.960416666666692,"value":0.8503937007874016},{"number":64,"time":27.961458333333358,"value":0.8503937007874016},{"number":64,"time":28.173958333333356,"value":1},{"number":64,"time":28.175000000000022,"value":1},{"number":64,"time":28.24791666666669,"value":0.8661417322834646},{"number":64,"time":28.248958333333356,"value":0.8661417322834646},{"number":64,"time":28.271875000000023,"value":0.7322834645669292},{"number":64,"time":28.27291666666669,"value":0.7322834645669292},{"number":64,"time":28.285416666666688,"value":0.6377952755905512},{"number":64,"time":28.286458333333353,"value":0.6377952755905512},{"number":64,"time":28.291666666666686,"value":0.6062992125984252},{"number":64,"time":28.29270833333335,"value":0.6062992125984252},{"number":64,"time":28.304166666666685,"value":0.5669291338582677},{"number":64,"time":28.30520833333335,"value":0.5669291338582677},{"number":64,"time":28.31562500000002,"value":0.5354330708661418},{"number":64,"time":28.316666666666684,"value":0.5354330708661418},{"number":64,"time":28.328125000000018,"value":0.5039370078740157},{"number":64,"time":28.328125000000018,"value":0.5039370078740157},{"number":64,"time":28.36458333333335,"value":0.5354330708661418},{"number":64,"time":28.365625000000016,"value":0.5354330708661418},{"number":64,"time":28.38020833333335,"value":0.5669291338582677},{"number":64,"time":28.381250000000016,"value":0.5669291338582677},{"number":64,"time":28.39583333333335,"value":0.5984251968503937},{"number":64,"time":28.396875000000016,"value":0.5984251968503937},{"number":64,"time":28.40833333333335,"value":0.6299212598425197},{"number":64,"time":28.409375000000015,"value":0.6299212598425197},{"number":64,"time":28.428125000000016,"value":0.7322834645669292},{"number":64,"time":28.42916666666668,"value":0.7322834645669292},{"number":64,"time":28.495833333333344,"value":0.8267716535433071},{"number":64,"time":28.49687500000001,"value":0.8267716535433071},{"number":64,"time":29.38750000000001,"value":0.7322834645669292},{"number":64,"time":29.388541666666676,"value":0.7322834645669292},{"number":64,"time":29.39687500000001,"value":0.6377952755905512},{"number":64,"time":29.39687500000001,"value":0.6377952755905512},{"number":64,"time":29.404166666666676,"value":0.5984251968503937},{"number":64,"time":29.40520833333334,"value":0.5984251968503937},{"number":64,"time":29.41250000000001,"value":0.5590551181102362},{"number":64,"time":29.41250000000001,"value":0.5590551181102362},{"number":64,"time":29.41562500000001,"value":0.5275590551181102},{"number":64,"time":29.416666666666675,"value":0.5275590551181102},{"number":64,"time":29.419791666666676,"value":0.49606299212598426},{"number":64,"time":29.42083333333334,"value":0.49606299212598426},{"number":64,"time":29.429166666666678,"value":0.4015748031496063},{"number":64,"time":29.430208333333344,"value":0.4015748031496063},{"number":64,"time":29.436458333333345,"value":0.2992125984251969},{"number":64,"time":29.43750000000001,"value":0.2992125984251969},{"number":64,"time":29.45625000000001,"value":0.2047244094488189},{"number":64,"time":29.457291666666677,"value":0.2047244094488189},{"number":64,"time":29.519791666666677,"value":0.33070866141732286},{"number":64,"time":29.520833333333343,"value":0.33070866141732286},{"number":64,"time":29.532291666666676,"value":0.47244094488188976},{"number":64,"time":29.533333333333342,"value":0.47244094488188976},{"number":64,"time":29.539583333333344,"value":0.5118110236220472},{"number":64,"time":29.54062500000001,"value":0.5118110236220472},{"number":64,"time":29.547916666666676,"value":0.5433070866141733},{"number":64,"time":29.548958333333342,"value":0.5433070866141733},{"number":64,"time":29.560416666666676,"value":0.5748031496062992},{"number":64,"time":29.56145833333334,"value":0.5748031496062992},{"number":64,"time":29.576041666666676,"value":0.6062992125984252},{"number":64,"time":29.57708333333334,"value":0.6062992125984252},{"number":64,"time":29.591666666666676,"value":0.6456692913385826},{"number":64,"time":29.59270833333334,"value":0.6456692913385826},{"number":64,"time":29.62395833333334,"value":0.7559055118110236},{"number":64,"time":29.625000000000007,"value":0.7559055118110236},{"number":64,"time":29.68020833333334,"value":0.8503937007874016},{"number":64,"time":29.681250000000006,"value":0.8503937007874016},{"number":64,"time":30.32395833333334,"value":0.7559055118110236},{"number":64,"time":30.325000000000006,"value":0.7559055118110236},{"number":64,"time":30.351041666666674,"value":0.6614173228346457},{"number":64,"time":30.35208333333334,"value":0.6614173228346457},{"number":64,"time":30.40833333333334,"value":0.7559055118110236},{"number":64,"time":30.409375000000004,"value":0.7559055118110236},{"number":64,"time":30.48645833333334,"value":0.8503937007874016},{"number":64,"time":30.487500000000004,"value":0.8503937007874016},{"number":64,"time":30.684375000000006,"value":0.7559055118110236},{"number":64,"time":30.684375000000006,"value":0.7559055118110236},{"number":64,"time":30.707291666666674,"value":0.6535433070866141},{"number":64,"time":30.70833333333334,"value":0.6535433070866141},{"number":64,"time":30.766666666666673,"value":0.7559055118110236},{"number":64,"time":30.76770833333334,"value":0.7559055118110236},{"number":64,"time":30.87916666666667,"value":0.8503937007874016},{"number":64,"time":30.880208333333336,"value":0.8503937007874016},{"number":64,"time":31.13125,"value":1},{"number":64,"time":31.132291666666667,"value":1},{"number":64,"time":31.214583333333334,"value":0.8661417322834646},{"number":64,"time":31.215625,"value":0.8661417322834646},{"number":64,"time":31.238541666666666,"value":0.7322834645669292},{"number":64,"time":31.239583333333332,"value":0.7322834645669292},{"number":64,"time":31.246875,"value":0.6535433070866141},{"number":64,"time":31.247916666666665,"value":0.6535433070866141},{"number":64,"time":31.255208333333332,"value":0.6220472440944882},{"number":64,"time":31.256249999999998,"value":0.6220472440944882},{"number":64,"time":31.263541666666665,"value":0.5905511811023622},{"number":64,"time":31.263541666666665,"value":0.5905511811023622},{"number":64,"time":31.279166666666665,"value":0.5590551181102362},{"number":64,"time":31.28020833333333,"value":0.5590551181102362},{"number":64,"time":31.335416666666664,"value":0.5905511811023622},{"number":64,"time":31.335416666666664,"value":0.5905511811023622},{"number":64,"time":31.351041666666664,"value":0.6220472440944882},{"number":64,"time":31.35208333333333,"value":0.6220472440944882},{"number":64,"time":31.374999999999996,"value":0.7322834645669292},{"number":64,"time":31.376041666666662,"value":0.7322834645669292},{"number":64,"time":31.39895833333333,"value":0.8267716535433071},{"number":64,"time":31.399999999999995,"value":0.8267716535433071},{"number":64,"time":31.514583333333327,"value":0.937007874015748},{"number":64,"time":31.515624999999993,"value":0.937007874015748},{"number":64,"time":31.574999999999996,"value":1},{"number":64,"time":31.57604166666666,"value":1},{"number":64,"time":31.662499999999994,"value":0.8661417322834646},{"number":64,"time":31.66354166666666,"value":0.8661417322834646},{"number":64,"time":31.686458333333327,"value":0.7559055118110236},{"number":64,"time":31.687499999999993,"value":0.7559055118110236},{"number":64,"time":31.69479166666666,"value":0.6614173228346457},{"number":64,"time":31.69479166666666,"value":0.6614173228346457},{"number":64,"time":31.70416666666666,"value":0.6299212598425197},{"number":64,"time":31.705208333333324,"value":0.6299212598425197},{"number":64,"time":31.714583333333323,"value":0.5905511811023622},{"number":64,"time":31.71562499999999,"value":0.5905511811023622},{"number":64,"time":31.735416666666655,"value":0.5590551181102362},{"number":64,"time":31.735416666666655,"value":0.5590551181102362},{"number":64,"time":31.779166666666654,"value":0.5905511811023622},{"number":64,"time":31.78020833333332,"value":0.5905511811023622},{"number":64,"time":31.794791666666654,"value":0.6220472440944882},{"number":64,"time":31.79583333333332,"value":0.6220472440944882},{"number":64,"time":31.822916666666654,"value":0.7322834645669292},{"number":64,"time":31.82395833333332,"value":0.7322834645669292},{"number":64,"time":31.90729166666665,"value":0.8267716535433071},{"number":64,"time":31.908333333333317,"value":0.8267716535433071},{"number":64,"time":31.990624999999984,"value":0.937007874015748},{"number":64,"time":31.99166666666665,"value":0.937007874015748},{"number":64,"time":32.03124999999998,"value":1},{"number":64,"time":32.032291666666644,"value":1},{"number":64,"time":32.079166666666644,"value":0.8661417322834646},{"number":64,"time":32.08020833333331,"value":0.8661417322834646},{"number":64,"time":32.10729166666665,"value":0.7559055118110236},{"number":64,"time":32.10729166666665,"value":0.7559055118110236},{"number":64,"time":32.11874999999998,"value":0.6614173228346457},{"number":64,"time":32.11979166666664,"value":0.6614173228346457},{"number":64,"time":32.13124999999997,"value":0.6220472440944882},{"number":64,"time":32.13229166666664,"value":0.6220472440944882},{"number":64,"time":32.155208333333306,"value":0.5905511811023622},{"number":64,"time":32.15624999999997,"value":0.5905511811023622},{"number":64,"time":32.19062499999997,"value":0.6220472440944882},{"number":64,"time":32.191666666666634,"value":0.6220472440944882},{"number":64,"time":32.211458333333304,"value":0.6535433070866141},{"number":64,"time":32.211458333333304,"value":0.6535433070866141},{"number":64,"time":32.231249999999974,"value":0.7559055118110236},{"number":64,"time":32.23229166666664,"value":0.7559055118110236},{"number":64,"time":32.29479166666664,"value":0.8503937007874016},{"number":64,"time":32.29479166666664,"value":0.8503937007874016},{"number":64,"time":32.87812499999997,"value":1},{"number":64,"time":32.879166666666634,"value":1},{"number":64,"time":32.995833333333294,"value":0.8661417322834646},{"number":64,"time":32.995833333333294,"value":0.8661417322834646},{"number":64,"time":33.01458333333329,"value":0.7086614173228346},{"number":64,"time":33.01562499999996,"value":0.7086614173228346},{"number":64,"time":33.02395833333329,"value":0.6299212598425197},{"number":64,"time":33.024999999999956,"value":0.6299212598425197},{"number":64,"time":33.03020833333329,"value":0.5905511811023622},{"number":64,"time":33.03124999999996,"value":0.5905511811023622},{"number":64,"time":33.03749999999996,"value":0.5511811023622047},{"number":64,"time":33.038541666666625,"value":0.5511811023622047},{"number":64,"time":33.04583333333329,"value":0.5039370078740157},{"number":64,"time":33.04583333333329,"value":0.5039370078740157},{"number":64,"time":33.058333333333294,"value":0.4015748031496063},{"number":64,"time":33.05937499999996,"value":0.4015748031496063},{"number":64,"time":33.07499999999996,"value":0.2992125984251969},{"number":64,"time":33.076041666666626,"value":0.2992125984251969},{"number":64,"time":33.13020833333329,"value":0.4015748031496063},{"number":64,"time":33.13124999999996,"value":0.4015748031496063},{"number":64,"time":33.13749999999996,"value":0.47244094488188976},{"number":64,"time":33.138541666666626,"value":0.47244094488188976},{"number":64,"time":33.14583333333329,"value":0.5039370078740157},{"number":64,"time":33.14687499999996,"value":0.5039370078740157},{"number":64,"time":33.154166666666626,"value":0.5354330708661418},{"number":64,"time":33.15520833333329,"value":0.5354330708661418},{"number":64,"time":33.165624999999956,"value":0.5669291338582677},{"number":64,"time":33.16666666666662,"value":0.5669291338582677},{"number":64,"time":33.18333333333329,"value":0.5984251968503937},{"number":64,"time":33.18333333333329,"value":0.5984251968503937},{"number":64,"time":33.19479166666662,"value":0.6299212598425197},{"number":64,"time":33.19479166666662,"value":0.6299212598425197},{"number":64,"time":33.21874999999995,"value":0.7322834645669292},{"number":64,"time":33.219791666666616,"value":0.7322834645669292},{"number":64,"time":33.262499999999946,"value":0.8267716535433071},{"number":64,"time":33.26354166666661,"value":0.8267716535433071},{"number":64,"time":33.72187499999995,"value":0.937007874015748},{"number":64,"time":33.72291666666661,"value":0.937007874015748},{"number":64,"time":33.782291666666616,"value":1},{"number":64,"time":33.782291666666616,"value":1},{"number":64,"time":33.87812499999995,"value":0.8661417322834646},{"number":64,"time":33.87916666666661,"value":0.8661417322834646},{"number":64,"time":33.90624999999994,"value":0.7322834645669292},{"number":64,"time":33.90729166666661,"value":0.7322834645669292},{"number":64,"time":33.91770833333327,"value":0.6456692913385826},{"number":64,"time":33.91770833333327,"value":0.6456692913385826},{"number":64,"time":33.930208333333276,"value":0.6141732283464567},{"number":64,"time":33.93124999999994,"value":0.6141732283464567},{"number":64,"time":33.945833333333276,"value":0.5826771653543307},{"number":64,"time":33.945833333333276,"value":0.5826771653543307},{"number":64,"time":33.986458333333275,"value":0.6141732283464567},{"number":64,"time":33.98749999999994,"value":0.6141732283464567},{"number":64,"time":34.002083333333275,"value":0.6456692913385826},{"number":64,"time":34.00312499999994,"value":0.6456692913385826},{"number":64,"time":34.02187499999994,"value":0.7559055118110236},{"number":64,"time":34.0229166666666,"value":0.7559055118110236},{"number":64,"time":34.06562499999994,"value":0.8503937007874016},{"number":64,"time":34.066666666666606,"value":0.8503937007874016},{"number":64,"time":34.249999999999936,"value":1},{"number":64,"time":34.2510416666666,"value":1},{"number":64,"time":34.40520833333327,"value":0.8661417322834646},{"number":64,"time":34.406249999999936,"value":0.8661417322834646},{"number":64,"time":34.43020833333327,"value":0.7322834645669292},{"number":64,"time":34.43020833333327,"value":0.7322834645669292},{"number":64,"time":34.4416666666666,"value":0.6456692913385826},{"number":64,"time":34.442708333333265,"value":0.6456692913385826},{"number":64,"time":34.44999999999993,"value":0.6141732283464567},{"number":64,"time":34.4510416666666,"value":0.6141732283464567},{"number":64,"time":34.46145833333326,"value":0.5826771653543307},{"number":64,"time":34.46249999999993,"value":0.5826771653543307},{"number":64,"time":34.5291666666666,"value":0.6220472440944882},{"number":64,"time":34.53020833333326,"value":0.6220472440944882},{"number":64,"time":34.55729166666659,"value":0.7322834645669292},{"number":64,"time":34.55729166666659,"value":0.7322834645669292},{"number":64,"time":34.60312499999992,"value":0.8267716535433071},{"number":64,"time":34.604166666666586,"value":0.8267716535433071},{"number":64,"time":34.66979166666658,"value":0.937007874015748},{"number":64,"time":34.67083333333325,"value":0.937007874015748},{"number":64,"time":34.73749999999991,"value":1},{"number":64,"time":34.73854166666658,"value":1},{"number":64,"time":34.841666666666576,"value":0.8661417322834646},{"number":64,"time":34.84270833333324,"value":0.8661417322834646},{"number":64,"time":34.868749999999906,"value":0.7559055118110236},{"number":64,"time":34.868749999999906,"value":0.7559055118110236},{"number":64,"time":34.882291666666575,"value":0.6535433070866141},{"number":64,"time":34.882291666666575,"value":0.6535433070866141},{"number":64,"time":34.893749999999905,"value":0.6220472440944882},{"number":64,"time":34.893749999999905,"value":0.6220472440944882},{"number":64,"time":34.91458333333324,"value":0.5905511811023622},{"number":64,"time":34.915624999999906,"value":0.5905511811023622},{"number":64,"time":34.948958333333245,"value":0.6220472440944882},{"number":64,"time":34.94999999999991,"value":0.6220472440944882},{"number":64,"time":34.964583333333245,"value":0.6535433070866141},{"number":64,"time":34.96562499999991,"value":0.6535433070866141},{"number":64,"time":34.980208333333245,"value":0.7559055118110236},{"number":64,"time":34.98124999999991,"value":0.7559055118110236},{"number":64,"time":35.01249999999991,"value":0.8503937007874016},{"number":64,"time":35.013541666666576,"value":0.8503937007874016},{"number":64,"time":35.11770833333324,"value":1},{"number":64,"time":35.11770833333324,"value":1},{"number":64,"time":35.226041666666575,"value":0.8661417322834646},{"number":64,"time":35.22708333333324,"value":0.8661417322834646},{"number":64,"time":35.25104166666657,"value":0.7322834645669292},{"number":64,"time":35.25208333333324,"value":0.7322834645669292},{"number":64,"time":35.2624999999999,"value":0.6377952755905512},{"number":64,"time":35.2624999999999,"value":0.6377952755905512},{"number":64,"time":35.268749999999905,"value":0.6062992125984252},{"number":64,"time":35.26979166666657,"value":0.6062992125984252},{"number":64,"time":35.282291666666566,"value":0.5748031496062992},{"number":64,"time":35.282291666666566,"value":0.5748031496062992},{"number":64,"time":35.297916666666566,"value":0.5354330708661418},{"number":64,"time":35.297916666666566,"value":0.5354330708661418},{"number":64,"time":35.34583333333323,"value":0.5669291338582677},{"number":64,"time":35.3468749999999,"value":0.5669291338582677},{"number":64,"time":35.36145833333323,"value":0.5984251968503937},{"number":64,"time":35.3624999999999,"value":0.5984251968503937},{"number":64,"time":35.37291666666656,"value":0.6377952755905512},{"number":64,"time":35.37395833333323,"value":0.6377952755905512},{"number":64,"time":35.38437499999989,"value":0.7322834645669292},{"number":64,"time":35.38541666666656,"value":0.7322834645669292},{"number":64,"time":35.404166666666555,"value":0.8503937007874016},{"number":64,"time":35.40520833333322,"value":0.8503937007874016},{"number":64,"time":35.59270833333322,"value":1},{"number":64,"time":35.59270833333322,"value":1},{"number":64,"time":35.75520833333322,"value":0.8661417322834646},{"number":64,"time":35.75624999999989,"value":0.8661417322834646},{"number":64,"time":35.77604166666656,"value":0.7559055118110236},{"number":64,"time":35.77708333333322,"value":0.7559055118110236},{"number":64,"time":35.78437499999989,"value":0.6614173228346457},{"number":64,"time":35.785416666666556,"value":0.6614173228346457},{"number":64,"time":35.79270833333322,"value":0.6299212598425197},{"number":64,"time":35.79374999999989,"value":0.6299212598425197},{"number":64,"time":35.79999999999989,"value":0.5984251968503937},{"number":64,"time":35.801041666666556,"value":0.5984251968503937},{"number":64,"time":35.816666666666556,"value":0.5669291338582677},{"number":64,"time":35.81770833333322,"value":0.5669291338582677},{"number":64,"time":35.85624999999989,"value":0.5984251968503937},{"number":64,"time":35.857291666666555,"value":0.5984251968503937},{"number":64,"time":35.87187499999989,"value":0.6299212598425197},{"number":64,"time":35.872916666666555,"value":0.6299212598425197},{"number":64,"time":35.89166666666655,"value":0.7559055118110236},{"number":64,"time":35.89270833333322,"value":0.7559055118110236},{"number":64,"time":35.92395833333322,"value":0.8503937007874016},{"number":64,"time":35.92499999999988,"value":0.8503937007874016},{"number":64,"time":36.09166666666655,"value":0.7322834645669292},{"number":64,"time":36.09270833333321,"value":0.7322834645669292},{"number":64,"time":36.10416666666654,"value":0.6456692913385826},{"number":64,"time":36.10520833333321,"value":0.6456692913385826},{"number":64,"time":36.11145833333321,"value":0.6141732283464567},{"number":64,"time":36.112499999999876,"value":0.6141732283464567},{"number":64,"time":36.123958333333206,"value":0.5826771653543307},{"number":64,"time":36.12499999999987,"value":0.5826771653543307},{"number":64,"time":36.18333333333321,"value":0.6220472440944882},{"number":64,"time":36.184374999999875,"value":0.6220472440944882},{"number":64,"time":36.204166666666545,"value":0.7559055118110236},{"number":64,"time":36.204166666666545,"value":0.7559055118110236},{"number":64,"time":36.22812499999988,"value":0.8503937007874016},{"number":64,"time":36.22812499999988,"value":0.8503937007874016},{"number":64,"time":36.559374999999875,"value":1},{"number":64,"time":36.56041666666654,"value":1},{"number":64,"time":36.623958333333206,"value":0.8661417322834646},{"number":64,"time":36.62499999999987,"value":0.8661417322834646},{"number":64,"time":36.639583333333206,"value":0.7559055118110236},{"number":64,"time":36.64062499999987,"value":0.7559055118110236},{"number":64,"time":36.648958333333205,"value":0.6377952755905512},{"number":64,"time":36.64999999999987,"value":0.6377952755905512},{"number":64,"time":36.655208333333206,"value":0.5905511811023622},{"number":64,"time":36.65624999999987,"value":0.5905511811023622},{"number":64,"time":36.66354166666654,"value":0.5354330708661418},{"number":64,"time":36.664583333333205,"value":0.5354330708661418},{"number":64,"time":36.6677083333332,"value":0.5039370078740157},{"number":64,"time":36.66874999999987,"value":0.5039370078740157},{"number":64,"time":36.676041666666535,"value":0.3779527559055118},{"number":64,"time":36.6770833333332,"value":0.3779527559055118},{"number":64,"time":36.6833333333332,"value":0.2283464566929134},{"number":64,"time":36.68437499999987,"value":0.2283464566929134},{"number":64,"time":36.691666666666535,"value":0.12598425196850394},{"number":64,"time":36.691666666666535,"value":0.12598425196850394},{"number":64,"time":36.71249999999987,"value":0.031496062992125984},{"number":64,"time":36.713541666666536,"value":0.031496062992125984},{"number":64,"time":36.716666666666534,"value":0},{"number":64,"time":36.7177083333332,"value":0},{"number":64,"time":36.7583333333332,"value":0.10236220472440945},{"number":64,"time":36.759374999999864,"value":0.10236220472440945},{"number":64,"time":36.7645833333332,"value":0.2047244094488189},{"number":64,"time":36.7645833333332,"value":0.2047244094488189},{"number":64,"time":36.771874999999866,"value":0.33070866141732286},{"number":64,"time":36.77291666666653,"value":0.33070866141732286},{"number":64,"time":36.7802083333332,"value":0.47244094488188976},{"number":64,"time":36.7802083333332,"value":0.47244094488188976},{"number":64,"time":36.787499999999866,"value":0.5196850393700787},{"number":64,"time":36.78854166666653,"value":0.5196850393700787},{"number":64,"time":36.7958333333332,"value":0.5590551181102362},{"number":64,"time":36.796874999999865,"value":0.5590551181102362},{"number":64,"time":36.8114583333332,"value":0.5984251968503937},{"number":64,"time":36.812499999999865,"value":0.5984251968503937},{"number":64,"time":36.823958333333195,"value":0.6299212598425197},{"number":64,"time":36.82499999999986,"value":0.6299212598425197},{"number":64,"time":36.85208333333319,"value":0.7322834645669292},{"number":64,"time":36.85208333333319,"value":0.7322834645669292},{"number":64,"time":36.90416666666652,"value":0.8267716535433071},{"number":64,"time":36.90416666666652,"value":0.8267716535433071},{"number":64,"time":37.035416666666514,"value":0.937007874015748},{"number":64,"time":37.03645833333318,"value":0.937007874015748},{"number":64,"time":37.10729166666651,"value":0.8267716535433071},{"number":64,"time":37.10833333333318,"value":0.8267716535433071},{"number":64,"time":37.12395833333318,"value":0.7322834645669292},{"number":64,"time":37.124999999999844,"value":0.7322834645669292},{"number":64,"time":37.13541666666651,"value":0.6535433070866141},{"number":64,"time":37.136458333333174,"value":0.6535433070866141},{"number":64,"time":37.14374999999984,"value":0.6220472440944882},{"number":64,"time":37.14479166666651,"value":0.6220472440944882},{"number":64,"time":37.20833333333318,"value":0.6535433070866141},{"number":64,"time":37.20833333333318,"value":0.6535433070866141},{"number":64,"time":37.22812499999985,"value":0.7559055118110236},{"number":64,"time":37.22812499999985,"value":0.7559055118110236},{"number":64,"time":37.25208333333318,"value":0.8503937007874016},{"number":64,"time":37.25208333333318,"value":0.8503937007874016},{"number":64,"time":37.40729166666652,"value":1},{"number":64,"time":37.40833333333318,"value":1},{"number":64,"time":37.519791666666514,"value":0.8661417322834646},{"number":64,"time":37.52083333333318,"value":0.8661417322834646},{"number":64,"time":37.55520833333318,"value":0.7322834645669292},{"number":64,"time":37.55624999999984,"value":0.7322834645669292},{"number":64,"time":37.57187499999984,"value":0.6535433070866141},{"number":64,"time":37.57291666666651,"value":0.6535433070866141},{"number":64,"time":37.64374999999984,"value":0.7559055118110236},{"number":64,"time":37.64479166666651,"value":0.7559055118110236},{"number":64,"time":37.72395833333317,"value":0.8503937007874016},{"number":64,"time":37.72499999999984,"value":0.8503937007874016},{"number":64,"time":37.82812499999984,"value":1},{"number":64,"time":37.82812499999984,"value":1},{"number":64,"time":37.93229166666651,"value":0.8661417322834646},{"number":64,"time":37.93229166666651,"value":0.8661417322834646},{"number":64,"time":37.95937499999984,"value":0.7559055118110236},{"number":64,"time":37.95937499999984,"value":0.7559055118110236},{"number":64,"time":37.971874999999834,"value":0.6614173228346457},{"number":64,"time":37.9729166666665,"value":0.6614173228346457},{"number":64,"time":37.983333333333164,"value":0.6299212598425197},{"number":64,"time":37.98437499999983,"value":0.6299212598425197},{"number":64,"time":38.0541666666665,"value":0.7322834645669292},{"number":64,"time":38.05520833333316,"value":0.7322834645669292},{"number":64,"time":38.077083333333164,"value":0.8503937007874016},{"number":64,"time":38.077083333333164,"value":0.8503937007874016},{"number":64,"time":38.27499999999982,"value":1},{"number":64,"time":38.27604166666649,"value":1},{"number":64,"time":38.43437499999981,"value":0.8661417322834646},{"number":64,"time":38.43541666666648,"value":0.8661417322834646},{"number":64,"time":38.454166666666474,"value":0.7559055118110236},{"number":64,"time":38.45520833333314,"value":0.7559055118110236},{"number":64,"time":38.46249999999981,"value":0.6614173228346457},{"number":64,"time":38.46354166666647,"value":0.6614173228346457},{"number":64,"time":38.47083333333314,"value":0.6141732283464567},{"number":64,"time":38.471874999999805,"value":0.6141732283464567},{"number":64,"time":38.48229166666647,"value":0.5748031496062992},{"number":64,"time":38.483333333333135,"value":0.5748031496062992},{"number":64,"time":38.494791666666465,"value":0.5354330708661418},{"number":64,"time":38.49583333333313,"value":0.5354330708661418},{"number":64,"time":38.506249999999795,"value":0.5039370078740157},{"number":64,"time":38.50729166666646,"value":0.5039370078740157},{"number":64,"time":38.5437499999998,"value":0.5354330708661418},{"number":64,"time":38.54479166666646,"value":0.5354330708661418},{"number":64,"time":38.55833333333313,"value":0.5669291338582677},{"number":64,"time":38.5593749999998,"value":0.5669291338582677},{"number":64,"time":38.57083333333313,"value":0.5984251968503937},{"number":64,"time":38.57187499999979,"value":0.5984251968503937},{"number":64,"time":38.58229166666646,"value":0.6299212598425197},{"number":64,"time":38.58333333333312,"value":0.6299212598425197},{"number":64,"time":38.59895833333312,"value":0.7322834645669292},{"number":64,"time":38.59999999999979,"value":0.7322834645669292},{"number":64,"time":38.62708333333312,"value":0.8267716535433071},{"number":64,"time":38.62708333333312,"value":0.8267716535433071},{"number":64,"time":38.73124999999978,"value":0.937007874015748},{"number":64,"time":38.73229166666645,"value":0.937007874015748},{"number":64,"time":38.786458333333115,"value":1},{"number":64,"time":38.786458333333115,"value":1},{"number":64,"time":38.86666666666645,"value":0.8661417322834646},{"number":64,"time":38.86770833333311,"value":0.8661417322834646},{"number":64,"time":38.89062499999978,"value":0.7559055118110236},{"number":64,"time":38.891666666666445,"value":0.7559055118110236},{"number":64,"time":38.90208333333311,"value":0.6535433070866141},{"number":64,"time":38.903124999999775,"value":0.6535433070866141},{"number":64,"time":38.91041666666644,"value":0.6220472440944882},{"number":64,"time":38.91145833333311,"value":0.6220472440944882},{"number":64,"time":38.92291666666644,"value":0.5905511811023622},{"number":64,"time":38.923958333333104,"value":0.5905511811023622},{"number":64,"time":38.9427083333331,"value":0.5590551181102362},{"number":64,"time":38.94374999999977,"value":0.5590551181102362},{"number":64,"time":38.978124999999764,"value":0.5905511811023622},{"number":64,"time":38.97916666666643,"value":0.5905511811023622},{"number":64,"time":38.99895833333309,"value":0.6220472440944882},{"number":64,"time":38.99999999999976,"value":0.6220472440944882},{"number":64,"time":39.022916666666426,"value":0.7322834645669292},{"number":64,"time":39.022916666666426,"value":0.7322834645669292},{"number":64,"time":39.058333333333096,"value":0.8267716535433071},{"number":64,"time":39.05937499999976,"value":0.8267716535433071},{"number":64,"time":39.118749999999764,"value":0.937007874015748},{"number":64,"time":39.11979166666643,"value":0.937007874015748},{"number":64,"time":39.222916666666436,"value":1},{"number":64,"time":39.2239583333331,"value":1},{"number":64,"time":39.32708333333311,"value":0.8661417322834646},{"number":64,"time":39.32708333333311,"value":0.8661417322834646},{"number":64,"time":39.349999999999774,"value":0.7322834645669292},{"number":64,"time":39.35104166666644,"value":0.7322834645669292},{"number":64,"time":39.35833333333311,"value":0.6535433070866141},{"number":64,"time":39.35937499999977,"value":0.6535433070866141},{"number":64,"time":39.36666666666644,"value":0.6141732283464567},{"number":64,"time":39.367708333333105,"value":0.6141732283464567},{"number":64,"time":39.38229166666644,"value":0.5826771653543307},{"number":64,"time":39.383333333333105,"value":0.5826771653543307},{"number":64,"time":39.44687499999977,"value":0.6141732283464567},{"number":64,"time":39.44791666666644,"value":0.6141732283464567},{"number":64,"time":39.45833333333311,"value":0.6535433070866141},{"number":64,"time":39.459374999999774,"value":0.6535433070866141},{"number":64,"time":39.470833333333104,"value":0.7559055118110236},{"number":64,"time":39.47187499999977,"value":0.7559055118110236},{"number":64,"time":39.4989583333331,"value":0.8503937007874016},{"number":64,"time":39.499999999999766,"value":0.8503937007874016},{"number":64,"time":39.5864583333331,"value":1},{"number":64,"time":39.587499999999764,"value":1},{"number":64,"time":39.69062499999976,"value":0.8661417322834646},{"number":64,"time":39.69166666666643,"value":0.8661417322834646},{"number":64,"time":39.718749999999766,"value":0.7559055118110236},{"number":64,"time":39.71979166666643,"value":0.7559055118110236},{"number":64,"time":39.730208333333096,"value":0.6614173228346457},{"number":64,"time":39.73124999999976,"value":0.6614173228346457},{"number":64,"time":39.74270833333309,"value":0.6220472440944882},{"number":64,"time":39.74374999999976,"value":0.6220472440944882},{"number":64,"time":39.81041666666643,"value":0.6535433070866141},{"number":64,"time":39.81145833333309,"value":0.6535433070866141},{"number":64,"time":39.83020833333309,"value":0.7559055118110236},{"number":64,"time":39.831249999999756,"value":0.7559055118110236},{"number":64,"time":39.898958333333084,"value":0.8503937007874016},{"number":64,"time":39.898958333333084,"value":0.8503937007874016},{"number":64,"time":40.126041666666424,"value":1},{"number":64,"time":40.128124999999756,"value":1},{"number":64,"time":40.22291666666642,"value":0.8661417322834646},{"number":64,"time":40.22291666666642,"value":0.8661417322834646},{"number":64,"time":40.24270833333309,"value":0.7322834645669292},{"number":64,"time":40.24374999999976,"value":0.7322834645669292},{"number":64,"time":40.251041666666424,"value":0.6535433070866141},{"number":64,"time":40.251041666666424,"value":0.6535433070866141},{"number":64,"time":40.25833333333309,"value":0.6141732283464567},{"number":64,"time":40.25937499999976,"value":0.6141732283464567},{"number":64,"time":40.266666666666424,"value":0.5826771653543307},{"number":64,"time":40.26770833333309,"value":0.5826771653543307},{"number":64,"time":40.27499999999976,"value":0.5511811023622047},{"number":64,"time":40.27499999999976,"value":0.5511811023622047},{"number":64,"time":40.282291666666424,"value":0.5196850393700787},{"number":64,"time":40.28333333333309,"value":0.5196850393700787},{"number":64,"time":40.29479166666642,"value":0.4881889763779528},{"number":64,"time":40.295833333333086,"value":0.4881889763779528},{"number":64,"time":40.338541666666416,"value":0.5196850393700787},{"number":64,"time":40.33958333333308,"value":0.5196850393700787},{"number":64,"time":40.354166666666416,"value":0.5590551181102362},{"number":64,"time":40.35520833333308,"value":0.5590551181102362},{"number":64,"time":40.37083333333308,"value":0.5905511811023622},{"number":64,"time":40.37187499999975,"value":0.5905511811023622},{"number":64,"time":40.38229166666642,"value":0.6220472440944882},{"number":64,"time":40.383333333333084,"value":0.6220472440944882},{"number":64,"time":40.39062499999975,"value":0.6535433070866141},{"number":64,"time":40.39166666666642,"value":0.6535433070866141},{"number":64,"time":40.40312499999975,"value":0.7559055118110236},{"number":64,"time":40.40416666666641,"value":0.7559055118110236},{"number":64,"time":40.426041666666414,"value":0.8503937007874016},{"number":64,"time":40.42708333333308,"value":0.8503937007874016},{"number":64,"time":40.59479166666642,"value":1},{"number":64,"time":40.59583333333308,"value":1},{"number":64,"time":40.70520833333308,"value":0.8661417322834646},{"number":64,"time":40.70624999999975,"value":0.8661417322834646},{"number":64,"time":40.724999999999746,"value":0.7559055118110236},{"number":64,"time":40.72604166666641,"value":0.7559055118110236},{"number":64,"time":40.734374999999744,"value":0.6614173228346457},{"number":64,"time":40.73541666666641,"value":0.6614173228346457},{"number":64,"time":40.74270833333308,"value":0.6299212598425197},{"number":64,"time":40.74374999999974,"value":0.6299212598425197},{"number":64,"time":40.749999999999744,"value":0.5984251968503937},{"number":64,"time":40.749999999999744,"value":0.5984251968503937},{"number":64,"time":40.761458333333074,"value":0.5669291338582677},{"number":64,"time":40.761458333333074,"value":0.5669291338582677},{"number":64,"time":40.77395833333308,"value":0.5354330708661418},{"number":64,"time":40.77499999999974,"value":0.5354330708661418},{"number":64,"time":40.81354166666641,"value":0.5669291338582677},{"number":64,"time":40.814583333333076,"value":0.5669291338582677},{"number":64,"time":40.82916666666641,"value":0.5984251968503937},{"number":64,"time":40.830208333333076,"value":0.5984251968503937},{"number":64,"time":40.841666666666406,"value":0.6299212598425197},{"number":64,"time":40.84270833333307,"value":0.6299212598425197},{"number":64,"time":40.85833333333307,"value":0.7559055118110236},{"number":64,"time":40.85937499999974,"value":0.7559055118110236},{"number":64,"time":40.87499999999974,"value":0.8503937007874016},{"number":64,"time":40.8760416666664,"value":0.8503937007874016},{"number":64,"time":41.0010416666664,"value":1},{"number":64,"time":41.003124999999734,"value":1},{"number":64,"time":41.130208333333066,"value":0.8661417322834646},{"number":64,"time":41.130208333333066,"value":0.8661417322834646},{"number":64,"time":41.15312499999973,"value":0.7559055118110236},{"number":64,"time":41.1541666666664,"value":0.7559055118110236},{"number":64,"time":41.161458333333066,"value":0.6614173228346457},{"number":64,"time":41.16249999999973,"value":0.6614173228346457},{"number":64,"time":41.17395833333306,"value":0.6220472440944882},{"number":64,"time":41.17499999999973,"value":0.6220472440944882},{"number":64,"time":41.18645833333306,"value":0.5905511811023622},{"number":64,"time":41.18645833333306,"value":0.5905511811023622},{"number":64,"time":41.26562499999972,"value":0.6220472440944882},{"number":64,"time":41.26666666666639,"value":0.6220472440944882},{"number":64,"time":41.29374999999972,"value":0.7559055118110236},{"number":64,"time":41.294791666666384,"value":0.7559055118110236},{"number":64,"time":41.32395833333305,"value":0.8503937007874016},{"number":64,"time":41.32395833333305,"value":0.8503937007874016},{"number":64,"time":41.42187499999972,"value":1},{"number":64,"time":41.42291666666639,"value":1},{"number":64,"time":41.54999999999972,"value":0.8661417322834646},{"number":64,"time":41.54999999999972,"value":0.8661417322834646},{"number":64,"time":41.57395833333305,"value":0.7322834645669292},{"number":64,"time":41.57499999999972,"value":0.7322834645669292},{"number":64,"time":41.58124999999972,"value":0.6535433070866141},{"number":64,"time":41.582291666666386,"value":0.6535433070866141},{"number":64,"time":41.58958333333305,"value":0.6220472440944882},{"number":64,"time":41.59062499999972,"value":0.6220472440944882},{"number":64,"time":41.597916666666386,"value":0.5905511811023622},{"number":64,"time":41.597916666666386,"value":0.5905511811023622},{"number":64,"time":41.613541666666386,"value":0.5590551181102362},{"number":64,"time":41.61458333333305,"value":0.5590551181102362},{"number":64,"time":41.669791666666384,"value":0.5905511811023622},{"number":64,"time":41.67083333333305,"value":0.5905511811023622},{"number":64,"time":41.681249999999714,"value":0.6220472440944882},{"number":64,"time":41.68229166666638,"value":0.6220472440944882},{"number":64,"time":41.68958333333305,"value":0.6535433070866141},{"number":64,"time":41.69062499999971,"value":0.6535433070866141},{"number":64,"time":41.70104166666638,"value":0.7795275590551181},{"number":64,"time":41.70208333333304,"value":0.7795275590551181},{"number":64,"time":41.733333333333036,"value":0.889763779527559},{"number":64,"time":41.733333333333036,"value":0.889763779527559},{"number":64,"time":41.84895833333304,"value":1},{"number":64,"time":41.8499999999997,"value":1},{"number":64,"time":41.99791666666637,"value":0.8661417322834646},{"number":64,"time":41.998958333333036,"value":0.8661417322834646},{"number":64,"time":42.01770833333303,"value":0.7559055118110236},{"number":64,"time":42.0187499999997,"value":0.7559055118110236},{"number":64,"time":42.0249999999997,"value":0.6614173228346457},{"number":64,"time":42.026041666666366,"value":0.6614173228346457},{"number":64,"time":42.0343749999997,"value":0.6299212598425197},{"number":64,"time":42.0343749999997,"value":0.6299212598425197},{"number":64,"time":42.041666666666366,"value":0.5984251968503937},{"number":64,"time":42.04270833333303,"value":0.5984251968503937},{"number":64,"time":42.053124999999696,"value":0.5669291338582677},{"number":64,"time":42.05416666666636,"value":0.5669291338582677},{"number":64,"time":42.06562499999969,"value":0.5354330708661418},{"number":64,"time":42.06666666666636,"value":0.5354330708661418},{"number":64,"time":42.12187499999969,"value":0.5669291338582677},{"number":64,"time":42.12187499999969,"value":0.5669291338582677},{"number":64,"time":42.13749999999969,"value":0.6062992125984252},{"number":64,"time":42.13749999999969,"value":0.6062992125984252},{"number":64,"time":42.14999999999969,"value":0.6456692913385826},{"number":64,"time":42.14999999999969,"value":0.6456692913385826},{"number":64,"time":42.16145833333302,"value":0.7559055118110236},{"number":64,"time":42.16145833333302,"value":0.7559055118110236},{"number":64,"time":42.18229166666636,"value":0.8503937007874016},{"number":64,"time":42.183333333333024,"value":0.8503937007874016},{"number":64,"time":42.3093749999997,"value":1},{"number":64,"time":42.31041666666636,"value":1},{"number":64,"time":42.457291666666364,"value":0.8661417322834646},{"number":64,"time":42.457291666666364,"value":0.8661417322834646},{"number":64,"time":42.4781249999997,"value":0.7559055118110236},{"number":64,"time":42.479166666666366,"value":0.7559055118110236},{"number":64,"time":42.48541666666637,"value":0.6614173228346457},{"number":64,"time":42.48645833333303,"value":0.6614173228346457},{"number":64,"time":42.49583333333303,"value":0.6299212598425197},{"number":64,"time":42.49583333333303,"value":0.6299212598425197},{"number":64,"time":42.50520833333303,"value":0.5905511811023622},{"number":64,"time":42.506249999999696,"value":0.5905511811023622},{"number":64,"time":42.521874999999696,"value":0.5590551181102362},{"number":64,"time":42.521874999999696,"value":0.5590551181102362},{"number":64,"time":42.57395833333303,"value":0.5984251968503937},{"number":64,"time":42.5749999999997,"value":0.5984251968503937},{"number":64,"time":42.58541666666636,"value":0.6299212598425197},{"number":64,"time":42.58541666666636,"value":0.6299212598425197},{"number":64,"time":42.597916666666364,"value":0.7322834645669292},{"number":64,"time":42.59895833333303,"value":0.7322834645669292},{"number":64,"time":42.613541666666364,"value":0.8503937007874016},{"number":64,"time":42.61458333333303,"value":0.8503937007874016},{"number":64,"time":42.70104166666636,"value":1},{"number":64,"time":42.70208333333303,"value":1},{"number":64,"time":42.86145833333303,"value":0.8661417322834646},{"number":64,"time":42.86145833333303,"value":0.8661417322834646},{"number":64,"time":42.88229166666637,"value":0.7322834645669292},{"number":64,"time":42.883333333333034,"value":0.7322834645669292},{"number":64,"time":42.889583333333036,"value":0.6535433070866141},{"number":64,"time":42.8906249999997,"value":0.6535433070866141},{"number":64,"time":42.89791666666637,"value":0.6141732283464567},{"number":64,"time":42.89791666666637,"value":0.6141732283464567},{"number":64,"time":42.9093749999997,"value":0.5748031496062992},{"number":64,"time":42.910416666666364,"value":0.5748031496062992},{"number":64,"time":42.9249999999997,"value":0.5354330708661418},{"number":64,"time":42.926041666666364,"value":0.5354330708661418},{"number":64,"time":42.96979166666636,"value":0.5669291338582677},{"number":64,"time":42.970833333333026,"value":0.5669291338582677},{"number":64,"time":42.98124999999969,"value":0.5984251968503937},{"number":64,"time":42.982291666666356,"value":0.5984251968503937},{"number":64,"time":42.993749999999686,"value":0.6377952755905512},{"number":64,"time":42.99479166666635,"value":0.6377952755905512},{"number":64,"time":43.005208333333016,"value":0.7322834645669292},{"number":64,"time":43.00624999999968,"value":0.7322834645669292},{"number":64,"time":43.01770833333301,"value":0.8267716535433071},{"number":64,"time":43.01874999999968,"value":0.8267716535433071},{"number":64,"time":43.313541666666346,"value":0.937007874015748},{"number":64,"time":43.31458333333301,"value":0.937007874015748},{"number":64,"time":43.785416666666336,"value":1},{"number":64,"time":43.786458333333,"value":1},{"number":64,"time":43.873958333333,"value":0.8661417322834646},{"number":64,"time":43.873958333333,"value":0.8661417322834646},{"number":64,"time":43.889583333333,"value":0.7559055118110236},{"number":64,"time":43.890624999999666,"value":0.7559055118110236},{"number":64,"time":43.895833333333,"value":0.6456692913385826},{"number":64,"time":43.89791666666633,"value":0.6456692913385826},{"number":64,"time":43.904166666666335,"value":0.6062992125984252},{"number":64,"time":43.905208333333,"value":0.6062992125984252},{"number":64,"time":43.91354166666633,"value":0.5669291338582677},{"number":64,"time":43.914583333333,"value":0.5669291338582677},{"number":64,"time":43.919791666666335,"value":0.5118110236220472},{"number":64,"time":43.920833333333,"value":0.5118110236220472},{"number":64,"time":43.933333333333,"value":0.4015748031496063},{"number":64,"time":43.93437499999967,"value":0.4015748031496063},{"number":64,"time":43.94479166666633,"value":0.2992125984251969},{"number":64,"time":43.945833333333,"value":0.2992125984251969},{"number":64,"time":44.008333333333,"value":0.4015748031496063},{"number":64,"time":44.009374999999665,"value":0.4015748031496063},{"number":64,"time":44.017708333333,"value":0.48031496062992124},{"number":64,"time":44.01874999999966,"value":0.48031496062992124},{"number":64,"time":44.023958333333,"value":0.5196850393700787},{"number":64,"time":44.024999999999665,"value":0.5196850393700787},{"number":64,"time":44.03229166666633,"value":0.5511811023622047},{"number":64,"time":44.033333333333,"value":0.5511811023622047},{"number":64,"time":44.045833333333,"value":0.5826771653543307},{"number":64,"time":44.045833333333,"value":0.5826771653543307},{"number":64,"time":44.056249999999665,"value":0.6299212598425197},{"number":64,"time":44.05729166666633,"value":0.6299212598425197},{"number":64,"time":44.073958333332996,"value":0.7559055118110236},{"number":64,"time":44.073958333332996,"value":0.7559055118110236},{"number":64,"time":44.09687499999966,"value":0.8503937007874016},{"number":64,"time":44.09791666666633,"value":0.8503937007874016},{"number":64,"time":44.38854166666633,"value":0.7322834645669292},{"number":64,"time":44.38958333333299,"value":0.7322834645669292},{"number":64,"time":44.39999999999966,"value":0.6456692913385826},{"number":64,"time":44.40104166666632,"value":0.6456692913385826},{"number":64,"time":44.40833333333299,"value":0.6141732283464567},{"number":64,"time":44.40833333333299,"value":0.6141732283464567},{"number":64,"time":44.424999999999656,"value":0.5826771653543307},{"number":64,"time":44.42604166666632,"value":0.5826771653543307},{"number":64,"time":44.47708333333299,"value":0.6220472440944882},{"number":64,"time":44.47812499999966,"value":0.6220472440944882},{"number":64,"time":44.48854166666632,"value":0.6535433070866141},{"number":64,"time":44.48958333333299,"value":0.6535433070866141},{"number":64,"time":44.49999999999965,"value":0.7559055118110236},{"number":64,"time":44.50104166666632,"value":0.7559055118110236},{"number":64,"time":44.51666666666632,"value":0.8503937007874016},{"number":64,"time":44.51770833333298,"value":0.8503937007874016},{"number":64,"time":44.68020833333298,"value":1},{"number":64,"time":44.68124999999964,"value":1},{"number":64,"time":44.776041666666316,"value":0.8661417322834646},{"number":64,"time":44.77708333333298,"value":0.8661417322834646},{"number":64,"time":44.80416666666632,"value":0.7559055118110236},{"number":64,"time":44.805208333332985,"value":0.7559055118110236},{"number":64,"time":44.820833333332985,"value":0.6535433070866141},{"number":64,"time":44.820833333332985,"value":0.6535433070866141},{"number":64,"time":44.840624999999655,"value":0.6220472440944882},{"number":64,"time":44.84166666666632,"value":0.6220472440944882},{"number":64,"time":44.87604166666632,"value":0.6535433070866141},{"number":64,"time":44.87708333333298,"value":0.6535433070866141},{"number":64,"time":44.89999999999965,"value":0.7559055118110236},{"number":64,"time":44.901041666666316,"value":0.7559055118110236},{"number":64,"time":44.936458333332986,"value":0.8503937007874016},{"number":64,"time":44.93749999999965,"value":0.8503937007874016},{"number":64,"time":45.07604166666632,"value":1},{"number":64,"time":45.077083333332986,"value":1},{"number":64,"time":45.22395833333299,"value":0.8661417322834646},{"number":64,"time":45.22499999999965,"value":0.8661417322834646},{"number":64,"time":45.246874999999655,"value":0.7322834645669292},{"number":64,"time":45.24791666666632,"value":0.7322834645669292},{"number":64,"time":45.25624999999965,"value":0.6456692913385826},{"number":64,"time":45.25729166666632,"value":0.6456692913385826},{"number":64,"time":45.26354166666632,"value":0.6062992125984252},{"number":64,"time":45.264583333332986,"value":0.6062992125984252},{"number":64,"time":45.27499999999965,"value":0.5669291338582677},{"number":64,"time":45.276041666666316,"value":0.5669291338582677},{"number":64,"time":45.287499999999646,"value":0.5354330708661418},{"number":64,"time":45.28854166666631,"value":0.5354330708661418},{"number":64,"time":45.298958333332976,"value":0.5039370078740157},{"number":64,"time":45.29999999999964,"value":0.5039370078740157},{"number":64,"time":45.32708333333297,"value":0.5354330708661418},{"number":64,"time":45.32812499999964,"value":0.5354330708661418},{"number":64,"time":45.34374999999964,"value":0.5669291338582677},{"number":64,"time":45.34374999999964,"value":0.5669291338582677},{"number":64,"time":45.35624999999964,"value":0.5984251968503937},{"number":64,"time":45.357291666666306,"value":0.5984251968503937},{"number":64,"time":45.36458333333297,"value":0.6299212598425197},{"number":64,"time":45.36562499999964,"value":0.6299212598425197},{"number":64,"time":45.38020833333297,"value":0.7559055118110236},{"number":64,"time":45.38124999999964,"value":0.7559055118110236},{"number":64,"time":45.3916666666663,"value":0.8503937007874016},{"number":64,"time":45.39270833333297,"value":0.8503937007874016},{"number":64,"time":45.623958333332965,"value":1},{"number":64,"time":45.62499999999963,"value":1},{"number":64,"time":45.74374999999963,"value":0.8661417322834646},{"number":64,"time":45.744791666666295,"value":0.8661417322834646},{"number":64,"time":45.76354166666629,"value":0.7559055118110236},{"number":64,"time":45.76458333333296,"value":0.7559055118110236},{"number":64,"time":45.771874999999625,"value":0.6614173228346457},{"number":64,"time":45.77291666666629,"value":0.6614173228346457},{"number":64,"time":45.78020833333296,"value":0.6299212598425197},{"number":64,"time":45.78020833333296,"value":0.6299212598425197},{"number":64,"time":45.787499999999625,"value":0.5984251968503937},{"number":64,"time":45.78854166666629,"value":0.5984251968503937},{"number":64,"time":45.803124999999625,"value":0.5669291338582677},{"number":64,"time":45.803124999999625,"value":0.5669291338582677},{"number":64,"time":45.85937499999963,"value":0.5984251968503937},{"number":64,"time":45.860416666666296,"value":0.5984251968503937},{"number":64,"time":45.87083333333296,"value":0.6299212598425197},{"number":64,"time":45.871874999999626,"value":0.6299212598425197},{"number":64,"time":45.887499999999626,"value":0.7322834645669292},{"number":64,"time":45.88854166666629,"value":0.7322834645669292},{"number":64,"time":45.903124999999626,"value":0.8267716535433071},{"number":64,"time":45.90416666666629,"value":0.8267716535433071},{"number":64,"time":46.045833333332965,"value":0.937007874015748},{"number":64,"time":46.04687499999963,"value":0.937007874015748},{"number":64,"time":46.0822916666663,"value":1},{"number":64,"time":46.0822916666663,"value":1},{"number":64,"time":46.1697916666663,"value":0.8661417322834646},{"number":64,"time":46.170833333332965,"value":0.8661417322834646},{"number":64,"time":46.1916666666663,"value":0.7559055118110236},{"number":64,"time":46.1916666666663,"value":0.7559055118110236},{"number":64,"time":46.1979166666663,"value":0.6614173228346457},{"number":64,"time":46.19895833333297,"value":0.6614173228346457},{"number":64,"time":46.2072916666663,"value":0.6299212598425197},{"number":64,"time":46.208333333332966,"value":0.6299212598425197},{"number":64,"time":46.21458333333297,"value":0.5984251968503937},{"number":64,"time":46.21562499999963,"value":0.5984251968503937},{"number":64,"time":46.23437499999963,"value":0.5669291338582677},{"number":64,"time":46.235416666666296,"value":0.5669291338582677},{"number":64,"time":46.27499999999963,"value":0.5984251968503937},{"number":64,"time":46.276041666666295,"value":0.5984251968503937},{"number":64,"time":46.28645833333296,"value":0.6299212598425197},{"number":64,"time":46.287499999999625,"value":0.6299212598425197},{"number":64,"time":46.30208333333296,"value":0.7559055118110236},{"number":64,"time":46.303124999999625,"value":0.7559055118110236},{"number":64,"time":46.316666666666286,"value":0.8503937007874016},{"number":64,"time":46.316666666666286,"value":0.8503937007874016},{"number":64,"time":46.74583333333295,"value":1},{"number":64,"time":46.74687499999962,"value":1},{"number":64,"time":46.86249999999962,"value":0.8661417322834646},{"number":64,"time":46.863541666666286,"value":0.8661417322834646},{"number":64,"time":46.88229166666628,"value":0.7086614173228346},{"number":64,"time":46.88333333333295,"value":0.7086614173228346},{"number":64,"time":46.89166666666628,"value":0.6377952755905512},{"number":64,"time":46.89166666666628,"value":0.6377952755905512},{"number":64,"time":46.89791666666628,"value":0.5984251968503937},{"number":64,"time":46.89895833333295,"value":0.5984251968503937},{"number":64,"time":46.906249999999616,"value":0.5669291338582677},{"number":64,"time":46.906249999999616,"value":0.5669291338582677},{"number":64,"time":46.91458333333295,"value":0.5275590551181102},{"number":64,"time":46.915624999999615,"value":0.5275590551181102},{"number":64,"time":46.921874999999616,"value":0.4881889763779528},{"number":64,"time":46.92291666666628,"value":0.4881889763779528},{"number":64,"time":46.97395833333295,"value":0.5196850393700787},{"number":64,"time":46.97499999999962,"value":0.5196850393700787},{"number":64,"time":46.98645833333295,"value":0.5590551181102362},{"number":64,"time":46.98749999999961,"value":0.5590551181102362},{"number":64,"time":47.00208333333295,"value":0.5984251968503937},{"number":64,"time":47.00312499999961,"value":0.5984251968503937},{"number":64,"time":47.01562499999961,"value":0.6299212598425197},{"number":64,"time":47.016666666666275,"value":0.6299212598425197},{"number":64,"time":47.03020833333294,"value":0.7559055118110236},{"number":64,"time":47.03020833333294,"value":0.7559055118110236},{"number":64,"time":47.090624999999605,"value":0.8503937007874016},{"number":64,"time":47.09166666666627,"value":0.8503937007874016},{"number":64,"time":47.434374999999605,"value":1},{"number":64,"time":47.434374999999605,"value":1},{"number":64,"time":47.526041666666266,"value":0.8661417322834646},{"number":64,"time":47.52708333333293,"value":0.8661417322834646},{"number":64,"time":47.54270833333293,"value":0.7322834645669292},{"number":64,"time":47.5437499999996,"value":0.7322834645669292},{"number":64,"time":47.5499999999996,"value":0.6456692913385826},{"number":64,"time":47.551041666666265,"value":0.6456692913385826},{"number":64,"time":47.55833333333293,"value":0.6062992125984252},{"number":64,"time":47.5593749999996,"value":0.6062992125984252},{"number":64,"time":47.566666666666265,"value":0.5669291338582677},{"number":64,"time":47.566666666666265,"value":0.5669291338582677},{"number":64,"time":47.57395833333293,"value":0.5354330708661418},{"number":64,"time":47.5749999999996,"value":0.5354330708661418},{"number":64,"time":47.582291666666265,"value":0.4881889763779528},{"number":64,"time":47.58333333333293,"value":0.4881889763779528},{"number":64,"time":47.63854166666626,"value":0.5275590551181102},{"number":64,"time":47.63958333333293,"value":0.5275590551181102},{"number":64,"time":47.649999999999594,"value":0.5590551181102362},{"number":64,"time":47.65104166666626,"value":0.5590551181102362},{"number":64,"time":47.66666666666626,"value":0.5984251968503937},{"number":64,"time":47.667708333332925,"value":0.5984251968503937},{"number":64,"time":47.67812499999959,"value":0.6377952755905512},{"number":64,"time":47.67812499999959,"value":0.6377952755905512},{"number":64,"time":47.69062499999959,"value":0.7322834645669292},{"number":64,"time":47.69062499999959,"value":0.7322834645669292},{"number":64,"time":47.70624999999959,"value":0.8267716535433071},{"number":64,"time":47.70624999999959,"value":0.8267716535433071},{"number":64,"time":47.85416666666626,"value":0.937007874015748},{"number":64,"time":47.85416666666626,"value":0.937007874015748},{"number":64,"time":47.89895833333293,"value":1},{"number":64,"time":47.899999999999594,"value":1},{"number":64,"time":48.01458333333293,"value":0.8661417322834646},{"number":64,"time":48.015624999999595,"value":0.8661417322834646},{"number":64,"time":48.03854166666626,"value":0.7559055118110236},{"number":64,"time":48.03958333333293,"value":0.7559055118110236},{"number":64,"time":48.04583333333293,"value":0.6614173228346457},{"number":64,"time":48.046874999999595,"value":0.6614173228346457},{"number":64,"time":48.05520833333293,"value":0.6220472440944882},{"number":64,"time":48.056249999999594,"value":0.6220472440944882},{"number":64,"time":48.06562499999959,"value":0.5826771653543307},{"number":64,"time":48.067708333332924,"value":0.5826771653543307},{"number":64,"time":48.07812499999959,"value":0.5511811023622047},{"number":64,"time":48.07812499999959,"value":0.5511811023622047},{"number":64,"time":48.138541666666256,"value":0.5826771653543307},{"number":64,"time":48.13958333333292,"value":0.5826771653543307},{"number":64,"time":48.14999999999959,"value":0.6141732283464567},{"number":64,"time":48.15104166666625,"value":0.6141732283464567},{"number":64,"time":48.15833333333292,"value":0.6456692913385826},{"number":64,"time":48.15833333333292,"value":0.6456692913385826},{"number":64,"time":48.174999999999585,"value":0.7559055118110236},{"number":64,"time":48.17604166666625,"value":0.7559055118110236},{"number":64,"time":48.19374999999959,"value":0.8503937007874016},{"number":64,"time":48.194791666666255,"value":0.8503937007874016},{"number":64,"time":48.32604166666625,"value":1},{"number":64,"time":48.32604166666625,"value":1},{"number":64,"time":48.414583333332914,"value":0.8661417322834646},{"number":64,"time":48.414583333332914,"value":0.8661417322834646},{"number":64,"time":48.657291666666254,"value":1},{"number":64,"time":48.65833333333292,"value":1},{"number":64,"time":48.768749999999585,"value":0.8661417322834646},{"number":64,"time":48.76979166666625,"value":0.8661417322834646},{"number":64,"time":48.793749999999584,"value":0.7559055118110236},{"number":64,"time":48.79479166666625,"value":0.7559055118110236},{"number":64,"time":48.80104166666625,"value":0.6614173228346457},{"number":64,"time":48.80208333333292,"value":0.6614173228346457},{"number":64,"time":48.81041666666625,"value":0.6299212598425197},{"number":64,"time":48.811458333332915,"value":0.6299212598425197},{"number":64,"time":48.82187499999958,"value":0.5905511811023622},{"number":64,"time":48.822916666666245,"value":0.5905511811023622},{"number":64,"time":48.88958333333291,"value":0.6220472440944882},{"number":64,"time":48.890624999999574,"value":0.6220472440944882},{"number":64,"time":48.910416666666244,"value":0.7559055118110236},{"number":64,"time":48.91145833333291,"value":0.7559055118110236},{"number":64,"time":48.92916666666624,"value":0.8503937007874016},{"number":64,"time":48.93020833333291,"value":0.8503937007874016},{"number":64,"time":49.037499999999575,"value":1},{"number":64,"time":49.03854166666624,"value":1},{"number":64,"time":49.21770833333291,"value":0.8661417322834646},{"number":64,"time":49.218749999999574,"value":0.8661417322834646},{"number":64,"time":49.24479166666624,"value":0.7322834645669292},{"number":64,"time":49.245833333332904,"value":0.7322834645669292},{"number":64,"time":49.257291666666234,"value":0.6456692913385826},{"number":64,"time":49.2583333333329,"value":0.6456692913385826},{"number":64,"time":49.26562499999957,"value":0.6141732283464567},{"number":64,"time":49.26562499999957,"value":0.6141732283464567},{"number":64,"time":49.28124999999957,"value":0.5826771653543307},{"number":64,"time":49.28229166666623,"value":0.5826771653543307},{"number":64,"time":49.32916666666623,"value":0.6141732283464567},{"number":64,"time":49.3302083333329,"value":0.6141732283464567},{"number":64,"time":49.34166666666623,"value":0.6456692913385826},{"number":64,"time":49.342708333332894,"value":0.6456692913385826},{"number":64,"time":49.35312499999956,"value":0.7559055118110236},{"number":64,"time":49.354166666666224,"value":0.7559055118110236},{"number":64,"time":49.36874999999956,"value":0.8503937007874016},{"number":64,"time":49.369791666666224,"value":0.8503937007874016},{"number":64,"time":49.45729166666622,"value":1},{"number":64,"time":49.45833333333289,"value":1},{"number":64,"time":49.70937499999955,"value":0.8661417322834646},{"number":64,"time":49.71041666666621,"value":0.8661417322834646},{"number":64,"time":49.73333333333288,"value":0.7322834645669292},{"number":64,"time":49.734374999999545,"value":0.7322834645669292},{"number":64,"time":49.74166666666621,"value":0.6535433070866141},{"number":64,"time":49.74270833333288,"value":0.6535433070866141},{"number":64,"time":49.75312499999954,"value":0.6220472440944882},{"number":64,"time":49.75416666666621,"value":0.6220472440944882},{"number":64,"time":49.76874999999954,"value":0.5905511811023622},{"number":64,"time":49.76979166666621,"value":0.5905511811023622},{"number":64,"time":49.81354166666621,"value":0.6220472440944882},{"number":64,"time":49.81354166666621,"value":0.6220472440944882},{"number":64,"time":49.837499999999544,"value":0.7322834645669292},{"number":64,"time":49.83854166666621,"value":0.7322834645669292},{"number":64,"time":49.85729166666621,"value":0.8503937007874016},{"number":64,"time":49.85833333333287,"value":0.8503937007874016},{"number":64,"time":49.93749999999954,"value":1},{"number":64,"time":49.93749999999954,"value":1},{"number":64,"time":50.22499999999954,"value":0.8661417322834646},{"number":64,"time":50.226041666666205,"value":0.8661417322834646},{"number":64,"time":50.241666666666205,"value":0.7559055118110236},{"number":64,"time":50.24270833333287,"value":0.7559055118110236},{"number":64,"time":50.248958333332865,"value":0.6535433070866141},{"number":64,"time":50.24999999999953,"value":0.6535433070866141},{"number":64,"time":50.2572916666662,"value":0.6062992125984252},{"number":64,"time":50.258333333332864,"value":0.6062992125984252},{"number":64,"time":50.264583333332865,"value":0.5748031496062992},{"number":64,"time":50.26562499999953,"value":0.5748031496062992},{"number":64,"time":50.27708333333286,"value":0.5275590551181102},{"number":64,"time":50.27812499999953,"value":0.5275590551181102},{"number":64,"time":50.3291666666662,"value":0.5590551181102362},{"number":64,"time":50.33020833333286,"value":0.5590551181102362},{"number":64,"time":50.3447916666662,"value":0.5984251968503937},{"number":64,"time":50.34583333333286,"value":0.5984251968503937},{"number":64,"time":50.35312499999953,"value":0.6299212598425197},{"number":64,"time":50.35312499999953,"value":0.6299212598425197},{"number":64,"time":50.36562499999953,"value":0.7322834645669292},{"number":64,"time":50.3666666666662,"value":0.7322834645669292},{"number":64,"time":50.37708333333286,"value":0.8267716535433071},{"number":64,"time":50.37812499999953,"value":0.8267716535433071},{"number":64,"time":50.457291666666194,"value":0.937007874015748},{"number":64,"time":50.45833333333286,"value":0.937007874015748},{"number":64,"time":50.5166666666662,"value":1},{"number":64,"time":50.51770833333286,"value":1},{"number":64,"time":50.713541666666195,"value":0.8661417322834646},{"number":64,"time":50.713541666666195,"value":0.8661417322834646},{"number":64,"time":50.744791666666195,"value":0.7322834645669292},{"number":64,"time":50.74583333333286,"value":0.7322834645669292},{"number":64,"time":50.76562499999953,"value":0.6535433070866141},{"number":64,"time":50.76562499999953,"value":0.6535433070866141},{"number":64,"time":50.805208333332864,"value":0.7559055118110236},{"number":64,"time":50.80624999999953,"value":0.7559055118110236},{"number":64,"time":50.82499999999953,"value":0.8503937007874016},{"number":64,"time":50.82499999999953,"value":0.8503937007874016},{"number":64,"time":51.06458333333287,"value":1},{"number":64,"time":51.065624999999535,"value":1},{"number":64,"time":51.440624999999535,"value":0.8661417322834646},{"number":64,"time":51.440624999999535,"value":0.8661417322834646},{"number":64,"time":51.4572916666662,"value":0.7322834645669292},{"number":64,"time":51.45833333333287,"value":0.7322834645669292},{"number":64,"time":51.46458333333287,"value":0.6299212598425197},{"number":64,"time":51.465624999999534,"value":0.6299212598425197},{"number":64,"time":51.4729166666662,"value":0.5826771653543307},{"number":64,"time":51.47395833333287,"value":0.5826771653543307},{"number":64,"time":51.48020833333287,"value":0.5275590551181102},{"number":64,"time":51.481249999999534,"value":0.5275590551181102},{"number":64,"time":51.48437499999953,"value":0.49606299212598426},{"number":64,"time":51.4854166666662,"value":0.49606299212598426},{"number":64,"time":51.492708333332864,"value":0.3779527559055118},{"number":64,"time":51.49374999999953,"value":0.3779527559055118},{"number":64,"time":51.49999999999953,"value":0.2755905511811024},{"number":64,"time":51.49999999999953,"value":0.2755905511811024},{"number":64,"time":51.58020833333286,"value":0.4015748031496063},{"number":64,"time":51.58124999999953,"value":0.4015748031496063},{"number":64,"time":51.588541666666195,"value":0.4881889763779528},{"number":64,"time":51.58958333333286,"value":0.4881889763779528},{"number":64,"time":51.597916666666194,"value":0.5275590551181102},{"number":64,"time":51.597916666666194,"value":0.5275590551181102},{"number":64,"time":51.60520833333286,"value":0.5590551181102362},{"number":64,"time":51.60624999999953,"value":0.5590551181102362},{"number":64,"time":51.615624999999525,"value":0.5905511811023622},{"number":64,"time":51.61666666666619,"value":0.5905511811023622},{"number":64,"time":51.62812499999952,"value":0.6220472440944882},{"number":64,"time":51.62916666666619,"value":0.6220472440944882},{"number":64,"time":51.636458333332854,"value":0.6535433070866141},{"number":64,"time":51.63749999999952,"value":0.6535433070866141},{"number":64,"time":51.652083333332854,"value":0.7559055118110236},{"number":64,"time":51.65312499999952,"value":0.7559055118110236},{"number":64,"time":51.72395833333285,"value":0.8503937007874016},{"number":64,"time":51.72395833333285,"value":0.8503937007874016},{"number":64,"time":52.03229166666618,"value":1},{"number":64,"time":52.03333333333285,"value":1},{"number":64,"time":52.143749999999514,"value":0.8661417322834646},{"number":64,"time":52.14479166666618,"value":0.8661417322834646},{"number":64,"time":52.16770833333285,"value":0.7322834645669292},{"number":64,"time":52.16874999999951,"value":0.7322834645669292},{"number":64,"time":52.17604166666618,"value":0.6535433070866141},{"number":64,"time":52.177083333332845,"value":0.6535433070866141},{"number":64,"time":52.18437499999951,"value":0.6220472440944882},{"number":64,"time":52.18541666666618,"value":0.6220472440944882},{"number":64,"time":52.19895833333284,"value":0.5905511811023622},{"number":64,"time":52.19895833333284,"value":0.5905511811023622},{"number":64,"time":52.256249999999504,"value":0.6220472440944882},{"number":64,"time":52.25729166666617,"value":0.6220472440944882},{"number":64,"time":52.27604166666617,"value":0.7559055118110236},{"number":64,"time":52.27604166666617,"value":0.7559055118110236},{"number":64,"time":52.29270833333283,"value":0.8503937007874016},{"number":64,"time":52.2937499999995,"value":0.8503937007874016},{"number":64,"time":52.508333333332835,"value":1},{"number":64,"time":52.5093749999995,"value":1},{"number":64,"time":52.6437499999995,"value":0.8661417322834646},{"number":64,"time":52.644791666666165,"value":0.8661417322834646},{"number":64,"time":52.667708333332826,"value":0.7559055118110236},{"number":64,"time":52.66874999999949,"value":0.7559055118110236},{"number":64,"time":52.68020833333282,"value":0.6535433070866141},{"number":64,"time":52.68124999999949,"value":0.6535433070866141},{"number":64,"time":52.69166666666615,"value":0.6220472440944882},{"number":64,"time":52.69270833333282,"value":0.6220472440944882},{"number":64,"time":52.76770833333282,"value":0.7322834645669292},{"number":64,"time":52.768749999999486,"value":0.7322834645669292},{"number":64,"time":52.784374999999486,"value":0.8267716535433071},{"number":64,"time":52.78541666666615,"value":0.8267716535433071},{"number":64,"time":52.89583333333281,"value":0.937007874015748},{"number":64,"time":52.896874999999476,"value":0.937007874015748},{"number":64,"time":53.019791666666144,"value":1},{"number":64,"time":53.02083333333281,"value":1},{"number":64,"time":53.136458333332804,"value":0.8661417322834646},{"number":64,"time":53.136458333332804,"value":0.8661417322834646},{"number":64,"time":53.16041666666614,"value":0.7322834645669292},{"number":64,"time":53.16041666666614,"value":0.7322834645669292},{"number":64,"time":53.167708333332804,"value":0.6456692913385826},{"number":64,"time":53.16874999999947,"value":0.6456692913385826},{"number":64,"time":53.17604166666614,"value":0.6141732283464567},{"number":64,"time":53.17604166666614,"value":0.6141732283464567},{"number":64,"time":53.18854166666614,"value":0.5748031496062992},{"number":64,"time":53.189583333332806,"value":0.5748031496062992},{"number":64,"time":53.20833333333281,"value":0.5433070866141733},{"number":64,"time":53.209374999999476,"value":0.5433070866141733},{"number":64,"time":53.24374999999947,"value":0.5748031496062992},{"number":64,"time":53.24479166666614,"value":0.5748031496062992},{"number":64,"time":53.26041666666614,"value":0.6062992125984252},{"number":64,"time":53.26041666666614,"value":0.6062992125984252},{"number":64,"time":53.267708333332806,"value":0.6456692913385826},{"number":64,"time":53.26874999999947,"value":0.6456692913385826},{"number":64,"time":53.2802083333328,"value":0.7559055118110236},{"number":64,"time":53.28124999999947,"value":0.7559055118110236},{"number":64,"time":53.2958333333328,"value":0.8661417322834646},{"number":64,"time":53.2958333333328,"value":0.8661417322834646},{"number":64,"time":53.439583333332806,"value":1},{"number":64,"time":53.44062499999947,"value":1},{"number":64,"time":53.63645833333281,"value":0.8661417322834646},{"number":64,"time":53.63645833333281,"value":0.8661417322834646},{"number":64,"time":53.660416666666144,"value":0.7322834645669292},{"number":64,"time":53.660416666666144,"value":0.7322834645669292},{"number":64,"time":53.66874999999948,"value":0.6535433070866141},{"number":64,"time":53.66979166666614,"value":0.6535433070866141},{"number":64,"time":53.68020833333281,"value":0.6141732283464567},{"number":64,"time":53.68124999999947,"value":0.6141732283464567},{"number":64,"time":53.69583333333281,"value":0.5826771653543307},{"number":64,"time":53.69583333333281,"value":0.5826771653543307},{"number":64,"time":53.7395833333328,"value":0.6141732283464567},{"number":64,"time":53.74062499999947,"value":0.6141732283464567},{"number":64,"time":53.7520833333328,"value":0.6535433070866141},{"number":64,"time":53.7520833333328,"value":0.6535433070866141},{"number":64,"time":53.76354166666613,"value":0.7559055118110236},{"number":64,"time":53.764583333332794,"value":0.7559055118110236},{"number":64,"time":53.776041666666124,"value":0.8503937007874016},{"number":64,"time":53.77708333333279,"value":0.8503937007874016},{"number":64,"time":53.87708333333279,"value":1},{"number":64,"time":53.87812499999946,"value":1},{"number":64,"time":54.0833333333328,"value":0.8661417322834646},{"number":64,"time":54.08437499999947,"value":0.8661417322834646},{"number":64,"time":54.103124999999466,"value":0.7322834645669292},{"number":64,"time":54.10416666666613,"value":0.7322834645669292},{"number":64,"time":54.1114583333328,"value":0.6456692913385826},{"number":64,"time":54.112499999999464,"value":0.6456692913385826},{"number":64,"time":54.118749999999466,"value":0.6141732283464567},{"number":64,"time":54.11979166666613,"value":0.6141732283464567},{"number":64,"time":54.13124999999946,"value":0.5748031496062992},{"number":64,"time":54.13229166666613,"value":0.5748031496062992},{"number":64,"time":54.159374999999464,"value":0.5433070866141733},{"number":64,"time":54.159374999999464,"value":0.5433070866141733},{"number":64,"time":54.179166666666134,"value":0.5748031496062992},{"number":64,"time":54.1802083333328,"value":0.5748031496062992},{"number":64,"time":54.194791666666134,"value":0.6141732283464567},{"number":64,"time":54.194791666666134,"value":0.6141732283464567},{"number":64,"time":54.20312499999947,"value":0.6456692913385826},{"number":64,"time":54.20416666666613,"value":0.6456692913385826},{"number":64,"time":54.2145833333328,"value":0.7795275590551181},{"number":64,"time":54.21562499999946,"value":0.7795275590551181},{"number":64,"time":54.23124999999946,"value":0.889763779527559},{"number":64,"time":54.23229166666613,"value":0.889763779527559},{"number":64,"time":54.319791666666134,"value":1},{"number":64,"time":54.319791666666134,"value":1},{"number":64,"time":54.522916666666134,"value":0.8661417322834646},{"number":64,"time":54.5239583333328,"value":0.8661417322834646},{"number":64,"time":54.54791666666613,"value":0.7559055118110236},{"number":64,"time":54.5489583333328,"value":0.7559055118110236},{"number":64,"time":54.55937499999946,"value":0.6535433070866141},{"number":64,"time":54.56041666666613,"value":0.6535433070866141},{"number":64,"time":54.57187499999946,"value":0.6220472440944882},{"number":64,"time":54.57187499999946,"value":0.6220472440944882},{"number":64,"time":54.631249999999454,"value":0.7559055118110236},{"number":64,"time":54.63229166666612,"value":0.7559055118110236},{"number":64,"time":54.646874999999454,"value":0.8661417322834646},{"number":64,"time":54.646874999999454,"value":0.8661417322834646},{"number":64,"time":54.70312499999945,"value":1},{"number":64,"time":54.70416666666612,"value":1},{"number":64,"time":55.035416666666116,"value":0.8661417322834646},{"number":64,"time":55.035416666666116,"value":0.8661417322834646},{"number":64,"time":55.046874999999446,"value":0.7559055118110236},{"number":64,"time":55.046874999999446,"value":0.7559055118110236},{"number":64,"time":55.05520833333278,"value":0.6456692913385826},{"number":64,"time":55.056249999999444,"value":0.6456692913385826},{"number":64,"time":55.062499999999446,"value":0.5984251968503937},{"number":64,"time":55.06354166666611,"value":0.5984251968503937},{"number":64,"time":55.07083333333278,"value":0.5511811023622047},{"number":64,"time":55.071874999999444,"value":0.5511811023622047},{"number":64,"time":55.07916666666611,"value":0.49606299212598426},{"number":64,"time":55.08020833333278,"value":0.49606299212598426},{"number":64,"time":55.08645833333278,"value":0.4015748031496063},{"number":64,"time":55.087499999999444,"value":0.4015748031496063},{"number":64,"time":55.098958333332774,"value":0.2992125984251969},{"number":64,"time":55.098958333332774,"value":0.2992125984251969},{"number":64,"time":55.13541666666611,"value":0.4015748031496063},{"number":64,"time":55.136458333332776,"value":0.4015748031496063},{"number":64,"time":55.14374999999944,"value":0.47244094488188976},{"number":64,"time":55.14479166666611,"value":0.47244094488188976},{"number":64,"time":55.15104166666611,"value":0.5039370078740157},{"number":64,"time":55.152083333332776,"value":0.5039370078740157},{"number":64,"time":55.15937499999944,"value":0.5433070866141733},{"number":64,"time":55.15937499999944,"value":0.5433070866141733},{"number":64,"time":55.16666666666611,"value":0.5748031496062992},{"number":64,"time":55.167708333332776,"value":0.5748031496062992},{"number":64,"time":55.179166666666106,"value":0.6141732283464567},{"number":64,"time":55.18020833333277,"value":0.6141732283464567},{"number":64,"time":55.190624999999436,"value":0.7322834645669292},{"number":64,"time":55.1916666666661,"value":0.7322834645669292},{"number":64,"time":55.19895833333277,"value":0.8267716535433071},{"number":64,"time":55.19895833333277,"value":0.8267716535433071},{"number":64,"time":55.215624999999434,"value":0.937007874015748},{"number":64,"time":55.2166666666661,"value":0.937007874015748},{"number":64,"time":55.29062499999944,"value":1},{"number":64,"time":55.2916666666661,"value":1},{"number":64,"time":55.494791666666096,"value":0.8661417322834646},{"number":64,"time":55.494791666666096,"value":0.8661417322834646},{"number":64,"time":55.519791666666094,"value":0.7322834645669292},{"number":64,"time":55.52083333333276,"value":0.7322834645669292},{"number":64,"time":55.52708333333276,"value":0.6535433070866141},{"number":64,"time":55.52812499999943,"value":0.6535433070866141},{"number":64,"time":55.53854166666609,"value":0.6141732283464567},{"number":64,"time":55.53958333333276,"value":0.6141732283464567},{"number":64,"time":55.59479166666609,"value":0.6456692913385826},{"number":64,"time":55.595833333332756,"value":0.6456692913385826},{"number":64,"time":55.61041666666609,"value":0.7559055118110236},{"number":64,"time":55.611458333332756,"value":0.7559055118110236},{"number":64,"time":55.622916666666086,"value":0.8503937007874016},{"number":64,"time":55.62395833333275,"value":0.8503937007874016},{"number":64,"time":55.71874999999941,"value":1},{"number":64,"time":55.719791666666076,"value":1},{"number":64,"time":55.89791666666608,"value":0.8661417322834646},{"number":64,"time":55.89895833333274,"value":0.8661417322834646},{"number":64,"time":55.922916666666076,"value":0.7322834645669292},{"number":64,"time":55.92395833333274,"value":0.7322834645669292},{"number":64,"time":55.93020833333274,"value":0.6535433070866141},{"number":64,"time":55.93124999999941,"value":0.6535433070866141},{"number":64,"time":55.94270833333274,"value":0.6141732283464567},{"number":64,"time":55.943749999999405,"value":0.6141732283464567},{"number":64,"time":55.961458333332736,"value":0.5748031496062992},{"number":64,"time":55.9624999999994,"value":0.5748031496062992},{"number":64,"time":55.99895833333274,"value":0.6062992125984252},{"number":64,"time":55.9999999999994,"value":0.6062992125984252},{"number":64,"time":56.01354166666607,"value":0.6377952755905512},{"number":64,"time":56.01458333333274,"value":0.6377952755905512},{"number":64,"time":56.03020833333274,"value":0.7559055118110236},{"number":64,"time":56.0312499999994,"value":0.7559055118110236},{"number":64,"time":56.04583333333274,"value":0.8503937007874016},{"number":64,"time":56.04583333333274,"value":0.8503937007874016},{"number":64,"time":56.142708333332735,"value":1},{"number":64,"time":56.1437499999994,"value":1},{"number":64,"time":56.31041666666607,"value":0.8661417322834646},{"number":64,"time":56.31145833333274,"value":0.8661417322834646},{"number":64,"time":56.33541666666607,"value":0.7322834645669292},{"number":64,"time":56.33541666666607,"value":0.7322834645669292},{"number":64,"time":56.34270833333274,"value":0.6535433070866141},{"number":64,"time":56.3437499999994,"value":0.6535433070866141},{"number":64,"time":56.35104166666607,"value":0.6141732283464567},{"number":64,"time":56.352083333332736,"value":0.6141732283464567},{"number":64,"time":56.36249999999941,"value":0.5826771653543307},{"number":64,"time":56.36249999999941,"value":0.5826771653543307},{"number":64,"time":56.37812499999941,"value":0.5511811023622047},{"number":64,"time":56.37916666666607,"value":0.5511811023622047},{"number":64,"time":56.42499999999941,"value":0.5826771653543307},{"number":64,"time":56.42604166666607,"value":0.5826771653543307},{"number":64,"time":56.438541666666076,"value":0.6141732283464567},{"number":64,"time":56.43958333333274,"value":0.6141732283464567},{"number":64,"time":56.44687499999941,"value":0.6535433070866141},{"number":64,"time":56.447916666666075,"value":0.6535433070866141},{"number":64,"time":56.45729166666607,"value":0.7795275590551181},{"number":64,"time":56.45833333333274,"value":0.7795275590551181},{"number":64,"time":56.483333333332745,"value":0.9133858267716536},{"number":64,"time":56.483333333332745,"value":0.9133858267716536},{"number":64,"time":56.57812499999941,"value":1},{"number":64,"time":56.579166666666076,"value":1},{"number":64,"time":56.73645833333274,"value":0.8661417322834646},{"number":64,"time":56.73749999999941,"value":0.8661417322834646},{"number":64,"time":56.76145833333275,"value":0.7322834645669292},{"number":64,"time":56.76145833333275,"value":0.7322834645669292},{"number":64,"time":56.768749999999415,"value":0.6535433070866141},{"number":64,"time":56.76979166666608,"value":0.6535433070866141},{"number":64,"time":56.78124999999941,"value":0.6220472440944882},{"number":64,"time":56.782291666666076,"value":0.6220472440944882},{"number":64,"time":56.797916666666076,"value":0.5905511811023622},{"number":64,"time":56.79895833333274,"value":0.5905511811023622},{"number":64,"time":56.83645833333274,"value":0.6220472440944882},{"number":64,"time":56.83749999999941,"value":0.6220472440944882},{"number":64,"time":56.84999999999941,"value":0.6535433070866141},{"number":64,"time":56.84999999999941,"value":0.6535433070866141},{"number":64,"time":56.862499999999415,"value":0.7559055118110236},{"number":64,"time":56.862499999999415,"value":0.7559055118110236},{"number":64,"time":56.87291666666608,"value":0.8503937007874016},{"number":64,"time":56.87291666666608,"value":0.8503937007874016},{"number":64,"time":56.969791666666076,"value":1},{"number":64,"time":56.97083333333274,"value":1},{"number":64,"time":57.18124999999941,"value":0.8661417322834646},{"number":64,"time":57.182291666666075,"value":0.8661417322834646},{"number":64,"time":57.20104166666607,"value":0.7322834645669292},{"number":64,"time":57.20208333333274,"value":0.7322834645669292},{"number":64,"time":57.21354166666607,"value":0.6377952755905512},{"number":64,"time":57.21458333333273,"value":0.6377952755905512},{"number":64,"time":57.224999999999405,"value":0.5984251968503937},{"number":64,"time":57.22604166666607,"value":0.5984251968503937},{"number":64,"time":57.24583333333274,"value":0.5669291338582677},{"number":64,"time":57.246874999999406,"value":0.5669291338582677},{"number":64,"time":57.28437499999941,"value":0.5984251968503937},{"number":64,"time":57.28541666666607,"value":0.5984251968503937},{"number":64,"time":57.2968749999994,"value":0.6299212598425197},{"number":64,"time":57.29791666666607,"value":0.6299212598425197},{"number":64,"time":57.3093749999994,"value":0.7322834645669292},{"number":64,"time":57.3093749999994,"value":0.7322834645669292},{"number":64,"time":57.32083333333273,"value":0.8503937007874016},{"number":64,"time":57.321874999999395,"value":0.8503937007874016},{"number":64,"time":57.43229166666607,"value":1},{"number":64,"time":57.4343749999994,"value":1},{"number":64,"time":57.660416666666066,"value":0.8661417322834646},{"number":64,"time":57.66145833333273,"value":0.8661417322834646},{"number":64,"time":57.6812499999994,"value":0.7322834645669292},{"number":64,"time":57.6812499999994,"value":0.7322834645669292},{"number":64,"time":57.693749999999405,"value":0.6377952755905512},{"number":64,"time":57.69479166666607,"value":0.6377952755905512},{"number":64,"time":57.7031249999994,"value":0.6062992125984252},{"number":64,"time":57.70416666666607,"value":0.6062992125984252},{"number":64,"time":57.7124999999994,"value":0.5748031496062992},{"number":64,"time":57.71354166666607,"value":0.5748031496062992},{"number":64,"time":57.73333333333274,"value":0.5354330708661418},{"number":64,"time":57.73333333333274,"value":0.5354330708661418},{"number":64,"time":57.76458333333274,"value":0.5669291338582677},{"number":64,"time":57.7656249999994,"value":0.5669291338582677},{"number":64,"time":57.7812499999994,"value":0.5984251968503937},{"number":64,"time":57.7812499999994,"value":0.5984251968503937},{"number":64,"time":57.79270833333273,"value":0.6299212598425197},{"number":64,"time":57.79270833333273,"value":0.6299212598425197},{"number":64,"time":57.805208333332736,"value":0.7322834645669292},{"number":64,"time":57.8062499999994,"value":0.7322834645669292},{"number":64,"time":57.816666666666066,"value":0.8267716535433071},{"number":64,"time":57.816666666666066,"value":0.8267716535433071},{"number":64,"time":57.857291666666065,"value":0.937007874015748},{"number":64,"time":57.857291666666065,"value":0.937007874015748},{"number":64,"time":57.90520833333273,"value":1},{"number":64,"time":57.906249999999396,"value":1},{"number":64,"time":58.08437499999939,"value":0.8661417322834646},{"number":64,"time":58.085416666666056,"value":0.8661417322834646},{"number":64,"time":58.10833333333272,"value":0.7322834645669292},{"number":64,"time":58.10937499999939,"value":0.7322834645669292},{"number":64,"time":58.12083333333272,"value":0.6456692913385826},{"number":64,"time":58.121874999999385,"value":0.6456692913385826},{"number":64,"time":58.12916666666605,"value":0.6141732283464567},{"number":64,"time":58.13020833333272,"value":0.6141732283464567},{"number":64,"time":58.148958333332715,"value":0.5826771653543307},{"number":64,"time":58.14999999999938,"value":0.5826771653543307},{"number":64,"time":58.17291666666605,"value":0.6141732283464567},{"number":64,"time":58.17395833333271,"value":0.6141732283464567},{"number":64,"time":58.18437499999938,"value":0.6535433070866141},{"number":64,"time":58.18541666666604,"value":0.6535433070866141},{"number":64,"time":58.19687499999937,"value":0.7795275590551181},{"number":64,"time":58.19791666666604,"value":0.7795275590551181},{"number":64,"time":58.21249999999937,"value":0.889763779527559},{"number":64,"time":58.21354166666604,"value":0.889763779527559},{"number":64,"time":58.22499999999937,"value":1},{"number":64,"time":58.226041666666035,"value":1},{"number":64,"time":58.62499999999936,"value":0.8661417322834646},{"number":64,"time":58.626041666666026,"value":0.8661417322834646},{"number":64,"time":58.63645833333269,"value":0.7559055118110236},{"number":64,"time":58.637499999999356,"value":0.7559055118110236},{"number":64,"time":58.64062499999935,"value":0.6614173228346457},{"number":64,"time":58.64166666666602,"value":0.6614173228346457},{"number":64,"time":58.64583333333269,"value":0.6299212598425197},{"number":64,"time":58.646874999999355,"value":0.6299212598425197},{"number":64,"time":58.653124999999356,"value":0.5748031496062992},{"number":64,"time":58.65416666666602,"value":0.5748031496062992},{"number":64,"time":58.66041666666602,"value":0.5196850393700787},{"number":64,"time":58.66145833333269,"value":0.5196850393700787},{"number":64,"time":58.664583333332686,"value":0.48031496062992124},{"number":64,"time":58.66562499999935,"value":0.48031496062992124},{"number":64,"time":58.67291666666602,"value":0.33070866141732286},{"number":64,"time":58.673958333332685,"value":0.33070866141732286},{"number":64,"time":58.68124999999935,"value":0.18110236220472442},{"number":64,"time":58.68124999999935,"value":0.18110236220472442},{"number":64,"time":58.69270833333268,"value":0.05511811023622047},{"number":64,"time":58.69374999999935,"value":0.05511811023622047},{"number":64,"time":58.70520833333268,"value":0},{"number":64,"time":58.70624999999934,"value":0},{"number":64,"time":58.75624999999934,"value":0.12598425196850394},{"number":64,"time":58.757291666666006,"value":0.12598425196850394},{"number":64,"time":58.76458333333267,"value":0.25196850393700787},{"number":64,"time":58.76562499999934,"value":0.25196850393700787},{"number":64,"time":58.772916666666006,"value":0.4015748031496063},{"number":64,"time":58.77395833333267,"value":0.4015748031496063},{"number":64,"time":58.778124999999335,"value":0.48031496062992124},{"number":64,"time":58.779166666666,"value":0.48031496062992124},{"number":64,"time":58.780208333332666,"value":0.5118110236220472},{"number":64,"time":58.78124999999933,"value":0.5118110236220472},{"number":64,"time":58.78437499999933,"value":0.5433070866141733},{"number":64,"time":58.785416666665995,"value":0.5433070866141733},{"number":64,"time":58.79270833333266,"value":0.5748031496062992},{"number":64,"time":58.79270833333266,"value":0.5748031496062992},{"number":64,"time":58.805208333332665,"value":0.6062992125984252},{"number":64,"time":58.80624999999933,"value":0.6062992125984252},{"number":64,"time":58.81249999999933,"value":0.6377952755905512},{"number":64,"time":58.813541666666,"value":0.6377952755905512},{"number":64,"time":58.829166666666,"value":0.7559055118110236},{"number":64,"time":58.83020833333266,"value":0.7559055118110236},{"number":64,"time":58.868749999999324,"value":0.8503937007874016},{"number":64,"time":58.868749999999324,"value":0.8503937007874016},{"number":64,"time":59.05312499999932,"value":1},{"number":64,"time":59.05312499999932,"value":1},{"number":64,"time":59.43958333333265,"value":0.8661417322834646},{"number":64,"time":59.440624999999315,"value":0.8661417322834646},{"number":64,"time":59.476041666665985,"value":0.7322834645669292},{"number":64,"time":59.47708333333265,"value":0.7322834645669292},{"number":64,"time":59.48854166666598,"value":0.6535433070866141},{"number":64,"time":59.48958333333265,"value":0.6535433070866141},{"number":64,"time":59.50520833333265,"value":0.6220472440944882},{"number":64,"time":59.50624999999931,"value":0.6220472440944882},{"number":64,"time":59.54479166666598,"value":0.6535433070866141},{"number":64,"time":59.545833333332645,"value":0.6535433070866141},{"number":64,"time":59.56770833333265,"value":0.7559055118110236},{"number":64,"time":59.56770833333265,"value":0.7559055118110236},{"number":64,"time":59.58854166666598,"value":0.8503937007874016},{"number":64,"time":59.58958333333265,"value":0.8503937007874016},{"number":64,"time":59.72812499999932,"value":1},{"number":64,"time":59.72916666666598,"value":1},{"number":64,"time":59.92395833333264,"value":0.8661417322834646},{"number":64,"time":59.92499999999931,"value":0.8661417322834646},{"number":64,"time":59.947916666665975,"value":0.7559055118110236},{"number":64,"time":59.94895833333264,"value":0.7559055118110236},{"number":64,"time":59.96458333333264,"value":0.6535433070866141},{"number":64,"time":59.96458333333264,"value":0.6535433070866141},{"number":64,"time":59.988541666665974,"value":0.6220472440944882},{"number":64,"time":59.98958333333264,"value":0.6220472440944882},{"number":64,"time":60.01666666666597,"value":0.6535433070866141},{"number":64,"time":60.01666666666597,"value":0.6535433070866141},{"number":64,"time":60.035416666665974,"value":0.7559055118110236},{"number":64,"time":60.03645833333264,"value":0.7559055118110236},{"number":64,"time":60.05624999999931,"value":0.8503937007874016},{"number":64,"time":60.05624999999931,"value":0.8503937007874016},{"number":64,"time":60.25208333333264,"value":1},{"number":64,"time":60.25208333333264,"value":1},{"number":64,"time":60.40729166666597,"value":0.8661417322834646},{"number":64,"time":60.408333333332635,"value":0.8661417322834646},{"number":64,"time":60.4312499999993,"value":0.7559055118110236},{"number":64,"time":60.43229166666597,"value":0.7559055118110236},{"number":64,"time":60.4437499999993,"value":0.6535433070866141},{"number":64,"time":60.4437499999993,"value":0.6535433070866141},{"number":64,"time":60.4562499999993,"value":0.6220472440944882},{"number":64,"time":60.45729166666597,"value":0.6220472440944882},{"number":64,"time":60.53541666666597,"value":0.7559055118110236},{"number":64,"time":60.53645833333263,"value":0.7559055118110236},{"number":64,"time":60.55520833333263,"value":0.8503937007874016},{"number":64,"time":60.556249999999295,"value":0.8503937007874016},{"number":64,"time":60.71979166666596,"value":1},{"number":64,"time":60.72083333333263,"value":1},{"number":64,"time":60.87916666666596,"value":0.8661417322834646},{"number":64,"time":60.880208333332625,"value":0.8661417322834646},{"number":64,"time":60.899999999999295,"value":0.7559055118110236},{"number":64,"time":60.899999999999295,"value":0.7559055118110236},{"number":64,"time":60.911458333332625,"value":0.6535433070866141},{"number":64,"time":60.91249999999929,"value":0.6535433070866141},{"number":64,"time":60.92395833333262,"value":0.6141732283464567},{"number":64,"time":60.92499999999929,"value":0.6141732283464567},{"number":64,"time":60.98749999999929,"value":0.6456692913385826},{"number":64,"time":60.98854166666595,"value":0.6456692913385826},{"number":64,"time":61.00416666666595,"value":0.7559055118110236},{"number":64,"time":61.00520833333262,"value":0.7559055118110236},{"number":64,"time":61.01562499999928,"value":0.8503937007874016},{"number":64,"time":61.01666666666595,"value":0.8503937007874016},{"number":64,"time":61.107291666665944,"value":1},{"number":64,"time":61.10833333333261,"value":1},{"number":64,"time":61.32395833333261,"value":0.8661417322834646},{"number":64,"time":61.32499999999928,"value":0.8661417322834646},{"number":64,"time":61.343749999999275,"value":0.7322834645669292},{"number":64,"time":61.34479166666594,"value":0.7322834645669292},{"number":64,"time":61.35208333333261,"value":0.6456692913385826},{"number":64,"time":61.35208333333261,"value":0.6456692913385826},{"number":64,"time":61.359374999999275,"value":0.6141732283464567},{"number":64,"time":61.36041666666594,"value":0.6141732283464567},{"number":64,"time":61.37187499999927,"value":0.5826771653543307},{"number":64,"time":61.37291666666594,"value":0.5826771653543307},{"number":64,"time":61.38749999999927,"value":0.5511811023622047},{"number":64,"time":61.38749999999927,"value":0.5511811023622047},{"number":64,"time":61.41979166666594,"value":0.5826771653543307},{"number":64,"time":61.4208333333326,"value":0.5826771653543307},{"number":64,"time":61.43541666666594,"value":0.6220472440944882},{"number":64,"time":61.4364583333326,"value":0.6220472440944882},{"number":64,"time":61.4520833333326,"value":0.7322834645669292},{"number":64,"time":61.4520833333326,"value":0.7322834645669292},{"number":64,"time":61.46354166666593,"value":0.8267716535433071},{"number":64,"time":61.46354166666593,"value":0.8267716535433071},{"number":64,"time":61.51979166666594,"value":0.937007874015748},{"number":64,"time":61.520833333332604,"value":0.937007874015748},{"number":64,"time":61.60729166666594,"value":1},{"number":64,"time":61.6083333333326,"value":1},{"number":64,"time":62.2364583333326,"value":0.8661417322834646},{"number":64,"time":62.237499999999265,"value":0.8661417322834646},{"number":64,"time":62.25416666666593,"value":0.7086614173228346},{"number":64,"time":62.2552083333326,"value":0.7086614173228346},{"number":64,"time":62.258333333332594,"value":0.6535433070866141},{"number":64,"time":62.25937499999926,"value":0.6535433070866141},{"number":64,"time":62.26666666666593,"value":0.6062992125984252},{"number":64,"time":62.26770833333259,"value":0.6062992125984252},{"number":64,"time":62.27499999999926,"value":0.5748031496062992},{"number":64,"time":62.276041666665925,"value":0.5748031496062992},{"number":64,"time":62.28333333333259,"value":0.5354330708661418},{"number":64,"time":62.28333333333259,"value":0.5354330708661418},{"number":64,"time":62.29062499999926,"value":0.4881889763779528},{"number":64,"time":62.291666666665925,"value":0.4881889763779528},{"number":64,"time":62.30624999999926,"value":0.4015748031496063},{"number":64,"time":62.307291666665925,"value":0.4015748031496063},{"number":64,"time":62.342708333332595,"value":0.47244094488188976},{"number":64,"time":62.34374999999926,"value":0.47244094488188976},{"number":64,"time":62.354166666665925,"value":0.5118110236220472},{"number":64,"time":62.35520833333259,"value":0.5118110236220472},{"number":64,"time":62.36666666666592,"value":0.5511811023622047},{"number":64,"time":62.36770833333259,"value":0.5511811023622047},{"number":64,"time":62.38229166666592,"value":0.5905511811023622},{"number":64,"time":62.38333333333259,"value":0.5905511811023622},{"number":64,"time":62.39583333333259,"value":0.6299212598425197},{"number":64,"time":62.396874999999255,"value":0.6299212598425197},{"number":64,"time":62.410416666665924,"value":0.7559055118110236},{"number":64,"time":62.41145833333259,"value":0.7559055118110236},{"number":64,"time":62.426041666665924,"value":0.8503937007874016},{"number":64,"time":62.42708333333259,"value":0.8503937007874016},{"number":64,"time":62.53854166666593,"value":1},{"number":64,"time":62.539583333332594,"value":1},{"number":64,"time":62.62083333333259,"value":0.8661417322834646},{"number":64,"time":62.62187499999926,"value":0.8661417322834646},{"number":64,"time":62.646874999999255,"value":0.7322834645669292},{"number":64,"time":62.64791666666592,"value":0.7322834645669292},{"number":64,"time":62.65416666666592,"value":0.6535433070866141},{"number":64,"time":62.65520833333259,"value":0.6535433070866141},{"number":64,"time":62.66666666666592,"value":0.6141732283464567},{"number":64,"time":62.667708333332584,"value":0.6141732283464567},{"number":64,"time":62.694791666665914,"value":0.5826771653543307},{"number":64,"time":62.69583333333258,"value":0.5826771653543307},{"number":64,"time":62.71874999999925,"value":0.6141732283464567},{"number":64,"time":62.71979166666591,"value":0.6141732283464567},{"number":64,"time":62.73020833333258,"value":0.6456692913385826},{"number":64,"time":62.73124999999924,"value":0.6456692913385826},{"number":64,"time":62.74687499999924,"value":0.7559055118110236},{"number":64,"time":62.74791666666591,"value":0.7559055118110236},{"number":64,"time":62.76249999999924,"value":0.8503937007874016},{"number":64,"time":62.76354166666591,"value":0.8503937007874016},{"number":64,"time":62.91458333333257,"value":1},{"number":64,"time":62.91458333333257,"value":1},{"number":64,"time":63.098958333332575,"value":0.8661417322834646},{"number":64,"time":63.098958333332575,"value":0.8661417322834646},{"number":64,"time":63.12083333333258,"value":0.7086614173228346},{"number":64,"time":63.12187499999924,"value":0.7086614173228346},{"number":64,"time":63.12708333333258,"value":0.6299212598425197},{"number":64,"time":63.128124999999244,"value":0.6299212598425197},{"number":64,"time":63.134374999999245,"value":0.5984251968503937},{"number":64,"time":63.13541666666591,"value":0.5984251968503937},{"number":64,"time":63.14270833333258,"value":0.5669291338582677},{"number":64,"time":63.14270833333258,"value":0.5669291338582677},{"number":64,"time":63.15104166666591,"value":0.5275590551181102},{"number":64,"time":63.15104166666591,"value":0.5275590551181102},{"number":64,"time":63.15833333333258,"value":0.49606299212598426},{"number":64,"time":63.159374999999244,"value":0.49606299212598426},{"number":64,"time":63.194791666665914,"value":0.5275590551181102},{"number":64,"time":63.19583333333258,"value":0.5275590551181102},{"number":64,"time":63.206249999999244,"value":0.5669291338582677},{"number":64,"time":63.20729166666591,"value":0.5669291338582677},{"number":64,"time":63.21874999999924,"value":0.6062992125984252},{"number":64,"time":63.219791666665905,"value":0.6062992125984252},{"number":64,"time":63.22708333333257,"value":0.6377952755905512},{"number":64,"time":63.22708333333257,"value":0.6377952755905512},{"number":64,"time":63.23437499999924,"value":0.7322834645669292},{"number":64,"time":63.235416666665905,"value":0.7322834645669292},{"number":64,"time":63.24270833333257,"value":0.8267716535433071},{"number":64,"time":63.24374999999924,"value":0.8267716535433071},{"number":64,"time":63.25416666666591,"value":0.937007874015748},{"number":64,"time":63.255208333332575,"value":0.937007874015748},{"number":64,"time":63.32291666666591,"value":1},{"number":64,"time":63.32291666666591,"value":1},{"number":64,"time":63.55416666666591,"value":0.8661417322834646},{"number":64,"time":63.55520833333257,"value":0.8661417322834646},{"number":64,"time":63.57083333333257,"value":0.7559055118110236},{"number":64,"time":63.57187499999924,"value":0.7559055118110236},{"number":64,"time":63.57812499999924,"value":0.6614173228346457},{"number":64,"time":63.579166666665905,"value":0.6614173228346457},{"number":64,"time":63.58645833333257,"value":0.6141732283464567},{"number":64,"time":63.58645833333257,"value":0.6141732283464567},{"number":64,"time":63.594791666665905,"value":0.5826771653543307},{"number":64,"time":63.59583333333257,"value":0.5826771653543307},{"number":64,"time":63.606249999999235,"value":0.5511811023622047},{"number":64,"time":63.6072916666659,"value":0.5511811023622047},{"number":64,"time":63.6229166666659,"value":0.5196850393700787},{"number":64,"time":63.6229166666659,"value":0.5196850393700787},{"number":64,"time":63.651041666665904,"value":0.5511811023622047},{"number":64,"time":63.651041666665904,"value":0.5511811023622047},{"number":64,"time":63.662499999999234,"value":0.5826771653543307},{"number":64,"time":63.662499999999234,"value":0.5826771653543307},{"number":64,"time":63.67499999999924,"value":0.6220472440944882},{"number":64,"time":63.6760416666659,"value":0.6220472440944882},{"number":64,"time":63.68645833333257,"value":0.7322834645669292},{"number":64,"time":63.68645833333257,"value":0.7322834645669292},{"number":64,"time":63.6947916666659,"value":0.8267716535433071},{"number":64,"time":63.695833333332565,"value":0.8267716535433071},{"number":64,"time":63.7104166666659,"value":0.937007874015748},{"number":64,"time":63.711458333332565,"value":0.937007874015748},{"number":64,"time":63.79062499999923,"value":1},{"number":64,"time":63.7916666666659,"value":1},{"number":64,"time":64.01874999999923,"value":0.8661417322834646},{"number":64,"time":64.0197916666659,"value":0.8661417322834646},{"number":64,"time":64.03854166666589,"value":0.7322834645669292},{"number":64,"time":64.03854166666589,"value":0.7322834645669292},{"number":64,"time":64.04687499999923,"value":0.6456692913385826},{"number":64,"time":64.0479166666659,"value":0.6456692913385826},{"number":64,"time":64.05416666666589,"value":0.6062992125984252},{"number":64,"time":64.05520833333256,"value":0.6062992125984252},{"number":64,"time":64.0666666666659,"value":0.5669291338582677},{"number":64,"time":64.06770833333256,"value":0.5669291338582677},{"number":64,"time":64.07812499999923,"value":0.5354330708661418},{"number":64,"time":64.0791666666659,"value":0.5354330708661418},{"number":64,"time":64.13020833333256,"value":0.5669291338582677},{"number":64,"time":64.13124999999923,"value":0.5669291338582677},{"number":64,"time":64.14270833333256,"value":0.5984251968503937},{"number":64,"time":64.14374999999923,"value":0.5984251968503937},{"number":64,"time":64.1541666666659,"value":0.6377952755905512},{"number":64,"time":64.15520833333257,"value":0.6377952755905512},{"number":64,"time":64.1666666666659,"value":0.7322834645669292},{"number":64,"time":64.16770833333257,"value":0.7322834645669292},{"number":64,"time":64.17812499999924,"value":0.8267716535433071},{"number":64,"time":64.1791666666659,"value":0.8267716535433071},{"number":64,"time":64.25104166666591,"value":0.937007874015748},{"number":64,"time":64.25104166666591,"value":0.937007874015748},{"number":64,"time":64.31874999999924,"value":1},{"number":64,"time":64.3197916666659,"value":1},{"number":64,"time":64.47395833333258,"value":0.8661417322834646},{"number":64,"time":64.47499999999924,"value":0.8661417322834646},{"number":64,"time":64.49374999999924,"value":0.7322834645669292},{"number":64,"time":64.4947916666659,"value":0.7322834645669292},{"number":64,"time":64.5010416666659,"value":0.6456692913385826},{"number":64,"time":64.50208333333256,"value":0.6456692913385826},{"number":64,"time":64.50937499999922,"value":0.6062992125984252},{"number":64,"time":64.51041666666589,"value":0.6062992125984252},{"number":64,"time":64.52187499999923,"value":0.5669291338582677},{"number":64,"time":64.52291666666589,"value":0.5669291338582677},{"number":64,"time":64.53333333333256,"value":0.5354330708661418},{"number":64,"time":64.53333333333256,"value":0.5354330708661418},{"number":64,"time":64.57812499999923,"value":0.5669291338582677},{"number":64,"time":64.5791666666659,"value":0.5669291338582677},{"number":64,"time":64.58958333333256,"value":0.5984251968503937},{"number":64,"time":64.59062499999922,"value":0.5984251968503937},{"number":64,"time":64.59895833333255,"value":0.6299212598425197},{"number":64,"time":64.59999999999921,"value":0.6299212598425197},{"number":64,"time":64.61041666666588,"value":0.7559055118110236},{"number":64,"time":64.61041666666588,"value":0.7559055118110236},{"number":64,"time":64.62187499999922,"value":0.8503937007874016},{"number":64,"time":64.62291666666589,"value":0.8503937007874016},{"number":64,"time":64.74166666666589,"value":1},{"number":64,"time":64.74270833333256,"value":1},{"number":64,"time":64.90624999999923,"value":0.8661417322834646},{"number":64,"time":64.90624999999923,"value":0.8661417322834646},{"number":64,"time":64.92499999999923,"value":0.7086614173228346},{"number":64,"time":64.9260416666659,"value":0.7086614173228346},{"number":64,"time":64.93437499999924,"value":0.6377952755905512},{"number":64,"time":64.9354166666659,"value":0.6377952755905512},{"number":64,"time":64.9416666666659,"value":0.6062992125984252},{"number":64,"time":64.94270833333256,"value":0.6062992125984252},{"number":64,"time":64.94895833333256,"value":0.5748031496062992},{"number":64,"time":64.94999999999922,"value":0.5748031496062992},{"number":64,"time":64.96249999999922,"value":0.5433070866141733},{"number":64,"time":64.96354166666589,"value":0.5433070866141733},{"number":64,"time":65.00624999999923,"value":0.5748031496062992},{"number":64,"time":65.00729166666589,"value":0.5748031496062992},{"number":64,"time":65.01770833333256,"value":0.6062992125984252},{"number":64,"time":65.01874999999923,"value":0.6062992125984252},{"number":64,"time":65.02499999999922,"value":0.6456692913385826},{"number":64,"time":65.02604166666589,"value":0.6456692913385826},{"number":64,"time":65.03749999999923,"value":0.7795275590551181},{"number":64,"time":65.03854166666589,"value":0.7795275590551181},{"number":64,"time":65.05416666666589,"value":0.889763779527559},{"number":64,"time":65.05520833333256,"value":0.889763779527559},{"number":64,"time":65.07395833333256,"value":1},{"number":64,"time":65.07499999999922,"value":1},{"number":64,"time":65.29583333333257,"value":0.8661417322834646},{"number":64,"time":65.29687499999923,"value":0.8661417322834646},{"number":64,"time":65.31770833333256,"value":0.7322834645669292},{"number":64,"time":65.31874999999923,"value":0.7322834645669292},{"number":64,"time":65.3291666666659,"value":0.6456692913385826},{"number":64,"time":65.33020833333256,"value":0.6456692913385826},{"number":64,"time":65.33749999999922,"value":0.6141732283464567},{"number":64,"time":65.33854166666589,"value":0.6141732283464567},{"number":64,"time":65.35729166666589,"value":0.5748031496062992},{"number":64,"time":65.35729166666589,"value":0.5748031496062992},{"number":64,"time":65.38958333333255,"value":0.6062992125984252},{"number":64,"time":65.39062499999922,"value":0.6062992125984252},{"number":64,"time":65.40520833333255,"value":0.6456692913385826},{"number":64,"time":65.40624999999922,"value":0.6456692913385826},{"number":64,"time":65.41770833333256,"value":0.7559055118110236},{"number":64,"time":65.41874999999922,"value":0.7559055118110236},{"number":64,"time":65.43020833333256,"value":0.8503937007874016},{"number":64,"time":65.43020833333256,"value":0.8503937007874016},{"number":64,"time":65.61145833333255,"value":1},{"number":64,"time":65.61145833333255,"value":1},{"number":64,"time":65.95729166666588,"value":0.8661417322834646},{"number":64,"time":65.95833333333255,"value":0.8661417322834646},{"number":64,"time":65.97291666666588,"value":0.7086614173228346},{"number":64,"time":65.97395833333255,"value":0.7086614173228346},{"number":64,"time":65.97708333333254,"value":0.6456692913385826},{"number":64,"time":65.97812499999921,"value":0.6456692913385826},{"number":64,"time":65.98229166666587,"value":0.6141732283464567},{"number":64,"time":65.98229166666587,"value":0.6141732283464567},{"number":64,"time":65.98958333333253,"value":0.5669291338582677},{"number":64,"time":65.9906249999992,"value":0.5669291338582677},{"number":64,"time":65.9937499999992,"value":0.5275590551181102},{"number":64,"time":65.99479166666586,"value":0.5275590551181102},{"number":64,"time":65.99791666666586,"value":0.48031496062992124},{"number":64,"time":65.99895833333252,"value":0.48031496062992124},{"number":64,"time":66.00104166666586,"value":0.3779527559055118},{"number":64,"time":66.00208333333252,"value":0.3779527559055118},{"number":64,"time":66.00937499999918,"value":0.18110236220472442},{"number":64,"time":66.01041666666585,"value":0.18110236220472442},{"number":64,"time":66.01354166666584,"value":0.05511811023622047},{"number":64,"time":66.01458333333251,"value":0.05511811023622047},{"number":64,"time":66.01770833333251,"value":0},{"number":64,"time":66.01874999999917,"value":0},{"number":64,"time":66.12187499999916,"value":0.10236220472440945},{"number":64,"time":66.12187499999916,"value":0.10236220472440945},{"number":64,"time":66.12499999999916,"value":0.2283464566929134},{"number":64,"time":66.12604166666583,"value":0.2283464566929134},{"number":64,"time":66.12916666666582,"value":0.33070866141732286},{"number":64,"time":66.13020833333249,"value":0.33070866141732286},{"number":64,"time":66.13749999999915,"value":0.49606299212598426},{"number":64,"time":66.13854166666582,"value":0.49606299212598426},{"number":64,"time":66.14166666666581,"value":0.5275590551181102},{"number":64,"time":66.14270833333248,"value":0.5275590551181102},{"number":64,"time":66.14895833333247,"value":0.5669291338582677},{"number":64,"time":66.14999999999914,"value":0.5669291338582677},{"number":64,"time":66.16145833333248,"value":0.5984251968503937},{"number":64,"time":66.16249999999914,"value":0.5984251968503937},{"number":64,"time":66.17395833333248,"value":0.6299212598425197},{"number":64,"time":66.17499999999914,"value":0.6299212598425197},{"number":64,"time":66.19374999999914,"value":0.7559055118110236},{"number":64,"time":66.19479166666581,"value":0.7559055118110236},{"number":64,"time":66.22187499999914,"value":0.8503937007874016},{"number":64,"time":66.22187499999914,"value":0.8503937007874016},{"number":64,"time":66.45729166666581,"value":1},{"number":64,"time":66.45729166666581,"value":1},{"number":64,"time":66.55416666666582,"value":0.8661417322834646},{"number":64,"time":66.55520833333249,"value":0.8661417322834646},{"number":64,"time":66.58124999999914,"value":0.7559055118110236},{"number":64,"time":66.58229166666581,"value":0.7559055118110236},{"number":64,"time":66.59687499999914,"value":0.6535433070866141},{"number":64,"time":66.59791666666581,"value":0.6535433070866141},{"number":64,"time":66.65729166666581,"value":0.7559055118110236},{"number":64,"time":66.65729166666581,"value":0.7559055118110236},{"number":64,"time":66.67708333333248,"value":0.8503937007874016},{"number":64,"time":66.67812499999914,"value":0.8503937007874016},{"number":64,"time":66.8572916666658,"value":1},{"number":64,"time":66.8572916666658,"value":1},{"number":64,"time":67.2041666666658,"value":0.8661417322834646},{"number":64,"time":67.20520833333246,"value":0.8661417322834646},{"number":64,"time":67.2322916666658,"value":0.7559055118110236},{"number":64,"time":67.23333333333247,"value":0.7559055118110236},{"number":64,"time":67.27499999999912,"value":0.6614173228346457},{"number":64,"time":67.27604166666579,"value":0.6614173228346457},{"number":64,"time":67.29583333333245,"value":0.7559055118110236},{"number":64,"time":67.29687499999912,"value":0.7559055118110236},{"number":64,"time":67.32187499999912,"value":0.8503937007874016},{"number":64,"time":67.32187499999912,"value":0.8503937007874016},{"number":64,"time":67.38333333333246,"value":1},{"number":64,"time":67.38437499999912,"value":1},{"number":64,"time":67.60312499999912,"value":0.8661417322834646},{"number":64,"time":67.60416666666579,"value":0.8661417322834646},{"number":64,"time":67.62708333333245,"value":0.7322834645669292},{"number":64,"time":67.62812499999912,"value":0.7322834645669292},{"number":64,"time":67.63958333333245,"value":0.6456692913385826},{"number":64,"time":67.64062499999912,"value":0.6456692913385826},{"number":64,"time":67.64791666666578,"value":0.6141732283464567},{"number":64,"time":67.64895833333244,"value":0.6141732283464567},{"number":64,"time":67.66354166666578,"value":0.5826771653543307},{"number":64,"time":67.66458333333244,"value":0.5826771653543307},{"number":64,"time":67.71666666666577,"value":0.6220472440944882},{"number":64,"time":67.71770833333244,"value":0.6220472440944882},{"number":64,"time":67.73541666666577,"value":0.7322834645669292},{"number":64,"time":67.73645833333244,"value":0.7322834645669292},{"number":64,"time":67.74687499999911,"value":0.8503937007874016},{"number":64,"time":67.74791666666577,"value":0.8503937007874016},{"number":64,"time":67.84479166666577,"value":1},{"number":64,"time":67.84583333333244,"value":1},{"number":64,"time":68.01562499999909,"value":0.8661417322834646},{"number":64,"time":68.01666666666576,"value":0.8661417322834646},{"number":64,"time":68.03541666666575,"value":0.7559055118110236},{"number":64,"time":68.03645833333242,"value":0.7559055118110236},{"number":64,"time":68.04374999999908,"value":0.6614173228346457},{"number":64,"time":68.04479166666574,"value":0.6614173228346457},{"number":64,"time":68.0520833333324,"value":0.6299212598425197},{"number":64,"time":68.05312499999907,"value":0.6299212598425197},{"number":64,"time":68.06354166666574,"value":0.5905511811023622},{"number":64,"time":68.06354166666574,"value":0.5905511811023622},{"number":64,"time":68.12812499999907,"value":0.6299212598425197},{"number":64,"time":68.12916666666574,"value":0.6299212598425197},{"number":64,"time":68.13958333333241,"value":0.7322834645669292},{"number":64,"time":68.14062499999908,"value":0.7322834645669292},{"number":64,"time":68.15104166666575,"value":0.8503937007874016},{"number":64,"time":68.15208333333241,"value":0.8503937007874016},{"number":64,"time":68.18749999999908,"value":1},{"number":64,"time":68.18854166666574,"value":1},{"number":64,"time":68.43124999999908,"value":0.8661417322834646},{"number":64,"time":68.43229166666575,"value":0.8661417322834646},{"number":64,"time":68.44687499999908,"value":0.7559055118110236},{"number":64,"time":68.44791666666575,"value":0.7559055118110236},{"number":64,"time":68.45520833333241,"value":0.6614173228346457},{"number":64,"time":68.45624999999907,"value":0.6614173228346457},{"number":64,"time":68.46354166666573,"value":0.6220472440944882},{"number":64,"time":68.4645833333324,"value":0.6220472440944882},{"number":64,"time":68.47187499999906,"value":0.5826771653543307},{"number":64,"time":68.47291666666572,"value":0.5826771653543307},{"number":64,"time":68.4833333333324,"value":0.5433070866141733},{"number":64,"time":68.4833333333324,"value":0.5433070866141733},{"number":64,"time":68.49166666666574,"value":0.5118110236220472},{"number":64,"time":68.4927083333324,"value":0.5118110236220472},{"number":64,"time":68.53541666666574,"value":0.5433070866141733},{"number":64,"time":68.5364583333324,"value":0.5433070866141733},{"number":64,"time":68.54687499999908,"value":0.5748031496062992},{"number":64,"time":68.54791666666574,"value":0.5748031496062992},{"number":64,"time":68.55937499999908,"value":0.6062992125984252},{"number":64,"time":68.56041666666574,"value":0.6062992125984252},{"number":64,"time":68.5677083333324,"value":0.6456692913385826},{"number":64,"time":68.56874999999907,"value":0.6456692913385826},{"number":64,"time":68.57916666666574,"value":0.7795275590551181},{"number":64,"time":68.58020833333241,"value":0.7795275590551181},{"number":64,"time":68.59166666666574,"value":0.889763779527559},{"number":64,"time":68.59270833333241,"value":0.889763779527559},{"number":64,"time":68.65937499999907,"value":1},{"number":64,"time":68.66041666666574,"value":1},{"number":64,"time":68.91145833333239,"value":0.8661417322834646},{"number":64,"time":68.91249999999906,"value":0.8661417322834646},{"number":64,"time":68.93541666666572,"value":0.7322834645669292},{"number":64,"time":68.93645833333238,"value":0.7322834645669292},{"number":64,"time":68.94791666666572,"value":0.6456692913385826},{"number":64,"time":68.94791666666572,"value":0.6456692913385826},{"number":64,"time":68.95520833333238,"value":0.6141732283464567},{"number":64,"time":68.95624999999905,"value":0.6141732283464567},{"number":64,"time":68.98333333333237,"value":0.5826771653543307},{"number":64,"time":68.98333333333237,"value":0.5826771653543307},{"number":64,"time":69.0041666666657,"value":0.6141732283464567},{"number":64,"time":69.00520833333236,"value":0.6141732283464567},{"number":64,"time":69.01562499999903,"value":0.6456692913385826},{"number":64,"time":69.0166666666657,"value":0.6456692913385826},{"number":64,"time":69.03124999999903,"value":0.7795275590551181},{"number":64,"time":69.0322916666657,"value":0.7795275590551181},{"number":64,"time":69.04687499999903,"value":0.889763779527559},{"number":64,"time":69.0479166666657,"value":0.889763779527559},{"number":64,"time":69.08333333333236,"value":1},{"number":64,"time":69.08437499999903,"value":1},{"number":64,"time":69.48749999999905,"value":0.8661417322834646},{"number":64,"time":69.48854166666571,"value":0.8661417322834646},{"number":64,"time":69.49895833333238,"value":0.7322834645669292},{"number":64,"time":69.49999999999905,"value":0.7322834645669292},{"number":64,"time":69.50833333333239,"value":0.6299212598425197},{"number":64,"time":69.50937499999905,"value":0.6299212598425197},{"number":64,"time":69.51145833333238,"value":0.5984251968503937},{"number":64,"time":69.51249999999905,"value":0.5984251968503937},{"number":64,"time":69.51979166666571,"value":0.5511811023622047},{"number":64,"time":69.51979166666571,"value":0.5511811023622047},{"number":64,"time":69.52291666666571,"value":0.5196850393700787},{"number":64,"time":69.52395833333237,"value":0.5196850393700787},{"number":64,"time":69.52708333333237,"value":0.4881889763779528},{"number":64,"time":69.52812499999904,"value":0.4881889763779528},{"number":64,"time":69.5354166666657,"value":0.3543307086614173},{"number":64,"time":69.53645833333236,"value":0.3543307086614173},{"number":64,"time":69.54374999999902,"value":0.25196850393700787},{"number":64,"time":69.54374999999902,"value":0.25196850393700787},{"number":64,"time":69.55520833333236,"value":0.14960629921259844},{"number":64,"time":69.55520833333236,"value":0.14960629921259844},{"number":64,"time":69.59583333333237,"value":0.25196850393700787},{"number":64,"time":69.59583333333237,"value":0.25196850393700787},{"number":64,"time":69.60312499999903,"value":0.3543307086614173},{"number":64,"time":69.60416666666569,"value":0.3543307086614173},{"number":64,"time":69.61145833333235,"value":0.47244094488188976},{"number":64,"time":69.61249999999902,"value":0.47244094488188976},{"number":64,"time":69.61979166666568,"value":0.5196850393700787},{"number":64,"time":69.62083333333234,"value":0.5196850393700787},{"number":64,"time":69.62708333333234,"value":0.5590551181102362},{"number":64,"time":69.628124999999,"value":0.5590551181102362},{"number":64,"time":69.63541666666566,"value":0.5905511811023622},{"number":64,"time":69.63645833333233,"value":0.5905511811023622},{"number":64,"time":69.64374999999899,"value":0.6220472440944882},{"number":64,"time":69.64374999999899,"value":0.6220472440944882},{"number":64,"time":69.65520833333233,"value":0.7322834645669292},{"number":64,"time":69.65624999999899,"value":0.7322834645669292},{"number":64,"time":69.66354166666565,"value":0.8267716535433071},{"number":64,"time":69.66354166666565,"value":0.8267716535433071},{"number":64,"time":69.67499999999899,"value":0.937007874015748},{"number":64,"time":69.67604166666565,"value":0.937007874015748},{"number":64,"time":69.71979166666566,"value":1},{"number":64,"time":69.71979166666566,"value":1},{"number":64,"time":69.91770833333234,"value":0.8661417322834646},{"number":64,"time":69.91979166666567,"value":0.8661417322834646},{"number":64,"time":69.94270833333233,"value":0.7322834645669292},{"number":64,"time":69.943749999999,"value":0.7322834645669292},{"number":64,"time":69.949999999999,"value":0.6456692913385826},{"number":64,"time":69.95104166666566,"value":0.6456692913385826},{"number":64,"time":69.95833333333232,"value":0.6141732283464567},{"number":64,"time":69.95937499999899,"value":0.6141732283464567},{"number":64,"time":69.97083333333232,"value":0.5826771653543307},{"number":64,"time":69.97187499999899,"value":0.5826771653543307},{"number":64,"time":70.01979166666565,"value":0.6141732283464567},{"number":64,"time":70.01979166666565,"value":0.6141732283464567},{"number":64,"time":70.02604166666565,"value":0.6456692913385826},{"number":64,"time":70.02708333333231,"value":0.6456692913385826},{"number":64,"time":70.03958333333232,"value":0.7559055118110236},{"number":64,"time":70.04062499999898,"value":0.7559055118110236},{"number":64,"time":70.04999999999899,"value":0.8503937007874016},{"number":64,"time":70.05104166666565,"value":0.8503937007874016},{"number":64,"time":70.199999999999,"value":1},{"number":64,"time":70.199999999999,"value":1},{"number":64,"time":70.37395833333233,"value":0.8661417322834646},{"number":64,"time":70.37499999999899,"value":0.8661417322834646},{"number":64,"time":70.39166666666566,"value":0.7086614173228346},{"number":64,"time":70.39270833333232,"value":0.7086614173228346},{"number":64,"time":70.39583333333232,"value":0.6456692913385826},{"number":64,"time":70.39687499999899,"value":0.6456692913385826},{"number":64,"time":70.40208333333231,"value":0.5984251968503937},{"number":64,"time":70.40312499999898,"value":0.5984251968503937},{"number":64,"time":70.41041666666564,"value":0.5590551181102362},{"number":64,"time":70.4114583333323,"value":0.5590551181102362},{"number":64,"time":70.41874999999897,"value":0.5039370078740157},{"number":64,"time":70.41979166666563,"value":0.5039370078740157},{"number":64,"time":70.4302083333323,"value":0.4015748031496063},{"number":64,"time":70.4302083333323,"value":0.4015748031496063},{"number":64,"time":70.46666666666563,"value":0.47244094488188976},{"number":64,"time":70.46666666666563,"value":0.47244094488188976},{"number":64,"time":70.47395833333229,"value":0.5039370078740157},{"number":64,"time":70.47499999999896,"value":0.5039370078740157},{"number":64,"time":70.48229166666562,"value":0.5433070866141733},{"number":64,"time":70.48333333333228,"value":0.5433070866141733},{"number":64,"time":70.49062499999894,"value":0.5748031496062992},{"number":64,"time":70.49062499999894,"value":0.5748031496062992},{"number":64,"time":70.50208333333228,"value":0.6141732283464567},{"number":64,"time":70.50312499999895,"value":0.6141732283464567},{"number":64,"time":70.51458333333228,"value":0.7322834645669292},{"number":64,"time":70.51562499999895,"value":0.7322834645669292},{"number":64,"time":70.52187499999894,"value":0.8503937007874016},{"number":64,"time":70.52291666666561,"value":0.8503937007874016},{"number":64,"time":70.53437499999895,"value":1},{"number":64,"time":70.53437499999895,"value":1},{"number":64,"time":70.84999999999894,"value":0.8661417322834646},{"number":64,"time":70.85104166666561,"value":0.8661417322834646},{"number":64,"time":70.8697916666656,"value":0.7322834645669292},{"number":64,"time":70.87083333333227,"value":0.7322834645669292},{"number":64,"time":70.87916666666561,"value":0.6535433070866141},{"number":64,"time":70.88020833333228,"value":0.6535433070866141},{"number":64,"time":70.88645833333227,"value":0.6141732283464567},{"number":64,"time":70.88749999999894,"value":0.6141732283464567},{"number":64,"time":70.89791666666561,"value":0.5826771653543307},{"number":64,"time":70.89895833333227,"value":0.5826771653543307},{"number":64,"time":70.94583333333227,"value":0.6141732283464567},{"number":64,"time":70.94687499999894,"value":0.6141732283464567},{"number":64,"time":70.9541666666656,"value":0.6456692913385826},{"number":64,"time":70.9541666666656,"value":0.6456692913385826},{"number":64,"time":70.9666666666656,"value":0.7559055118110236},{"number":64,"time":70.96770833333227,"value":0.7559055118110236},{"number":64,"time":70.97812499999894,"value":0.8661417322834646},{"number":64,"time":70.9791666666656,"value":0.8661417322834646},{"number":64,"time":70.9979166666656,"value":1},{"number":64,"time":70.99895833333227,"value":1},{"number":64,"time":71.31041666666562,"value":0.8661417322834646},{"number":64,"time":71.31145833333228,"value":0.8661417322834646},{"number":64,"time":71.32187499999894,"value":0.7559055118110236},{"number":64,"time":71.3229166666656,"value":0.7559055118110236},{"number":64,"time":71.33124999999895,"value":0.6377952755905512},{"number":64,"time":71.33124999999895,"value":0.6377952755905512},{"number":64,"time":71.33437499999894,"value":0.6062992125984252},{"number":64,"time":71.33541666666561,"value":0.6062992125984252},{"number":64,"time":71.3416666666656,"value":0.5590551181102362},{"number":64,"time":71.34270833333227,"value":0.5590551181102362},{"number":64,"time":71.34999999999893,"value":0.49606299212598426},{"number":64,"time":71.3510416666656,"value":0.49606299212598426},{"number":64,"time":71.35833333333225,"value":0.3779527559055118},{"number":64,"time":71.35937499999892,"value":0.3779527559055118},{"number":64,"time":71.36666666666558,"value":0.25196850393700787},{"number":64,"time":71.36770833333225,"value":0.25196850393700787},{"number":64,"time":71.41770833333224,"value":0.3779527559055118},{"number":64,"time":71.41874999999891,"value":0.3779527559055118},{"number":64,"time":71.42604166666557,"value":0.47244094488188976},{"number":64,"time":71.42604166666557,"value":0.47244094488188976},{"number":64,"time":71.43437499999891,"value":0.5196850393700787},{"number":64,"time":71.43541666666557,"value":0.5196850393700787},{"number":64,"time":71.44270833333223,"value":0.5590551181102362},{"number":64,"time":71.4437499999989,"value":0.5590551181102362},{"number":64,"time":71.45416666666557,"value":0.5984251968503937},{"number":64,"time":71.45520833333224,"value":0.5984251968503937},{"number":64,"time":71.4624999999989,"value":0.6377952755905512},{"number":64,"time":71.46354166666556,"value":0.6377952755905512},{"number":64,"time":71.47395833333223,"value":0.7795275590551181},{"number":64,"time":71.4749999999989,"value":0.7795275590551181},{"number":64,"time":71.4906249999989,"value":0.889763779527559},{"number":64,"time":71.49166666666557,"value":0.889763779527559},{"number":64,"time":71.57395833333223,"value":1},{"number":64,"time":71.5749999999989,"value":1},{"number":64,"time":71.75833333333223,"value":0.8661417322834646},{"number":64,"time":71.7593749999989,"value":0.8661417322834646},{"number":64,"time":71.7781249999989,"value":0.7322834645669292},{"number":64,"time":71.7781249999989,"value":0.7322834645669292},{"number":64,"time":71.78645833333223,"value":0.6456692913385826},{"number":64,"time":71.7874999999989,"value":0.6456692913385826},{"number":64,"time":71.7937499999989,"value":0.6062992125984252},{"number":64,"time":71.79479166666556,"value":0.6062992125984252},{"number":64,"time":71.80208333333222,"value":0.5748031496062992},{"number":64,"time":71.80208333333222,"value":0.5748031496062992},{"number":64,"time":71.81458333333222,"value":0.5433070866141733},{"number":64,"time":71.81562499999889,"value":0.5433070866141733},{"number":64,"time":71.85833333333223,"value":0.5826771653543307},{"number":64,"time":71.85937499999889,"value":0.5826771653543307},{"number":64,"time":71.86979166666556,"value":0.6141732283464567},{"number":64,"time":71.87083333333223,"value":0.6141732283464567},{"number":64,"time":71.87812499999889,"value":0.6535433070866141},{"number":64,"time":71.87916666666555,"value":0.6535433070866141},{"number":64,"time":71.88645833333221,"value":0.7559055118110236},{"number":64,"time":71.88749999999888,"value":0.7559055118110236},{"number":64,"time":71.89791666666555,"value":0.8661417322834646},{"number":64,"time":71.89895833333222,"value":0.8661417322834646},{"number":64,"time":72.04999999999889,"value":1},{"number":64,"time":72.05104166666555,"value":1},{"number":64,"time":72.23020833333223,"value":0.8661417322834646},{"number":64,"time":72.2312499999989,"value":0.8661417322834646},{"number":64,"time":72.24583333333223,"value":0.7559055118110236},{"number":64,"time":72.2468749999989,"value":0.7559055118110236},{"number":64,"time":72.25520833333223,"value":0.6377952755905512},{"number":64,"time":72.25520833333223,"value":0.6377952755905512},{"number":64,"time":72.2624999999989,"value":0.5984251968503937},{"number":64,"time":72.26354166666556,"value":0.5984251968503937},{"number":64,"time":72.26979166666555,"value":0.5590551181102362},{"number":64,"time":72.27083333333222,"value":0.5590551181102362},{"number":64,"time":72.27812499999888,"value":0.5118110236220472},{"number":64,"time":72.27812499999888,"value":0.5118110236220472},{"number":64,"time":72.28645833333222,"value":0.47244094488188976},{"number":64,"time":72.28749999999889,"value":0.47244094488188976},{"number":64,"time":72.33020833333222,"value":0.5039370078740157},{"number":64,"time":72.33124999999889,"value":0.5039370078740157},{"number":64,"time":72.34166666666556,"value":0.5433070866141733},{"number":64,"time":72.34166666666556,"value":0.5433070866141733},{"number":64,"time":72.34895833333222,"value":0.5748031496062992},{"number":64,"time":72.34999999999889,"value":0.5748031496062992},{"number":64,"time":72.36249999999889,"value":0.6141732283464567},{"number":64,"time":72.36354166666555,"value":0.6141732283464567},{"number":64,"time":72.36874999999888,"value":0.6535433070866141},{"number":64,"time":72.37083333333221,"value":0.6535433070866141},{"number":64,"time":72.37708333333221,"value":0.7559055118110236},{"number":64,"time":72.37812499999887,"value":0.7559055118110236},{"number":64,"time":72.38541666666553,"value":0.8503937007874016},{"number":64,"time":72.3864583333322,"value":0.8503937007874016},{"number":64,"time":72.46562499999887,"value":1},{"number":64,"time":72.46666666666553,"value":1},{"number":64,"time":72.69270833333219,"value":0.8661417322834646},{"number":64,"time":72.69374999999886,"value":0.8661417322834646},{"number":64,"time":72.72291666666553,"value":0.7559055118110236},{"number":64,"time":72.72395833333219,"value":0.7559055118110236},{"number":64,"time":72.78541666666553,"value":0.8503937007874016},{"number":64,"time":72.78645833333219,"value":0.8503937007874016},{"number":64,"time":72.84895833333219,"value":1},{"number":64,"time":72.84999999999886,"value":1},{"number":64,"time":73.37291666666555,"value":0.8661417322834646},{"number":64,"time":73.37395833333221,"value":0.8661417322834646},{"number":64,"time":73.38541666666555,"value":0.7559055118110236},{"number":64,"time":73.38645833333221,"value":0.7559055118110236},{"number":64,"time":73.39374999999887,"value":0.6377952755905512},{"number":64,"time":73.39479166666554,"value":0.6377952755905512},{"number":64,"time":73.40104166666553,"value":0.5905511811023622},{"number":64,"time":73.4020833333322,"value":0.5905511811023622},{"number":64,"time":73.40937499999886,"value":0.5354330708661418},{"number":64,"time":73.41041666666553,"value":0.5354330708661418},{"number":64,"time":73.41354166666552,"value":0.5039370078740157},{"number":64,"time":73.41354166666552,"value":0.5039370078740157},{"number":64,"time":73.41666666666552,"value":0.47244094488188976},{"number":64,"time":73.41770833333219,"value":0.47244094488188976},{"number":64,"time":73.42499999999885,"value":0.33070866141732286},{"number":64,"time":73.42499999999885,"value":0.33070866141732286},{"number":64,"time":73.43749999999885,"value":0.2283464566929134},{"number":64,"time":73.43854166666551,"value":0.2283464566929134},{"number":64,"time":73.48958333333218,"value":0.33070866141732286},{"number":64,"time":73.48958333333218,"value":0.33070866141732286},{"number":64,"time":73.50104166666551,"value":0.47244094488188976},{"number":64,"time":73.50104166666551,"value":0.47244094488188976},{"number":64,"time":73.50937499999885,"value":0.5118110236220472},{"number":64,"time":73.51041666666552,"value":0.5118110236220472},{"number":64,"time":73.51770833333218,"value":0.5511811023622047},{"number":64,"time":73.51874999999885,"value":0.5511811023622047},{"number":64,"time":73.52916666666552,"value":0.5905511811023622},{"number":64,"time":73.53020833333218,"value":0.5905511811023622},{"number":64,"time":73.54166666666552,"value":0.6377952755905512},{"number":64,"time":73.54166666666552,"value":0.6377952755905512},{"number":64,"time":73.54895833333218,"value":0.7322834645669292},{"number":64,"time":73.54999999999885,"value":0.7322834645669292},{"number":64,"time":73.56145833333218,"value":0.8267716535433071},{"number":64,"time":73.56249999999885,"value":0.8267716535433071},{"number":64,"time":73.64166666666551,"value":0.937007874015748},{"number":64,"time":73.64166666666551,"value":0.937007874015748},{"number":64,"time":73.71666666666552,"value":1},{"number":64,"time":73.71770833333218,"value":1},{"number":64,"time":73.86874999999887,"value":0.8661417322834646},{"number":64,"time":73.86979166666553,"value":0.8661417322834646},{"number":64,"time":73.88541666666553,"value":0.7559055118110236},{"number":64,"time":73.8864583333322,"value":0.7559055118110236},{"number":64,"time":73.8927083333322,"value":0.6614173228346457},{"number":64,"time":73.89374999999886,"value":0.6614173228346457},{"number":64,"time":73.90104166666552,"value":0.6220472440944882},{"number":64,"time":73.90208333333219,"value":0.6220472440944882},{"number":64,"time":73.90937499999885,"value":0.5905511811023622},{"number":64,"time":73.91041666666551,"value":0.5905511811023622},{"number":64,"time":73.92499999999885,"value":0.5590551181102362},{"number":64,"time":73.92499999999885,"value":0.5590551181102362},{"number":64,"time":73.96562499999885,"value":0.5984251968503937},{"number":64,"time":73.96666666666552,"value":0.5984251968503937},{"number":64,"time":73.97812499999884,"value":0.6377952755905512},{"number":64,"time":73.97812499999884,"value":0.6377952755905512},{"number":64,"time":73.98958333333218,"value":0.7559055118110236},{"number":64,"time":73.98958333333218,"value":0.7559055118110236},{"number":64,"time":74.00104166666551,"value":0.8661417322834646},{"number":64,"time":74.00208333333218,"value":0.8661417322834646},{"number":64,"time":74.06874999999884,"value":1},{"number":64,"time":74.06979166666551,"value":1},{"number":64,"time":74.26145833333217,"value":0.8661417322834646},{"number":64,"time":74.26145833333217,"value":0.8661417322834646},{"number":64,"time":74.27708333333217,"value":0.7559055118110236},{"number":64,"time":74.27812499999884,"value":0.7559055118110236},{"number":64,"time":74.2854166666655,"value":0.6614173228346457},{"number":64,"time":74.28645833333216,"value":0.6614173228346457},{"number":64,"time":74.29270833333216,"value":0.6141732283464567},{"number":64,"time":74.29374999999882,"value":0.6141732283464567},{"number":64,"time":74.30104166666548,"value":0.5826771653543307},{"number":64,"time":74.30104166666548,"value":0.5826771653543307},{"number":64,"time":74.31354166666549,"value":0.5433070866141733},{"number":64,"time":74.31354166666549,"value":0.5433070866141733},{"number":64,"time":74.32499999999882,"value":0.5118110236220472},{"number":64,"time":74.32604166666549,"value":0.5118110236220472},{"number":64,"time":74.36458333333215,"value":0.5511811023622047},{"number":64,"time":74.36562499999881,"value":0.5511811023622047},{"number":64,"time":74.37708333333215,"value":0.5826771653543307},{"number":64,"time":74.37708333333215,"value":0.5826771653543307},{"number":64,"time":74.38958333333215,"value":0.6220472440944882},{"number":64,"time":74.39062499999882,"value":0.6220472440944882},{"number":64,"time":74.40520833333215,"value":0.7795275590551181},{"number":64,"time":74.40624999999882,"value":0.7795275590551181},{"number":64,"time":74.42083333333215,"value":0.889763779527559},{"number":64,"time":74.42187499999882,"value":0.889763779527559},{"number":64,"time":74.48854166666548,"value":1},{"number":64,"time":74.48958333333215,"value":1},{"number":64,"time":74.68124999999881,"value":0.8661417322834646},{"number":64,"time":74.68229166666548,"value":0.8661417322834646},{"number":64,"time":74.70104166666547,"value":0.7559055118110236},{"number":64,"time":74.70104166666547,"value":0.7559055118110236},{"number":64,"time":74.71354166666548,"value":0.6535433070866141},{"number":64,"time":74.71458333333214,"value":0.6535433070866141},{"number":64,"time":74.72083333333214,"value":0.6220472440944882},{"number":64,"time":74.7218749999988,"value":0.6220472440944882},{"number":64,"time":74.73333333333214,"value":0.5905511811023622},{"number":64,"time":74.7343749999988,"value":0.5905511811023622},{"number":64,"time":74.77708333333214,"value":0.6299212598425197},{"number":64,"time":74.77812499999881,"value":0.6299212598425197},{"number":64,"time":74.79270833333214,"value":0.7322834645669292},{"number":64,"time":74.79374999999881,"value":0.7322834645669292},{"number":64,"time":74.80416666666548,"value":0.8503937007874016},{"number":64,"time":74.80520833333215,"value":0.8503937007874016},{"number":64,"time":74.94479166666548,"value":1},{"number":64,"time":74.94583333333215,"value":1},{"number":64,"time":75.13958333333214,"value":0.8661417322834646},{"number":64,"time":75.1406249999988,"value":0.8661417322834646},{"number":64,"time":75.16041666666547,"value":0.7322834645669292},{"number":64,"time":75.16145833333213,"value":0.7322834645669292},{"number":64,"time":75.1718749999988,"value":0.6456692913385826},{"number":64,"time":75.17291666666547,"value":0.6456692913385826},{"number":64,"time":75.18020833333213,"value":0.6062992125984252},{"number":64,"time":75.1812499999988,"value":0.6062992125984252},{"number":64,"time":75.19583333333213,"value":0.5669291338582677},{"number":64,"time":75.1968749999988,"value":0.5669291338582677},{"number":64,"time":75.23229166666546,"value":0.5984251968503937},{"number":64,"time":75.23333333333213,"value":0.5984251968503937},{"number":64,"time":75.2437499999988,"value":0.6299212598425197},{"number":64,"time":75.24479166666546,"value":0.6299212598425197},{"number":64,"time":75.26041666666546,"value":0.7559055118110236},{"number":64,"time":75.26145833333213,"value":0.7559055118110236},{"number":64,"time":75.2718749999988,"value":0.8661417322834646},{"number":64,"time":75.27291666666547,"value":0.8661417322834646},{"number":64,"time":75.34062499999881,"value":1},{"number":64,"time":75.34166666666547,"value":1},{"number":64,"time":75.59270833333215,"value":0.8661417322834646},{"number":64,"time":75.59374999999882,"value":0.8661417322834646},{"number":64,"time":75.61562499999881,"value":0.7322834645669292},{"number":64,"time":75.61666666666548,"value":0.7322834645669292},{"number":64,"time":75.62812499999882,"value":0.6456692913385826},{"number":64,"time":75.62916666666548,"value":0.6456692913385826},{"number":64,"time":75.63958333333214,"value":0.6141732283464567},{"number":64,"time":75.64166666666547,"value":0.6141732283464567},{"number":64,"time":75.66145833333213,"value":0.5826771653543307},{"number":64,"time":75.66145833333213,"value":0.5826771653543307},{"number":64,"time":75.6874999999988,"value":0.6220472440944882},{"number":64,"time":75.68854166666547,"value":0.6220472440944882},{"number":64,"time":75.70833333333213,"value":0.7322834645669292},{"number":64,"time":75.7093749999988,"value":0.7322834645669292},{"number":64,"time":75.72083333333214,"value":0.8267716535433071},{"number":64,"time":75.72083333333214,"value":0.8267716535433071},{"number":64,"time":75.73958333333213,"value":0.937007874015748},{"number":64,"time":75.7406249999988,"value":0.937007874015748},{"number":64,"time":75.74895833333214,"value":1},{"number":64,"time":75.7499999999988,"value":1},{"number":64,"time":76.01979166666547,"value":0.8661417322834646},{"number":64,"time":76.02083333333213,"value":0.8661417322834646},{"number":64,"time":76.03958333333213,"value":0.7322834645669292},{"number":64,"time":76.0406249999988,"value":0.7322834645669292},{"number":64,"time":76.04791666666546,"value":0.6456692913385826},{"number":64,"time":76.04791666666546,"value":0.6456692913385826},{"number":64,"time":76.05729166666546,"value":0.6141732283464567},{"number":64,"time":76.05729166666546,"value":0.6141732283464567},{"number":64,"time":76.06354166666546,"value":0.5826771653543307},{"number":64,"time":76.06458333333212,"value":0.5826771653543307},{"number":64,"time":76.08020833333212,"value":0.5511811023622047},{"number":64,"time":76.08124999999879,"value":0.5511811023622047},{"number":64,"time":76.11979166666545,"value":0.5826771653543307},{"number":64,"time":76.12083333333211,"value":0.5826771653543307},{"number":64,"time":76.13229166666545,"value":0.6141732283464567},{"number":64,"time":76.13333333333212,"value":0.6141732283464567},{"number":64,"time":76.13958333333211,"value":0.6456692913385826},{"number":64,"time":76.14062499999878,"value":0.6456692913385826},{"number":64,"time":76.15208333333211,"value":0.7795275590551181},{"number":64,"time":76.15312499999878,"value":0.7795275590551181},{"number":64,"time":76.16874999999878,"value":0.889763779527559},{"number":64,"time":76.16874999999878,"value":0.889763779527559},{"number":64,"time":76.23541666666544,"value":1},{"number":64,"time":76.23749999999878,"value":1},{"number":64,"time":76.4520833333321,"value":0.8661417322834646},{"number":64,"time":76.45312499999876,"value":0.8661417322834646},{"number":64,"time":76.47604166666542,"value":0.7322834645669292},{"number":64,"time":76.47604166666542,"value":0.7322834645669292},{"number":64,"time":76.48854166666543,"value":0.6456692913385826},{"number":64,"time":76.48958333333209,"value":0.6456692913385826},{"number":64,"time":76.50104166666543,"value":0.6141732283464567},{"number":64,"time":76.50104166666543,"value":0.6141732283464567},{"number":64,"time":76.54791666666543,"value":0.6456692913385826},{"number":64,"time":76.54791666666543,"value":0.6456692913385826},{"number":64,"time":76.5645833333321,"value":0.7559055118110236},{"number":64,"time":76.56562499999876,"value":0.7559055118110236},{"number":64,"time":76.5770833333321,"value":0.8503937007874016},{"number":64,"time":76.5770833333321,"value":0.8503937007874016},{"number":64,"time":76.65624999999876,"value":1},{"number":64,"time":76.65729166666543,"value":1},{"number":64,"time":76.9395833333321,"value":0.8661417322834646},{"number":64,"time":76.94062499999876,"value":0.8661417322834646},{"number":64,"time":76.9520833333321,"value":0.7559055118110236},{"number":64,"time":76.95312499999876,"value":0.7559055118110236},{"number":64,"time":76.95937499999876,"value":0.6535433070866141},{"number":64,"time":76.95937499999876,"value":0.6535433070866141},{"number":64,"time":76.96458333333209,"value":0.6220472440944882},{"number":64,"time":76.96562499999875,"value":0.6220472440944882},{"number":64,"time":76.97187499999875,"value":0.5826771653543307},{"number":64,"time":76.97291666666541,"value":0.5826771653543307},{"number":64,"time":76.98020833333207,"value":0.5433070866141733},{"number":64,"time":76.98124999999874,"value":0.5433070866141733},{"number":64,"time":76.98749999999873,"value":0.49606299212598426},{"number":64,"time":76.9885416666654,"value":0.49606299212598426},{"number":64,"time":77.0041666666654,"value":0.4015748031496063},{"number":64,"time":77.00520833333206,"value":0.4015748031496063},{"number":64,"time":77.02395833333206,"value":0.47244094488188976},{"number":64,"time":77.02499999999873,"value":0.47244094488188976},{"number":64,"time":77.0354166666654,"value":0.5118110236220472},{"number":64,"time":77.03645833333206,"value":0.5118110236220472},{"number":64,"time":77.04374999999872,"value":0.5433070866141733},{"number":64,"time":77.04479166666539,"value":0.5433070866141733},{"number":64,"time":77.05520833333206,"value":0.5826771653543307},{"number":64,"time":77.05624999999873,"value":0.5826771653543307},{"number":64,"time":77.06770833333206,"value":0.6299212598425197},{"number":64,"time":77.06874999999873,"value":0.6299212598425197},{"number":64,"time":77.08020833333207,"value":0.7559055118110236},{"number":64,"time":77.08124999999873,"value":0.7559055118110236},{"number":64,"time":77.08645833333206,"value":0.8503937007874016},{"number":64,"time":77.08749999999873,"value":0.8503937007874016},{"number":64,"time":77.09999999999873,"value":1},{"number":64,"time":77.1010416666654,"value":1},{"number":64,"time":77.38437499999871,"value":0.8661417322834646},{"number":64,"time":77.38437499999871,"value":0.8661417322834646},{"number":64,"time":77.40416666666538,"value":0.7322834645669292},{"number":64,"time":77.40520833333204,"value":0.7322834645669292},{"number":64,"time":77.4124999999987,"value":0.6456692913385826},{"number":64,"time":77.4124999999987,"value":0.6456692913385826},{"number":64,"time":77.41979166666536,"value":0.6062992125984252},{"number":64,"time":77.42083333333203,"value":0.6062992125984252},{"number":64,"time":77.43229166666536,"value":0.5748031496062992},{"number":64,"time":77.43333333333203,"value":0.5748031496062992},{"number":64,"time":77.44791666666536,"value":0.5433070866141733},{"number":64,"time":77.44791666666536,"value":0.5433070866141733},{"number":64,"time":77.47604166666537,"value":0.5748031496062992},{"number":64,"time":77.47708333333203,"value":0.5748031496062992},{"number":64,"time":77.4874999999987,"value":0.6062992125984252},{"number":64,"time":77.48854166666537,"value":0.6062992125984252},{"number":64,"time":77.49687499999871,"value":0.6377952755905512},{"number":64,"time":77.49687499999871,"value":0.6377952755905512},{"number":64,"time":77.50729166666538,"value":0.7795275590551181},{"number":64,"time":77.50833333333205,"value":0.7795275590551181},{"number":64,"time":77.52291666666538,"value":0.889763779527559},{"number":64,"time":77.52291666666538,"value":0.889763779527559},{"number":64,"time":77.58333333333205,"value":1},{"number":64,"time":77.58437499999872,"value":1},{"number":64,"time":77.82187499999873,"value":0.8661417322834646},{"number":64,"time":77.82187499999873,"value":0.8661417322834646},{"number":64,"time":77.8479166666654,"value":0.7322834645669292},{"number":64,"time":77.84895833333206,"value":0.7322834645669292},{"number":64,"time":77.85416666666539,"value":0.6535433070866141},{"number":64,"time":77.85520833333206,"value":0.6535433070866141},{"number":64,"time":77.8635416666654,"value":0.6141732283464567},{"number":64,"time":77.8635416666654,"value":0.6141732283464567},{"number":64,"time":77.87499999999874,"value":0.5826771653543307},{"number":64,"time":77.87499999999874,"value":0.5826771653543307},{"number":64,"time":77.93958333333207,"value":0.6141732283464567},{"number":64,"time":77.94062499999873,"value":0.6141732283464567},{"number":64,"time":77.94791666666539,"value":0.6535433070866141},{"number":64,"time":77.94791666666539,"value":0.6535433070866141},{"number":64,"time":77.95833333333206,"value":0.8031496062992126},{"number":64,"time":77.95937499999873,"value":0.8031496062992126},{"number":64,"time":77.97499999999873,"value":0.9133858267716536},{"number":64,"time":77.97499999999873,"value":0.9133858267716536},{"number":64,"time":77.98645833333207,"value":1},{"number":64,"time":77.98749999999873,"value":1},{"number":64,"time":78.26249999999872,"value":0.8661417322834646},{"number":64,"time":78.26354166666539,"value":0.8661417322834646},{"number":64,"time":78.27812499999872,"value":0.7322834645669292},{"number":64,"time":78.27916666666539,"value":0.7322834645669292},{"number":64,"time":78.28541666666538,"value":0.6456692913385826},{"number":64,"time":78.28645833333205,"value":0.6456692913385826},{"number":64,"time":78.29583333333204,"value":0.6062992125984252},{"number":64,"time":78.29583333333204,"value":0.6062992125984252},{"number":64,"time":78.3031249999987,"value":0.5748031496062992},{"number":64,"time":78.30416666666537,"value":0.5748031496062992},{"number":64,"time":78.31041666666536,"value":0.5433070866141733},{"number":64,"time":78.31145833333203,"value":0.5433070866141733},{"number":64,"time":78.3218749999987,"value":0.5118110236220472},{"number":64,"time":78.3218749999987,"value":0.5118110236220472},{"number":64,"time":78.35416666666536,"value":0.5433070866141733},{"number":64,"time":78.35520833333203,"value":0.5433070866141733},{"number":64,"time":78.3656249999987,"value":0.5748031496062992},{"number":64,"time":78.36666666666537,"value":0.5748031496062992},{"number":64,"time":78.3781249999987,"value":0.6062992125984252},{"number":64,"time":78.37916666666537,"value":0.6062992125984252},{"number":64,"time":78.38541666666536,"value":0.6377952755905512},{"number":64,"time":78.38645833333203,"value":0.6377952755905512},{"number":64,"time":78.39374999999869,"value":0.7322834645669292},{"number":64,"time":78.39479166666536,"value":0.7322834645669292},{"number":64,"time":78.40729166666536,"value":0.8267716535433071},{"number":64,"time":78.40833333333202,"value":0.8267716535433071},{"number":64,"time":78.42187499999869,"value":0.937007874015748},{"number":64,"time":78.42291666666536,"value":0.937007874015748},{"number":64,"time":78.54999999999869,"value":1},{"number":64,"time":78.55104166666536,"value":1},{"number":64,"time":78.74166666666537,"value":0.8661417322834646},{"number":64,"time":78.74270833333203,"value":0.8661417322834646},{"number":64,"time":78.76562499999869,"value":0.7322834645669292},{"number":64,"time":78.76666666666536,"value":0.7322834645669292},{"number":64,"time":78.77395833333202,"value":0.6535433070866141},{"number":64,"time":78.77499999999868,"value":0.6535433070866141},{"number":64,"time":78.78645833333202,"value":0.6141732283464567},{"number":64,"time":78.78645833333202,"value":0.6141732283464567},{"number":64,"time":78.80208333333202,"value":0.5826771653543307},{"number":64,"time":78.80312499999869,"value":0.5826771653543307},{"number":64,"time":78.84166666666535,"value":0.6220472440944882},{"number":64,"time":78.84270833333201,"value":0.6220472440944882},{"number":64,"time":78.86249999999868,"value":0.7559055118110236},{"number":64,"time":78.86249999999868,"value":0.7559055118110236},{"number":64,"time":78.873958333332,"value":0.8661417322834646},{"number":64,"time":78.87499999999866,"value":0.8661417322834646},{"number":64,"time":78.89374999999866,"value":1},{"number":64,"time":78.89374999999866,"value":1},{"number":64,"time":79.11354166666531,"value":0.8661417322834646},{"number":64,"time":79.11458333333198,"value":0.8661417322834646},{"number":64,"time":79.13437499999864,"value":0.7086614173228346},{"number":64,"time":79.13437499999864,"value":0.7086614173228346},{"number":64,"time":79.1416666666653,"value":0.6456692913385826},{"number":64,"time":79.14270833333197,"value":0.6456692913385826},{"number":64,"time":79.14999999999863,"value":0.6062992125984252},{"number":64,"time":79.1510416666653,"value":0.6062992125984252},{"number":64,"time":79.16145833333195,"value":0.5748031496062992},{"number":64,"time":79.16249999999862,"value":0.5748031496062992},{"number":64,"time":79.18229166666528,"value":0.5354330708661418},{"number":64,"time":79.18229166666528,"value":0.5354330708661418},{"number":64,"time":79.20937499999862,"value":0.5669291338582677},{"number":64,"time":79.21041666666528,"value":0.5669291338582677},{"number":64,"time":79.22187499999862,"value":0.5984251968503937},{"number":64,"time":79.22291666666528,"value":0.5984251968503937},{"number":64,"time":79.23333333333196,"value":0.6377952755905512},{"number":64,"time":79.23437499999862,"value":0.6377952755905512},{"number":64,"time":79.24583333333196,"value":0.7559055118110236},{"number":64,"time":79.24687499999862,"value":0.7559055118110236},{"number":64,"time":79.2572916666653,"value":0.8661417322834646},{"number":64,"time":79.25833333333196,"value":0.8661417322834646},{"number":64,"time":79.43020833333196,"value":1},{"number":64,"time":79.43020833333196,"value":1},{"number":64,"time":79.60208333333196,"value":0.8661417322834646},{"number":64,"time":79.60312499999863,"value":0.8661417322834646},{"number":64,"time":79.62187499999862,"value":0.7559055118110236},{"number":64,"time":79.62291666666529,"value":0.7559055118110236},{"number":64,"time":79.63020833333195,"value":0.6614173228346457},{"number":64,"time":79.63124999999862,"value":0.6614173228346457},{"number":64,"time":79.63749999999861,"value":0.6220472440944882},{"number":64,"time":79.63854166666528,"value":0.6220472440944882},{"number":64,"time":79.64999999999861,"value":0.5905511811023622},{"number":64,"time":79.65104166666528,"value":0.5905511811023622},{"number":64,"time":79.66562499999861,"value":0.5590551181102362},{"number":64,"time":79.66666666666528,"value":0.5590551181102362},{"number":64,"time":79.70208333333194,"value":0.5905511811023622},{"number":64,"time":79.70312499999861,"value":0.5905511811023622},{"number":64,"time":79.71770833333194,"value":0.6299212598425197},{"number":64,"time":79.71770833333194,"value":0.6299212598425197},{"number":64,"time":79.73020833333194,"value":0.7322834645669292},{"number":64,"time":79.73124999999861,"value":0.7322834645669292},{"number":64,"time":79.74166666666528,"value":0.8267716535433071},{"number":64,"time":79.74270833333195,"value":0.8267716535433071},{"number":64,"time":79.76145833333194,"value":0.937007874015748},{"number":64,"time":79.76249999999861,"value":0.937007874015748},{"number":64,"time":79.91770833333194,"value":1},{"number":64,"time":79.91874999999861,"value":1},{"number":64,"time":80.58541666666527,"value":0.8661417322834646},{"number":64,"time":80.58645833333193,"value":0.8661417322834646},{"number":64,"time":80.60104166666527,"value":0.7322834645669292},{"number":64,"time":80.60208333333193,"value":0.7322834645669292},{"number":64,"time":80.6093749999986,"value":0.6377952755905512},{"number":64,"time":80.61041666666526,"value":0.6377952755905512},{"number":64,"time":80.61666666666525,"value":0.5905511811023622},{"number":64,"time":80.61770833333192,"value":0.5905511811023622},{"number":64,"time":80.62499999999858,"value":0.5590551181102362},{"number":64,"time":80.62604166666524,"value":0.5590551181102362},{"number":64,"time":80.6333333333319,"value":0.5039370078740157},{"number":64,"time":80.63437499999857,"value":0.5039370078740157},{"number":64,"time":80.6489583333319,"value":0.3779527559055118},{"number":64,"time":80.64999999999857,"value":0.3779527559055118},{"number":64,"time":80.69687499999857,"value":0.47244094488188976},{"number":64,"time":80.69791666666524,"value":0.47244094488188976},{"number":64,"time":80.7052083333319,"value":0.5039370078740157},{"number":64,"time":80.70624999999856,"value":0.5039370078740157},{"number":64,"time":80.7177083333319,"value":0.5433070866141733},{"number":64,"time":80.7177083333319,"value":0.5433070866141733},{"number":64,"time":80.72916666666524,"value":0.5748031496062992},{"number":64,"time":80.7302083333319,"value":0.5748031496062992},{"number":64,"time":80.74166666666524,"value":0.6062992125984252},{"number":64,"time":80.7427083333319,"value":0.6062992125984252},{"number":64,"time":80.7489583333319,"value":0.6456692913385826},{"number":64,"time":80.74999999999856,"value":0.6456692913385826},{"number":64,"time":80.76041666666524,"value":0.7795275590551181},{"number":64,"time":80.7614583333319,"value":0.7795275590551181},{"number":64,"time":80.78124999999856,"value":0.889763779527559},{"number":64,"time":80.78124999999856,"value":0.889763779527559},{"number":64,"time":80.8770833333319,"value":1},{"number":64,"time":80.87812499999856,"value":1},{"number":64,"time":81.04479166666522,"value":0.8661417322834646},{"number":64,"time":81.04583333333188,"value":0.8661417322834646},{"number":64,"time":81.0645833333319,"value":0.7559055118110236},{"number":64,"time":81.06562499999856,"value":0.7559055118110236},{"number":64,"time":81.07291666666522,"value":0.6614173228346457},{"number":64,"time":81.07395833333189,"value":0.6614173228346457},{"number":64,"time":81.08229166666523,"value":0.6299212598425197},{"number":64,"time":81.08229166666523,"value":0.6299212598425197},{"number":64,"time":81.0927083333319,"value":0.5905511811023622},{"number":64,"time":81.0927083333319,"value":0.5905511811023622},{"number":64,"time":81.15729166666523,"value":0.6299212598425197},{"number":64,"time":81.1583333333319,"value":0.6299212598425197},{"number":64,"time":81.17291666666523,"value":0.7322834645669292},{"number":64,"time":81.1739583333319,"value":0.7322834645669292},{"number":64,"time":81.18437499999857,"value":0.8267716535433071},{"number":64,"time":81.18541666666523,"value":0.8267716535433071},{"number":64,"time":81.2052083333319,"value":0.937007874015748},{"number":64,"time":81.2052083333319,"value":0.937007874015748},{"number":64,"time":81.26874999999856,"value":1},{"number":64,"time":81.26874999999856,"value":1},{"number":64,"time":81.4645833333319,"value":0.8661417322834646},{"number":64,"time":81.46562499999857,"value":0.8661417322834646},{"number":64,"time":81.48854166666523,"value":0.7322834645669292},{"number":64,"time":81.4895833333319,"value":0.7322834645669292},{"number":64,"time":81.50104166666523,"value":0.6456692913385826},{"number":64,"time":81.5020833333319,"value":0.6456692913385826},{"number":64,"time":81.51249999999857,"value":0.6141732283464567},{"number":64,"time":81.51354166666523,"value":0.6141732283464567},{"number":64,"time":81.56041666666523,"value":0.6456692913385826},{"number":64,"time":81.5614583333319,"value":0.6456692913385826},{"number":64,"time":81.57291666666524,"value":0.7559055118110236},{"number":64,"time":81.5739583333319,"value":0.7559055118110236},{"number":64,"time":81.58854166666524,"value":0.8661417322834646},{"number":64,"time":81.5895833333319,"value":0.8661417322834646},{"number":64,"time":81.72499999999856,"value":1},{"number":64,"time":81.72604166666522,"value":1},{"number":64,"time":81.89687499999856,"value":0.8661417322834646},{"number":64,"time":81.89791666666522,"value":0.8661417322834646},{"number":64,"time":81.92083333333188,"value":0.7322834645669292},{"number":64,"time":81.92187499999855,"value":0.7322834645669292},{"number":64,"time":81.92916666666521,"value":0.6535433070866141},{"number":64,"time":81.92916666666521,"value":0.6535433070866141},{"number":64,"time":81.93645833333187,"value":0.6220472440944882},{"number":64,"time":81.93749999999854,"value":0.6220472440944882},{"number":64,"time":81.94895833333186,"value":0.5905511811023622},{"number":64,"time":81.94999999999852,"value":0.5905511811023622},{"number":64,"time":82.00104166666519,"value":0.6220472440944882},{"number":64,"time":82.00208333333185,"value":0.6220472440944882},{"number":64,"time":82.00937499999851,"value":0.6535433070866141},{"number":64,"time":82.00937499999851,"value":0.6535433070866141},{"number":64,"time":82.02083333333185,"value":0.7795275590551181},{"number":64,"time":82.02187499999852,"value":0.7795275590551181},{"number":64,"time":82.04062499999851,"value":0.889763779527559},{"number":64,"time":82.04166666666518,"value":0.889763779527559},{"number":64,"time":82.22499999999852,"value":1},{"number":64,"time":82.22604166666518,"value":1},{"number":64,"time":82.37291666666519,"value":0.8661417322834646},{"number":64,"time":82.37395833333186,"value":0.8661417322834646},{"number":64,"time":82.39270833333185,"value":0.7322834645669292},{"number":64,"time":82.39270833333185,"value":0.7322834645669292},{"number":64,"time":82.4010416666652,"value":0.6456692913385826},{"number":64,"time":82.40208333333186,"value":0.6456692913385826},{"number":64,"time":82.40833333333185,"value":0.6141732283464567},{"number":64,"time":82.40937499999852,"value":0.6141732283464567},{"number":64,"time":82.42083333333186,"value":0.5748031496062992},{"number":64,"time":82.42187499999852,"value":0.5748031496062992},{"number":64,"time":82.44062499999852,"value":0.5433070866141733},{"number":64,"time":82.44166666666518,"value":0.5433070866141733},{"number":64,"time":82.46874999999852,"value":0.5748031496062992},{"number":64,"time":82.46874999999852,"value":0.5748031496062992},{"number":64,"time":82.48541666666519,"value":0.6141732283464567},{"number":64,"time":82.48645833333185,"value":0.6141732283464567},{"number":64,"time":82.50104166666519,"value":0.7086614173228346},{"number":64,"time":82.50208333333185,"value":0.7086614173228346},{"number":64,"time":82.51249999999852,"value":0.8031496062992126},{"number":64,"time":82.51354166666519,"value":0.8031496062992126},{"number":64,"time":82.57291666666518,"value":0.9133858267716536},{"number":64,"time":82.57395833333184,"value":0.9133858267716536},{"number":64,"time":82.68020833333185,"value":1},{"number":64,"time":82.68124999999851,"value":1},{"number":64,"time":82.84062499999851,"value":0.8661417322834646},{"number":64,"time":82.84166666666518,"value":0.8661417322834646},{"number":64,"time":82.86041666666517,"value":0.7322834645669292},{"number":64,"time":82.86145833333184,"value":0.7322834645669292},{"number":64,"time":82.8687499999985,"value":0.6535433070866141},{"number":64,"time":82.86979166666517,"value":0.6535433070866141},{"number":64,"time":82.87604166666516,"value":0.6220472440944882},{"number":64,"time":82.87708333333183,"value":0.6220472440944882},{"number":64,"time":82.88854166666516,"value":0.5905511811023622},{"number":64,"time":82.88854166666516,"value":0.5905511811023622},{"number":64,"time":82.94062499999849,"value":0.6220472440944882},{"number":64,"time":82.94166666666516,"value":0.6220472440944882},{"number":64,"time":82.96041666666515,"value":0.7559055118110236},{"number":64,"time":82.96145833333182,"value":0.7559055118110236},{"number":64,"time":82.97291666666514,"value":0.8503937007874016},{"number":64,"time":82.97395833333181,"value":0.8503937007874016},{"number":64,"time":83.10104166666514,"value":1},{"number":64,"time":83.1020833333318,"value":1},{"number":64,"time":83.2927083333318,"value":0.8661417322834646},{"number":64,"time":83.29374999999847,"value":0.8661417322834646},{"number":64,"time":83.3114583333318,"value":0.7559055118110236},{"number":64,"time":83.31249999999847,"value":0.7559055118110236},{"number":64,"time":83.31979166666513,"value":0.6614173228346457},{"number":64,"time":83.32083333333179,"value":0.6614173228346457},{"number":64,"time":83.32916666666513,"value":0.6299212598425197},{"number":64,"time":83.3302083333318,"value":0.6299212598425197},{"number":64,"time":83.3395833333318,"value":0.5905511811023622},{"number":64,"time":83.34062499999847,"value":0.5905511811023622},{"number":64,"time":83.36041666666513,"value":0.5590551181102362},{"number":64,"time":83.3614583333318,"value":0.5590551181102362},{"number":64,"time":83.39687499999846,"value":0.5905511811023622},{"number":64,"time":83.39687499999846,"value":0.5905511811023622},{"number":64,"time":83.41249999999846,"value":0.6299212598425197},{"number":64,"time":83.41354166666513,"value":0.6299212598425197},{"number":64,"time":83.42812499999846,"value":0.7322834645669292},{"number":64,"time":83.42812499999846,"value":0.7322834645669292},{"number":64,"time":83.4395833333318,"value":0.8267716535433071},{"number":64,"time":83.44062499999846,"value":0.8267716535433071},{"number":64,"time":83.4927083333318,"value":0.937007874015748},{"number":64,"time":83.49374999999847,"value":0.937007874015748},{"number":64,"time":83.53749999999847,"value":1},{"number":64,"time":83.53854166666514,"value":1},{"number":64,"time":84.26354166666516,"value":0.8661417322834646},{"number":64,"time":84.26354166666516,"value":0.8661417322834646},{"number":64,"time":84.28020833333183,"value":0.7322834645669292},{"number":64,"time":84.28020833333183,"value":0.7322834645669292},{"number":64,"time":84.28749999999849,"value":0.6456692913385826},{"number":64,"time":84.28749999999849,"value":0.6456692913385826},{"number":64,"time":84.29583333333183,"value":0.6062992125984252},{"number":64,"time":84.2968749999985,"value":0.6062992125984252},{"number":64,"time":84.30312499999849,"value":0.5748031496062992},{"number":64,"time":84.30520833333182,"value":0.5748031496062992},{"number":64,"time":84.31145833333181,"value":0.5354330708661418},{"number":64,"time":84.31249999999848,"value":0.5354330708661418},{"number":64,"time":84.31979166666514,"value":0.49606299212598426},{"number":64,"time":84.3208333333318,"value":0.49606299212598426},{"number":64,"time":84.37187499999847,"value":0.5275590551181102},{"number":64,"time":84.37291666666513,"value":0.5275590551181102},{"number":64,"time":84.3833333333318,"value":0.5590551181102362},{"number":64,"time":84.38437499999847,"value":0.5590551181102362},{"number":64,"time":84.39583333333181,"value":0.5905511811023622},{"number":64,"time":84.39583333333181,"value":0.5905511811023622},{"number":64,"time":84.40833333333181,"value":0.6377952755905512},{"number":64,"time":84.40937499999848,"value":0.6377952755905512},{"number":64,"time":84.41979166666515,"value":0.7559055118110236},{"number":64,"time":84.42083333333181,"value":0.7559055118110236},{"number":64,"time":84.43124999999849,"value":0.8661417322834646},{"number":64,"time":84.43229166666515,"value":0.8661417322834646},{"number":64,"time":84.57187499999847,"value":1},{"number":64,"time":84.57291666666514,"value":1},{"number":64,"time":84.7114583333318,"value":0.8661417322834646},{"number":64,"time":84.71249999999847,"value":0.8661417322834646},{"number":64,"time":84.73124999999847,"value":0.7559055118110236},{"number":64,"time":84.73229166666513,"value":0.7559055118110236},{"number":64,"time":84.74374999999847,"value":0.6456692913385826},{"number":64,"time":84.74479166666514,"value":0.6456692913385826},{"number":64,"time":84.75520833333181,"value":0.6141732283464567},{"number":64,"time":84.75624999999847,"value":0.6141732283464567},{"number":64,"time":84.77187499999847,"value":0.5826771653543307},{"number":64,"time":84.77291666666514,"value":0.5826771653543307},{"number":64,"time":84.80416666666514,"value":0.6220472440944882},{"number":64,"time":84.8052083333318,"value":0.6220472440944882},{"number":64,"time":84.82812499999847,"value":0.7559055118110236},{"number":64,"time":84.82916666666513,"value":0.7559055118110236},{"number":64,"time":84.8395833333318,"value":0.8503937007874016},{"number":64,"time":84.8395833333318,"value":0.8503937007874016},{"number":64,"time":84.92812499999847,"value":1},{"number":64,"time":84.92916666666514,"value":1},{"number":64,"time":85.04374999999845,"value":0.8661417322834646},{"number":64,"time":85.04479166666512,"value":0.8661417322834646},{"number":64,"time":85.06770833333178,"value":0.7322834645669292},{"number":64,"time":85.06770833333178,"value":0.7322834645669292},{"number":64,"time":85.07604166666512,"value":0.6535433070866141},{"number":64,"time":85.07708333333179,"value":0.6535433070866141},{"number":64,"time":85.08333333333178,"value":0.6220472440944882},{"number":64,"time":85.08437499999845,"value":0.6220472440944882},{"number":64,"time":85.09583333333178,"value":0.5905511811023622},{"number":64,"time":85.09687499999845,"value":0.5905511811023622},{"number":64,"time":85.15520833333179,"value":0.6299212598425197},{"number":64,"time":85.15624999999845,"value":0.6299212598425197},{"number":64,"time":85.16770833333179,"value":0.7322834645669292},{"number":64,"time":85.16770833333179,"value":0.7322834645669292},{"number":64,"time":85.18020833333179,"value":0.8267716535433071},{"number":64,"time":85.18020833333179,"value":0.8267716535433071},{"number":64,"time":85.19583333333179,"value":0.937007874015748},{"number":64,"time":85.19583333333179,"value":0.937007874015748},{"number":64,"time":85.35937499999845,"value":1},{"number":64,"time":85.36041666666512,"value":1},{"number":64,"time":85.53020833333179,"value":0.8661417322834646},{"number":64,"time":85.53124999999845,"value":0.8661417322834646},{"number":64,"time":85.55416666666511,"value":0.7322834645669292},{"number":64,"time":85.55520833333178,"value":0.7322834645669292},{"number":64,"time":85.56770833333178,"value":0.6456692913385826},{"number":64,"time":85.56770833333178,"value":0.6456692913385826},{"number":64,"time":85.5791666666651,"value":0.6141732283464567},{"number":64,"time":85.58020833333177,"value":0.6141732283464567},{"number":64,"time":85.63541666666511,"value":0.6456692913385826},{"number":64,"time":85.63645833333177,"value":0.6456692913385826},{"number":64,"time":85.64791666666511,"value":0.7559055118110236},{"number":64,"time":85.64895833333178,"value":0.7559055118110236},{"number":64,"time":85.66249999999845,"value":0.8661417322834646},{"number":64,"time":85.66249999999845,"value":0.8661417322834646},{"number":64,"time":85.80208333333178,"value":1},{"number":64,"time":85.80416666666511,"value":1},{"number":64,"time":86.00312499999845,"value":0.8661417322834646},{"number":64,"time":86.00416666666511,"value":0.8661417322834646},{"number":64,"time":86.01874999999845,"value":0.7559055118110236},{"number":64,"time":86.01979166666511,"value":0.7559055118110236},{"number":64,"time":86.02604166666511,"value":0.6535433070866141},{"number":64,"time":86.02708333333177,"value":0.6535433070866141},{"number":64,"time":86.03437499999843,"value":0.6062992125984252},{"number":64,"time":86.0354166666651,"value":0.6062992125984252},{"number":64,"time":86.04270833333176,"value":0.5748031496062992},{"number":64,"time":86.04374999999843,"value":0.5748031496062992},{"number":64,"time":86.04999999999842,"value":0.5433070866141733},{"number":64,"time":86.05104166666509,"value":0.5433070866141733},{"number":64,"time":86.05833333333175,"value":0.5039370078740157},{"number":64,"time":86.05937499999841,"value":0.5039370078740157},{"number":64,"time":86.10208333333175,"value":0.5354330708661418},{"number":64,"time":86.10416666666508,"value":0.5354330708661418},{"number":64,"time":86.11458333333175,"value":0.5669291338582677},{"number":64,"time":86.11458333333175,"value":0.5669291338582677},{"number":64,"time":86.13124999999843,"value":0.6062992125984252},{"number":64,"time":86.1322916666651,"value":0.6062992125984252},{"number":64,"time":86.13958333333176,"value":0.6456692913385826},{"number":64,"time":86.14062499999842,"value":0.6456692913385826},{"number":64,"time":86.1510416666651,"value":0.7795275590551181},{"number":64,"time":86.1510416666651,"value":0.7795275590551181},{"number":64,"time":86.1666666666651,"value":0.889763779527559},{"number":64,"time":86.16770833333176,"value":0.889763779527559},{"number":64,"time":86.27499999999844,"value":1},{"number":64,"time":86.27604166666511,"value":1},{"number":64,"time":86.44270833333178,"value":0.8661417322834646},{"number":64,"time":86.44374999999845,"value":0.8661417322834646},{"number":64,"time":86.45833333333178,"value":0.7559055118110236},{"number":64,"time":86.45937499999845,"value":0.7559055118110236},{"number":64,"time":86.4666666666651,"value":0.6614173228346457},{"number":64,"time":86.46770833333177,"value":0.6614173228346457},{"number":64,"time":86.47604166666511,"value":0.6220472440944882},{"number":64,"time":86.47708333333178,"value":0.6220472440944882},{"number":64,"time":86.4822916666651,"value":0.5905511811023622},{"number":64,"time":86.48333333333177,"value":0.5905511811023622},{"number":64,"time":86.49895833333177,"value":0.5590551181102362},{"number":64,"time":86.49895833333177,"value":0.5590551181102362},{"number":64,"time":86.54687499999844,"value":0.5984251968503937},{"number":64,"time":86.5479166666651,"value":0.5984251968503937},{"number":64,"time":86.55833333333177,"value":0.6299212598425197},{"number":64,"time":86.55937499999844,"value":0.6299212598425197},{"number":64,"time":86.57083333333178,"value":0.7322834645669292},{"number":64,"time":86.57187499999844,"value":0.7322834645669292},{"number":64,"time":86.58437499999845,"value":0.8267716535433071},{"number":64,"time":86.58541666666511,"value":0.8267716535433071},{"number":64,"time":86.6229166666651,"value":0.937007874015748},{"number":64,"time":86.62395833333177,"value":0.937007874015748},{"number":64,"time":86.66249999999843,"value":1},{"number":64,"time":86.6635416666651,"value":1},{"number":64,"time":86.87083333333176,"value":0.8661417322834646},{"number":64,"time":86.87187499999843,"value":0.8661417322834646},{"number":64,"time":86.89166666666509,"value":0.7559055118110236},{"number":64,"time":86.89270833333175,"value":0.7559055118110236},{"number":64,"time":86.90208333333176,"value":0.6535433070866141},{"number":64,"time":86.90312499999843,"value":0.6535433070866141},{"number":64,"time":86.91458333333176,"value":0.6141732283464567},{"number":64,"time":86.91458333333176,"value":0.6141732283464567},{"number":64,"time":86.9791666666651,"value":0.6456692913385826},{"number":64,"time":86.98020833333176,"value":0.6456692913385826},{"number":64,"time":86.9947916666651,"value":0.7795275590551181},{"number":64,"time":86.99583333333176,"value":0.7795275590551181},{"number":64,"time":87.01458333333176,"value":0.889763779527559},{"number":64,"time":87.01562499999842,"value":0.889763779527559},{"number":64,"time":87.12604166666507,"value":1},{"number":64,"time":87.12708333333174,"value":1},{"number":64,"time":87.31458333333175,"value":0.8661417322834646},{"number":64,"time":87.31562499999842,"value":0.8661417322834646},{"number":64,"time":87.33437499999842,"value":0.7322834645669292},{"number":64,"time":87.33541666666508,"value":0.7322834645669292},{"number":64,"time":87.34270833333174,"value":0.6535433070866141},{"number":64,"time":87.34374999999841,"value":0.6535433070866141},{"number":64,"time":87.35416666666508,"value":0.6141732283464567},{"number":64,"time":87.35520833333175,"value":0.6141732283464567},{"number":64,"time":87.37499999999841,"value":0.5826771653543307},{"number":64,"time":87.37604166666507,"value":0.5826771653543307},{"number":64,"time":87.39895833333173,"value":0.6220472440944882},{"number":64,"time":87.39895833333173,"value":0.6220472440944882},{"number":64,"time":87.41041666666507,"value":0.6535433070866141},{"number":64,"time":87.41145833333174,"value":0.6535433070866141},{"number":64,"time":87.42291666666507,"value":0.7795275590551181},{"number":64,"time":87.42291666666507,"value":0.7795275590551181},{"number":64,"time":87.43854166666507,"value":0.889763779527559},{"number":64,"time":87.43854166666507,"value":0.889763779527559},{"number":64,"time":87.52708333333175,"value":1},{"number":64,"time":87.52812499999841,"value":1},{"number":64,"time":88.01458333333174,"value":0.8661417322834646},{"number":64,"time":88.01562499999841,"value":0.8661417322834646},{"number":64,"time":88.02499999999841,"value":0.7559055118110236},{"number":64,"time":88.02604166666508,"value":0.7559055118110236},{"number":64,"time":88.03541666666509,"value":0.6377952755905512},{"number":64,"time":88.03645833333175,"value":0.6377952755905512},{"number":64,"time":88.04166666666508,"value":0.5905511811023622},{"number":64,"time":88.04270833333175,"value":0.5905511811023622},{"number":64,"time":88.0499999999984,"value":0.5354330708661418},{"number":64,"time":88.05104166666507,"value":0.5354330708661418},{"number":64,"time":88.05416666666507,"value":0.49606299212598426},{"number":64,"time":88.05520833333173,"value":0.49606299212598426},{"number":64,"time":88.0624999999984,"value":0.3779527559055118},{"number":64,"time":88.0624999999984,"value":0.3779527559055118},{"number":64,"time":88.07083333333173,"value":0.2283464566929134},{"number":64,"time":88.0718749999984,"value":0.2283464566929134},{"number":64,"time":88.0781249999984,"value":0.12598425196850394},{"number":64,"time":88.07916666666506,"value":0.12598425196850394},{"number":64,"time":88.09479166666506,"value":0.031496062992125984},{"number":64,"time":88.09583333333173,"value":0.031496062992125984},{"number":64,"time":88.09791666666506,"value":0},{"number":64,"time":88.09895833333172,"value":0},{"number":64,"time":88.14999999999839,"value":0.10236220472440945},{"number":64,"time":88.15104166666505,"value":0.10236220472440945},{"number":64,"time":88.15729166666505,"value":0.25196850393700787},{"number":64,"time":88.15833333333171,"value":0.25196850393700787},{"number":64,"time":88.16562499999837,"value":0.4015748031496063},{"number":64,"time":88.16666666666504,"value":0.4015748031496063},{"number":64,"time":88.16979166666503,"value":0.48031496062992124},{"number":64,"time":88.1708333333317,"value":0.48031496062992124},{"number":64,"time":88.1739583333317,"value":0.5118110236220472},{"number":64,"time":88.17499999999836,"value":0.5118110236220472},{"number":64,"time":88.18124999999836,"value":0.5511811023622047},{"number":64,"time":88.18229166666502,"value":0.5511811023622047},{"number":64,"time":88.19374999999836,"value":0.5826771653543307},{"number":64,"time":88.19479166666503,"value":0.5826771653543307},{"number":64,"time":88.20624999999835,"value":0.6141732283464567},{"number":64,"time":88.20729166666501,"value":0.6141732283464567},{"number":64,"time":88.21666666666502,"value":0.6456692913385826},{"number":64,"time":88.21770833333169,"value":0.6456692913385826},{"number":64,"time":88.26041666666502,"value":0.7559055118110236},{"number":64,"time":88.26145833333169,"value":0.7559055118110236},{"number":64,"time":88.30624999999836,"value":0.8503937007874016},{"number":64,"time":88.30729166666502,"value":0.8503937007874016},{"number":64,"time":88.61666666666503,"value":1},{"number":64,"time":88.61770833333169,"value":1},{"number":64,"time":88.74062499999835,"value":0.8661417322834646},{"number":64,"time":88.74166666666501,"value":0.8661417322834646},{"number":64,"time":88.76041666666501,"value":0.7559055118110236},{"number":64,"time":88.76145833333167,"value":0.7559055118110236},{"number":64,"time":88.76874999999833,"value":0.6614173228346457},{"number":64,"time":88.769791666665,"value":0.6614173228346457},{"number":64,"time":88.77708333333166,"value":0.6299212598425197},{"number":64,"time":88.77812499999833,"value":0.6299212598425197},{"number":64,"time":88.788541666665,"value":0.5984251968503937},{"number":64,"time":88.78958333333166,"value":0.5984251968503937},{"number":64,"time":88.83645833333166,"value":0.6299212598425197},{"number":64,"time":88.83749999999833,"value":0.6299212598425197},{"number":64,"time":88.85312499999833,"value":0.7322834645669292},{"number":64,"time":88.854166666665,"value":0.7322834645669292},{"number":64,"time":88.86458333333167,"value":0.8267716535433071},{"number":64,"time":88.86562499999833,"value":0.8267716535433071},{"number":64,"time":88.88854166666499,"value":0.937007874015748},{"number":64,"time":88.88958333333166,"value":0.937007874015748},{"number":64,"time":88.95624999999832,"value":1},{"number":64,"time":88.95729166666499,"value":1},{"number":64,"time":89.15624999999831,"value":0.8661417322834646},{"number":64,"time":89.15729166666497,"value":0.8661417322834646},{"number":64,"time":89.18124999999831,"value":0.7322834645669292},{"number":64,"time":89.18229166666498,"value":0.7322834645669292},{"number":64,"time":89.18854166666497,"value":0.6456692913385826},{"number":64,"time":89.18958333333164,"value":0.6456692913385826},{"number":64,"time":89.1968749999983,"value":0.6141732283464567},{"number":64,"time":89.19791666666497,"value":0.6141732283464567},{"number":64,"time":89.2124999999983,"value":0.5826771653543307},{"number":64,"time":89.21354166666497,"value":0.5826771653543307},{"number":64,"time":89.2562499999983,"value":0.6141732283464567},{"number":64,"time":89.25729166666497,"value":0.6141732283464567},{"number":64,"time":89.2687499999983,"value":0.6535433070866141},{"number":64,"time":89.26979166666497,"value":0.6535433070866141},{"number":64,"time":89.28020833333164,"value":0.7559055118110236},{"number":64,"time":89.28124999999831,"value":0.7559055118110236},{"number":64,"time":89.29270833333165,"value":0.8503937007874016},{"number":64,"time":89.29374999999831,"value":0.8503937007874016},{"number":64,"time":89.4281249999983,"value":1},{"number":64,"time":89.42916666666497,"value":1},{"number":64,"time":89.57291666666498,"value":0.8661417322834646},{"number":64,"time":89.57291666666498,"value":0.8661417322834646},{"number":64,"time":89.59270833333166,"value":0.7322834645669292},{"number":64,"time":89.59374999999832,"value":0.7322834645669292},{"number":64,"time":89.59999999999832,"value":0.6456692913385826},{"number":64,"time":89.60104166666498,"value":0.6456692913385826},{"number":64,"time":89.60833333333164,"value":0.6062992125984252},{"number":64,"time":89.60833333333164,"value":0.6062992125984252},{"number":64,"time":89.61666666666498,"value":0.5748031496062992},{"number":64,"time":89.61770833333165,"value":0.5748031496062992},{"number":64,"time":89.62395833333164,"value":0.5433070866141733},{"number":64,"time":89.62499999999831,"value":0.5433070866141733},{"number":64,"time":89.63645833333165,"value":0.5118110236220472},{"number":64,"time":89.63749999999831,"value":0.5118110236220472},{"number":64,"time":89.67291666666497,"value":0.5433070866141733},{"number":64,"time":89.67291666666497,"value":0.5433070866141733},{"number":64,"time":89.68437499999831,"value":0.5748031496062992},{"number":64,"time":89.68437499999831,"value":0.5748031496062992},{"number":64,"time":89.69687499999831,"value":0.6062992125984252},{"number":64,"time":89.69791666666498,"value":0.6062992125984252},{"number":64,"time":89.70416666666497,"value":0.6456692913385826},{"number":64,"time":89.70520833333164,"value":0.6456692913385826},{"number":64,"time":89.71666666666498,"value":0.7559055118110236},{"number":64,"time":89.71770833333164,"value":0.7559055118110236},{"number":64,"time":89.72812499999831,"value":0.8503937007874016},{"number":64,"time":89.72916666666498,"value":0.8503937007874016},{"number":64,"time":89.86145833333165,"value":1},{"number":64,"time":89.86145833333165,"value":1},{"number":64,"time":90.02812499999833,"value":0.8661417322834646},{"number":64,"time":90.02916666666499,"value":0.8661417322834646},{"number":64,"time":90.04895833333165,"value":0.7559055118110236},{"number":64,"time":90.04895833333165,"value":0.7559055118110236},{"number":64,"time":90.05624999999831,"value":0.6614173228346457},{"number":64,"time":90.05624999999831,"value":0.6614173228346457},{"number":64,"time":90.06874999999832,"value":0.6220472440944882},{"number":64,"time":90.06874999999832,"value":0.6220472440944882},{"number":64,"time":90.08437499999832,"value":0.5905511811023622},{"number":64,"time":90.08437499999832,"value":0.5905511811023622},{"number":64,"time":90.12499999999832,"value":0.6220472440944882},{"number":64,"time":90.12604166666499,"value":0.6220472440944882},{"number":64,"time":90.13749999999833,"value":0.6535433070866141},{"number":64,"time":90.13749999999833,"value":0.6535433070866141},{"number":64,"time":90.147916666665,"value":0.7559055118110236},{"number":64,"time":90.14895833333166,"value":0.7559055118110236},{"number":64,"time":90.160416666665,"value":0.8503937007874016},{"number":64,"time":90.16145833333167,"value":0.8503937007874016},{"number":64,"time":90.244791666665,"value":1},{"number":64,"time":90.244791666665,"value":1},{"number":64,"time":90.432291666665,"value":0.8661417322834646},{"number":64,"time":90.432291666665,"value":0.8661417322834646},{"number":64,"time":90.45208333333167,"value":0.7322834645669292},{"number":64,"time":90.45312499999834,"value":0.7322834645669292},{"number":64,"time":90.460416666665,"value":0.6456692913385826},{"number":64,"time":90.46145833333166,"value":0.6456692913385826},{"number":64,"time":90.46874999999832,"value":0.6062992125984252},{"number":64,"time":90.46979166666499,"value":0.6062992125984252},{"number":64,"time":90.47604166666498,"value":0.5748031496062992},{"number":64,"time":90.47708333333165,"value":0.5748031496062992},{"number":64,"time":90.48854166666499,"value":0.5433070866141733},{"number":64,"time":90.48958333333165,"value":0.5433070866141733},{"number":64,"time":90.54479166666499,"value":0.5748031496062992},{"number":64,"time":90.54583333333166,"value":0.5748031496062992},{"number":64,"time":90.55624999999833,"value":0.6062992125984252},{"number":64,"time":90.557291666665,"value":0.6062992125984252},{"number":64,"time":90.56874999999833,"value":0.6456692913385826},{"number":64,"time":90.569791666665,"value":0.6456692913385826},{"number":64,"time":90.58020833333167,"value":0.7559055118110236},{"number":64,"time":90.58124999999833,"value":0.7559055118110236},{"number":64,"time":90.59583333333167,"value":0.8503937007874016},{"number":64,"time":90.59687499999833,"value":0.8503937007874016},{"number":64,"time":90.69687499999833,"value":1},{"number":64,"time":90.697916666665,"value":1},{"number":64,"time":90.85937499999832,"value":0.8661417322834646},{"number":64,"time":90.86041666666499,"value":0.8661417322834646},{"number":64,"time":90.88333333333166,"value":0.7559055118110236},{"number":64,"time":90.88333333333166,"value":0.7559055118110236},{"number":64,"time":90.89270833333167,"value":0.6614173228346457},{"number":64,"time":90.89270833333167,"value":0.6614173228346457},{"number":64,"time":90.90312499999834,"value":0.6299212598425197},{"number":64,"time":90.904166666665,"value":0.6299212598425197},{"number":64,"time":90.91145833333167,"value":0.5984251968503937},{"number":64,"time":90.91249999999833,"value":0.5984251968503937},{"number":64,"time":90.97499999999833,"value":0.6299212598425197},{"number":64,"time":90.976041666665,"value":0.6299212598425197},{"number":64,"time":90.99583333333166,"value":0.7559055118110236},{"number":64,"time":90.99583333333166,"value":0.7559055118110236},{"number":64,"time":91.01562499999832,"value":0.8503937007874016},{"number":64,"time":91.01666666666499,"value":0.8503937007874016},{"number":64,"time":91.08333333333165,"value":1},{"number":64,"time":91.08437499999832,"value":1},{"number":64,"time":91.25104166666499,"value":0.8661417322834646},{"number":64,"time":91.25208333333165,"value":0.8661417322834646},{"number":64,"time":91.27499999999831,"value":0.7322834645669292},{"number":64,"time":91.27604166666498,"value":0.7322834645669292},{"number":64,"time":91.28333333333164,"value":0.6535433070866141},{"number":64,"time":91.2843749999983,"value":0.6535433070866141},{"number":64,"time":91.29270833333165,"value":0.6220472440944882},{"number":64,"time":91.29374999999831,"value":0.6220472440944882},{"number":64,"time":91.29895833333164,"value":0.5905511811023622},{"number":64,"time":91.2999999999983,"value":0.5905511811023622},{"number":64,"time":91.32083333333163,"value":0.5590551181102362},{"number":64,"time":91.32083333333163,"value":0.5590551181102362},{"number":64,"time":91.35104166666497,"value":0.5905511811023622},{"number":64,"time":91.35208333333163,"value":0.5905511811023622},{"number":64,"time":91.36354166666497,"value":0.6220472440944882},{"number":64,"time":91.36458333333164,"value":0.6220472440944882},{"number":64,"time":91.3718749999983,"value":0.6535433070866141},{"number":64,"time":91.37291666666496,"value":0.6535433070866141},{"number":64,"time":91.38333333333163,"value":0.7795275590551181},{"number":64,"time":91.38333333333163,"value":0.7795275590551181},{"number":64,"time":91.3999999999983,"value":0.889763779527559},{"number":64,"time":91.40104166666497,"value":0.889763779527559},{"number":64,"time":91.56458333333163,"value":1},{"number":64,"time":91.56562499999829,"value":1},{"number":64,"time":91.81145833333161,"value":0.8661417322834646},{"number":64,"time":91.81249999999828,"value":0.8661417322834646},{"number":64,"time":91.82708333333161,"value":0.7559055118110236},{"number":64,"time":91.82812499999828,"value":0.7559055118110236},{"number":64,"time":91.83541666666494,"value":0.6535433070866141},{"number":64,"time":91.8364583333316,"value":0.6535433070866141},{"number":64,"time":91.84374999999827,"value":0.6062992125984252},{"number":64,"time":91.84479166666493,"value":0.6062992125984252},{"number":64,"time":91.85104166666493,"value":0.5669291338582677},{"number":64,"time":91.85208333333159,"value":0.5669291338582677},{"number":64,"time":91.85937499999825,"value":0.5275590551181102},{"number":64,"time":91.86041666666492,"value":0.5275590551181102},{"number":64,"time":91.86770833333158,"value":0.4881889763779528},{"number":64,"time":91.86874999999824,"value":0.4881889763779528},{"number":64,"time":91.88333333333158,"value":0.4015748031496063},{"number":64,"time":91.88333333333158,"value":0.4015748031496063},{"number":64,"time":91.90729166666492,"value":0.47244094488188976},{"number":64,"time":91.90729166666492,"value":0.47244094488188976},{"number":64,"time":91.91562499999826,"value":0.5039370078740157},{"number":64,"time":91.91666666666492,"value":0.5039370078740157},{"number":64,"time":91.9270833333316,"value":0.5433070866141733},{"number":64,"time":91.92812499999826,"value":0.5433070866141733},{"number":64,"time":91.9395833333316,"value":0.5748031496062992},{"number":64,"time":91.94062499999826,"value":0.5748031496062992},{"number":64,"time":91.94687499999826,"value":0.6062992125984252},{"number":64,"time":91.94791666666492,"value":0.6062992125984252},{"number":64,"time":91.95520833333158,"value":0.6377952755905512},{"number":64,"time":91.95624999999825,"value":0.6377952755905512},{"number":64,"time":91.96770833333157,"value":0.7559055118110236},{"number":64,"time":91.96770833333157,"value":0.7559055118110236},{"number":64,"time":91.97916666666491,"value":0.8503937007874016},{"number":64,"time":91.97916666666491,"value":0.8503937007874016},{"number":64,"time":92.06770833333157,"value":1},{"number":64,"time":92.06874999999823,"value":1},{"number":64,"time":92.21562499999823,"value":0.8661417322834646},{"number":64,"time":92.21666666666489,"value":0.8661417322834646},{"number":64,"time":92.23541666666489,"value":0.7559055118110236},{"number":64,"time":92.23645833333156,"value":0.7559055118110236},{"number":64,"time":92.24374999999822,"value":0.6614173228346457},{"number":64,"time":92.24374999999822,"value":0.6614173228346457},{"number":64,"time":92.25208333333156,"value":0.6299212598425197},{"number":64,"time":92.25312499999822,"value":0.6299212598425197},{"number":64,"time":92.26354166666489,"value":0.5984251968503937},{"number":64,"time":92.26458333333156,"value":0.5984251968503937},{"number":64,"time":92.31145833333156,"value":0.6299212598425197},{"number":64,"time":92.31249999999822,"value":0.6299212598425197},{"number":64,"time":92.32708333333156,"value":0.7322834645669292},{"number":64,"time":92.32812499999822,"value":0.7322834645669292},{"number":64,"time":92.33958333333156,"value":0.8267716535433071},{"number":64,"time":92.34062499999823,"value":0.8267716535433071},{"number":64,"time":92.36354166666489,"value":0.937007874015748},{"number":64,"time":92.36354166666489,"value":0.937007874015748},{"number":64,"time":92.43124999999822,"value":1},{"number":64,"time":92.43124999999822,"value":1},{"number":64,"time":92.63958333333154,"value":0.8661417322834646},{"number":64,"time":92.64062499999821,"value":0.8661417322834646},{"number":64,"time":92.66354166666488,"value":0.7559055118110236},{"number":64,"time":92.66458333333155,"value":0.7559055118110236},{"number":64,"time":92.67499999999822,"value":0.6535433070866141},{"number":64,"time":92.67604166666489,"value":0.6535433070866141},{"number":64,"time":92.68749999999822,"value":0.6220472440944882},{"number":64,"time":92.68854166666489,"value":0.6220472440944882},{"number":64,"time":92.72708333333155,"value":0.6535433070866141},{"number":64,"time":92.72812499999822,"value":0.6535433070866141},{"number":64,"time":92.74374999999822,"value":0.7559055118110236},{"number":64,"time":92.74479166666488,"value":0.7559055118110236},{"number":64,"time":92.76354166666488,"value":0.8503937007874016},{"number":64,"time":92.76354166666488,"value":0.8503937007874016},{"number":64,"time":92.85937499999821,"value":1},{"number":64,"time":92.86041666666488,"value":1},{"number":64,"time":93.06770833333155,"value":0.8661417322834646},{"number":64,"time":93.06874999999822,"value":0.8661417322834646},{"number":64,"time":93.09166666666489,"value":0.7322834645669292},{"number":64,"time":93.09270833333156,"value":0.7322834645669292},{"number":64,"time":93.10312499999823,"value":0.6456692913385826},{"number":64,"time":93.1041666666649,"value":0.6456692913385826},{"number":64,"time":93.11874999999823,"value":0.6062992125984252},{"number":64,"time":93.1197916666649,"value":0.6062992125984252},{"number":64,"time":93.15937499999824,"value":0.6377952755905512},{"number":64,"time":93.1604166666649,"value":0.6377952755905512},{"number":64,"time":93.1791666666649,"value":0.7559055118110236},{"number":64,"time":93.1791666666649,"value":0.7559055118110236},{"number":64,"time":93.1947916666649,"value":0.8503937007874016},{"number":64,"time":93.19583333333156,"value":0.8503937007874016},{"number":64,"time":93.31874999999822,"value":1},{"number":64,"time":93.31979166666488,"value":1},{"number":64,"time":93.4979166666649,"value":0.8661417322834646},{"number":64,"time":93.49895833333157,"value":0.8661417322834646},{"number":64,"time":93.51770833333158,"value":0.7559055118110236},{"number":64,"time":93.51874999999825,"value":0.7559055118110236},{"number":64,"time":93.52604166666491,"value":0.6614173228346457},{"number":64,"time":93.52708333333157,"value":0.6614173228346457},{"number":64,"time":93.53541666666491,"value":0.6220472440944882},{"number":64,"time":93.53645833333158,"value":0.6220472440944882},{"number":64,"time":93.54270833333157,"value":0.5905511811023622},{"number":64,"time":93.54270833333157,"value":0.5905511811023622},{"number":64,"time":93.55937499999824,"value":0.5511811023622047},{"number":64,"time":93.5604166666649,"value":0.5511811023622047},{"number":64,"time":93.6072916666649,"value":0.5905511811023622},{"number":64,"time":93.60833333333157,"value":0.5905511811023622},{"number":64,"time":93.62187499999824,"value":0.6299212598425197},{"number":64,"time":93.6229166666649,"value":0.6299212598425197},{"number":64,"time":93.63437499999824,"value":0.7322834645669292},{"number":64,"time":93.63437499999824,"value":0.7322834645669292},{"number":64,"time":93.65104166666491,"value":0.8267716535433071},{"number":64,"time":93.65208333333157,"value":0.8267716535433071},{"number":64,"time":93.73020833333157,"value":0.937007874015748},{"number":64,"time":93.73124999999824,"value":0.937007874015748},{"number":64,"time":93.7666666666649,"value":1},{"number":64,"time":93.76770833333157,"value":1},{"number":64,"time":93.9260416666649,"value":0.8661417322834646},{"number":64,"time":93.92708333333157,"value":0.8661417322834646},{"number":64,"time":93.94687499999823,"value":0.7559055118110236},{"number":64,"time":93.9479166666649,"value":0.7559055118110236},{"number":64,"time":93.95416666666489,"value":0.6614173228346457},{"number":64,"time":93.95520833333156,"value":0.6614173228346457},{"number":64,"time":93.9635416666649,"value":0.6299212598425197},{"number":64,"time":93.9635416666649,"value":0.6299212598425197},{"number":64,"time":93.9760416666649,"value":0.5905511811023622},{"number":64,"time":93.97708333333156,"value":0.5905511811023622},{"number":64,"time":93.99062499999823,"value":0.5590551181102362},{"number":64,"time":93.99062499999823,"value":0.5590551181102362},{"number":64,"time":94.0260416666649,"value":0.5905511811023622},{"number":64,"time":94.02708333333156,"value":0.5905511811023622},{"number":64,"time":94.04374999999823,"value":0.6220472440944882},{"number":64,"time":94.04479166666489,"value":0.6220472440944882},{"number":64,"time":94.04999999999822,"value":0.6535433070866141},{"number":64,"time":94.05104166666489,"value":0.6535433070866141},{"number":64,"time":94.06249999999822,"value":0.7559055118110236},{"number":64,"time":94.06354166666489,"value":0.7559055118110236},{"number":64,"time":94.07812499999822,"value":0.8503937007874016},{"number":64,"time":94.07916666666489,"value":0.8503937007874016},{"number":64,"time":94.16666666666488,"value":1},{"number":64,"time":94.16666666666488,"value":1},{"number":64,"time":94.3385416666649,"value":0.8661417322834646},{"number":64,"time":94.33958333333156,"value":0.8661417322834646},{"number":64,"time":94.36249999999822,"value":0.7559055118110236},{"number":64,"time":94.36354166666489,"value":0.7559055118110236},{"number":64,"time":94.37395833333156,"value":0.6535433070866141},{"number":64,"time":94.37499999999822,"value":0.6535433070866141},{"number":64,"time":94.38645833333156,"value":0.6220472440944882},{"number":64,"time":94.38749999999823,"value":0.6220472440944882},{"number":64,"time":94.43437499999823,"value":0.6535433070866141},{"number":64,"time":94.43541666666489,"value":0.6535433070866141},{"number":64,"time":94.45416666666489,"value":0.7559055118110236},{"number":64,"time":94.45416666666489,"value":0.7559055118110236},{"number":64,"time":94.47499999999822,"value":0.8503937007874016},{"number":64,"time":94.47604166666488,"value":0.8503937007874016},{"number":64,"time":94.57083333333155,"value":1},{"number":64,"time":94.57083333333155,"value":1},{"number":64,"time":94.7541666666649,"value":0.8661417322834646},{"number":64,"time":94.7541666666649,"value":0.8661417322834646},{"number":64,"time":94.7791666666649,"value":0.7322834645669292},{"number":64,"time":94.7791666666649,"value":0.7322834645669292},{"number":64,"time":94.79062499999824,"value":0.6456692913385826},{"number":64,"time":94.79062499999824,"value":0.6456692913385826},{"number":64,"time":94.80416666666491,"value":0.6141732283464567},{"number":64,"time":94.80520833333158,"value":0.6141732283464567},{"number":64,"time":94.82187499999824,"value":0.5826771653543307},{"number":64,"time":94.82291666666491,"value":0.5826771653543307},{"number":64,"time":94.84999999999823,"value":0.6220472440944882},{"number":64,"time":94.8510416666649,"value":0.6220472440944882},{"number":64,"time":94.87395833333156,"value":0.7322834645669292},{"number":64,"time":94.87499999999822,"value":0.7322834645669292},{"number":64,"time":94.89062499999822,"value":0.8267716535433071},{"number":64,"time":94.89166666666489,"value":0.8267716535433071},{"number":64,"time":94.91458333333155,"value":0.937007874015748},{"number":64,"time":94.91562499999822,"value":0.937007874015748},{"number":64,"time":95.04999999999822,"value":1},{"number":64,"time":95.04999999999822,"value":1},{"number":64,"time":95.29479166666488,"value":0.8661417322834646},{"number":64,"time":95.29479166666488,"value":0.8661417322834646},{"number":64,"time":95.30624999999822,"value":0.7559055118110236},{"number":64,"time":95.30624999999822,"value":0.7559055118110236},{"number":64,"time":95.31458333333156,"value":0.6456692913385826},{"number":64,"time":95.31458333333156,"value":0.6456692913385826},{"number":64,"time":95.32187499999822,"value":0.5984251968503937},{"number":64,"time":95.32291666666488,"value":0.5984251968503937},{"number":64,"time":95.33020833333154,"value":0.5590551181102362},{"number":64,"time":95.33020833333154,"value":0.5590551181102362},{"number":64,"time":95.33854166666488,"value":0.5039370078740157},{"number":64,"time":95.33854166666488,"value":0.5039370078740157},{"number":64,"time":95.34999999999822,"value":0.4015748031496063},{"number":64,"time":95.35104166666488,"value":0.4015748031496063},{"number":64,"time":95.41041666666487,"value":0.47244094488188976},{"number":64,"time":95.41145833333154,"value":0.47244094488188976},{"number":64,"time":95.41770833333153,"value":0.5118110236220472},{"number":64,"time":95.4187499999982,"value":0.5118110236220472},{"number":64,"time":95.42604166666486,"value":0.5433070866141733},{"number":64,"time":95.42708333333152,"value":0.5433070866141733},{"number":64,"time":95.43437499999818,"value":0.5748031496062992},{"number":64,"time":95.43541666666485,"value":0.5748031496062992},{"number":64,"time":95.44583333333152,"value":0.6141732283464567},{"number":64,"time":95.44687499999819,"value":0.6141732283464567},{"number":64,"time":95.45416666666485,"value":0.6535433070866141},{"number":64,"time":95.45416666666485,"value":0.6535433070866141},{"number":64,"time":95.46249999999819,"value":0.7559055118110236},{"number":64,"time":95.46354166666485,"value":0.7559055118110236},{"number":64,"time":95.47395833333152,"value":0.8661417322834646},{"number":64,"time":95.47499999999819,"value":0.8661417322834646},{"number":64,"time":95.59791666666486,"value":1},{"number":64,"time":95.59895833333152,"value":1},{"number":64,"time":95.75416666666486,"value":0.8661417322834646},{"number":64,"time":95.75520833333152,"value":0.8661417322834646},{"number":64,"time":95.77395833333154,"value":0.7559055118110236},{"number":64,"time":95.7749999999982,"value":0.7559055118110236},{"number":64,"time":95.78229166666486,"value":0.6614173228346457},{"number":64,"time":95.78333333333153,"value":0.6614173228346457},{"number":64,"time":95.79166666666487,"value":0.6299212598425197},{"number":64,"time":95.79166666666487,"value":0.6299212598425197},{"number":64,"time":95.79791666666486,"value":0.5984251968503937},{"number":64,"time":95.79895833333153,"value":0.5984251968503937},{"number":64,"time":95.81458333333153,"value":0.5669291338582677},{"number":64,"time":95.81562499999819,"value":0.5669291338582677},{"number":64,"time":95.84999999999819,"value":0.5984251968503937},{"number":64,"time":95.85104166666486,"value":0.5984251968503937},{"number":64,"time":95.86249999999819,"value":0.6299212598425197},{"number":64,"time":95.86354166666486,"value":0.6299212598425197},{"number":64,"time":95.87812499999819,"value":0.7559055118110236},{"number":64,"time":95.87916666666486,"value":0.7559055118110236},{"number":64,"time":95.8906249999982,"value":0.8503937007874016},{"number":64,"time":95.8906249999982,"value":0.8503937007874016},{"number":64,"time":95.97812499999819,"value":1},{"number":64,"time":95.97916666666485,"value":1},{"number":64,"time":96.13749999999818,"value":0.8661417322834646},{"number":64,"time":96.13749999999818,"value":0.8661417322834646},{"number":64,"time":96.15729166666485,"value":0.7322834645669292},{"number":64,"time":96.15833333333151,"value":0.7322834645669292},{"number":64,"time":96.1645833333315,"value":0.6456692913385826},{"number":64,"time":96.16666666666484,"value":0.6456692913385826},{"number":64,"time":96.17291666666483,"value":0.6141732283464567},{"number":64,"time":96.1739583333315,"value":0.6141732283464567},{"number":64,"time":96.18645833333149,"value":0.5748031496062992},{"number":64,"time":96.18749999999815,"value":0.5748031496062992},{"number":64,"time":96.21666666666482,"value":0.5433070866141733},{"number":64,"time":96.21770833333149,"value":0.5433070866141733},{"number":64,"time":96.23749999999815,"value":0.5748031496062992},{"number":64,"time":96.23854166666482,"value":0.5748031496062992},{"number":64,"time":96.24895833333149,"value":0.6062992125984252},{"number":64,"time":96.24999999999815,"value":0.6062992125984252},{"number":64,"time":96.26145833333149,"value":0.6456692913385826},{"number":64,"time":96.26249999999816,"value":0.6456692913385826},{"number":64,"time":96.27291666666483,"value":0.7559055118110236},{"number":64,"time":96.27395833333149,"value":0.7559055118110236},{"number":64,"time":96.29062499999816,"value":0.8503937007874016},{"number":64,"time":96.29166666666482,"value":0.8503937007874016},{"number":64,"time":96.44166666666482,"value":1},{"number":64,"time":96.44166666666482,"value":1},{"number":64,"time":96.61666666666481,"value":0.8661417322834646},{"number":64,"time":96.61770833333148,"value":0.8661417322834646},{"number":64,"time":96.63541666666481,"value":0.7559055118110236},{"number":64,"time":96.63645833333148,"value":0.7559055118110236},{"number":64,"time":96.64062499999814,"value":0.6614173228346457},{"number":64,"time":96.64270833333147,"value":0.6614173228346457},{"number":64,"time":96.64895833333146,"value":0.6141732283464567},{"number":64,"time":96.64999999999813,"value":0.6141732283464567},{"number":64,"time":96.66145833333147,"value":0.5748031496062992},{"number":64,"time":96.66249999999813,"value":0.5748031496062992},{"number":64,"time":96.67395833333147,"value":0.5433070866141733},{"number":64,"time":96.67499999999814,"value":0.5433070866141733},{"number":64,"time":96.6854166666648,"value":0.5118110236220472},{"number":64,"time":96.68645833333147,"value":0.5118110236220472},{"number":64,"time":96.71770833333147,"value":0.5433070866141733},{"number":64,"time":96.71874999999814,"value":0.5433070866141733},{"number":64,"time":96.73020833333148,"value":0.5748031496062992},{"number":64,"time":96.73124999999814,"value":0.5748031496062992},{"number":64,"time":96.74166666666481,"value":0.6062992125984252},{"number":64,"time":96.74270833333148,"value":0.6062992125984252},{"number":64,"time":96.75312499999815,"value":0.6535433070866141},{"number":64,"time":96.75416666666482,"value":0.6535433070866141},{"number":64,"time":96.76458333333149,"value":0.7795275590551181},{"number":64,"time":96.76666666666482,"value":0.7795275590551181},{"number":64,"time":96.78541666666482,"value":0.889763779527559},{"number":64,"time":96.78645833333148,"value":0.889763779527559},{"number":64,"time":96.88541666666481,"value":1},{"number":64,"time":96.88645833333148,"value":1},{"number":64,"time":97.07291666666482,"value":0.8661417322834646},{"number":64,"time":97.07395833333149,"value":0.8661417322834646},{"number":64,"time":97.09687499999815,"value":0.7322834645669292},{"number":64,"time":97.09791666666482,"value":0.7322834645669292},{"number":64,"time":97.10937499999815,"value":0.6456692913385826},{"number":64,"time":97.11041666666482,"value":0.6456692913385826},{"number":64,"time":97.11666666666481,"value":0.6141732283464567},{"number":64,"time":97.11770833333148,"value":0.6141732283464567},{"number":64,"time":97.17916666666481,"value":0.6456692913385826},{"number":64,"time":97.18020833333148,"value":0.6456692913385826},{"number":64,"time":97.19270833333148,"value":0.7795275590551181},{"number":64,"time":97.19374999999815,"value":0.7795275590551181},{"number":64,"time":97.21354166666481,"value":0.889763779527559},{"number":64,"time":97.21458333333148,"value":0.889763779527559},{"number":64,"time":97.30937499999814,"value":1},{"number":64,"time":97.3104166666648,"value":1},{"number":64,"time":97.49791666666482,"value":0.8661417322834646},{"number":64,"time":97.49895833333149,"value":0.8661417322834646},{"number":64,"time":97.51666666666482,"value":0.7559055118110236},{"number":64,"time":97.51770833333148,"value":0.7559055118110236},{"number":64,"time":97.52499999999814,"value":0.6614173228346457},{"number":64,"time":97.52499999999814,"value":0.6614173228346457},{"number":64,"time":97.53437499999815,"value":0.6299212598425197},{"number":64,"time":97.53541666666482,"value":0.6299212598425197},{"number":64,"time":97.54479166666482,"value":0.5905511811023622},{"number":64,"time":97.54583333333149,"value":0.5905511811023622},{"number":64,"time":97.60520833333149,"value":0.6220472440944882},{"number":64,"time":97.60520833333149,"value":0.6220472440944882},{"number":64,"time":97.61354166666483,"value":0.6535433070866141},{"number":64,"time":97.61354166666483,"value":0.6535433070866141},{"number":64,"time":97.62499999999815,"value":0.7795275590551181},{"number":64,"time":97.62499999999815,"value":0.7795275590551181},{"number":64,"time":97.64166666666482,"value":0.889763779527559},{"number":64,"time":97.64166666666482,"value":0.889763779527559},{"number":64,"time":97.71354166666481,"value":1},{"number":64,"time":97.71458333333148,"value":1},{"number":64,"time":97.90520833333149,"value":0.8661417322834646},{"number":64,"time":97.90624999999815,"value":0.8661417322834646},{"number":64,"time":97.92499999999815,"value":0.7559055118110236},{"number":64,"time":97.92604166666482,"value":0.7559055118110236},{"number":64,"time":97.93333333333148,"value":0.6614173228346457},{"number":64,"time":97.93437499999814,"value":0.6614173228346457},{"number":64,"time":97.9416666666648,"value":0.6299212598425197},{"number":64,"time":97.94270833333147,"value":0.6299212598425197},{"number":64,"time":97.94895833333146,"value":0.5984251968503937},{"number":64,"time":97.94895833333146,"value":0.5984251968503937},{"number":64,"time":97.96562499999813,"value":0.5669291338582677},{"number":64,"time":97.96666666666479,"value":0.5669291338582677},{"number":64,"time":98.00104166666479,"value":0.5984251968503937},{"number":64,"time":98.00104166666479,"value":0.5984251968503937},{"number":64,"time":98.01354166666479,"value":0.6299212598425197},{"number":64,"time":98.01354166666479,"value":0.6299212598425197},{"number":64,"time":98.02916666666479,"value":0.7559055118110236},{"number":64,"time":98.02916666666479,"value":0.7559055118110236},{"number":64,"time":98.0416666666648,"value":0.8503937007874016},{"number":64,"time":98.0416666666648,"value":0.8503937007874016},{"number":64,"time":98.15312499999813,"value":1},{"number":64,"time":98.15416666666479,"value":1},{"number":64,"time":98.32083333333146,"value":0.8661417322834646},{"number":64,"time":98.32187499999813,"value":0.8661417322834646},{"number":64,"time":98.34062499999813,"value":0.7559055118110236},{"number":64,"time":98.34062499999813,"value":0.7559055118110236},{"number":64,"time":98.34895833333145,"value":0.6614173228346457},{"number":64,"time":98.34895833333145,"value":0.6614173228346457},{"number":64,"time":98.35729166666479,"value":0.6299212598425197},{"number":64,"time":98.35833333333146,"value":0.6299212598425197},{"number":64,"time":98.36874999999813,"value":0.5984251968503937},{"number":64,"time":98.3697916666648,"value":0.5984251968503937},{"number":64,"time":98.40937499999814,"value":0.6299212598425197},{"number":64,"time":98.4104166666648,"value":0.6299212598425197},{"number":64,"time":98.4291666666648,"value":0.7559055118110236},{"number":64,"time":98.4291666666648,"value":0.7559055118110236},{"number":64,"time":98.4416666666648,"value":0.8503937007874016},{"number":64,"time":98.4416666666648,"value":0.8503937007874016},{"number":64,"time":98.50833333333146,"value":1},{"number":64,"time":98.50937499999813,"value":1},{"number":64,"time":98.82916666666479,"value":0.8503937007874016},{"number":64,"time":98.83020833333146,"value":0.8503937007874016},{"number":64,"time":98.84062499999813,"value":0.7086614173228346},{"number":64,"time":98.84166666666479,"value":0.7086614173228346},{"number":64,"time":98.84374999999812,"value":0.6456692913385826},{"number":64,"time":98.84479166666479,"value":0.6456692913385826},{"number":64,"time":98.84895833333145,"value":0.6141732283464567},{"number":64,"time":98.84895833333145,"value":0.6141732283464567},{"number":64,"time":98.85624999999811,"value":0.5590551181102362},{"number":64,"time":98.85729166666478,"value":0.5590551181102362},{"number":64,"time":98.86041666666478,"value":0.5275590551181102},{"number":64,"time":98.86145833333144,"value":0.5275590551181102},{"number":64,"time":98.86354166666477,"value":0.4881889763779528},{"number":64,"time":98.86458333333144,"value":0.4881889763779528},{"number":64,"time":98.8718749999981,"value":0.3543307086614173},{"number":64,"time":98.87291666666476,"value":0.3543307086614173},{"number":64,"time":98.88020833333142,"value":0.2047244094488189},{"number":64,"time":98.88124999999809,"value":0.2047244094488189},{"number":64,"time":98.88854166666475,"value":0.10236220472440945},{"number":64,"time":98.88854166666475,"value":0.10236220472440945},{"number":64,"time":98.90937499999808,"value":0},{"number":64,"time":98.91041666666474,"value":0},{"number":64,"time":98.94374999999808,"value":0.10236220472440945},{"number":64,"time":98.94479166666474,"value":0.10236220472440945},{"number":64,"time":98.9520833333314,"value":0.2283464566929134},{"number":64,"time":98.95312499999807,"value":0.2283464566929134},{"number":64,"time":98.96041666666473,"value":0.3543307086614173},{"number":64,"time":98.96041666666473,"value":0.3543307086614173},{"number":64,"time":98.96770833333139,"value":0.48031496062992124},{"number":64,"time":98.96874999999805,"value":0.48031496062992124},{"number":64,"time":98.97187499999805,"value":0.5118110236220472},{"number":64,"time":98.97291666666472,"value":0.5118110236220472},{"number":64,"time":98.97916666666471,"value":0.5511811023622047},{"number":64,"time":98.98020833333138,"value":0.5511811023622047},{"number":64,"time":98.98854166666472,"value":0.5826771653543307},{"number":64,"time":98.98958333333138,"value":0.5826771653543307},{"number":64,"time":98.99895833333139,"value":0.6141732283464567},{"number":64,"time":98.99999999999805,"value":0.6141732283464567},{"number":64,"time":99.0083333333314,"value":0.6456692913385826},{"number":64,"time":99.00937499999806,"value":0.6456692913385826},{"number":64,"time":99.01874999999806,"value":0.7559055118110236},{"number":64,"time":99.01979166666473,"value":0.7559055118110236},{"number":64,"time":99.0427083333314,"value":0.8503937007874016},{"number":64,"time":99.04374999999807,"value":0.8503937007874016},{"number":64,"time":99.11979166666474,"value":1},{"number":64,"time":99.1208333333314,"value":1},{"number":64,"time":99.23645833333138,"value":0.8661417322834646},{"number":64,"time":99.23749999999805,"value":0.8661417322834646},{"number":64,"time":99.25729166666471,"value":0.7322834645669292},{"number":64,"time":99.25833333333138,"value":0.7322834645669292},{"number":64,"time":99.26458333333137,"value":0.6535433070866141},{"number":64,"time":99.26562499999804,"value":0.6535433070866141},{"number":64,"time":99.27187499999803,"value":0.6141732283464567},{"number":64,"time":99.2729166666647,"value":0.6141732283464567},{"number":64,"time":99.28749999999803,"value":0.5826771653543307},{"number":64,"time":99.2885416666647,"value":0.5826771653543307},{"number":64,"time":99.33124999999804,"value":0.6141732283464567},{"number":64,"time":99.3322916666647,"value":0.6141732283464567},{"number":64,"time":99.34062499999804,"value":0.6456692913385826},{"number":64,"time":99.34166666666471,"value":0.6456692913385826},{"number":64,"time":99.35624999999804,"value":0.7795275590551181},{"number":64,"time":99.35729166666471,"value":0.7795275590551181},{"number":64,"time":99.37708333333137,"value":0.889763779527559},{"number":64,"time":99.37708333333137,"value":0.889763779527559},{"number":64,"time":99.45520833333136,"value":1},{"number":64,"time":99.45624999999802,"value":1},{"number":64,"time":99.63958333333134,"value":0.8661417322834646},{"number":64,"time":99.63958333333134,"value":0.8661417322834646},{"number":64,"time":99.65937499999802,"value":0.7559055118110236},{"number":64,"time":99.65937499999802,"value":0.7559055118110236},{"number":64,"time":99.66666666666468,"value":0.6614173228346457},{"number":64,"time":99.66770833333135,"value":0.6614173228346457},{"number":64,"time":99.67604166666469,"value":0.6220472440944882},{"number":64,"time":99.67708333333135,"value":0.6220472440944882},{"number":64,"time":99.68645833333136,"value":0.5826771653543307},{"number":64,"time":99.68749999999802,"value":0.5826771653543307},{"number":64,"time":99.73958333333135,"value":0.6141732283464567},{"number":64,"time":99.73958333333135,"value":0.6141732283464567},{"number":64,"time":99.74687499999801,"value":0.6456692913385826},{"number":64,"time":99.74791666666468,"value":0.6456692913385826},{"number":64,"time":99.76249999999801,"value":0.7795275590551181},{"number":64,"time":99.76354166666468,"value":0.7795275590551181},{"number":64,"time":99.78749999999802,"value":0.9133858267716536},{"number":64,"time":99.78749999999802,"value":0.9133858267716536},{"number":64,"time":99.91145833333135,"value":1},{"number":64,"time":99.91145833333135,"value":1},{"number":64,"time":100.07499999999801,"value":0.8661417322834646},{"number":64,"time":100.07499999999801,"value":0.8661417322834646},{"number":64,"time":100.09687499999801,"value":0.7559055118110236},{"number":64,"time":100.09791666666467,"value":0.7559055118110236},{"number":64,"time":100.10729166666468,"value":0.6535433070866141},{"number":64,"time":100.10833333333134,"value":0.6535433070866141},{"number":64,"time":100.11458333333134,"value":0.6220472440944882},{"number":64,"time":100.115624999998,"value":0.6220472440944882},{"number":64,"time":100.17916666666467,"value":0.7322834645669292},{"number":64,"time":100.18020833333134,"value":0.7322834645669292},{"number":64,"time":100.19479166666467,"value":0.8267716535433071},{"number":64,"time":100.19583333333134,"value":0.8267716535433071},{"number":64,"time":100.274999999998,"value":0.937007874015748},{"number":64,"time":100.27604166666467,"value":0.937007874015748},{"number":64,"time":100.37916666666467,"value":1},{"number":64,"time":100.38020833333134,"value":1},{"number":64,"time":100.55104166666467,"value":0.8661417322834646},{"number":64,"time":100.55208333333134,"value":0.8661417322834646},{"number":64,"time":100.57083333333134,"value":0.7322834645669292},{"number":64,"time":100.571874999998,"value":0.7322834645669292},{"number":64,"time":100.57916666666466,"value":0.6456692913385826},{"number":64,"time":100.58020833333133,"value":0.6456692913385826},{"number":64,"time":100.58645833333132,"value":0.6141732283464567},{"number":64,"time":100.58749999999799,"value":0.6141732283464567},{"number":64,"time":100.61458333333132,"value":0.5826771653543307},{"number":64,"time":100.61562499999799,"value":0.5826771653543307},{"number":64,"time":100.63541666666465,"value":0.6141732283464567},{"number":64,"time":100.63541666666465,"value":0.6141732283464567},{"number":64,"time":100.64687499999799,"value":0.6456692913385826},{"number":64,"time":100.64791666666466,"value":0.6456692913385826},{"number":64,"time":100.66249999999799,"value":0.7795275590551181},{"number":64,"time":100.66354166666466,"value":0.7795275590551181},{"number":64,"time":100.68645833333133,"value":0.889763779527559},{"number":64,"time":100.687499999998,"value":0.889763779527559},{"number":64,"time":100.77916666666466,"value":1},{"number":64,"time":100.78020833333133,"value":1},{"number":64,"time":100.95104166666466,"value":0.8661417322834646},{"number":64,"time":100.95208333333133,"value":0.8661417322834646},{"number":64,"time":100.97499999999799,"value":0.7559055118110236},{"number":64,"time":100.97604166666466,"value":0.7559055118110236},{"number":64,"time":100.987499999998,"value":0.6535433070866141},{"number":64,"time":100.987499999998,"value":0.6535433070866141},{"number":64,"time":100.99895833333133,"value":0.6220472440944882},{"number":64,"time":100.999999999998,"value":0.6220472440944882},{"number":64,"time":101.04270833333133,"value":0.6535433070866141},{"number":64,"time":101.043749999998,"value":0.6535433070866141},{"number":64,"time":101.05520833333134,"value":0.7559055118110236},{"number":64,"time":101.056249999998,"value":0.7559055118110236},{"number":64,"time":101.07083333333134,"value":0.8503937007874016},{"number":64,"time":101.071874999998,"value":0.8503937007874016},{"number":64,"time":101.24270833333134,"value":1},{"number":64,"time":101.243749999998,"value":1},{"number":64,"time":101.41354166666467,"value":0.8661417322834646},{"number":64,"time":101.41458333333134,"value":0.8661417322834646},{"number":64,"time":101.43541666666466,"value":0.7559055118110236},{"number":64,"time":101.43645833333133,"value":0.7559055118110236},{"number":64,"time":101.44270833333132,"value":0.6614173228346457},{"number":64,"time":101.44374999999799,"value":0.6614173228346457},{"number":64,"time":101.45104166666465,"value":0.6299212598425197},{"number":64,"time":101.45208333333132,"value":0.6299212598425197},{"number":64,"time":101.46249999999799,"value":0.5984251968503937},{"number":64,"time":101.46354166666465,"value":0.5984251968503937},{"number":64,"time":101.52187499999799,"value":0.6299212598425197},{"number":64,"time":101.52291666666466,"value":0.6299212598425197},{"number":64,"time":101.53749999999799,"value":0.7322834645669292},{"number":64,"time":101.53854166666466,"value":0.7322834645669292},{"number":64,"time":101.549999999998,"value":0.8267716535433071},{"number":64,"time":101.55104166666466,"value":0.8267716535433071},{"number":64,"time":101.56979166666467,"value":0.937007874015748},{"number":64,"time":101.57083333333134,"value":0.937007874015748},{"number":64,"time":101.65104166666467,"value":1},{"number":64,"time":101.65104166666467,"value":1},{"number":64,"time":102.49270833333135,"value":0.8503937007874016},{"number":64,"time":102.49374999999802,"value":0.8503937007874016},{"number":64,"time":102.50208333333134,"value":0.7322834645669292},{"number":64,"time":102.50312499999801,"value":0.7322834645669292},{"number":64,"time":102.51145833333135,"value":0.6377952755905512},{"number":64,"time":102.51145833333135,"value":0.6377952755905512},{"number":64,"time":102.51354166666468,"value":0.6062992125984252},{"number":64,"time":102.51458333333134,"value":0.6062992125984252},{"number":64,"time":102.521874999998,"value":0.5590551181102362},{"number":64,"time":102.52291666666467,"value":0.5590551181102362},{"number":64,"time":102.53020833333133,"value":0.5039370078740157},{"number":64,"time":102.531249999998,"value":0.5039370078740157},{"number":64,"time":102.534374999998,"value":0.47244094488188976},{"number":64,"time":102.534374999998,"value":0.47244094488188976},{"number":64,"time":102.54166666666465,"value":0.33070866141732286},{"number":64,"time":102.54270833333132,"value":0.33070866141732286},{"number":64,"time":102.61354166666466,"value":0.47244094488188976},{"number":64,"time":102.61458333333132,"value":0.47244094488188976},{"number":64,"time":102.62187499999798,"value":0.5118110236220472},{"number":64,"time":102.62291666666465,"value":0.5118110236220472},{"number":64,"time":102.63020833333131,"value":0.5433070866141733},{"number":64,"time":102.63124999999798,"value":0.5433070866141733},{"number":64,"time":102.64166666666465,"value":0.5748031496062992},{"number":64,"time":102.64270833333131,"value":0.5748031496062992},{"number":64,"time":102.65416666666465,"value":0.6062992125984252},{"number":64,"time":102.65520833333132,"value":0.6062992125984252},{"number":64,"time":102.66145833333131,"value":0.6456692913385826},{"number":64,"time":102.66354166666464,"value":0.6456692913385826},{"number":64,"time":102.67604166666464,"value":0.7559055118110236},{"number":64,"time":102.67708333333131,"value":0.7559055118110236},{"number":64,"time":102.68958333333131,"value":0.8503937007874016},{"number":64,"time":102.69062499999798,"value":0.8503937007874016},{"number":64,"time":103.03333333333131,"value":1},{"number":64,"time":103.03437499999798,"value":1},{"number":64,"time":103.16562499999797,"value":0.8661417322834646},{"number":64,"time":103.16666666666464,"value":0.8661417322834646},{"number":64,"time":103.1895833333313,"value":0.7322834645669292},{"number":64,"time":103.19062499999797,"value":0.7322834645669292},{"number":64,"time":103.2020833333313,"value":0.6535433070866141},{"number":64,"time":103.20312499999797,"value":0.6535433070866141},{"number":64,"time":103.21354166666464,"value":0.6220472440944882},{"number":64,"time":103.2145833333313,"value":0.6220472440944882},{"number":64,"time":103.24999999999797,"value":0.6535433070866141},{"number":64,"time":103.25104166666463,"value":0.6535433070866141},{"number":64,"time":103.26979166666463,"value":0.7559055118110236},{"number":64,"time":103.26979166666463,"value":0.7559055118110236},{"number":64,"time":103.2864583333313,"value":0.8503937007874016},{"number":64,"time":103.28749999999796,"value":0.8503937007874016},{"number":64,"time":103.4020833333313,"value":1},{"number":64,"time":103.40312499999797,"value":1},{"number":64,"time":103.50624999999798,"value":0.8661417322834646},{"number":64,"time":103.50624999999798,"value":0.8661417322834646},{"number":64,"time":103.70624999999798,"value":1},{"number":64,"time":103.70729166666464,"value":1},{"number":64,"time":103.93020833333131,"value":0.8661417322834646},{"number":64,"time":103.93124999999797,"value":0.8661417322834646},{"number":64,"time":103.96874999999797,"value":0.7559055118110236},{"number":64,"time":103.96979166666463,"value":0.7559055118110236},{"number":64,"time":104.01354166666464,"value":0.8503937007874016},{"number":64,"time":104.0145833333313,"value":0.8503937007874016},{"number":64,"time":104.15312499999797,"value":1},{"number":64,"time":104.15416666666464,"value":1},{"number":64,"time":104.38124999999796,"value":0.8661417322834646},{"number":64,"time":104.38229166666463,"value":0.8661417322834646},{"number":64,"time":104.40520833333129,"value":0.7559055118110236},{"number":64,"time":104.40520833333129,"value":0.7559055118110236},{"number":64,"time":104.41666666666463,"value":0.6535433070866141},{"number":64,"time":104.41770833333129,"value":0.6535433070866141},{"number":64,"time":104.4302083333313,"value":0.6220472440944882},{"number":64,"time":104.4302083333313,"value":0.6220472440944882},{"number":64,"time":104.48854166666463,"value":0.6535433070866141},{"number":64,"time":104.4895833333313,"value":0.6535433070866141},{"number":64,"time":104.50104166666463,"value":0.7559055118110236},{"number":64,"time":104.5020833333313,"value":0.7559055118110236},{"number":64,"time":104.51666666666463,"value":0.8503937007874016},{"number":64,"time":104.5177083333313,"value":0.8503937007874016},{"number":64,"time":104.6614583333313,"value":1},{"number":64,"time":104.66249999999796,"value":1},{"number":64,"time":104.8208333333313,"value":0.8661417322834646},{"number":64,"time":104.82187499999796,"value":0.8661417322834646},{"number":64,"time":104.84062499999796,"value":0.7559055118110236},{"number":64,"time":104.84166666666462,"value":0.7559055118110236},{"number":64,"time":104.84895833333128,"value":0.6614173228346457},{"number":64,"time":104.84999999999795,"value":0.6614173228346457},{"number":64,"time":104.85729166666461,"value":0.6299212598425197},{"number":64,"time":104.85833333333127,"value":0.6299212598425197},{"number":64,"time":104.86874999999795,"value":0.5905511811023622},{"number":64,"time":104.86979166666461,"value":0.5905511811023622},{"number":64,"time":104.92499999999794,"value":0.6220472440944882},{"number":64,"time":104.9260416666646,"value":0.6220472440944882},{"number":64,"time":104.9447916666646,"value":0.7559055118110236},{"number":64,"time":104.9447916666646,"value":0.7559055118110236},{"number":64,"time":104.96145833333127,"value":0.8503937007874016},{"number":64,"time":104.96249999999793,"value":0.8503937007874016},{"number":64,"time":105.11249999999794,"value":1},{"number":64,"time":105.1135416666646,"value":1},{"number":64,"time":105.28124999999793,"value":0.8661417322834646},{"number":64,"time":105.28124999999793,"value":0.8661417322834646},{"number":64,"time":105.30520833333127,"value":0.7322834645669292},{"number":64,"time":105.30624999999793,"value":0.7322834645669292},{"number":64,"time":105.3166666666646,"value":0.6456692913385826},{"number":64,"time":105.31770833333127,"value":0.6456692913385826},{"number":64,"time":105.33645833333127,"value":0.6141732283464567},{"number":64,"time":105.33749999999793,"value":0.6141732283464567},{"number":64,"time":105.37708333333126,"value":0.6456692913385826},{"number":64,"time":105.37812499999792,"value":0.6456692913385826},{"number":64,"time":105.40104166666458,"value":0.7559055118110236},{"number":64,"time":105.40208333333125,"value":0.7559055118110236},{"number":64,"time":105.45624999999791,"value":0.8503937007874016},{"number":64,"time":105.45729166666457,"value":0.8503937007874016},{"number":64,"time":105.57708333333125,"value":1},{"number":64,"time":105.57812499999791,"value":1},{"number":64,"time":105.70833333333124,"value":0.8661417322834646},{"number":64,"time":105.7093749999979,"value":0.8661417322834646},{"number":64,"time":105.73333333333125,"value":0.7559055118110236},{"number":64,"time":105.73333333333125,"value":0.7559055118110236},{"number":64,"time":105.74479166666458,"value":0.6535433070866141},{"number":64,"time":105.74479166666458,"value":0.6535433070866141},{"number":64,"time":105.75729166666459,"value":0.6141732283464567},{"number":64,"time":105.75833333333125,"value":0.6141732283464567},{"number":64,"time":105.77708333333125,"value":0.5826771653543307},{"number":64,"time":105.77812499999791,"value":0.5826771653543307},{"number":64,"time":105.81249999999793,"value":0.6220472440944882},{"number":64,"time":105.81354166666459,"value":0.6220472440944882},{"number":64,"time":105.83645833333125,"value":0.7322834645669292},{"number":64,"time":105.83749999999792,"value":0.7322834645669292},{"number":64,"time":105.85312499999792,"value":0.8503937007874016},{"number":64,"time":105.85312499999792,"value":0.8503937007874016},{"number":64,"time":105.94479166666459,"value":1},{"number":64,"time":105.94583333333125,"value":1},{"number":64,"time":106.28437499999792,"value":0.8661417322834646},{"number":64,"time":106.28541666666459,"value":0.8661417322834646},{"number":64,"time":106.30104166666459,"value":0.7559055118110236},{"number":64,"time":106.30208333333125,"value":0.7559055118110236},{"number":64,"time":106.30937499999791,"value":0.6535433070866141},{"number":64,"time":106.30937499999791,"value":0.6535433070866141},{"number":64,"time":106.31354166666458,"value":0.6220472440944882},{"number":64,"time":106.31458333333124,"value":0.6220472440944882},{"number":64,"time":106.32083333333124,"value":0.5826771653543307},{"number":64,"time":106.3218749999979,"value":0.5826771653543307},{"number":64,"time":106.32916666666456,"value":0.5433070866141733},{"number":64,"time":106.33020833333123,"value":0.5433070866141733},{"number":64,"time":106.33229166666456,"value":0.5118110236220472},{"number":64,"time":106.33333333333123,"value":0.5118110236220472},{"number":64,"time":106.34062499999789,"value":0.47244094488188976},{"number":64,"time":106.34166666666455,"value":0.47244094488188976},{"number":64,"time":106.39687499999789,"value":0.5039370078740157},{"number":64,"time":106.39687499999789,"value":0.5039370078740157},{"number":64,"time":106.4093749999979,"value":0.5354330708661418},{"number":64,"time":106.41041666666456,"value":0.5354330708661418},{"number":64,"time":106.42083333333123,"value":0.5669291338582677},{"number":64,"time":106.4218749999979,"value":0.5669291338582677},{"number":64,"time":106.43229166666457,"value":0.5984251968503937},{"number":64,"time":106.43333333333123,"value":0.5984251968503937},{"number":64,"time":106.4406249999979,"value":0.6299212598425197},{"number":64,"time":106.4406249999979,"value":0.6299212598425197},{"number":64,"time":106.4531249999979,"value":0.7795275590551181},{"number":64,"time":106.4531249999979,"value":0.7795275590551181},{"number":64,"time":106.4687499999979,"value":0.889763779527559},{"number":64,"time":106.46979166666456,"value":0.889763779527559},{"number":64,"time":106.80104166666457,"value":1},{"number":64,"time":106.80208333333124,"value":1},{"number":64,"time":107.01979166666456,"value":0.8661417322834646},{"number":64,"time":107.02083333333123,"value":0.8661417322834646},{"number":64,"time":107.04791666666456,"value":0.7322834645669292},{"number":64,"time":107.04895833333123,"value":0.7322834645669292},{"number":64,"time":107.06041666666457,"value":0.6456692913385826},{"number":64,"time":107.06145833333123,"value":0.6456692913385826},{"number":64,"time":107.07291666666457,"value":0.6141732283464567},{"number":64,"time":107.07395833333123,"value":0.6141732283464567},{"number":64,"time":107.11979166666457,"value":0.6456692913385826},{"number":64,"time":107.12083333333123,"value":0.6456692913385826},{"number":64,"time":107.1406249999979,"value":0.7559055118110236},{"number":64,"time":107.14166666666456,"value":0.7559055118110236},{"number":64,"time":107.15520833333123,"value":0.8503937007874016},{"number":64,"time":107.1562499999979,"value":0.8503937007874016},{"number":64,"time":107.28333333333123,"value":1},{"number":64,"time":107.2843749999979,"value":1},{"number":64,"time":107.55520833333122,"value":0.8661417322834646},{"number":64,"time":107.55624999999789,"value":0.8661417322834646},{"number":64,"time":107.58333333333123,"value":0.7559055118110236},{"number":64,"time":107.58437499999789,"value":0.7559055118110236},{"number":64,"time":107.6593749999979,"value":0.8503937007874016},{"number":64,"time":107.66041666666456,"value":0.8503937007874016},{"number":64,"time":107.8874999999979,"value":1},{"number":64,"time":107.8874999999979,"value":1},{"number":64,"time":108.05104166666456,"value":0.8661417322834646},{"number":64,"time":108.05208333333123,"value":0.8661417322834646},{"number":64,"time":108.07187499999789,"value":0.7322834645669292},{"number":64,"time":108.07291666666455,"value":0.7322834645669292},{"number":64,"time":108.0812499999979,"value":0.6456692913385826},{"number":64,"time":108.0812499999979,"value":0.6456692913385826},{"number":64,"time":108.08749999999789,"value":0.6141732283464567},{"number":64,"time":108.08749999999789,"value":0.6141732283464567},{"number":64,"time":108.09999999999789,"value":0.5826771653543307},{"number":64,"time":108.10104166666456,"value":0.5826771653543307},{"number":64,"time":108.1593749999979,"value":0.6141732283464567},{"number":64,"time":108.16041666666456,"value":0.6141732283464567},{"number":64,"time":108.16770833333122,"value":0.6456692913385826},{"number":64,"time":108.16770833333122,"value":0.6456692913385826},{"number":64,"time":108.18020833333122,"value":0.7559055118110236},{"number":64,"time":108.18124999999789,"value":0.7559055118110236},{"number":64,"time":108.19687499999789,"value":0.8661417322834646},{"number":64,"time":108.19687499999789,"value":0.8661417322834646},{"number":64,"time":108.28333333333121,"value":1},{"number":64,"time":108.28437499999788,"value":1},{"number":64,"time":108.51145833333119,"value":0.8661417322834646},{"number":64,"time":108.51145833333119,"value":0.8661417322834646},{"number":64,"time":108.5364583333312,"value":0.7322834645669292},{"number":64,"time":108.53749999999786,"value":0.7322834645669292},{"number":64,"time":108.54791666666453,"value":0.6535433070866141},{"number":64,"time":108.5489583333312,"value":0.6535433070866141},{"number":64,"time":108.55937499999787,"value":0.6220472440944882},{"number":64,"time":108.56041666666454,"value":0.6220472440944882},{"number":64,"time":108.6114583333312,"value":0.6535433070866141},{"number":64,"time":108.61249999999787,"value":0.6535433070866141},{"number":64,"time":108.6270833333312,"value":0.7795275590551181},{"number":64,"time":108.62812499999787,"value":0.7795275590551181},{"number":64,"time":108.6520833333312,"value":0.889763779527559},{"number":64,"time":108.6520833333312,"value":0.889763779527559},{"number":64,"time":108.7677083333312,"value":1},{"number":64,"time":108.76874999999787,"value":1},{"number":64,"time":108.96354166666454,"value":0.8661417322834646},{"number":64,"time":108.96354166666454,"value":0.8661417322834646},{"number":64,"time":108.98854166666455,"value":0.7322834645669292},{"number":64,"time":108.98854166666455,"value":0.7322834645669292},{"number":64,"time":108.99999999999788,"value":0.6535433070866141},{"number":64,"time":109.00104166666455,"value":0.6535433070866141},{"number":64,"time":109.00624999999788,"value":0.6220472440944882},{"number":64,"time":109.00729166666454,"value":0.6220472440944882},{"number":64,"time":109.08333333333121,"value":0.7559055118110236},{"number":64,"time":109.08437499999788,"value":0.7559055118110236},{"number":64,"time":109.10312499999787,"value":0.8503937007874016},{"number":64,"time":109.10416666666454,"value":0.8503937007874016},{"number":64,"time":109.19583333333121,"value":1},{"number":64,"time":109.19687499999787,"value":1},{"number":64,"time":109.38229166666454,"value":0.8661417322834646},{"number":64,"time":109.38333333333121,"value":0.8661417322834646},{"number":64,"time":109.41145833333121,"value":0.7559055118110236},{"number":64,"time":109.41145833333121,"value":0.7559055118110236},{"number":64,"time":109.42187499999788,"value":0.6535433070866141},{"number":64,"time":109.42291666666455,"value":0.6535433070866141},{"number":64,"time":109.43749999999788,"value":0.6220472440944882},{"number":64,"time":109.43854166666455,"value":0.6220472440944882},{"number":64,"time":109.47812499999789,"value":0.6535433070866141},{"number":64,"time":109.47916666666455,"value":0.6535433070866141},{"number":64,"time":109.49583333333122,"value":0.7559055118110236},{"number":64,"time":109.49687499999789,"value":0.7559055118110236},{"number":64,"time":109.51145833333122,"value":0.8503937007874016},{"number":64,"time":109.51145833333122,"value":0.8503937007874016},{"number":64,"time":109.80312499999789,"value":1},{"number":64,"time":109.80416666666456,"value":1},{"number":64,"time":109.97395833333123,"value":0.8661417322834646},{"number":64,"time":109.97604166666456,"value":0.8661417322834646},{"number":64,"time":109.99791666666455,"value":0.7322834645669292},{"number":64,"time":109.99895833333122,"value":0.7322834645669292},{"number":64,"time":110.00729166666456,"value":0.6535433070866141},{"number":64,"time":110.00833333333122,"value":0.6535433070866141},{"number":64,"time":110.01354166666455,"value":0.6141732283464567},{"number":64,"time":110.01354166666455,"value":0.6141732283464567},{"number":64,"time":110.02708333333122,"value":0.5826771653543307},{"number":64,"time":110.02812499999789,"value":0.5826771653543307},{"number":64,"time":110.09374999999788,"value":0.6141732283464567},{"number":64,"time":110.09479166666455,"value":0.6141732283464567},{"number":64,"time":110.10520833333122,"value":0.6535433070866141},{"number":64,"time":110.10624999999789,"value":0.6535433070866141},{"number":64,"time":110.11770833333122,"value":0.7559055118110236},{"number":64,"time":110.11874999999789,"value":0.7559055118110236},{"number":64,"time":110.13020833333123,"value":0.8503937007874016},{"number":64,"time":110.13020833333123,"value":0.8503937007874016},{"number":64,"time":110.2499999999979,"value":1},{"number":64,"time":110.2499999999979,"value":1},{"number":64,"time":110.4374999999979,"value":0.8661417322834646},{"number":64,"time":110.43854166666456,"value":0.8661417322834646},{"number":64,"time":110.46145833333122,"value":0.7559055118110236},{"number":64,"time":110.46249999999789,"value":0.7559055118110236},{"number":64,"time":110.46979166666455,"value":0.6614173228346457},{"number":64,"time":110.47083333333121,"value":0.6614173228346457},{"number":64,"time":110.48124999999789,"value":0.6220472440944882},{"number":64,"time":110.48229166666455,"value":0.6220472440944882},{"number":64,"time":110.49374999999789,"value":0.5905511811023622},{"number":64,"time":110.49479166666455,"value":0.5905511811023622},{"number":64,"time":110.5499999999979,"value":0.6220472440944882},{"number":64,"time":110.5499999999979,"value":0.6220472440944882},{"number":64,"time":110.5624999999979,"value":0.6535433070866141},{"number":64,"time":110.56354166666456,"value":0.6535433070866141},{"number":64,"time":110.57395833333123,"value":0.7559055118110236},{"number":64,"time":110.57395833333123,"value":0.7559055118110236},{"number":64,"time":110.58958333333123,"value":0.8503937007874016},{"number":64,"time":110.5906249999979,"value":0.8503937007874016},{"number":64,"time":110.67395833333123,"value":1},{"number":64,"time":110.67395833333123,"value":1},{"number":64,"time":110.85729166666457,"value":0.8661417322834646},{"number":64,"time":110.85833333333123,"value":0.8661417322834646},{"number":64,"time":110.8812499999979,"value":0.7322834645669292},{"number":64,"time":110.88229166666457,"value":0.7322834645669292},{"number":64,"time":110.88958333333123,"value":0.6535433070866141},{"number":64,"time":110.8906249999979,"value":0.6535433070866141},{"number":64,"time":110.90104166666457,"value":0.6141732283464567},{"number":64,"time":110.90208333333123,"value":0.6141732283464567},{"number":64,"time":110.9218749999979,"value":0.5748031496062992},{"number":64,"time":110.92291666666456,"value":0.5748031496062992},{"number":64,"time":110.95729166666456,"value":0.6062992125984252},{"number":64,"time":110.95729166666456,"value":0.6062992125984252},{"number":64,"time":110.97395833333123,"value":0.6456692913385826},{"number":64,"time":110.97499999999789,"value":0.6456692913385826},{"number":64,"time":110.98958333333123,"value":0.7559055118110236},{"number":64,"time":110.99062499999789,"value":0.7559055118110236},{"number":64,"time":111.00520833333123,"value":0.8503937007874016},{"number":64,"time":111.00624999999789,"value":0.8503937007874016},{"number":64,"time":111.11770833333122,"value":1},{"number":64,"time":111.11874999999789,"value":1},{"number":64,"time":111.30520833333122,"value":0.8661417322834646},{"number":64,"time":111.30624999999789,"value":0.8661417322834646},{"number":64,"time":111.33333333333123,"value":0.7322834645669292},{"number":64,"time":111.33437499999789,"value":0.7322834645669292},{"number":64,"time":111.34583333333123,"value":0.6535433070866141},{"number":64,"time":111.34583333333123,"value":0.6535433070866141},{"number":64,"time":111.36145833333123,"value":0.6220472440944882},{"number":64,"time":111.3624999999979,"value":0.6220472440944882},{"number":64,"time":111.40520833333123,"value":0.6535433070866141},{"number":64,"time":111.4062499999979,"value":0.6535433070866141},{"number":64,"time":111.4249999999979,"value":0.7559055118110236},{"number":64,"time":111.42604166666456,"value":0.7559055118110236},{"number":64,"time":111.44583333333122,"value":0.8503937007874016},{"number":64,"time":111.44687499999789,"value":0.8503937007874016},{"number":64,"time":111.62499999999788,"value":1},{"number":64,"time":111.62604166666455,"value":1},{"number":64,"time":111.81249999999787,"value":0.8661417322834646},{"number":64,"time":111.81354166666453,"value":0.8661417322834646},{"number":64,"time":111.8333333333312,"value":0.7322834645669292},{"number":64,"time":111.8333333333312,"value":0.7322834645669292},{"number":64,"time":111.8458333333312,"value":0.6456692913385826},{"number":64,"time":111.84687499999787,"value":0.6456692913385826},{"number":64,"time":111.85312499999786,"value":0.6141732283464567},{"number":64,"time":111.85416666666453,"value":0.6141732283464567},{"number":64,"time":111.86562499999786,"value":0.5826771653543307},{"number":64,"time":111.86666666666453,"value":0.5826771653543307},{"number":64,"time":111.93333333333119,"value":0.6220472440944882},{"number":64,"time":111.93437499999786,"value":0.6220472440944882},{"number":64,"time":111.95312499999785,"value":0.7322834645669292},{"number":64,"time":111.95416666666452,"value":0.7322834645669292},{"number":64,"time":111.96979166666452,"value":0.8267716535433071},{"number":64,"time":111.97083333333119,"value":0.8267716535433071},{"number":64,"time":112.06041666666451,"value":0.937007874015748},{"number":64,"time":112.06145833333117,"value":0.937007874015748},{"number":64,"time":112.12395833333119,"value":1},{"number":64,"time":112.12499999999785,"value":1},{"number":64,"time":112.28437499999785,"value":0.8661417322834646},{"number":64,"time":112.28541666666452,"value":0.8661417322834646},{"number":64,"time":112.30416666666451,"value":0.7559055118110236},{"number":64,"time":112.30520833333118,"value":0.7559055118110236},{"number":64,"time":112.31354166666452,"value":0.6614173228346457},{"number":64,"time":112.31458333333119,"value":0.6614173228346457},{"number":64,"time":112.32083333333118,"value":0.6299212598425197},{"number":64,"time":112.32291666666451,"value":0.6299212598425197},{"number":64,"time":112.33333333333118,"value":0.5984251968503937},{"number":64,"time":112.33437499999785,"value":0.5984251968503937},{"number":64,"time":112.34895833333118,"value":0.5669291338582677},{"number":64,"time":112.34895833333118,"value":0.5669291338582677},{"number":64,"time":112.39999999999785,"value":0.5984251968503937},{"number":64,"time":112.40104166666451,"value":0.5984251968503937},{"number":64,"time":112.41666666666451,"value":0.6299212598425197},{"number":64,"time":112.41770833333118,"value":0.6299212598425197},{"number":64,"time":112.43229166666451,"value":0.7559055118110236},{"number":64,"time":112.43333333333118,"value":0.7559055118110236},{"number":64,"time":112.45312499999784,"value":0.8503937007874016},{"number":64,"time":112.4541666666645,"value":0.8503937007874016},{"number":64,"time":112.54479166666451,"value":1},{"number":64,"time":112.54583333333117,"value":1},{"number":64,"time":112.70833333333117,"value":0.8661417322834646},{"number":64,"time":112.70833333333117,"value":0.8661417322834646},{"number":64,"time":112.73333333333117,"value":0.7322834645669292},{"number":64,"time":112.73437499999784,"value":0.7322834645669292},{"number":64,"time":112.74062499999783,"value":0.6535433070866141},{"number":64,"time":112.7416666666645,"value":0.6535433070866141},{"number":64,"time":112.75208333333117,"value":0.6141732283464567},{"number":64,"time":112.75312499999784,"value":0.6141732283464567},{"number":64,"time":112.8166666666645,"value":0.6456692913385826},{"number":64,"time":112.81770833333117,"value":0.6456692913385826},{"number":64,"time":112.8322916666645,"value":0.7559055118110236},{"number":64,"time":112.83333333333117,"value":0.7559055118110236},{"number":64,"time":112.8447916666645,"value":0.8503937007874016},{"number":64,"time":112.84583333333117,"value":0.8503937007874016},{"number":64,"time":112.9479166666645,"value":1},{"number":64,"time":112.94895833333116,"value":1},{"number":64,"time":113.15208333333116,"value":0.8661417322834646},{"number":64,"time":113.15312499999783,"value":0.8661417322834646},{"number":64,"time":113.1760416666645,"value":0.7322834645669292},{"number":64,"time":113.17708333333117,"value":0.7322834645669292},{"number":64,"time":113.1885416666645,"value":0.6456692913385826},{"number":64,"time":113.18958333333117,"value":0.6456692913385826},{"number":64,"time":113.19687499999783,"value":0.6141732283464567},{"number":64,"time":113.1979166666645,"value":0.6141732283464567},{"number":64,"time":113.22083333333116,"value":0.5826771653543307},{"number":64,"time":113.22083333333116,"value":0.5826771653543307},{"number":64,"time":113.25624999999782,"value":0.6141732283464567},{"number":64,"time":113.25729166666449,"value":0.6141732283464567},{"number":64,"time":113.26874999999782,"value":0.6456692913385826},{"number":64,"time":113.26979166666449,"value":0.6456692913385826},{"number":64,"time":113.28437499999782,"value":0.7795275590551181},{"number":64,"time":113.28541666666449,"value":0.7795275590551181},{"number":64,"time":113.30416666666449,"value":0.889763779527559},{"number":64,"time":113.30520833333115,"value":0.889763779527559},{"number":64,"time":113.44791666666448,"value":1},{"number":64,"time":113.44895833333115,"value":1},{"number":64,"time":113.6687499999978,"value":0.8661417322834646},{"number":64,"time":113.66979166666447,"value":0.8661417322834646},{"number":64,"time":113.68854166666446,"value":0.7322834645669292},{"number":64,"time":113.68958333333113,"value":0.7322834645669292},{"number":64,"time":113.70104166666447,"value":0.6377952755905512},{"number":64,"time":113.70208333333113,"value":0.6377952755905512},{"number":64,"time":113.70833333333113,"value":0.6062992125984252},{"number":64,"time":113.70833333333113,"value":0.6062992125984252},{"number":64,"time":113.72083333333113,"value":0.5748031496062992},{"number":64,"time":113.72083333333113,"value":0.5748031496062992},{"number":64,"time":113.76041666666447,"value":0.5433070866141733},{"number":64,"time":113.76145833333113,"value":0.5433070866141733},{"number":64,"time":113.78020833333113,"value":0.5748031496062992},{"number":64,"time":113.7812499999978,"value":0.5748031496062992},{"number":64,"time":113.7968749999978,"value":0.6062992125984252},{"number":64,"time":113.7968749999978,"value":0.6062992125984252},{"number":64,"time":113.80416666666446,"value":0.6377952755905512},{"number":64,"time":113.80520833333112,"value":0.6377952755905512},{"number":64,"time":113.81666666666446,"value":0.7322834645669292},{"number":64,"time":113.81770833333113,"value":0.7322834645669292},{"number":64,"time":113.83229166666446,"value":0.8267716535433071},{"number":64,"time":113.83229166666446,"value":0.8267716535433071},{"number":64,"time":113.91666666666445,"value":0.937007874015748},{"number":64,"time":113.91770833333112,"value":0.937007874015748},{"number":64,"time":113.96458333333112,"value":1},{"number":64,"time":113.96562499999779,"value":1},{"number":64,"time":114.16458333333112,"value":0.8661417322834646},{"number":64,"time":114.16562499999779,"value":0.8661417322834646},{"number":64,"time":114.18854166666445,"value":0.7559055118110236},{"number":64,"time":114.18958333333111,"value":0.7559055118110236},{"number":64,"time":114.19687499999777,"value":0.6614173228346457},{"number":64,"time":114.19687499999777,"value":0.6614173228346457},{"number":64,"time":114.20520833333111,"value":0.6299212598425197},{"number":64,"time":114.20624999999778,"value":0.6299212598425197},{"number":64,"time":114.21666666666445,"value":0.5905511811023622},{"number":64,"time":114.21770833333112,"value":0.5905511811023622},{"number":64,"time":114.28437499999778,"value":0.6220472440944882},{"number":64,"time":114.28541666666445,"value":0.6220472440944882},{"number":64,"time":114.30416666666446,"value":0.7322834645669292},{"number":64,"time":114.30520833333112,"value":0.7322834645669292},{"number":64,"time":114.31979166666446,"value":0.8267716535433071},{"number":64,"time":114.32083333333112,"value":0.8267716535433071},{"number":64,"time":114.38854166666445,"value":0.937007874015748},{"number":64,"time":114.38958333333112,"value":0.937007874015748},{"number":64,"time":114.41666666666444,"value":1},{"number":64,"time":114.4177083333311,"value":1},{"number":64,"time":114.61979166666444,"value":0.8661417322834646},{"number":64,"time":114.61979166666444,"value":0.8661417322834646},{"number":64,"time":114.64062499999777,"value":0.7559055118110236},{"number":64,"time":114.64166666666443,"value":0.7559055118110236},{"number":64,"time":114.6520833333311,"value":0.6535433070866141},{"number":64,"time":114.65312499999777,"value":0.6535433070866141},{"number":64,"time":114.66354166666444,"value":0.6220472440944882},{"number":64,"time":114.66458333333111,"value":0.6220472440944882},{"number":64,"time":114.74687499999777,"value":0.7559055118110236},{"number":64,"time":114.74791666666444,"value":0.7559055118110236},{"number":64,"time":114.7677083333311,"value":0.8503937007874016},{"number":64,"time":114.76874999999777,"value":0.8503937007874016},{"number":64,"time":114.87187499999777,"value":1},{"number":64,"time":114.87291666666444,"value":1},{"number":64,"time":115.14687499999778,"value":0.8661417322834646},{"number":64,"time":115.14791666666444,"value":0.8661417322834646},{"number":64,"time":115.16874999999777,"value":0.7559055118110236},{"number":64,"time":115.16979166666444,"value":0.7559055118110236},{"number":64,"time":115.17916666666444,"value":0.6535433070866141},{"number":64,"time":115.18020833333111,"value":0.6535433070866141},{"number":64,"time":115.19166666666445,"value":0.6141732283464567},{"number":64,"time":115.19270833333111,"value":0.6141732283464567},{"number":64,"time":115.21249999999777,"value":0.5826771653543307},{"number":64,"time":115.21354166666444,"value":0.5826771653543307},{"number":64,"time":115.24687499999777,"value":0.6141732283464567},{"number":64,"time":115.24791666666444,"value":0.6141732283464567},{"number":64,"time":115.26354166666444,"value":0.6456692913385826},{"number":64,"time":115.26354166666444,"value":0.6456692913385826},{"number":64,"time":115.2802083333311,"value":0.7559055118110236},{"number":64,"time":115.2802083333311,"value":0.7559055118110236},{"number":64,"time":115.2989583333311,"value":0.8503937007874016},{"number":64,"time":115.29999999999777,"value":0.8503937007874016},{"number":64,"time":115.54687499999775,"value":1},{"number":64,"time":115.54791666666442,"value":1},{"number":64,"time":115.71874999999775,"value":0.8661417322834646},{"number":64,"time":115.71979166666442,"value":0.8661417322834646},{"number":64,"time":115.73958333333108,"value":0.7322834645669292},{"number":64,"time":115.74062499999775,"value":0.7322834645669292},{"number":64,"time":115.74687499999774,"value":0.6456692913385826},{"number":64,"time":115.74791666666441,"value":0.6456692913385826},{"number":64,"time":115.75520833333107,"value":0.6141732283464567},{"number":64,"time":115.75520833333107,"value":0.6141732283464567},{"number":64,"time":115.76458333333107,"value":0.5826771653543307},{"number":64,"time":115.76458333333107,"value":0.5826771653543307},{"number":64,"time":115.77499999999775,"value":0.5433070866141733},{"number":64,"time":115.77604166666441,"value":0.5433070866141733},{"number":64,"time":115.79166666666441,"value":0.5039370078740157},{"number":64,"time":115.79166666666441,"value":0.5039370078740157},{"number":64,"time":115.82291666666441,"value":0.5354330708661418},{"number":64,"time":115.82395833333108,"value":0.5354330708661418},{"number":64,"time":115.83958333333108,"value":0.5669291338582677},{"number":64,"time":115.84062499999774,"value":0.5669291338582677},{"number":64,"time":115.85520833333108,"value":0.5984251968503937},{"number":64,"time":115.85520833333108,"value":0.5984251968503937},{"number":64,"time":115.86354166666442,"value":0.6299212598425197},{"number":64,"time":115.86458333333108,"value":0.6299212598425197},{"number":64,"time":115.87916666666442,"value":0.7559055118110236},{"number":64,"time":115.87916666666442,"value":0.7559055118110236},{"number":64,"time":115.89166666666442,"value":0.8503937007874016},{"number":64,"time":115.89166666666442,"value":0.8503937007874016},{"number":64,"time":116.04374999999774,"value":1},{"number":64,"time":116.04479166666441,"value":1},{"number":64,"time":116.25937499999775,"value":0.8661417322834646},{"number":64,"time":116.26041666666441,"value":0.8661417322834646},{"number":64,"time":116.28333333333109,"value":0.7322834645669292},{"number":64,"time":116.28437499999775,"value":0.7322834645669292},{"number":64,"time":116.29583333333109,"value":0.6456692913385826},{"number":64,"time":116.29687499999775,"value":0.6456692913385826},{"number":64,"time":116.30729166666443,"value":0.6141732283464567},{"number":64,"time":116.30833333333109,"value":0.6141732283464567},{"number":64,"time":116.37187499999776,"value":0.6456692913385826},{"number":64,"time":116.37187499999776,"value":0.6456692913385826},{"number":64,"time":116.38749999999776,"value":0.7559055118110236},{"number":64,"time":116.38854166666442,"value":0.7559055118110236},{"number":64,"time":116.40312499999776,"value":0.8661417322834646},{"number":64,"time":116.40416666666442,"value":0.8661417322834646},{"number":64,"time":116.51562499999775,"value":1},{"number":64,"time":116.51666666666442,"value":1},{"number":64,"time":116.85937499999773,"value":0.8661417322834646},{"number":64,"time":116.86041666666439,"value":0.8661417322834646},{"number":64,"time":116.88333333333107,"value":0.7322834645669292},{"number":64,"time":116.88437499999773,"value":0.7322834645669292},{"number":64,"time":116.89166666666439,"value":0.6535433070866141},{"number":64,"time":116.89270833333106,"value":0.6535433070866141},{"number":64,"time":116.89895833333105,"value":0.6220472440944882},{"number":64,"time":116.89999999999772,"value":0.6220472440944882},{"number":64,"time":116.91145833333105,"value":0.5905511811023622},{"number":64,"time":116.91249999999772,"value":0.5905511811023622},{"number":64,"time":116.97083333333106,"value":0.6220472440944882},{"number":64,"time":116.97187499999772,"value":0.6220472440944882},{"number":64,"time":116.98333333333106,"value":0.6535433070866141},{"number":64,"time":116.98437499999773,"value":0.6535433070866141},{"number":64,"time":116.9947916666644,"value":0.7559055118110236},{"number":64,"time":116.99583333333106,"value":0.7559055118110236},{"number":64,"time":117.01562499999773,"value":0.8503937007874016},{"number":64,"time":117.01562499999773,"value":0.8503937007874016},{"number":64,"time":117.34270833333105,"value":1},{"number":64,"time":117.34270833333105,"value":1},{"number":64,"time":117.60624999999771,"value":0.8661417322834646},{"number":64,"time":117.60729166666438,"value":0.8661417322834646},{"number":64,"time":117.63020833333104,"value":0.7322834645669292},{"number":64,"time":117.6312499999977,"value":0.7322834645669292},{"number":64,"time":117.63958333333105,"value":0.6535433070866141},{"number":64,"time":117.64062499999771,"value":0.6535433070866141},{"number":64,"time":117.64583333333104,"value":0.6220472440944882},{"number":64,"time":117.6468749999977,"value":0.6220472440944882},{"number":64,"time":117.65833333333104,"value":0.5905511811023622},{"number":64,"time":117.65937499999771,"value":0.5905511811023622},{"number":64,"time":117.71562499999771,"value":0.6220472440944882},{"number":64,"time":117.71666666666438,"value":0.6220472440944882},{"number":64,"time":117.73437499999771,"value":0.7559055118110236},{"number":64,"time":117.73541666666438,"value":0.7559055118110236},{"number":64,"time":117.74583333333105,"value":0.8503937007874016},{"number":64,"time":117.74687499999771,"value":0.8503937007874016},{"number":64,"time":117.81145833333105,"value":1},{"number":64,"time":117.81249999999771,"value":1},{"number":64,"time":119.5260416666644,"value":0.8661417322834646},{"number":64,"time":119.5260416666644,"value":0.8661417322834646},{"number":64,"time":119.54583333333106,"value":0.7322834645669292},{"number":64,"time":119.54687499999773,"value":0.7322834645669292},{"number":64,"time":119.55520833333107,"value":0.6377952755905512},{"number":64,"time":119.55624999999773,"value":0.6377952755905512},{"number":64,"time":119.56249999999773,"value":0.5984251968503937},{"number":64,"time":119.56354166666439,"value":0.5984251968503937},{"number":64,"time":119.57395833333106,"value":0.5590551181102362},{"number":64,"time":119.57499999999773,"value":0.5590551181102362},{"number":64,"time":119.58645833333107,"value":0.5275590551181102},{"number":64,"time":119.58749999999773,"value":0.5275590551181102},{"number":64,"time":119.63437499999773,"value":0.5590551181102362},{"number":64,"time":119.6354166666644,"value":0.5590551181102362},{"number":64,"time":119.6541666666644,"value":0.5905511811023622},{"number":64,"time":119.65520833333106,"value":0.5905511811023622},{"number":64,"time":119.66562499999773,"value":0.6299212598425197},{"number":64,"time":119.6666666666644,"value":0.6299212598425197},{"number":64,"time":119.6822916666644,"value":0.7559055118110236},{"number":64,"time":119.68333333333106,"value":0.7559055118110236},{"number":64,"time":119.6979166666644,"value":0.8503937007874016},{"number":64,"time":119.69895833333106,"value":0.8503937007874016},{"number":64,"time":125.84583333333106,"value":0.7559055118110236},{"number":64,"time":125.84687499999772,"value":0.7559055118110236},{"number":64,"time":125.95416666666439,"value":0.6614173228346457},{"number":64,"time":125.95520833333106,"value":0.6614173228346457},{"number":64,"time":126.01770833333106,"value":0.6299212598425197},{"number":64,"time":126.01770833333106,"value":0.6299212598425197},{"number":64,"time":126.03854166666439,"value":0.5984251968503937},{"number":64,"time":126.03958333333105,"value":0.5984251968503937},{"number":64,"time":126.07083333333105,"value":0.5669291338582677},{"number":64,"time":126.07083333333105,"value":0.5669291338582677},{"number":64,"time":126.12187499999771,"value":0.5354330708661418},{"number":64,"time":126.12291666666438,"value":0.5354330708661418},{"number":64,"time":126.15416666666438,"value":0.5039370078740157},{"number":64,"time":126.15520833333105,"value":0.5039370078740157},{"number":64,"time":126.17395833333104,"value":0.47244094488188976},{"number":64,"time":126.17499999999771,"value":0.47244094488188976},{"number":64,"time":126.21770833333105,"value":0.3779527559055118},{"number":64,"time":126.21770833333105,"value":0.3779527559055118},{"number":64,"time":126.28229166666438,"value":0.2755905511811024},{"number":64,"time":126.28229166666438,"value":0.2755905511811024},{"number":64,"time":126.32604166666438,"value":0.18110236220472442},{"number":64,"time":126.32708333333105,"value":0.18110236220472442},{"number":64,"time":126.35416666666438,"value":0.05511811023622047},{"number":64,"time":126.35520833333105,"value":0.05511811023622047},{"number":64,"time":126.36562499999772,"value":0},{"number":64,"time":126.36666666666439,"value":0}]},"id":0,"name":"MIDI from piano","channelNumber":0,"isPercussion":false}]}